<svg width="32" height="7" fill="none" xmlns="http://www.w3.org/2000/svg"><path d="M29.764 1.544a2.22 2.22 0 011.583.671c.42.43.655 1.011.656 1.618 0 .607-.236 1.189-.656 1.618-.42.429-.989.67-1.583.67H3.13a2.2 2.2 0 01-.858-.173 2.234 2.234 0 01-.726-.496 2.29 2.29 0 01-.486-.743 2.33 2.33 0 01.486-2.494c.42-.43.99-.67 1.584-.67h26.634z" fill="#C4B697"/><path d="M.43 3.832c0 .731.284 1.432.79 1.95a2.668 2.668 0 001.907.807h14.64a.45.45 0 00.382-.212.473.473 0 00.035-.447 35.899 35.899 0 01-1.303-3.766l-.026-.083c-.07-.229-.14-.46-.219-.692a.47.47 0 00-.168-.228.455.455 0 00-.266-.086H3.127c-.354 0-.705.071-1.032.21a2.694 2.694 0 00-.875.597c-.25.256-.45.56-.585.895A2.81 2.81 0 00.43 3.832z" fill="#7F4218"/><path d="M2.428 5.222c.24-.276.847-.146 1.35.303.5.45.73 1.045.493 1.33-.238.283-.847.145-1.349-.304-.502-.45-.736-1.045-.494-1.33zm-.707-3.058c.157-.276.756-.207 1.333.146s.923.855.766 1.125c-.156.27-.753.207-1.332-.143-.58-.35-.923-.855-.767-1.128zm7.302 1.561c.157-.276.753-.207 1.333.146s.922.855.766 1.125c-.156.27-.755.206-1.335-.144s-.923-.854-.764-1.127zM4.262 4.781c-.016-.314.515-.601 1.187-.637.672-.036 1.233.188 1.249.502.016.314-.515.598-1.19.637-.674.038-1.23-.188-1.246-.502zM.83 2.633l-.02.02c-.278.254-.536.53-.77.827l.083.055c.58.35 1.176.414 1.332.143.157-.27-.135-.7-.626-1.045zm10.065-.648v.028a7.383 7.383 0 00-.313 1.09h.1c.65.038 1.22-.183 1.235-.514.017-.33-.431-.535-1.022-.604zm-8.088-.336c-.124-.276.108-.662.518-.852.41-.19.844-.118.968.16s-.105.664-.518.855c-.412.19-.844.118-.968-.163zm3.903 0c-.125-.276.107-.662.517-.852.41-.19.844-.118.971.16s-.108.664-.52.855c-.413.19-.845.118-.969-.163zM4.359 2.746c.011.211.06.418.143.612.03.058.052.119.067.182a1.82 1.82 0 00.345-.102c.75-.298 1.212-.951 1.02-1.467L4.34 2.59l.019.157zM.242 4.924c.227.392.874.488 1.49.204.614-.284.968-.84.838-1.273L.242 4.925zm6.313-1.878c.224.392.874.488 1.489.204.615-.284.979-.827.839-1.273l-2.328 1.07zm1.718 2.421c0 .552.57 1.067 1.35 1.189.779.12 1.467-.19 1.618-.715l-2.968-.474z" fill="#E5AE73"/></svg>