<svg width="32" height="8" fill="none" xmlns="http://www.w3.org/2000/svg"><path d="M29.76 1.722c.594 0 1.163.242 1.583.671.42.43.655 1.01.656 1.617 0 .607-.236 1.19-.655 1.619-.42.429-.99.67-1.584.67H3.126c-.294 0-.586-.059-.858-.174a2.234 2.234 0 01-.726-.496 2.29 2.29 0 01-.486-.742 2.33 2.33 0 01.486-2.495c.42-.429.99-.67 1.584-.67H29.76z" fill="#C4B697"/><path d="M14.89 1.254H3.128c-.715 0-1.401.29-1.907.807a2.788 2.788 0 00-.79 1.95c0 .73.284 1.432.79 1.95a2.668 2.668 0 001.907.807h12.878c.64-1.966.275-4.136-1.114-5.514z" fill="#592D0D"/><path d="M9.073 5.005c.194 0 .383.059.544.169.161.11.286.266.36.449a1.021 1.021 0 01-.212 1.09.96.96 0 01-1.067.217.984.984 0 01-.44-.368 1.017 1.017 0 01.123-1.264.969.969 0 01.692-.293zm-1.352-3.17c.194 0 .383.059.544.169.161.11.287.266.361.45a1.021 1.021 0 01-.212 1.09.96.96 0 01-1.067.217.984.984 0 01-.44-.369 1.017 1.017 0 01.122-1.264.969.969 0 01.692-.293z" fill="#E29059"/><path d="M11.194.732c.194 0 .383.058.544.168a1.021 1.021 0 01.148 1.54.96.96 0 01-1.067.217.984.984 0 01-.44-.368 1.017 1.017 0 01.123-1.264.979.979 0 01.692-.293zm1.922 4.825c.194 0 .383.059.544.169a1 1 0 01.36.449 1.021 1.021 0 01-.212 1.09.96.96 0 01-1.067.217.984.984 0 01-.44-.368 1.017 1.017 0 01.123-1.264.969.969 0 01.692-.293zM4.217 3.765c.194 0 .383.059.544.169.161.11.287.266.361.449a1.021 1.021 0 01-.212 1.09.96.96 0 01-1.067.217.984.984 0 01-.44-.368 1.017 1.017 0 01.122-1.264.969.969 0 01.692-.293z" fill="#E5AE89"/><path d="M.98 2.662a.985.985 0 01.903.618 1.021 1.021 0 01-.211 1.09.96.96 0 01-1.067.217.984.984 0 01-.44-.368 1.017 1.017 0 01.122-1.263.969.969 0 01.692-.294z" fill="#E29059"/><path d="M4.757.043c.193 0 .383.059.544.169a1.021 1.021 0 01.148 1.54.96.96 0 01-1.067.217.984.984 0 01-.44-.369A1.017 1.017 0 014.064.336a.978.978 0 01.693-.293z" fill="#E5AE89"/></svg>