<svg width="32" height="7" fill="none" xmlns="http://www.w3.org/2000/svg"><path d="M29.76 5.776c.594 0 1.164-.24 1.583-.67.42-.429.656-1.011.656-1.618 0-.607-.237-1.188-.656-1.617A2.217 2.217 0 0029.76 1.2H3.126c-.594 0-1.164.24-1.584.67a2.33 2.33 0 00-.486 2.494c.113.278.278.53.486.743a2.194 2.194 0 001.584.67H29.76z" fill="#C4B697"/><path d="M.43 3.488c0-.731.284-1.432.79-1.95A2.668 2.668 0 013.127.732h14.64a.45.45 0 01.382.212.469.469 0 01.035.447 36.182 36.182 0 00-1.303 3.769l-.026.083c-.07.226-.14.457-.219.689a.47.47 0 01-.168.227.455.455 0 01-.266.087H3.127c-.715 0-1.401-.29-1.907-.807a2.788 2.788 0 01-.79-1.95z" fill="#7F4218"/><path d="M11.869 2.584c-.54-.932-1.662-2.697-2.967-2.275-1.743.551 1.653 4.017 1.826 5.238a5.158 5.158 0 01-2.05-1.508c-.586-.73-1.036-1.59-1.58-2.37-.373-.53-1.733-2.206-2.534-1.506-.596.524.062 1.742.302 2.291.364.827.885 1.55 1.322 2.335.148.265.276.542.38.827l.033.113c-.396-.37-.773-.762-1.128-1.174-.887-.957-1.796-2.253-2.967-2.887-1.014-.551-1.268.513-1.052 1.296.171.565.408 1.108.704 1.616.27.49.89 1.199.877 1.77 0 .091.035.179.098.243a.334.334 0 00.477 0 .349.349 0 00.1-.243c.023-.907-.84-1.831-1.231-2.625-.07-.14-.634-1.55-.37-1.483.508.13.98.747 1.328 1.12.879.917 1.688 1.89 2.59 2.764.466.453 1.324.759 1.291-.237-.027-.904-.782-1.866-1.24-2.591a8.273 8.273 0 01-1.01-2.228c-.04-.146 0-.358-.113-.347.332-.033.79.435.998.634.629.587 1.06 1.414 1.522 2.142a6.506 6.506 0 003.41 2.837.336.336 0 00.38-.157c.615-.827-.489-2.162-.926-2.801C10.151 3.102 8.853.976 9.215.946c.809-.06 1.475 1.04 1.845 1.602.45.686.839 1.411 1.29 2.098.406.628 1.887 2.222 2.759 1.742 1.772-.962-1.735-3.846-1.177-5.067.365-.808 1.8 1.265 1.983 1.538.54.74.969 1.517 1.433 2.283.229.378.809.033.582-.347-.494-.827-.968-1.654-1.518-2.42-.497-.707-1.212-1.81-2.115-1.94-.869-.118-1.166.867-1.004 1.564.273 1.202 1.176 2.15 1.543 3.339.291.937-1.028-.13-1.26-.353-.72-.698-1.19-1.541-1.707-2.401z" fill="#592D0D"/></svg>