<svg width="20" height="20" fill="none" xmlns="http://www.w3.org/2000/svg"><path d="M9.934 12.766a1.788 1.788 0 100-3.577 1.788 1.788 0 000 3.577z" fill="#CFCFCF"/><path d="M15.956 6.229h-2.494l-.167-.823a1.789 1.789 0 00-1.752-1.432H8.69a1.788 1.788 0 00-1.737 1.375l-.209.88h-1.88c.076.126.126.266.148.411a1.192 1.192 0 010 2.356 1.192 1.192 0 01-2.355 0 1.12 1.12 0 01-.41-.147v5.327a1.788 1.788 0 001.787 1.788h11.922a1.788 1.788 0 001.788-1.788v-6.16a1.788 1.788 0 00-1.788-1.787zm-6.023 7.729a2.98 2.98 0 110-5.962 2.98 2.98 0 010 5.962zm5.762-5.166h-1.788a.596.596 0 010-1.192h1.788a.596.596 0 110 1.192z" fill="#CFCFCF"/><path d="M4.829 7.223h-.397v-.397a.596.596 0 10-1.192 0v.397h-.398a.596.596 0 100 1.192h.398v.397a.596.596 0 001.192 0v-.397h.397a.596.596 0 000-1.192z" fill="#CFCFCF"/></svg>