<svg width="16" height="16" fill="none" xmlns="http://www.w3.org/2000/svg"><path d="M7.646 13.646l.707.707 6-6a4.04 4.04 0 000-5.707 4.039 4.039 0 00-5.707 0l-6.5 6.5a3.332 3.332 0 000 4.707 3.32 3.32 0 002.354.974c.853 0 1.705-.325 2.354-.974l6-6A2.603 2.603 0 0013.621 6c0-.7-.272-1.358-.768-1.854-.99-.99-2.717-.99-3.707 0l-5.5 5.5.707.707 5.5-5.5c.611-.611 1.682-.611 2.293 0 .306.306.475.713.475 1.147 0 .434-.169.841-.475 1.146l-6 6a2.33 2.33 0 01-3.293 0 2.33 2.33 0 010-3.293l6.5-6.5a3.038 3.038 0 014.293 0 3.038 3.038 0 010 4.293l-6 6z" fill="#3B6D9A"/></svg>