<svg width="19" height="19" fill="none" xmlns="http://www.w3.org/2000/svg"><g clip-path="url(#clip0_381_30814)"><path d="M16.977 14.852l-5.455-5.455 5.455-5.455a1.5 1.5 0 000-2.126 1.5 1.5 0 00-2.126 0L9.396 7.271 3.94 1.816a1.5 1.5 0 00-2.126 0 1.5 1.5 0 000 2.126L7.27 9.397l-5.455 5.455a1.5 1.5 0 000 2.126 1.5 1.5 0 002.126 0l5.455-5.455 5.455 5.455a1.5 1.5 0 002.126 0 1.508 1.508 0 000-2.126z" fill="#888"/></g><defs><clipPath id="clip0_381_30814"><path fill="#fff" d="M0 0h19v19H0z"/></clipPath></defs></svg>