<svg width="12" height="12" fill="none" xmlns="http://www.w3.org/2000/svg"><path d="M11 1.125H9.375v-.75a.375.375 0 10-.75 0v.75h-2.25v-.75a.375.375 0 10-.75 0v.75h-2.25v-.75a.375.375 0 10-.75 0v.75H1a1 1 0 00-1 1V11a1 1 0 001 1h10a1 1 0 001-1V2.125a1 1 0 00-1-1zM11.25 11a.25.25 0 01-.25.25H1A.25.25 0 01.75 11V2.125a.25.25 0 01.25-.25h1.625v.75a.375.375 0 10.75 0v-.75h2.25v.75a.375.375 0 10.75 0v-.75h2.25v.75a.375.375 0 10.75 0v-.75H11a.25.25 0 01.25.25V11z" fill="#888"/><path d="M4.125 4.5h-1.5v1.125h1.5V4.5zm0 1.875h-1.5V7.5h1.5V6.375zm0 1.875h-1.5v1.125h1.5V8.25zm2.625 0h-1.5v1.125h1.5V8.25zm0-1.875h-1.5V7.5h1.5V6.375zm0-1.875h-1.5v1.125h1.5V4.5zm2.625 3.75h-1.5v1.125h1.5V8.25zm0-1.875h-1.5V7.5h1.5V6.375zm0-1.875h-1.5v1.125h1.5V4.5z" fill="#888"/></svg>