<svg width="104" height="104" fill="none" xmlns="http://www.w3.org/2000/svg"><path d="M62.896 10.502L38.07 14.835v85.359l24.826-4.29V10.502z" fill="#525C6B"/><path d="M57.082 71.79H16.043v17.89h41.039V71.79z" fill="#2BA0BF"/><path d="M55.457 28.355H17.668v41.812h37.789V28.355z" fill="#F1BB6B"/><path d="M16.043 26.73v45.06h41.039V26.73H16.043zm35.882 3.25L19.293 65.808V29.98h32.632zM21.202 68.54l32.632-35.826V68.54H21.202z" fill="#E49A61"/><path d="M16.042 10.833H0V104h16.042V10.833z" fill="#DB5743"/><path d="M16.043 104V10.833L78.751 0v93.165l-15.854 2.738V10.502l-24.825 4.333v85.358L16.043 104z" fill="#F87670"/><path d="M98.582 60.578h-22a5.419 5.419 0 01-5.417-5.417V34.34H57.082l.002 55.34h41.498c2.98 0 5.417-2.437 5.417-5.416v-18.27a5.416 5.416 0 00-5.417-5.416z" fill="#59C5EF"/><path d="M77.42 99.665c5.515 0 9.986-4.47 9.986-9.986 0-5.515-4.471-9.986-9.986-9.986-5.515 0-9.986 4.47-9.986 9.986 0 5.515 4.47 9.986 9.986 9.986z" fill="#C6C6C6"/><path d="M77.42 101.292c-6.403 0-11.611-5.209-11.611-11.611 0-6.403 5.208-11.61 11.61-11.61 6.403 0 11.612 5.207 11.612 11.61 0 6.402-5.209 11.611-11.611 11.611zm0-19.972c-4.61 0-8.361 3.748-8.361 8.359 0 4.61 3.75 8.36 8.36 8.36 4.611 0 8.362-3.75 8.362-8.36 0-4.61-3.75-8.36-8.361-8.36z" fill="#525C6B"/><path d="M77.418 92.929a3.25 3.25 0 100-6.5 3.25 3.25 0 000 6.5z" fill="#7A8E9B"/><path d="M86.315 38.39a6.5 6.5 0 00-6.021-4.052h-9.126v20.821a5.419 5.419 0 005.417 5.417h18.748l-9.018-22.187z" fill="#E2E2E2"/><path d="M0 10.833h16.042L78.75 0H0v10.833z" fill="#7A8E9B"/><path d="M104.001 69.623H89.426l2.899 5.417H104v-5.417z" fill="#FDDC85"/><path d="M92.324 75.04l2.9 5.417H104V75.04H92.324z" fill="#FFBD66"/></svg>