<svg width="104" height="104" fill="none" xmlns="http://www.w3.org/2000/svg"><path d="M71.502 0H6.5C2.91 0 0 2.912 0 6.5v91a6.5 6.5 0 006.5 6.5h65.002a6.5 6.5 0 006.5-6.5v-91a6.5 6.5 0 00-6.5-6.5z" fill="#E2E2E2"/><path d="M104 52H52v52h52V52z" fill="#F1BB6B"/><path d="M87.75 52v18.369L78 66.036l-9.75 4.333V52h19.5z" fill="#E49A61"/><path d="M95.33 94.159H81.245v3.25H95.33v-3.25zM19.5 0v6.5A6.5 6.5 0 0026 13h26a6.5 6.5 0 006.5-6.5V0h-39zm35.75 6.5A3.253 3.253 0 0152 9.75H26a3.253 3.253 0 01-3.25-3.25V3.25h32.5V6.5z" fill="#7A8E9B"/><path d="M65 19.823H53.39v3.68H65v-3.68zm-18.113 0H24.863v3.681h22.024v-3.681zM65 34.992H46.352v3.68H65v-3.68zm-25.152 0H24.863v3.68h14.985v-3.68zm3.483 15.166H24.867v3.681h18.464v-3.681zm-4.333 15.169h-14.13v3.681h14.13v-3.681zm4.333 15.169H24.867v3.68h18.464v-3.68z" fill="#525C6B"/><path d="M18.365 19.823H13v3.68h5.365v-3.68zm0 15.169H13v3.68h5.365v-3.68zm0 15.166H13v3.681h5.365v-3.681zm0 15.169H13v3.681h5.365v-3.681zm0 15.169H13v3.68h5.365v-3.68z" fill="#F87670"/></svg>