<svg width="21" height="21" fill="none" xmlns="http://www.w3.org/2000/svg"><path d="M10.5 19.832c-.299 0-.587-.109-.812-.305A243.339 243.339 0 007.3 17.473l-.003-.003c-2.116-1.803-3.943-3.36-5.214-4.894C.662 10.86 0 9.236 0 7.46c0-1.726.592-3.318 1.666-4.483a5.647 5.647 0 014.2-1.829c1.213 0 2.323.384 3.3 1.14.493.38.94.848 1.334 1.392a6.752 6.752 0 011.334-1.393 5.282 5.282 0 013.3-1.139c1.621 0 3.113.65 4.2 1.829C20.408 4.142 21 5.734 21 7.46c0 1.776-.662 3.401-2.083 5.116-1.27 1.534-3.098 3.09-5.213 4.893-.723.616-1.542 1.314-2.392 2.058a1.232 1.232 0 01-.812.305zM5.867 2.379A4.43 4.43 0 002.57 3.81c-.864.937-1.34 2.233-1.34 3.649 0 1.493.555 2.83 1.8 4.331 1.203 1.452 2.992 2.977 5.064 4.742l.004.004c.725.617 1.546 1.317 2.4 2.064.86-.749 1.682-1.45 2.408-2.068 2.072-1.766 3.861-3.29 5.064-4.742 1.245-1.502 1.8-2.838 1.8-4.331 0-1.416-.476-2.712-1.34-3.65a4.43 4.43 0 00-3.296-1.431 4.08 4.08 0 00-2.548.881c-.674.522-1.144 1.182-1.419 1.643a.77.77 0 01-.667.379.77.77 0 01-.667-.379c-.275-.461-.745-1.12-1.42-1.643a4.08 4.08 0 00-2.546-.881z" fill="#888"/></svg>