<svg width="23" height="23" fill="none" xmlns="http://www.w3.org/2000/svg"><g clip-path="url(#clip0_497_7959)"><path d="M22.025 8.343h-4.771l-2.677-6.13a.674.674 0 10-1.235.54l2.441 5.59H7.217l2.441-5.59a.674.674 0 00-1.235-.54l-2.677 6.13H.975c-.624 0-1.088.565-.951 1.16l2.513 10.944a.97.97 0 00.95.743h16.025a.97.97 0 00.951-.743l2.513-10.944c.137-.595-.327-1.16-.95-1.16zM5.873 10.409a.674.674 0 01-.617-.944l.506-1.158h1.47l-.741 1.698a.674.674 0 01-.618.404zm2.258 7.188a.674.674 0 01-1.348 0v-4.942a.674.674 0 111.348 0v4.942zm4.043 0a.674.674 0 01-1.348 0v-4.942a.674.674 0 111.348 0v4.942zm4.043 0a.674.674 0 01-1.348 0v-4.942a.674.674 0 111.348 0v4.942zm1.18-7.244a.67.67 0 01-.888-.348l-.742-1.698h1.47l.507 1.159a.674.674 0 01-.348.887z" fill="#fff"/></g><defs><clipPath id="clip0_497_7959"><path fill="#fff" d="M0 0h23v23H0z"/></clipPath></defs></svg>