<svg width="17" height="17" fill="none" xmlns="http://www.w3.org/2000/svg"><path d="M8.5 16.054a.997.997 0 01-.657-.247c-.687-.6-1.35-1.165-1.933-1.662l-.003-.003c-1.713-1.46-3.192-2.72-4.22-3.961C.535 8.792 0 7.476 0 6.038c0-1.397.479-2.686 1.349-3.63a4.571 4.571 0 013.4-1.48c.981 0 1.88.31 2.671.923.4.309.761.686 1.08 1.127.319-.44.68-.818 1.08-1.127A4.276 4.276 0 0112.251.93c1.313 0 2.52.525 3.4 1.48.87.943 1.349 2.232 1.349 3.629 0 1.437-.536 2.753-1.686 4.141-1.029 1.242-2.508 2.502-4.22 3.962-.585.498-1.249 1.064-1.937 1.665a.997.997 0 01-.657.247zM4.75 1.926c-1.032 0-1.98.411-2.67 1.159C1.382 3.844.997 4.893.997 6.039c0 1.209.45 2.29 1.457 3.506.974 1.175 2.422 2.41 4.1 3.84l.003.002c.586.5 1.25 1.066 1.943 1.671.696-.606 1.361-1.174 1.949-1.674 1.677-1.43 3.125-2.664 4.1-3.839 1.007-1.216 1.456-2.297 1.456-3.506 0-1.146-.385-2.195-1.085-2.954a3.586 3.586 0 00-2.668-1.16c-.756 0-1.45.24-2.062.714-.546.423-.926.957-1.15 1.33a.624.624 0 01-.539.307.624.624 0 01-.54-.307c-.223-.373-.603-.907-1.15-1.33a3.303 3.303 0 00-2.06-.713z" fill="#353535"/></svg>