<svg width="16" height="16" fill="none" xmlns="http://www.w3.org/2000/svg"><path d="M11.293 0H4.706c-.865 0-1.57.705-1.57 1.572v12.856c0 .867.705 1.572 1.57 1.572h6.587c.865 0 1.57-.705 1.57-1.572V1.572c0-.867-.705-1.572-1.57-1.572zm.942 14.428a.945.945 0 01-.942.945H4.706a.944.944 0 01-.942-.945V1.572c0-.521.423-.945.942-.945h6.587c.52 0 .942.424.942.945v12.856z" fill="#353535"/><path d="M9.414 1.255H7.53v.627h1.883v-.627zm-2.512 0h-.941v.627h.941v-.627zM8 12.863a1.1 1.1 0 00-1.098 1.098A1.1 1.1 0 008 15.06a1.1 1.1 0 001.098-1.098A1.1 1.1 0 008 12.863zm0 1.569a.471.471 0 11.001-.942.471.471 0 010 .942z" fill="#353535"/></svg>