<svg width="12" height="12" fill="none" xmlns="http://www.w3.org/2000/svg"><g clip-path="url(#clip0_497_7951)"><path d="M11.886 11.347L8.788 8.298a4.9 4.9 0 001.31-3.33C10.098 2.224 7.838 0 5.048 0 2.26 0 0 2.224 0 4.968c0 2.745 2.26 4.969 5.049 4.969 1.204 0 2.31-.417 3.177-1.11l3.11 3.061c.152.15.398.15.55 0a.378.378 0 000-.54zM5.05 9.172C2.689 9.172.777 7.29.777 4.968.777 2.647 2.689.764 5.049.764c2.359 0 4.272 1.883 4.272 4.204 0 2.322-1.913 4.204-4.272 4.204z" fill="#353535"/></g><defs><clipPath id="clip0_497_7951"><path fill="#fff" d="M0 0h12v12H0z"/></clipPath></defs></svg>