<svg width="204" height="204" fill="none" xmlns="http://www.w3.org/2000/svg"><g clip-path="url(#clip0_381_21813)"><path fill-rule="evenodd" clip-rule="evenodd" d="M193.903 11.196c4.595 6.071 6.665 16.136 7.685 28.371 1.348 18.259 1.89 40.17 2.408 62.81-.671 23.062-.944 46.321-2.408 62.81-1.156 12.657-3.612 21.132-7.714 26.273-5.217 5.132-15.225 9.466-29.496 10.493-17.357 1.481-38.771 1.465-62.396 2.047-26.263-.45-44.073-.257-62.758-2.039-14.576-1.011-24.11-5.293-29.978-10.461-4.346-5.835-5.619-12.039-6.822-26.582C.919 148.124.585 125.367.016 102.502c.854-22.746.907-45.671 2.42-62.806 1.015-13.52 2.616-22.61 6.722-28.388C14.916 6.4 24.74 3.961 39.397 2.757 59.462.409 80.355-.053 101.953 0c22.229.036 43.567.67 62.605 2.544 12.842 1.027 23.469 3.238 29.324 8.652h.021z" fill="#675CA8"/><path d="M99.392 38.998a60.2 60.2 0 00-55.614 37.158 60.19 60.19 0 0013.049 65.598 60.197 60.197 0 0098.18-65.598 60.188 60.188 0 00-32.578-32.577 60.202 60.202 0 00-23.037-4.581zm-.718 25.83a2.008 2.008 0 011.08-1.263 3.311 3.311 0 011.276-.25s.534-.035 1.003-.02c15.916.426 29.661 11.726 31.644 28.841.247 1.75.39 3.514.429 5.281 0 .558.024 1.57-.662 2.224a2.06 2.06 0 01-.911.489 2.452 2.452 0 01-1.3-.706 2.669 2.669 0 01-.61-1.698 52.737 52.737 0 00-1.321-9.23c-2.644-11.235-12.842-20.096-24.331-21.38-1.337-.148-2.673-.297-4.013-.357-.911-.04-1.814-.209-2.171-.803a1.549 1.549 0 01-.113-1.127zm6.253 10.579a7.057 7.057 0 01-1.481-.221c-.638-.169-1.136-.305-1.513-.743a2.101 2.101 0 01-.47-1.304c.102-.41.329-.78.65-1.055a2.313 2.313 0 011.606-.401c9.382.47 14.937 5.899 14.937 5.899a24.17 24.17 0 014.249 5.754 25.552 25.552 0 012.918 9.836c.074.7-.035 1.409-.317 2.054a2.157 2.157 0 01-.698.955 2.009 2.009 0 01-1.204.362 2.188 2.188 0 01-.803-.522 1.88 1.88 0 01-.518-.903c-.493-4.306-1.167-8.511-3.816-12.147-3.367-4.603-8.127-6.653-13.54-7.564zm12.268 16.36c-.093 1.248-.598 1.71-.727 1.818a2 2 0 01-1.079.438 2.122 2.122 0 01-1.096-.546 2.38 2.38 0 01-.618-1.46c-.124-1.08-.899-4.535-2.665-6.129-1.103-.995-2.632-1.52-4.863-1.846-.895-.128-1.766-.313-2.079-.907a1.497 1.497 0 01-.028-1.127c.365-1.184 1.802-1.525 1.914-1.55.951.133 7.039 1.072 9.824 5.619a10.079 10.079 0 011.417 5.69zm16.767 33.528c-2.284 2.781-4.491 5.71-7.196 8.026-2.324 2.006-5.357 2.239-8.379 1.003-24.814-10.12-42.636-27.352-52.906-52.224-.256-.622-.465-1.268-.686-1.906-1.922-5.582-1.344-7.749 3.239-11.505a52.513 52.513 0 014.723-3.395c2.733-1.774 5.735-1.753 7.802.734a115.604 115.604 0 019.523 13.038c2.103 3.411 1.352 5.346-1.734 7.914-.714.594-1.477 1.127-2.19 1.717-1.787 1.485-2.541 3.25-1.755 5.618 3.452 10.286 10.66 16.79 20.7 20.246 1.168.401 2.994-.502 4.27-1.224.955-.542 1.513-1.774 2.252-2.697 2.006-2.496 5.217-3.551 7.885-1.862 4.76 3.022 9.323 6.376 13.798 9.812.959.738 1.203 2.407 1.709 3.555-.417 1.304-.473 2.444-1.055 3.154v-.004z" fill="#fff"/></g><defs><clipPath id="clip0_381_21813"><path fill="#fff" d="M0 0h204v204H0z"/></clipPath></defs></svg>