<svg width="27" height="27" fill="none" xmlns="http://www.w3.org/2000/svg"><path d="M5.067 1.223a6.361 6.361 0 00-2.3 1.498A6.342 6.342 0 001.27 5.015C.948 5.838.732 6.78.67 8.163.606 9.545.589 9.988.589 13.51c0 3.523.017 3.966.08 5.348.063 1.381.285 2.325.601 3.148a6.361 6.361 0 001.498 2.3 6.361 6.361 0 002.299 1.497c.823.321 1.767.538 3.148.6 1.382.064 1.825.08 5.348.08 3.522 0 3.965-.016 5.347-.08 1.381-.062 2.325-.284 3.148-.6a6.36 6.36 0 002.3-1.498 6.36 6.36 0 001.497-2.3c.322-.822.538-1.766.601-3.147.063-1.382.08-1.825.08-5.348 0-3.522-.017-3.965-.08-5.347-.063-1.382-.285-2.325-.601-3.148a6.396 6.396 0 00-1.492-2.294 6.361 6.361 0 00-2.3-1.498c-.822-.321-1.766-.538-3.148-.6-1.382-.064-1.825-.08-5.347-.08-3.523 0-3.966.016-5.347.08-1.387.057-2.331.279-3.154.6zm13.737 1.73c1.266.058 1.952.269 2.41.448a4.041 4.041 0 011.493.97c.453.454.733.886.97 1.493.18.459.39 1.144.448 2.41.064 1.366.074 1.777.074 5.242 0 3.464-.016 3.876-.074 5.241-.058 1.266-.269 1.952-.448 2.41a4.04 4.04 0 01-.97 1.493 4.041 4.041 0 01-1.493.97c-.458.18-1.144.39-2.41.448-1.365.064-1.777.074-5.241.074-3.465 0-3.876-.016-5.242-.074-1.266-.058-1.951-.269-2.41-.448a4.041 4.041 0 01-1.493-.97 4.041 4.041 0 01-.97-1.493c-.18-.458-.39-1.144-.448-2.41-.063-1.365-.074-1.777-.074-5.241 0-3.465.016-3.876.074-5.242.058-1.266.269-1.951.448-2.41a4.04 4.04 0 01.97-1.493 4.041 4.041 0 011.493-.97c.459-.18 1.144-.39 2.41-.448 1.366-.063 1.777-.074 5.242-.074 3.464 0 3.876.01 5.241.074z" fill="#fff"/><path d="M6.902 13.516a6.66 6.66 0 1013.322 0 6.66 6.66 0 00-13.322 0zm10.985 0a4.323 4.323 0 01-4.324 4.324 4.323 4.323 0 01-4.325-4.324 4.323 4.323 0 014.325-4.324 4.323 4.323 0 014.324 4.324zm2.604-5.369a1.556 1.556 0 100-3.11 1.556 1.556 0 000 3.11z" fill="#fff"/></svg>