<svg width="27" height="27" fill="none" xmlns="http://www.w3.org/2000/svg"><path d="M5.067 1.223a6.361 6.361 0 00-2.3 1.498A6.342 6.342 0 001.27 5.015c-.322.823-.538 1.767-.6 3.148C.607 9.545.59 9.988.59 13.511c0 3.522.017 3.965.08 5.347.063 1.381.285 2.325.601 3.148a6.36 6.36 0 001.498 2.3 6.36 6.36 0 002.299 1.497c.823.322 1.767.538 3.148.601 1.382.063 1.825.08 5.348.08 3.522 0 3.965-.017 5.347-.08 1.381-.063 2.325-.285 3.148-.601a6.36 6.36 0 002.3-1.498 6.36 6.36 0 001.497-2.299c.322-.823.538-1.767.601-3.148.063-1.382.08-1.825.08-5.347 0-3.523-.017-3.966-.08-5.348-.063-1.381-.285-2.325-.601-3.148a6.396 6.396 0 00-1.492-2.294 6.361 6.361 0 00-2.3-1.498c-.822-.321-1.766-.537-3.148-.6-1.382-.064-1.825-.08-5.347-.08-3.523 0-3.966.016-5.347.08-1.387.057-2.331.279-3.154.6zm13.737 1.73c1.266.058 1.952.27 2.41.448a4.04 4.04 0 011.493.97c.453.454.733.887.97 1.493.18.459.39 1.144.448 2.41.064 1.366.074 1.777.074 5.242 0 3.464-.016 3.876-.074 5.242-.058 1.265-.269 1.95-.448 2.41a4.04 4.04 0 01-.97 1.492 4.041 4.041 0 01-1.493.97c-.458.18-1.144.39-2.41.449-1.365.063-1.777.073-5.241.073-3.465 0-3.876-.015-5.242-.073-1.266-.058-1.951-.27-2.41-.449a4.041 4.041 0 01-1.493-.97 4.04 4.04 0 01-.97-1.492c-.18-.46-.39-1.145-.448-2.41-.063-1.366-.074-1.777-.074-5.242S2.942 9.64 3 8.274c.058-1.266.269-1.951.448-2.41a4.04 4.04 0 01.97-1.492 4.04 4.04 0 011.493-.97c.459-.18 1.144-.39 2.41-.449 1.366-.063 1.777-.074 5.242-.074 3.464 0 3.876.01 5.241.074z" fill="url(#paint0_radial_381_30561)"/><path d="M6.902 13.516a6.66 6.66 0 1013.322 0 6.66 6.66 0 00-13.322 0zm10.985 0a4.323 4.323 0 01-4.324 4.324 4.323 4.323 0 01-4.325-4.324 4.323 4.323 0 014.325-4.324 4.323 4.323 0 014.324 4.324z" fill="url(#paint1_radial_381_30561)"/><path d="M20.491 8.147a1.556 1.556 0 100-3.11 1.556 1.556 0 000 3.11z" fill="#654C9F"/><defs><radialGradient id="paint0_radial_381_30561" cx="0" cy="0" r="1" gradientUnits="userSpaceOnUse" gradientTransform="matrix(37.4593 -1.96316 1.66866 31.84 1.062 24.108)"><stop stop-color="#FED576"/><stop offset=".263" stop-color="#F47133"/><stop offset=".609" stop-color="#BC3081"/><stop offset="1" stop-color="#4C63D2"/></radialGradient><radialGradient id="paint1_radial_381_30561" cx="0" cy="0" r="1" gradientUnits="userSpaceOnUse" gradientTransform="rotate(-3 365.487 -126.927) scale(19.2623 16.3727)"><stop stop-color="#FED576"/><stop offset=".263" stop-color="#F47133"/><stop offset=".609" stop-color="#BC3081"/><stop offset="1" stop-color="#4C63D2"/></radialGradient></defs></svg>