<svg width="330" height="46" fill="none" xmlns="http://www.w3.org/2000/svg"><path d="M330 0H0v46h330V0z" fill="#331E0E"/><path d="M328 2H2v42h326V2z" fill="#C4B697"/><path fill-rule="evenodd" clip-rule="evenodd" d="M178.905 14.001h4.421v4.925a2.07 2.07 0 01-.637.457 5.896 5.896 0 01-.877.336l.168.769c.481 0 .925-.076 1.334-.228a8.415 8.415 0 001.309-.637c.4.32.805.544 1.213.673.393.125.802.19 1.214.192l.24-.769c-.494-.1-.972-.27-1.418-.505a19.95 19.95 0 01.733-2.798 12.96 12.96 0 011.117-2.415h4.421a17.825 17.825 0 00-.937 1.85 35.342 35.342 0 00-.865 2.15 45.143 45.143 0 00-.757 2.247 54.283 54.283 0 00-.613 2.138 45.08 45.08 0 001.478 4.096 64.641 64.641 0 002.006 4.337h-5.045c-.513-1.265-.861-2.447-1.046-3.544a39.88 39.88 0 01-.42-3.496c.224-.128.453-.256.685-.384a2.51 2.51 0 01.684-.265l-.264-.745c-.416 0-.833.096-1.249.289-.416.192-.825.385-1.225.578a82.4 82.4 0 01-1.262-.601c-.36-.176-.797-.264-1.31-.265l-.192.745c.285.063.56.164.817.301.24.127.473.267.697.42v6.968h-4.421v-6.993c.228-.146.464-.278.708-.396.259-.124.528-.225.804-.301l-.216-.745c-.464 0-.873.06-1.225.18-.353.12-.753.332-1.202.637a7.34 7.34 0 00-1.285-.613 4.06 4.06 0 00-1.334-.204l-.24.72a2.587 2.587 0 011.442.65 29.278 29.278 0 01-.565 3.507 30.166 30.166 0 01-1.069 3.556h-4.974a57.983 57.983 0 001.983-4.421 37.502 37.502 0 001.333-4.013 94.598 94.598 0 00-.589-2.138 57.085 57.085 0 00-.694-2.245 30.815 30.815 0 00-.804-2.15 15.197 15.197 0 00-.913-1.85h4.421c.454.764.816 1.579 1.08 2.427a24.7 24.7 0 01.697 2.81c-.368.225-.849.4-1.441.528l.336.722c.56 0 1.057-.092 1.489-.276a4.312 4.312 0 001.057-.613c.417.32.829.549 1.238.685.414.137.848.206 1.285.204l.119-.72a3.938 3.938 0 01-.757-.277 2.518 2.518 0 01-.684-.493l.001-4.997zM162.734 16.5c.25-.047.503-.08.757-.096.253-.016.506-.008.757.025v-.722a10.126 10.126 0 00-1.514-.12c-1.281 0-2.242.252-2.883.756-.64.505-.961 1.302-.961 2.39 0 .994.441 1.86 1.322 2.596s2.114 1.217 3.7 1.441l.288-.696-1.466-.553V16.5zm4.421 14.318h-4.421v-5.597c.529 0 .985.056 1.37.168l.24-.72c-.625-.289-1.185-.433-1.682-.433-.592 0-1.113.164-1.561.492a3.974 3.974 0 00-1.118 1.287 6.454 6.454 0 00-.66 1.765 8.824 8.824 0 00-.217 1.91c0 .192.012.48.037.864.024.385.052.721.084 1.01l-4.589-.745-.913-3.46c.105.03.214.047.324.048h.325a3.648 3.648 0 001.657-.384 6.047 6.047 0 001.405-.973c.422-.39.809-.816 1.155-1.274.345-.456.653-.877.925-1.26l-.648-.481-1.081 1.08c-.817-.529-1.501-1.27-2.054-2.223-.552-.953-.829-1.91-.829-2.87-.016-1.17.152-2.139.505-2.908.332-.732.717-1.438 1.153-2.114h10.283l.769 1.586c-.305.432-.457.889-.457 1.365l-.002 13.867zm-22.729-2.474v-4.925a2.97 2.97 0 00-.672.276c-.176.105-.385.237-.625.397l-.384-.527a8.509 8.509 0 011.585-.974c.561-.264 1.081-.396 1.562-.396.881 0 1.57.276 2.066.829.496.553.745 1.181.745 1.886a4.78 4.78 0 01-.276 1.598 3.9 3.9 0 01-.841 1.381 4.31 4.31 0 01-1.394.973c-.553.248-1.197.373-1.934.373a8.75 8.75 0 01-.649-.025 12.45 12.45 0 01-.697-.073v-.72a4 4 0 00.757.025 6.36 6.36 0 00.757-.098zM140.005 14v16.818H150.6c.417-.64.765-1.43 1.045-2.367.281-.937.421-2.11.421-3.52 0-.784-.101-1.5-.301-2.15a4.766 4.766 0 00-.901-1.683 3.967 3.967 0 00-1.514-1.093c-.609-.256-1.313-.383-2.113-.382-.609 0-1.274.128-1.994.384-.721.257-1.498.657-2.331 1.202l-.312-.625c.288-.224.585-.433.889-.625.3-.19.613-.358.937-.504V14h-4.421zm-2.86 16.818h-4.421V17.725a7.557 7.557 0 011.681-.769l-.168-.745a6.253 6.253 0 00-1.729.24 8.578 8.578 0 00-1.586.625c-.385-.256-.87-.464-1.454-.625a6.48 6.48 0 00-1.717-.24l-.169.745a4.83 4.83 0 011.118.396c.328.169.62.333.877.493a15.31 15.31 0 00-.613 2.859 24.53 24.53 0 00-.156 2.763c-.003 1.24.106 2.479.324 3.7.216 1.201.46 2.499.733 3.892l-6.103.528V26.95l1.178-.24.913 2.09.889-.265a46.695 46.695 0 01-1.61-4.528 17.424 17.424 0 01-.745-5.082c.001-.816.061-1.63.18-2.438.126-.849.34-1.682.637-2.487h11.628l.769 1.562c-.304.432-.457.888-.456 1.369v13.886zM108.458 14v16.818h4.421v-4.564a4.25 4.25 0 00-.793.432 8.77 8.77 0 00-.721.553l-.384-.625a9.282 9.282 0 011.862-1.441c.68-.4 1.357-.705 2.03-.913a9.509 9.509 0 011.49-2.175 12.972 12.972 0 012.066-1.861l.408.6a6.536 6.536 0 00-1.009.865 9.11 9.11 0 00-.913 1.153v7.977h4.421V14h-4.421v3.749c.272-.104.533-.232.781-.384.264-.16.524-.337.781-.528l.408.6c-.547.425-1.134.795-1.753 1.106a7.496 7.496 0 01-1.851.649 10.683 10.683 0 01-1.705 2.832c-.72.866-1.457 1.53-2.211 1.995l-.457-.553c.369-.304.729-.629 1.081-.973.351-.343.651-.736.889-1.165V14l-4.42-.001zm-11.99 9.035l.29.72a21.368 21.368 0 002.017-.973 9.106 9.106 0 001.633-1.13c.464-.41.829-.861 1.093-1.357.265-.496.397-1.04.397-1.632a4.282 4.282 0 00-.144-1.08 2.454 2.454 0 00-.528-.998c-.256-.296-.6-.536-1.033-.72-.432-.185-.977-.277-1.633-.277-.176 0-.464.009-.865.025-.4.017-.712.041-.936.072v.841a22.409 22.409 0 011.513-.048v5.115c-.32.352-.6.62-.84.804-.241.184-.562.397-.963.638zM94.164 14h10.907c.273.612.49 1.247.649 1.898.16.657.24 1.257.24 1.802a11.252 11.252 0 01-.613 3.7c-.408 1.185-1.061 2.146-1.959 2.883a5.767 5.767 0 00-1.13-.12c-.451.004-.901.04-1.346.108a15.27 15.27 0 00-1.514.301c-.508.127-1.009.28-1.501.457a10.94 10.94 0 00-1.333.577l.192.745c.256-.112.508-.212.757-.301.248-.09.5-.165.756-.228v4.997h-4.42V16.932c0-.48-.153-.937-.457-1.37l.772-1.561zm-14.37 0h11.124l.409 5.862a11.28 11.28 0 00-2.439.433c-.75.226-1.483.498-2.198.817l-.505-3.124a3.5 3.5 0 01.997-.672 16.46 16.46 0 011.334-.553l-.313-.553c-.448 0-.925.08-1.43.24a7.356 7.356 0 00-1.429.625 10.96 10.96 0 00-1.356-.576 4.783 4.783 0 00-1.622-.289l-.192.65c.32.095.58.195.78.3.222.116.435.249.638.396l.624 13.262h-4.759V16.932c0-.48-.152-.937-.456-1.37l.794-1.561zm148.479 3.872h-11.105l1.302-3.48h19.608l1.303 3.48h-11.108zm0 9.023h-11.105v-8.167h22.213v8.167h-11.108zm0 4.292h9.804l1.303-3.48h-22.212l1.302 3.48h9.803zm-11.594-8.039v.48l-2.16 7.55h-6.424c-.498-.116-.883-.332-.971-.58-.082-.232.117-.436.485-.556-.5-.124-.882-.346-.971-.598-.089-.252.137-.473.549-.597-.453-.12-.795-.325-.877-.557-.088-.247.144-.464.561-.58l6.76-.002 3.048-4.56zm0-.656v.593l-3.049 3.767-6.761-.004a1.584 1.584 0 01-.086-2.659 1.664 1.664 0 010-2.797 1.59 1.59 0 01-.68-1.353 1.588 1.588 0 01.766-1.306l6.761-.007 3.049 3.766zm0-.543v.48l-3.049-4.558-6.76-.003c-.417-.116-.649-.332-.562-.58.082-.232.425-.437.877-.556-.412-.124-.638-.346-.549-.598.089-.252.471-.473.971-.597-.368-.12-.566-.325-.484-.557.087-.248.472-.464.97-.58h6.424l2.162 7.55zm23.192 1.199v.48l2.16 7.55h6.424c.499-.116.883-.332.971-.58.082-.232-.117-.436-.484-.556.499-.124.881-.346.97-.598.089-.252-.136-.473-.549-.597.453-.12.795-.325.877-.557.088-.247-.144-.464-.561-.58l-6.76-.002-3.048-4.56zm0-.656v.593l3.047 3.767 6.762-.004a1.581 1.581 0 00.765-1.306 1.59 1.59 0 00-.68-1.353 1.673 1.673 0 00.76-1.399 1.675 1.675 0 00-.76-1.398 1.59 1.59 0 00.68-1.353 1.588 1.588 0 00-.765-1.306l-6.762-.007-3.047 3.766zm0-.543v.48l3.047-4.558 6.761-.003c.417-.116.648-.332.561-.58-.082-.232-.425-.437-.877-.556.412-.124.638-.346.549-.598-.089-.252-.471-.473-.971-.597.368-.12.566-.325.484-.557-.087-.248-.472-.464-.97-.58h-6.424l-2.16 7.55z" fill="#331E0E"/></svg>