<svg width="169" height="35" fill="none" xmlns="http://www.w3.org/2000/svg"><path d="M169 0H0v35h169V0z" fill="#331E0E"/><path d="M167.709 1.296H1.289v32.407h166.42V1.296z" fill="#C4B697"/><path fill-rule="evenodd" clip-rule="evenodd" d="M95.1 10.653h3.37v3.748c-.121.134-.283.25-.485.347a4.533 4.533 0 01-.668.256l.128.585c.366 0 .705-.058 1.017-.174a6.4 6.4 0 00.998-.484 2.859 2.859 0 001.85.658l.183-.585a4.088 4.088 0 01-1.081-.384 15.14 15.14 0 01.558-2.13 9.94 9.94 0 01.852-1.837h3.37a13.67 13.67 0 00-.714 1.408c-.232.524-.452 1.07-.659 1.636a34.57 34.57 0 00-.577 1.709 39.476 39.476 0 00-.467 1.627 34.2 34.2 0 001.126 3.117 48.866 48.866 0 001.529 3.3h-3.846c-.391-.963-.656-1.862-.797-2.697a30.319 30.319 0 01-.32-2.66c.171-.098.345-.195.522-.293a1.88 1.88 0 01.522-.2l-.202-.568c-.317 0-.635.074-.952.22-.317.146-.629.293-.934.44a61.83 61.83 0 01-.962-.457c-.274-.134-.607-.202-.998-.202l-.147.567c.217.047.427.125.623.229.183.096.36.203.531.32v5.301H95.1v-5.32c.174-.112.354-.212.54-.302.197-.095.402-.171.613-.23l-.165-.566c-.354 0-.665.046-.934.137a3.975 3.975 0 00-.916.485 5.6 5.6 0 00-.98-.466 3.1 3.1 0 00-1.016-.156l-.183.549a1.97 1.97 0 011.098.493 22.168 22.168 0 01-.43 2.669c-.189.828-.46 1.73-.815 2.706h-3.791a44.016 44.016 0 001.51-3.365c.397-.997.736-2.016 1.017-3.052a72.767 72.767 0 00-.449-1.627 44.276 44.276 0 00-.529-1.708 23.628 23.628 0 00-.613-1.636c-.2-.485-.432-.955-.696-1.408h3.37c.346.582.622 1.201.824 1.846.219.702.396 1.417.531 2.14-.28.17-.647.304-1.099.4l.256.55c.428 0 .806-.07 1.136-.21.33-.14.598-.296.806-.466.317.243.631.417.943.52.316.105.647.157.98.156l.09-.549a2.965 2.965 0 01-.576-.21 1.918 1.918 0 01-.522-.374v-3.803zm-12.326 1.901c.19-.036.383-.06.576-.073.193-.012.386-.005.577.02v-.55a7.724 7.724 0 00-1.153-.091c-.977 0-1.71.192-2.198.575-.488.384-.733.99-.733 1.82 0 .755.336 1.413 1.008 1.974.671.56 1.611.926 2.82 1.096l.22-.53-1.117-.42v-3.82zm3.37 10.895h-3.37V19.19c.403 0 .75.043 1.044.128L84 18.77c-.477-.22-.904-.33-1.282-.33a1.96 1.96 0 00-1.19.375 3.01 3.01 0 00-.852.979 4.87 4.87 0 00-.504 1.343 6.673 6.673 0 00-.165 1.453c0 .146.01.366.028.658.018.292.04.548.064.768l-3.498-.567-.696-2.632c.08.023.163.036.247.036h.247a2.8 2.8 0 001.264-.292 4.6 4.6 0 001.07-.74c.322-.296.617-.62.881-.97.263-.347.498-.666.705-.959l-.494-.366-.824.822c-.622-.402-1.144-.965-1.565-1.69-.422-.726-.632-1.454-.632-2.185-.013-.89.115-1.627.384-2.212a12.36 12.36 0 01.88-1.609h7.838l.586 1.207a1.777 1.777 0 00-.348 1.039l-.001 10.55zm-17.327-1.883v-3.747c-.207.06-.378.13-.513.21-.134.08-.293.18-.476.302l-.293-.401a6.48 6.48 0 011.209-.74c.427-.202.824-.302 1.19-.302.672 0 1.197.21 1.575.63.379.42.568.9.568 1.435 0 .415-.071.826-.21 1.216-.138.391-.356.75-.641 1.051a3.283 3.283 0 01-1.063.74c-.421.19-.913.284-1.474.284-.159 0-.324-.006-.495-.02a9.719 9.719 0 01-.531-.054v-.548c.191.024.385.03.577.019a4.67 4.67 0 00.577-.075zm-3.37-10.914v12.796h8.076c.318-.487.584-1.087.797-1.8.214-.713.32-1.606.32-2.678 0-.597-.076-1.143-.229-1.636a3.616 3.616 0 00-.687-1.28 3.02 3.02 0 00-1.154-.832c-.464-.195-1-.292-1.61-.291-.464 0-.971.097-1.52.292-.55.195-1.142.5-1.777.914l-.238-.475c.22-.17.446-.33.678-.475.228-.145.467-.273.714-.384v-4.15h-3.37zm-2.18 12.796h-3.37v-9.962a5.765 5.765 0 011.282-.585l-.13-.566a4.744 4.744 0 00-1.318.183 6.558 6.558 0 00-1.209.475c-.293-.195-.663-.354-1.108-.475a4.95 4.95 0 00-1.31-.183l-.127.566c.295.066.58.167.851.302.25.128.473.253.669.375a11.672 11.672 0 00-.467 2.175 18.7 18.7 0 00-.12 2.103c-.001.943.082 1.886.248 2.815.165.914.35 1.9.559 2.961l-4.652.401v-3.527l.897-.183.696 1.59.678-.2a35.677 35.677 0 01-1.227-3.446 13.26 13.26 0 01-.568-3.866c0-.621.047-1.242.137-1.856a9.47 9.47 0 01.486-1.892h8.864l.586 1.188a1.776 1.776 0 00-.348 1.042V23.45zm-21.87-12.796v12.796h3.37v-3.472a3.258 3.258 0 00-.604.33c-.19.13-.373.27-.549.42l-.293-.476a7.064 7.064 0 011.42-1.096 7.343 7.343 0 011.547-.695c.28-.574.66-1.125 1.136-1.655.472-.527 1-1.002 1.575-1.416l.311.457a4.985 4.985 0 00-.77.658 6.886 6.886 0 00-.695.877v6.07h3.37V10.652h-3.37v2.853a3.65 3.65 0 00.595-.293c.202-.122.4-.256.595-.401l.312.457a8.148 8.148 0 01-1.337.84c-.447.226-.92.392-1.41.494a8.134 8.134 0 01-1.3 2.156c-.55.658-1.112 1.164-1.686 1.517l-.348-.42c.28-.232.555-.479.823-.74.268-.262.497-.56.678-.887v-5.576h-3.37zm-9.139 6.874l.22.549a16.6 16.6 0 001.539-.74c.476-.263.89-.55 1.244-.86a3.72 3.72 0 00.834-1.033c.201-.377.302-.792.302-1.242a3.244 3.244 0 00-.11-.822c-.073-.28-.21-.54-.402-.759a2.115 2.115 0 00-.788-.548c-.33-.14-.744-.21-1.244-.21-.135 0-.354.006-.66.019a7.825 7.825 0 00-.714.055v.64a17.065 17.065 0 011.154-.037v3.892a5.156 5.156 0 01-.641.611c-.183.14-.428.302-.734.485zM30.5 10.653h8.315c.209.465.374.949.495 1.444.122.5.183.957.183 1.371a8.573 8.573 0 01-.467 2.816c-.312.901-.81 1.633-1.494 2.193a4.4 4.4 0 00-.862-.091c-.343.003-.686.03-1.025.082-.389.057-.774.134-1.154.23-.388.096-.77.212-1.145.346a8.36 8.36 0 00-1.016.44l.146.567a8.91 8.91 0 01.577-.23c.19-.067.382-.125.577-.173v3.802h-3.37V12.883c0-.365-.116-.712-.348-1.042l.588-1.188zm-10.953 0h8.48l.31 4.46a8.608 8.608 0 00-1.858.33c-.572.171-1.131.379-1.676.621l-.385-2.376c.195-.195.449-.366.76-.512.311-.146.65-.286 1.017-.42l-.239-.421c-.341 0-.705.06-1.09.183a5.61 5.61 0 00-1.089.475 8.382 8.382 0 00-1.034-.439 3.65 3.65 0 00-1.236-.22l-.147.495c.244.073.443.149.595.228.169.09.331.19.486.302l.476 10.09H19.29V12.883c0-.365-.116-.712-.348-1.042l.606-1.188zm113.188 2.945h-8.465l.992-2.648h14.948l.993 2.648h-8.468zm0 6.866h-8.465v-6.215h16.933v6.215h-8.468zm0 3.265h7.474l.993-2.648H124.27l.992 2.648h7.473zm-8.839-6.116v.365l-1.647 5.744h-4.896c-.38-.087-.674-.252-.74-.44-.063-.177.088-.333.369-.424-.381-.094-.672-.263-.74-.455-.068-.191.104-.36.418-.454-.345-.091-.606-.247-.668-.424-.067-.188.11-.353.428-.44l5.153-.003 2.323-3.47zm0-.5v.452l-2.324 2.866-5.154-.003a1.207 1.207 0 01-.456-1.574 1.21 1.21 0 01.391-.45 1.266 1.266 0 010-2.127 1.209 1.209 0 01-.519-1.03 1.207 1.207 0 01.584-.994l5.154-.005 2.324 2.865zm0-.412v.365l-2.324-3.468-5.154-.003c-.317-.088-.494-.252-.427-.44.062-.178.323-.333.668-.424-.314-.095-.486-.263-.418-.455s.359-.36.74-.454c-.281-.092-.432-.247-.369-.424.066-.188.359-.353.739-.441h4.897l1.648 5.744zm17.682.912v.365l1.647 5.744h4.897c.38-.087.673-.252.74-.44.062-.177-.089-.333-.369-.424.381-.094.671-.263.739-.455.068-.191-.104-.36-.418-.454.345-.091.606-.247.669-.424.066-.188-.11-.353-.428-.44l-5.154-.003-2.323-3.47zm0-.5v.452l2.323 2.866 5.154-.003a1.207 1.207 0 00.456-1.574 1.21 1.21 0 00-.391-.45 1.266 1.266 0 000-2.127 1.209 1.209 0 00.519-1.03 1.207 1.207 0 00-.584-.994l-5.154-.005-2.323 2.865zm0-.412v.365l2.323-3.468 5.154-.003c.317-.088.494-.252.428-.44-.063-.178-.324-.333-.669-.424.314-.095.486-.263.418-.455s-.359-.36-.739-.454c.28-.092.431-.247.369-.424-.067-.188-.36-.353-.74-.441h-4.897l-1.647 5.744z" fill="#331E0E"/></svg>