<svg width="29" height="29" fill="none" xmlns="http://www.w3.org/2000/svg"><path d="M17.085 4.408l7.137 7.137c.21.21.315.486.315.762s-.105.553-.315.762L13.07 24.221a1.075 1.075 0 01-.762.313v.002c-.276 0-.552-.105-.762-.315l-7.137-7.137a1.075 1.075 0 01-.315-.762h.001c0-.277.105-.554.314-.763L15.56 4.408a1.077 1.077 0 011.525 0zm6.505 7.77L16.453 5.04a.186.186 0 00-.26 0L5.041 16.192a.183.183 0 000 .26l7.137 7.136a.183.183 0 00.13.053v.002a.184.184 0 00.13-.055l11.152-11.15a.183.183 0 00.052-.13.183.183 0 00-.052-.13z" fill="#333"/><path fill-rule="evenodd" clip-rule="evenodd" d="M23.59 12.178l-7.137-7.137a.186.186 0 00-.26 0L5.044 16.193a.183.183 0 000 .26l7.136 7.136a.183.183 0 00.13.053v.002a.183.183 0 00.13-.055l11.15-11.151a.183.183 0 00.053-.13.183.183 0 00-.053-.13z" fill="#FFD3B3"/><path d="M7.91 19.32l1.408 1.409a.448.448 0 01.087.51l-2.662 7.099-.418-.156.419.157a.447.447 0 01-.743.152l-.986-.986a.447.447 0 01-.112-.446l.127-.55-.579.134v.001a.447.447 0 01-.422-.126l-.47-.47.317-.315-.317.316a.447.447 0 01-.112-.447l.127-.548-.579.133v.001a.447.447 0 01-.422-.125l-.47-.47a.447.447 0 01-.111-.446l.126-.549-.578.133v.001a.447.447 0 01-.423-.125l-.986-.986a.447.447 0 01.197-.748l7.1-2.662v-.002a.448.448 0 01.481.111zm.573 1.84L7.47 20.146l-6.216 2.331.327.328 1.002-.231a.447.447 0 01.566.529v-.001l-.239 1.032.127.127 1.002-.232a.447.447 0 01.566.529l-.239 1.032.127.126 1.002-.23a.447.447 0 01.566.529v-.001l-.239 1.032.33.33 2.33-6.218zM20.146 7.47l1.012 1.013 6.217-2.331-.33-.33-1.031.238v.001a.447.447 0 01-.529-.566l.231-1.002-.126-.127-1.032.238v.001a.447.447 0 01-.529-.566l.232-1.002-.127-.127-1.032.239a.447.447 0 01-.528-.566l.23-1.002-.327-.327-2.331 6.216zm.582 1.848L19.32 7.909a.447.447 0 01-.11-.482l2.663-7.1A.447.447 0 0122.62.13v.001l.987.986c.11.106.162.264.125.423l-.134.578.549-.126a.447.447 0 01.446.111l.47.47a.447.447 0 01.125.423l-.134.578.549-.127a.447.447 0 01.446.112l.47.47a.447.447 0 01.125.423l-.134.578.549-.127a.447.447 0 01.446.112l.986.986a.446.446 0 01-.152.743l-.157-.419.156.418-7.1 2.662a.448.448 0 01-.509-.087zm-3.86-.668l3.112 3.112a.72.72 0 010 1.022l-7.194 7.194a.72.72 0 01-1.021 0l-3.112-3.112a.72.72 0 010-1.02l.316.315-.316-.316.001-.002 7.193-7.192a.72.72 0 011.021 0zm2.358 3.623l-2.868-2.868-6.95 6.95 2.867 2.869 6.95-6.95z" fill="#333"/><path fill-rule="evenodd" clip-rule="evenodd" d="M20.148 7.47l1.013 1.012 6.217-2.331-.33-.33-1.032.239a.447.447 0 01-.528-.565l.231-1.003-.126-.126-1.033.238a.447.447 0 01-.528-.565l.231-1.003-.126-.126-1.032.238a.447.447 0 01-.529-.565l.231-1.002-.327-.328-2.332 6.217zm-.923 4.804l-2.868-2.868-6.95 6.95 2.867 2.869 6.95-6.95zM8.483 21.16l-1.012-1.012-6.217 2.33.328.328 1.002-.23a.447.447 0 01.566.528h-.001l-.238 1.032.126.126 1.003-.23a.447.447 0 01.566.529l-.001-.002-.238 1.032.126.127 1.003-.231a.447.447 0 01.566.529H6.06l-.239 1.031.33.33 2.331-6.217z" fill="#B38E85"/></svg>