<svg width="29" height="29" fill="none" xmlns="http://www.w3.org/2000/svg"><path d="M3.943 1.083h.001l.006-.003C5.706.076 7.66-.208 9.402.146c1.762.358 3.309 1.365 4.228 2.937a.361.361 0 01.035.06c.605 1.062.493 1.643-.104 1.987-.472.273-1.245.27-2.195.267-1.357-.005-3.117-.01-4.507.792-1.386.8-2.261 2.328-2.935 3.505-.472.823-.855 1.493-1.331 1.768-.603.348-1.167.148-1.79-.932l.384-.223-.012.007-.372.216H.8a.407.407 0 01-.016-.03c-.902-1.584-1-3.427-.43-5.13.568-1.696 1.801-3.254 3.565-4.273l.223.385-.025-.043-.198-.342v-.001a.46.46 0 01.023-.013zm.447.77l-.002.001a.443.443 0 01-.048.028c-1.557.907-2.643 2.28-3.142 3.77-.493 1.47-.411 3.055.36 4.408a.427.427 0 01.03.051c.29.496.455.643.562.581.262-.15.593-.73 1-1.44.726-1.266 1.666-2.909 3.267-3.833 1.597-.922 3.49-.915 4.95-.91.817.003 1.482.005 1.748-.148.107-.062.063-.28-.222-.778a.442.442 0 01-.016-.025c-.784-1.36-2.122-2.231-3.65-2.542-1.54-.313-3.273-.058-4.837.837z" fill="#333"/><path d="M1.455 7.303a.446.446 0 00.89-.024V7.1l.001-.019v-.018l.001-.017.001-.019.001-.018.001-.018.001-.018.001-.018.001-.018.002-.018.001-.019.002-.018.001-.018.002-.018.002-.018.001-.019.002-.018.002-.018.002-.018.003-.019.002-.018.002-.018.003-.018.002-.019.003-.018.003-.018.003-.018.003-.019.003-.018.003-.018.003-.019.003-.018.004-.018.002-.013a.445.445 0 00-.287-.501.445.445 0 00.513-.273l.008-.019.007-.018.007-.018.008-.019.007-.018.008-.018.008-.018.008-.018.008-.018.008-.018.008-.018.008-.018.008-.018.009-.018.008-.018.009-.019.008-.018.009-.018.009-.017.009-.018.008-.018.01-.018.009-.018.009-.018.01-.018.009-.018.009-.018.01-.017.01-.018.009-.018.01-.018.01-.017.01-.018.01-.018.01-.017.01-.018.01-.018.01-.017.011-.018.01-.018.008-.01a.445.445 0 00-.107-.582.445.445 0 00.587-.085l.002-.002.014-.017.014-.016.014-.016.014-.016.014-.017.014-.016.015-.016.014-.016.015-.016.014-.016.015-.016.015-.016.014-.016.015-.016.015-.015.015-.016.015-.016.016-.016.015-.015.015-.016.016-.015.015-.016.016-.015.015-.016.016-.015.016-.015.016-.016.016-.015.016-.015.016-.015.016-.016.016-.015.017-.014.016-.015.017-.015.016-.015.017-.015.01-.01a.446.446 0 00.07-.588.445.445 0 00.587.085l.02-.012.019-.013.02-.013.02-.012.019-.013.02-.012.02-.013.02-.012.019-.012.02-.013.02-.012.02-.012.02-.012.02-.012.021-.012.02-.012a.446.446 0 00-.445-.772l-.023.014-.024.013-.023.014-.023.014-.023.014-.023.014-.023.014-.023.014-.023.014-.022.014-.023.015-.023.014-.022.014-.022.015-.023.015-.02.013a.446.446 0 00-.12.627.446.446 0 00-.637-.047l-.012.01-.02.017-.018.017-.02.018-.018.017-.02.017-.018.018-.019.017-.018.018-.019.017-.018.018-.018.017-.019.018-.018.018-.018.018-.018.018-.018.018-.018.018-.018.018-.017.018-.018.018-.017.018-.018.018-.017.019-.018.018-.017.018-.017.019-.017.018-.017.019-.017.019-.016.018-.017.019-.016.019-.017.018-.016.02-.017.018-.016.02-.016.018-.004.005a.446.446 0 00.066.636.444.444 0 00-.627.142l-.006.012-.013.02-.012.021-.012.02-.012.021-.012.021-.012.021-.012.02-.012.022-.012.02-.011.022-.012.02-.011.022-.011.02-.012.022-.01.02-.012.022-.01.021-.011.021-.011.021-.01.022-.011.021-.01.021-.011.022-.01.021-.01.021-.01.022-.01.021-.01.022-.01.021-.01.022-.01.021-.009.022-.009.021-.01.022-.008.022-.01.021-.008.022-.01.022-.008.021-.009.022-.001.004a.446.446 0 00.263.582.444.444 0 00-.535.353l-.003.013-.004.023-.004.022-.004.022-.004.023-.003.022-.004.023-.004.022-.003.023-.003.022-.003.023-.003.022-.003.023-.003.022-.003.023-.002.022-.003.023-.002.022-.003.023-.002.022-.002.023-.002.022-.002.023-.001.022-.002.023-.002.023v.022l-.002.023-.001.022-.001.023-.001.022-.001.023v.022l-.002.023v.225zm26.377 3.185c-.527 1.968-1.713 3.563-3.204 4.55-1.508.999-3.327 1.379-5.1.904-1.207-.323-1.546-.817-1.366-1.49.142-.526.69-1.071 1.365-1.74.962-.956 2.209-2.195 2.624-3.745.416-1.55-.046-3.247-.401-4.556-.25-.916-.452-1.662-.31-2.19.18-.673.72-.93 1.927-.608 1.774.476 3.16 1.714 3.966 3.332.797 1.6 1.027 3.575.5 5.543zm-3.695 3.809c1.317-.872 2.366-2.288 2.835-4.039.47-1.75.268-3.501-.437-4.915-.695-1.397-1.883-2.464-3.398-2.87-.576-.154-.805-.143-.837-.022-.079.295.096.937.31 1.727.383 1.409.88 3.236.402 5.018-.477 1.781-1.822 3.116-2.858 4.146-.58.575-1.052 1.044-1.131 1.34-.033.121.159.245.735.4 1.516.406 3.078.076 4.379-.785z" fill="#333"/><path d="M25.186 4.356a.446.446 0 00-.613.647l.012.012.013.012.013.013.013.012.013.013.012.013.013.013.013.012.012.014.013.013.012.013.012.013.013.013.012.013.012.014.012.013.012.014.013.014.012.013.011.014.012.014.012.014.012.014.012.014.011.014.012.014.011.014.012.014.011.015.012.014.01.015.012.014.011.015.011.015.011.015.011.015.011.015.011.015.01.015.012.015.01.015.01.015.011.016.008.01a.446.446 0 00.56.15.445.445 0 00-.174.558h.002l.007.018.008.018.008.018.007.018.008.019.007.018.007.018.008.019.007.018.007.019.007.018.007.019.007.018.007.019.006.019.007.018.007.02.006.018.007.019.006.019.007.019.006.02.006.018.006.02.006.019.006.019.006.019.006.02.006.019.005.02.006.019.006.02.005.019.005.02.006.02.005.019.005.02.005.02.005.02.005.019.003.013a.445.445 0 00.48.337.446.446 0 00-.348.474v.003l.002.02.002.022.001.022.002.021.001.022.001.021.002.022v.021l.002.022v.021l.002.022v.022l.001.022.001.021v.022l.001.022v.043l.001.022v.176l-.001.022v.022l-.002.022v.022l-.001.023-.001.022-.001.022-.001.022-.002.022v.022l-.002.015a.446.446 0 00.367.466.445.445 0 00-.476.355l-.004.021-.005.023-.005.023-.005.023-.005.022-.005.023-.005.023-.005.023-.006.023-.005.023-.006.022-.006.023-.005.023-.006.023-.006.023-.006.023a.446.446 0 00.86.23l.008-.026.007-.026.006-.026.007-.026.007-.026.006-.027.006-.026.006-.026.007-.026.006-.026.005-.026.006-.026.006-.026.006-.026.005-.027.005-.024a.446.446 0 00-.36-.528.445.445 0 00.484-.418l.002-.015.002-.025.001-.026.001-.025.002-.026v-.026l.002-.025v-.026l.001-.025v-.026l.002-.025V8.23l-.001-.026V8.18l-.002-.025V8.13l-.002-.025V8.08l-.002-.025-.001-.026-.001-.024-.002-.025-.001-.025-.002-.025-.002-.025-.002-.025-.002-.025-.002-.025v-.006a.446.446 0 00-.492-.404.447.447 0 00.338-.543l-.003-.013-.006-.023-.006-.024-.006-.023-.006-.023-.006-.023-.007-.023-.006-.024-.006-.023-.007-.022-.007-.024-.006-.023-.007-.022-.007-.023-.007-.023-.007-.023-.007-.023-.007-.022-.008-.023-.007-.022-.008-.023-.007-.022-.008-.023-.008-.022-.008-.022-.008-.023-.008-.022-.008-.022-.008-.022-.008-.022-.009-.023-.008-.022-.009-.021-.008-.022-.01-.022-.008-.022-.009-.022-.009-.021-.009-.022-.01-.021-.008-.022-.002-.004a.445.445 0 00-.601-.223.447.447 0 00.132-.63l-.007-.011-.013-.02-.013-.018-.013-.019-.013-.018-.014-.019-.013-.018-.014-.019-.013-.018-.014-.018-.013-.018-.014-.018-.014-.018-.014-.018-.014-.018-.014-.018-.014-.017-.014-.018-.015-.018-.014-.017-.014-.017-.015-.018-.014-.017-.015-.017-.015-.017-.015-.017-.015-.017-.015-.017-.015-.017-.015-.016-.015-.017-.016-.016-.015-.017-.016-.016-.015-.017-.016-.016-.015-.016-.016-.016-.016-.016-.016-.016-.016-.015-.016-.016-.017-.016-.016-.015zm-10.319 9.555a.424.424 0 01-.051.014c-1.96.518-3.924.288-5.517-.506-1.618-.807-2.857-2.192-3.332-3.966a.46.46 0 01-.007-.024c-.313-1.19-.054-1.724.614-1.903.529-.142 1.274.06 2.19.31 1.31.355 3.007.817 4.556.401 1.55-.415 2.79-1.662 3.745-2.624.67-.675 1.214-1.224 1.741-1.365.673-.18 1.166.16 1.49 1.366.474 1.773.094 3.592-.904 5.1-.983 1.484-2.569 2.667-4.525 3.197zm-5.171-1.29c1.409.702 3.151.905 4.896.442l.02-.005.096.361.018.07-.114-.43c1.75-.47 3.166-1.52 4.038-2.836.862-1.301 1.191-2.863.785-4.38-.154-.575-.278-.767-.4-.734-.296.079-.764.55-1.34 1.13-1.03 1.037-2.364 2.382-4.145 2.859-1.783.477-3.61-.02-5.019-.402-.79-.215-1.432-.389-1.727-.31-.119.032-.131.255.017.814a.445.445 0 01.011.043c.41 1.505 1.474 2.685 2.864 3.378z" fill="#333"/><path d="M18.829 8.562a.446.446 0 10-.867-.208l-.004.017-.005.017-.004.018-.005.017-.004.018-.005.017-.005.017-.005.017-.004.018-.006.017-.005.018-.005.017-.005.017-.006.018-.005.017-.006.017-.005.017-.006.017-.006.018-.006.017-.006.017-.006.017-.006.017-.007.017-.006.018-.007.017-.006.017-.007.017-.007.017-.007.017-.007.017-.006.017-.008.017-.007.017-.007.017-.008.017-.007.017-.008.017-.007.017-.008.017-.008.016-.008.017-.008.017-.005.012c-.1.211-.02.439.145.557a.445.445 0 00-.564.132l-.012.016-.012.016-.012.016-.012.015-.012.016-.012.015-.012.016-.013.015-.012.016-.012.015-.013.015-.012.016-.013.015-.013.015-.013.015-.012.016-.014.015-.012.015-.014.015-.013.015-.013.015-.014.015-.013.015-.014.015-.013.015-.014.014-.014.015-.013.015-.014.015-.014.014-.015.015-.014.014-.014.015-.014.014-.014.015-.015.014-.014.015-.015.014-.015.014-.014.014-.01.01a.445.445 0 00-.05.585.444.444 0 00-.587-.066l-.002.002-.017.012-.018.012-.018.012-.018.012-.018.012-.018.012-.018.012-.018.011-.018.012-.018.012-.018.011-.019.012-.018.012-.019.011-.018.011-.019.012-.018.011-.02.011-.018.011-.019.011-.019.011-.019.011-.019.011-.019.011-.019.011-.02.01-.018.011-.02.011-.02.01-.019.011-.02.01-.019.01-.02.011-.02.01-.02.01-.019.01-.02.01-.013.007a.446.446 0 00-.221.546.444.444 0 00-.544-.23l-.021.007-.022.007-.022.007-.023.007-.022.008-.022.007-.022.006-.023.007-.022.007-.023.006-.022.007-.023.006-.023.007-.023.006-.022.006-.023.007a.446.446 0 00.23.86l.027-.006.026-.007.026-.008.026-.007.026-.007.025-.008.026-.008.026-.007.026-.008.025-.008.026-.008.025-.008.026-.008.025-.008.026-.009.024-.008a.446.446 0 00.279-.57c.103.218.37.32.602.206l.013-.006.023-.012.023-.012.023-.011.023-.012.023-.012.022-.012.023-.012.022-.012.023-.012.022-.012.022-.013.023-.012.022-.012.022-.013.022-.013.022-.012.022-.013.021-.013.022-.013.022-.013.021-.013.022-.013.022-.013.021-.013.021-.014.021-.013.022-.014.02-.013.022-.014.021-.014.02-.013.022-.014.02-.014.021-.014.02-.014.021-.014.02-.014.006-.004a.446.446 0 00.103-.629.445.445 0 00.64.022l.01-.009.017-.017.017-.016.017-.017.017-.017.017-.017.017-.017.017-.017.017-.017.017-.018.016-.017.017-.017.016-.017.016-.018.017-.017.016-.018.016-.017.016-.018.016-.018.016-.017.015-.018.016-.018.016-.018.015-.018.016-.018.015-.018.015-.018.015-.018.015-.018.015-.018.015-.019.015-.018.015-.018.014-.019.015-.018.014-.019.015-.018.014-.019.014-.019.014-.018.014-.019.003-.004a.447.447 0 00-.102-.629.444.444 0 00.607-.204l.006-.011.01-.02.009-.021.01-.021.01-.02.008-.022.01-.02.009-.021.009-.02.009-.022.009-.02.009-.022.008-.02.009-.022.008-.02.009-.022.008-.021.008-.02.008-.022.008-.021.008-.021.008-.022.007-.021.008-.021.007-.022.007-.021.008-.022.006-.02.008-.022.006-.022.007-.021.007-.022.006-.022.007-.021.006-.022.006-.021.006-.022.006-.022.006-.022.006-.021.005-.022.006-.022.005-.022.006-.021zm-10.6 7.334a.448.448 0 01-.042.01c-1.742.473-3.15 1.519-4.018 2.83-.862 1.301-1.191 2.864-.785 4.38.154.575.278.767.4.735.296-.08.764-.552 1.34-1.131 1.03-1.037 2.364-2.381 4.145-2.858 1.783-.478 3.61.018 5.019.401.79.215 1.432.39 1.727.31.119-.032.131-.254-.017-.814a.427.427 0 01-.011-.043c-.41-1.505-1.474-2.685-2.864-3.378-1.409-.702-3.15-.904-4.894-.443zm-.227-.861c1.96-.52 3.924-.289 5.518.505 1.618.807 2.857 2.192 3.332 3.966a.412.412 0 01.006.024c.314 1.19.055 1.724-.613 1.903-.529.142-1.274-.06-2.19-.31-1.31-.355-3.007-.817-4.556-.401-1.55.415-2.79 1.663-3.745 2.624-.67.675-1.215 1.224-1.741 1.365-.673.18-1.166-.16-1.49-1.366-.474-1.773-.094-3.592.904-5.1.988-1.49 2.582-2.677 4.55-3.204a.435.435 0 01.025-.006z" fill="#333"/><path d="M3.989 20.398a.446.446 0 10.867.208l.004-.017.004-.018.005-.017.004-.017.005-.018.004-.017.005-.018.005-.017.005-.017.005-.018.005-.017.005-.017.006-.017.005-.018.006-.017.005-.017.006-.018.006-.017.006-.017.006-.017.006-.017.006-.018.006-.017.006-.017.007-.017.006-.017.007-.017.006-.017.007-.017.007-.018.007-.017.007-.017.007-.017.007-.017.008-.016.007-.017.008-.017.007-.017.008-.017.007-.017.008-.017.008-.017.008-.017.006-.011a.445.445 0 00-.15-.56c.185.097.43.06.569-.13l.012-.016.012-.015.011-.016.012-.015.012-.016.013-.016.012-.015.012-.016.012-.015.013-.015.012-.016.013-.015.012-.016.013-.015.013-.015.013-.015.013-.015.013-.015.013-.016.013-.014.014-.015.013-.015.013-.015.014-.015.014-.015.013-.015.014-.015.014-.014.014-.015.014-.015.014-.014.014-.015.014-.015.015-.014.014-.014.014-.015.015-.014.014-.014.015-.015.015-.014.01-.01a.445.445 0 00.05-.584.444.444 0 00.586.066l.002-.002.018-.012.017-.012.018-.012.018-.013.018-.011.018-.012.018-.012.018-.012.018-.012.018-.011.019-.012.018-.012.019-.011.018-.011.019-.012.018-.011.019-.012.019-.01.018-.012.02-.01.018-.012.02-.011.018-.01.02-.012.019-.01.019-.011.019-.01.02-.011.019-.011.02-.01.019-.01.02-.011.02-.01.019-.01.02-.01.02-.01.02-.011.013-.007a.446.446 0 00.22-.546.443.443 0 00.545.23l.02-.006.023-.008.022-.007.022-.007.022-.007.023-.007.022-.007.022-.007.023-.006.022-.007.023-.006.023-.007.022-.006.023-.007.023-.006.023-.006a.446.446 0 00-.231-.861l-.026.007-.026.007-.026.007-.026.008-.026.007-.026.007-.026.008-.025.008-.026.008-.026.007-.025.008-.026.008-.025.009-.026.008-.025.008-.024.008a.446.446 0 00-.28.571.446.446 0 00-.602-.207l-.013.007-.023.012-.023.011-.022.012-.023.012-.023.012-.023.011-.022.012-.023.012-.022.013-.022.012-.023.012-.022.013-.022.012-.022.013-.022.012-.022.013-.022.013-.022.012-.022.013-.021.013-.022.013-.022.014-.021.013-.021.013-.022.013-.021.014-.021.013-.021.014-.022.013-.02.014-.021.014-.021.014-.021.014-.02.014-.021.013-.02.015-.021.014-.005.003a.446.446 0 00-.104.63.445.445 0 00-.64-.023l-.009.01-.017.016-.018.017-.017.017-.017.017-.017.017-.017.017-.017.017-.016.017-.017.017-.017.017-.016.017-.016.018-.017.017-.016.018-.016.017-.017.018-.015.017-.016.018-.016.018-.016.017-.016.019-.015.017-.016.018-.015.018-.016.018-.015.018-.015.018-.015.019-.015.018-.015.018-.015.018-.014.019-.015.018-.014.019-.015.018-.014.019-.014.018-.015.019-.014.019-.014.018-.003.004a.446.446 0 00.104.63.444.444 0 00-.608.203l-.006.012-.01.02-.01.02-.009.021-.01.021-.009.021-.01.02-.008.022-.01.02-.008.021-.01.021-.008.021-.009.021-.008.021-.009.021-.008.021-.008.021-.008.021-.009.022-.007.02-.008.022-.008.021-.008.022-.007.02-.007.022-.008.021-.007.022-.007.021-.007.022-.007.021-.007.022-.006.021-.007.022-.006.022-.006.021-.007.022-.006.022-.006.021-.006.022-.005.022-.006.022-.006.021-.005.022-.005.022zm15.296 7.837a.44.44 0 01-.051.014c-1.96.519-3.924.288-5.517-.506-1.618-.806-2.857-2.192-3.332-3.966a.428.428 0 01-.007-.024c-.313-1.19-.054-1.724.614-1.903.528-.142 1.274.061 2.19.31 1.31.356 3.007.817 4.556.402 1.55-.416 2.79-1.663 3.745-2.625.67-.675 1.214-1.223 1.741-1.364.673-.18 1.166.159 1.49 1.365a.383.383 0 01.006.025c.465 1.765.084 3.574-.91 5.075-.983 1.485-2.569 2.667-4.525 3.197zm-5.171-1.29c1.38.688 3.081.896 4.79.47.641-.16-.359.103.197-.052 1.718-.479 3.107-1.517 3.967-2.816.858-1.295 1.188-2.849.79-4.358a.47.47 0 01-.01-.043c-.152-.559-.275-.745-.394-.713-.297.08-.765.551-1.341 1.13-1.03 1.037-2.364 2.382-4.145 2.859-1.783.477-3.61-.019-5.019-.402-.79-.214-1.432-.389-1.727-.31-.119.032-.131.255.017.814a.436.436 0 01.011.043c.41 1.505 1.473 2.686 2.864 3.378z" fill="#333"/><path d="M23.247 22.886a.446.446 0 10-.867-.208l-.004.017-.005.018-.004.017-.005.017-.004.018-.005.017-.005.017-.005.018-.005.017-.005.018-.005.017-.005.017-.005.017-.006.018-.005.017-.006.017-.005.017-.006.017-.006.018-.006.017-.006.017-.006.017-.006.018-.007.017-.006.017-.007.017-.006.017-.007.017-.007.017-.007.017-.007.017-.007.017-.007.017-.007.017-.007.017-.008.017-.007.017-.008.017-.007.017-.008.017-.008.017-.008.016-.008.017-.005.012a.445.445 0 00.15.56.446.446 0 00-.57.13l-.011.015-.012.016-.012.016-.012.015-.012.016-.012.015-.012.016-.012.015-.013.016-.012.015-.013.016-.012.015-.013.015-.013.015-.013.016-.013.015-.012.015-.014.015-.013.015-.013.015-.013.015-.013.015-.014.015-.014.015-.013.015-.014.015-.014.014-.014.015-.013.015-.014.015-.014.014-.015.015-.014.014-.014.015-.014.014-.015.015-.014.014-.015.014-.014.014-.015.015-.01.009a.445.445 0 00-.049.587.446.446 0 00-.588-.068l-.002.002-.017.012-.018.012-.018.012-.018.012-.018.012-.018.012-.017.012-.019.012-.018.011-.018.012-.018.012-.019.011-.018.012-.018.011-.02.012-.018.011-.018.011-.02.011-.018.012-.019.01-.019.012-.019.01-.019.012-.019.01-.019.011-.02.01-.019.012-.019.01-.02.01-.019.011-.02.01-.019.011-.02.01-.02.01-.02.01-.02.01-.019.01-.013.007a.446.446 0 00-.221.546.444.444 0 00-.544-.23l-.021.007-.022.007-.022.008-.023.007-.022.007-.022.007-.023.007-.022.006-.022.007-.023.007-.022.006-.023.007-.023.006-.023.006-.022.007-.023.006a.446.446 0 00.23.861l.027-.007.026-.007.026-.007.026-.008.026-.007.026-.008.025-.007.026-.008.026-.008.025-.008.026-.008.025-.008.026-.008.025-.008.026-.008.024-.008a.446.446 0 00.279-.572c.103.219.37.322.602.207l.013-.006.023-.012.023-.011.023-.012.023-.012.022-.012.023-.012.023-.012.022-.012.023-.012.022-.012.022-.012.022-.013.023-.012.022-.013.022-.012.022-.013.021-.013.023-.013.021-.013.022-.012.022-.014.021-.013.021-.013.022-.013.021-.014.021-.013.022-.013.02-.014.022-.014.02-.013.022-.014.02-.014.021-.014.021-.014.02-.014.021-.014.02-.014.006-.003a.445.445 0 00.102-.631.446.446 0 00.64.024l.01-.01.018-.016.017-.017.017-.017.017-.017.017-.017.017-.017.017-.017.017-.017.017-.017.016-.018.017-.017.016-.017.016-.017.017-.018.016-.018.016-.017.016-.018.016-.017.016-.018.015-.018.016-.018.016-.017.015-.018.016-.018.015-.019.015-.017.015-.019.015-.018.015-.018.015-.018.015-.018.015-.02.014-.017.015-.019.014-.019.015-.018.014-.018.014-.02.014-.018.014-.019.003-.004a.446.446 0 00-.103-.63.444.444 0 00.608-.203l.005-.01.01-.021.01-.021.01-.02.009-.022.01-.02.009-.021.009-.02.009-.021.009-.022.009-.02.009-.021.008-.021.009-.021.008-.021.009-.021.008-.022.008-.02.008-.022.008-.021.008-.021.008-.022.007-.02.008-.022.007-.021.007-.022.008-.021.006-.022.008-.021.006-.022.007-.021.007-.022.006-.021.007-.022.006-.022.006-.021.006-.022.006-.021.006-.022.006-.022.005-.022.006-.022.005-.021.006-.022z" fill="#333"/><path fill-rule="evenodd" clip-rule="evenodd" d="M3.152 9.25c.725-1.266 1.665-2.908 3.266-3.832 1.597-.922 3.49-.916 4.95-.91.817.002 1.482.005 1.748-.149.107-.062.063-.279-.222-.777a.504.504 0 01-.016-.026c-.784-1.36-2.121-2.23-3.649-2.541-1.54-.313-3.274-.059-4.837.836l-.003.002a.445.445 0 01-.048.027c-1.557.907-2.643 2.28-3.142 3.77-.493 1.471-.41 3.055.36 4.409a.45.45 0 01.03.05c.29.497.455.644.562.582.262-.151.594-.73 1-1.44zm-.805-1.973a.445.445 0 11-.891.024v-.023l-.001-.022v-.18l.001-.023v-.022l.002-.023v-.022l.002-.023v-.022l.002-.023.001-.022.002-.023.002-.022.001-.023.002-.022.002-.023.002-.023.002-.022.003-.023.002-.022.003-.023.002-.022.003-.023.003-.022.003-.023.003-.022.003-.023.003-.022.003-.022.004-.023.004-.023.003-.022.004-.023.004-.022.004-.022.004-.023.003-.012a.444.444 0 01.535-.354.446.446 0 01-.263-.581l.001-.005.009-.022.009-.021.009-.022.009-.021.009-.022.009-.022.01-.022.008-.021.01-.022.01-.021.009-.022.01-.021.01-.022.01-.021.01-.022.01-.02.01-.022.01-.021.01-.022.011-.021.01-.021.012-.022.01-.02.011-.022.011-.021.011-.021.012-.021.01-.021.012-.021.012-.021.011-.021.012-.021.012-.021.012-.02.012-.022.012-.02.012-.021.012-.02.012-.022.013-.02.006-.012a.445.445 0 01.626-.142.445.445 0 01-.065-.636l.004-.005.016-.019.016-.019.017-.019.016-.018.017-.02.016-.018.017-.019.016-.018.017-.019.017-.019.017-.018.017-.018.017-.019.018-.018.017-.019.018-.018.017-.018.018-.018.017-.018.018-.018.018-.018.018-.018.018-.018.018-.018.018-.018.018-.018.019-.017.018-.018.019-.017.018-.018.019-.017.019-.018.019-.017.019-.017.019-.017.019-.018.019-.017.01-.01a.446.446 0 01.638.047.446.446 0 01.12-.626l.021-.014.023-.015.022-.014.022-.015.023-.014.023-.015.022-.014.023-.014.023-.014.023-.014.023-.014.023-.014.023-.014.023-.013.024-.014.023-.014a.445.445 0 11.446.772l-.02.012-.021.012-.02.012-.02.012-.02.012-.02.013-.021.012-.02.012-.02.012-.02.013-.02.012-.019.013-.02.013-.02.012-.019.013-.018.012a.445.445 0 01-.587-.085.446.446 0 01-.07.588l-.011.01-.017.015-.017.015L4 3.78l-.016.015-.017.015-.016.015-.016.015-.016.015-.016.015-.016.015-.016.016-.016.015-.016.015-.015.016-.016.015-.015.016-.016.015-.015.016-.015.016-.016.015-.015.016-.015.016-.015.016-.015.015-.014.016-.015.016-.015.016-.014.016-.015.016-.014.016-.015.016-.014.017-.014.016-.014.016-.014.016-.014.017-.014.016-.002.002a.445.445 0 01-.587.085.445.445 0 01.107.581l-.007.012-.01.017-.011.018-.01.017-.011.018-.01.018-.01.017-.01.018-.01.018-.01.017-.01.018-.01.018-.01.018-.009.018-.01.017-.009.018-.01.018-.008.018-.01.018-.009.018-.009.018-.008.018-.009.017-.009.018-.008.019-.009.018-.008.018-.009.018-.008.018-.008.018-.008.018-.008.018-.008.018-.008.018-.008.018-.008.018-.007.018-.008.019-.007.018-.007.018-.008.018a.444.444 0 01-.513.274c.191.07.33.27.287.501l-.003.013-.003.018-.003.018-.003.019-.003.018-.003.018-.003.019-.003.018-.003.018-.003.019-.002.018-.003.018-.002.018-.002.018-.003.019-.002.018-.002.018-.002.019-.002.018-.001.018-.002.018-.001.018-.002.018-.001.019-.002.018v.018l-.002.018-.001.018-.001.018v.018l-.002.019v.035l-.001.019v.018l-.001.018v.143zm4.46 1.107c-.12.032-.132.255.016.815a.44.44 0 01.012.042c.41 1.505 1.473 2.686 2.863 3.379 1.41.702 3.152.904 4.896.442l.02-.006c1.751-.469 3.166-1.518 4.039-2.835.861-1.3 1.19-2.863.785-4.379-.155-.576-.279-.767-.4-.735-.296.08-.765.551-1.34 1.13-1.03 1.038-2.365 2.382-4.146 2.86-1.782.477-3.61-.02-5.018-.403-.79-.214-1.432-.389-1.727-.31zm11.158-.032a.446.446 0 11.867.208l-.005.022-.006.022-.005.022-.006.022-.005.021-.006.022-.006.022-.006.022-.007.021-.006.022-.006.021-.007.022-.006.022-.007.02-.007.022-.007.022-.007.021-.007.022-.008.021-.007.021-.007.022-.008.021-.008.022-.008.02-.008.022-.008.021-.008.02-.008.022-.008.021-.009.021-.008.021-.009.021-.009.021-.009.021-.009.02-.009.022-.009.02-.01.021-.008.021-.01.02-.01.022-.01.02-.009.02-.006.012a.445.445 0 01-.607.204c.191.136.26.415.102.63l-.002.003-.014.019-.014.018-.014.019-.015.019-.014.018-.015.019-.014.018-.015.019-.014.018-.015.018-.015.019-.015.018-.015.018-.015.018-.016.018-.015.018-.015.018-.016.018-.015.018-.016.018-.016.018-.016.017-.016.018-.016.018-.016.017-.016.018-.016.017-.016.018-.017.017-.016.017-.017.017-.017.018-.016.017-.017.017-.017.017-.017.017-.017.017L17.4 11l-.018.016-.017.017-.01.01a.445.445 0 01-.64-.023.446.446 0 01-.103.63l-.005.002-.02.015-.02.014-.021.014-.021.014-.02.014-.022.014-.02.013-.022.014-.02.014-.022.013-.021.014-.021.013-.021.013-.022.014-.022.013-.021.013-.022.013-.021.013-.022.013-.022.013-.022.013-.022.012-.022.013-.022.012-.022.013-.022.012-.023.012-.022.013-.023.012-.022.012-.022.012-.023.012-.023.012-.023.012-.022.011-.023.012-.023.011-.014.007a.446.446 0 01-.602-.207.446.446 0 01-.279.571l-.024.008-.025.009-.026.008-.025.008-.025.008-.026.008-.026.008-.026.008-.025.007-.026.008-.026.008-.026.007-.026.007-.026.008-.026.007-.026.007a.445.445 0 11-.23-.861l.022-.007.023-.006.023-.006.022-.007.023-.006.023-.007.022-.006.023-.007.022-.007.022-.007.023-.007.022-.007.022-.007.022-.007.022-.007.021-.007a.444.444 0 01.544.23.446.446 0 01.221-.546l.014-.007.02-.01.02-.01.02-.01.019-.01.02-.01.02-.01.019-.011.02-.01.019-.011.019-.01.02-.011.019-.011.019-.01.019-.012.019-.01.019-.012.019-.01.019-.012.018-.01.02-.012.018-.011.019-.012.018-.011.018-.011.019-.012.018-.012.018-.011.019-.012.018-.012.018-.011.018-.012.018-.012.018-.012.018-.012.018-.012.017-.012.018-.012.002-.002a.444.444 0 01.586.065.445.445 0 01.05-.585l.01-.009.015-.014.014-.014.015-.014.015-.015.014-.014.014-.015.015-.014.014-.015.014-.014.014-.015.014-.014.014-.015.014-.015.014-.015.013-.014.014-.015.014-.015.013-.015.013-.015.014-.015.013-.015.013-.015.013-.015.013-.015.013-.016.013-.015.012-.015.013-.015.013-.016.012-.015.013-.015.012-.016.012-.015.012-.016.013-.016.012-.015.011-.015.012-.016.012-.016.012-.016a.445.445 0 01.565-.132.446.446 0 01-.146-.557l.006-.012.008-.017.008-.017.007-.016.008-.017.008-.017.007-.017.008-.017.007-.017.008-.017.007-.017.007-.017.007-.017.007-.017.007-.017.006-.017.007-.017.007-.018.006-.017.007-.017.006-.017.006-.017.006-.017.006-.017.006-.018.006-.017.006-.017.006-.018.005-.016.006-.018.005-.017.006-.017.005-.018.005-.017.005-.017.005-.018.005-.017.005-.017.004-.018.005-.017.004-.018.005-.017.004-.017.004-.018zm5.043.844c-.477 1.78-1.821 3.116-2.858 4.145-.58.576-1.051 1.044-1.13 1.341-.033.121.159.245.734.4 1.516.405 3.078.076 4.38-.786 1.316-.872 2.365-2.287 2.835-4.038.469-1.751.267-3.502-.437-4.916-.696-1.396-1.884-2.463-3.399-2.87-.576-.153-.804-.142-.836-.022-.08.295.095.938.31 1.727.382 1.41.879 3.236.401 5.019zm1.893-3.833l-.011-.015-.012-.014-.012-.014-.011-.014-.012-.014-.012-.014-.012-.014-.012-.014-.011-.013-.013-.014-.012-.013-.012-.014-.012-.013-.012-.014-.013-.013-.012-.013-.012-.013-.013-.013-.012-.013-.013-.013-.012-.013-.013-.013-.013-.012-.013-.013-.013-.012-.013-.013-.012-.012a.445.445 0 11.613-.647l.016.016.017.015.016.016.016.016.016.016.015.016.016.016.016.016.016.016.015.016.016.017.015.016.016.017.015.016.015.017.015.017.015.016.015.017.015.017.015.017.014.017.015.018.015.017.014.017.014.018.015.017.014.018.014.018.014.017.014.018.014.018.014.018.014.018.013.018.014.019.014.018.013.018.013.019.014.018.013.019.013.018.013.02.013.018.007.01a.445.445 0 01-.132.631.445.445 0 01.6.223l.003.004.009.022.009.021.01.022.008.022.009.021.009.022.009.022.008.022.009.022.008.022.009.022.008.022.008.022.008.022.008.022.008.023.008.022.008.023.008.022.007.022.008.023.007.022.008.023.007.023.007.022.007.023.007.023.007.023.007.023.006.023.007.023.007.023.006.023.006.023.007.023.006.023.006.024.006.023.006.023.006.024.003.013a.447.447 0 01-.338.542.446.446 0 01.492.404v.007l.002.024.002.025.002.025.002.025.002.025.001.025.002.025.001.025.001.025.001.025.002.025v.025l.001.025.001.026v.025l.001.025v.025l.001.026v.228l-.001.026v.025l-.002.026v.025l-.002.026v.025l-.002.026-.001.026-.001.025-.002.026v.015a.445.445 0 01-.485.417.446.446 0 01.359.528l-.005.025-.006.026-.005.026-.006.026-.006.026-.005.026-.006.026-.007.027-.006.026-.006.026-.007.026-.006.026-.007.026-.006.026-.007.027-.007.026a.446.446 0 01-.861-.231l.006-.023.006-.023.006-.023.005-.022.006-.023.006-.023.005-.023.006-.023.005-.022.005-.023.005-.023.005-.023.005-.023.005-.022.005-.023.004-.022a.445.445 0 01.476-.355.446.446 0 01-.367-.465l.001-.015.002-.022v-.023l.002-.022v-.022l.002-.022v-.022l.001-.023.001-.021v-.023l.001-.022v-.044l.001-.022V8.25l-.001-.022-.001-.022v-.021l-.002-.022v-.021l-.001-.022-.001-.022-.001-.021-.002-.022v-.022l-.002-.02-.002-.022-.001-.022-.002-.021-.001-.022-.002-.021V7.9a.446.446 0 01.349-.474.445.445 0 01-.48-.337l-.004-.013-.005-.02-.005-.02-.005-.02-.005-.019-.005-.02-.006-.02-.005-.019-.005-.02-.006-.02-.006-.018-.005-.02-.006-.02-.006-.019-.006-.019-.006-.02-.006-.018-.006-.02-.006-.019-.006-.019-.007-.019-.006-.019-.007-.019-.006-.018-.007-.02-.007-.018-.006-.019-.007-.018-.007-.02-.007-.018-.007-.018-.007-.019-.008-.018-.007-.018-.007-.019-.008-.018-.007-.018-.008-.018-.007-.018-.008-.019-.008-.018a.445.445 0 01.174-.558.445.445 0 01-.561-.15l-.008-.01-.01-.015-.01-.016-.011-.015-.011-.015-.01-.015-.012-.015-.01-.015-.012-.015-.01-.015-.012-.014-.011-.015-.011-.015-.012-.014-.01-.015-.012-.014-.012-.014z" fill="#FFD3B3"/><path fill-rule="evenodd" clip-rule="evenodd" d="M15.986 19.715c-.41-1.506-1.473-2.686-2.863-3.379-1.409-.702-3.15-.904-4.895-.442a.447.447 0 01-.041.01c-1.742.473-3.15 1.519-4.018 2.83-.862 1.301-1.192 2.864-.785 4.38.154.575.278.767.399.735.296-.08.765-.551 1.34-1.131 1.03-1.037 2.365-2.381 4.146-2.858 1.782-.478 3.61.019 5.019.401.79.215 1.431.39 1.727.31.119-.032.13-.254-.017-.814a.436.436 0 01-.012-.042zm-11.13.888a.446.446 0 11-.867-.208l.005-.021.006-.022.005-.022.006-.022.006-.022.006-.021.006-.022.006-.022.006-.021.006-.022.007-.022.006-.021.007-.022.006-.021.007-.022.007-.021.007-.021.008-.022.007-.021.007-.022.008-.02.007-.022.008-.021.008-.022.008-.021.008-.021.008-.021.008-.021.009-.021.008-.021.009-.021.008-.022.009-.02.009-.021.009-.021.009-.021.01-.02.008-.022.01-.02.01-.021.009-.02.01-.021.01-.021.005-.012a.444.444 0 01.608-.203.446.446 0 01-.103-.63l.003-.003.014-.019.014-.019.014-.018.014-.019.014-.018.015-.019.014-.018.015-.019.015-.018.015-.019.014-.018.015-.018.016-.018.015-.018.015-.018.015-.018.016-.018.015-.018.016-.018.015-.018.016-.018.016-.018.016-.017.016-.018.016-.017.016-.018.016-.017.017-.018.016-.017.017-.017.016-.018.017-.017.017-.017.016-.017.018-.017.016-.017.018-.017.017-.017.017-.016.017-.017.01-.01a.445.445 0 01.64.023.446.446 0 01.103-.63l.005-.003.02-.014.021-.014.02-.014.021-.014.021-.014.02-.014.022-.014.02-.013.022-.014.021-.013.021-.014.021-.013.022-.014.021-.013.022-.013.021-.013.022-.013.022-.013.021-.013.022-.013.022-.013.022-.012.022-.013.022-.012.022-.013.023-.013.022-.012.022-.012.023-.012.022-.012.023-.012.022-.012.023-.012.023-.012.023-.011.023-.012.023-.012.013-.006a.446.446 0 01.602.207.446.446 0 01.28-.572l.023-.008.026-.008.025-.008.025-.008.026-.008.025-.008.026-.008.026-.008.026-.008.025-.007.026-.008.026-.007.026-.007.026-.008.026-.007.026-.007a.445.445 0 11.23.861l-.022.006-.023.007-.022.006-.023.006-.023.007-.022.006-.023.007-.022.007-.023.007-.022.006-.022.007-.023.007-.022.008-.022.007-.022.007-.02.007a.444.444 0 01-.545-.23.446.446 0 01-.221.546l-.013.006-.02.01-.02.01-.02.01-.02.01-.02.011-.019.01-.02.011-.019.01-.02.01-.019.012-.02.01-.018.01-.02.012-.019.01-.019.011-.019.012-.019.01-.018.012-.02.01-.018.012-.019.011-.018.012-.019.01-.018.012-.019.012-.018.012-.018.011-.019.012-.018.011-.018.012-.018.012-.018.012-.018.012-.017.012-.018.012-.018.012-.018.013H6.72a.444.444 0 01-.586-.065.445.445 0 01-.05.585l-.01.01-.015.014-.014.014-.015.014-.014.015-.015.014-.014.014-.014.015-.015.015-.014.014-.014.015-.014.014-.014.015-.014.015-.013.014-.014.015-.014.015-.013.015-.014.015-.013.015-.013.015-.013.015-.014.015-.013.015-.013.015-.013.015-.012.016-.013.015-.013.015-.012.016-.013.015-.012.015-.013.016-.012.015-.012.016-.012.015-.012.016-.012.015-.012.016-.012.016-.012.015v.001a.446.446 0 01-.569.13.445.445 0 01.15.56l-.005.01-.008.018-.008.017-.008.016-.008.017-.008.017-.007.017-.008.017-.007.017-.007.017-.007.017-.008.017-.007.017-.007.017-.006.017-.007.017-.007.017-.007.017-.006.017-.006.018-.007.017-.006.017-.006.017-.006.017-.006.017-.006.018-.006.017-.005.017-.006.017-.006.018-.005.017-.005.017-.006.018-.005.017-.005.017-.005.018-.004.017-.005.017-.005.018-.005.017-.004.017-.004.018-.005.017-.004.017z" fill="#F45A52"/><path fill-rule="evenodd" clip-rule="evenodd" d="M17.97 23.42c-1.782.478-3.61-.019-5.018-.401-.79-.215-1.432-.39-1.727-.31-.12.032-.132.254.016.814a.427.427 0 01.012.042c.41 1.506 1.473 2.686 2.863 3.379 1.38.688 3.082.896 4.79.47l.105-.027.092-.026c1.719-.478 3.107-1.517 3.968-2.816.857-1.295 1.188-2.849.79-4.358a.425.425 0 01-.011-.043c-.152-.558-.274-.745-.394-.713-.296.08-.765.551-1.34 1.131-1.03 1.037-2.365 2.381-4.146 2.858zm4.413-.743a.446.446 0 11.867.208l-.005.021-.006.022-.005.022-.006.022-.006.022-.005.021-.006.022-.006.022-.007.021-.006.022-.006.022-.007.021-.006.022-.007.021-.007.022-.007.021-.007.022-.007.021-.008.021-.007.022-.008.021-.007.021-.008.022-.008.02-.008.022-.008.021-.008.021-.008.021-.008.021-.009.021-.008.021-.009.021-.009.021-.009.021-.009.021-.009.021-.009.02-.01.022-.009.02-.009.021-.01.02-.01.021-.01.021-.005.012a.444.444 0 01-.608.203.446.446 0 01.104.63l-.003.003-.014.019-.014.018-.015.02-.014.018-.014.018-.015.019-.014.018-.015.019-.015.018-.014.019-.015.018-.015.018-.015.018-.016.018-.015.018-.015.018-.015.018-.016.018-.015.018-.016.018-.016.018-.016.018-.016.017-.015.018-.017.017-.016.018-.016.018-.017.017-.016.017-.016.017-.017.018-.017.017-.016.017-.017.017-.017.017-.017.017-.017.017-.018.017-.017.017-.017.016-.01.01a.446.446 0 01-.64-.024.444.444 0 01-.103.63l-.005.004-.02.014-.02.014-.021.014-.021.014-.02.014-.022.014-.02.014-.022.013-.02.014-.022.013-.021.014-.021.013-.021.014-.022.013-.021.013-.022.013-.022.013-.021.013-.022.013-.022.013-.022.013-.022.012-.022.013-.022.013-.022.012-.022.012-.023.013-.022.012-.023.012-.022.012-.022.012-.023.012-.023.012-.023.012-.023.012-.022.011-.023.012-.014.006a.446.446 0 01-.602-.207.446.446 0 01-.279.572l-.024.008-.025.008-.026.008-.025.008-.026.008-.025.008-.026.008-.026.008-.025.008-.026.007-.026.008-.026.007-.026.007-.026.008-.026.007-.026.007a.445.445 0 11-.23-.861l.022-.006.023-.007.023-.006.022-.006.023-.007.023-.006.022-.007.023-.007.022-.007.022-.006.022-.007.023-.007.022-.008.022-.007.022-.007.021-.007a.444.444 0 01.544.23.446.446 0 01.221-.546l.014-.006.02-.01.02-.01.02-.01.019-.01.02-.011.02-.01.019-.01.02-.011.018-.01.02-.011.02-.011.018-.01.02-.012.019-.01.019-.011.019-.011.019-.011.018-.011.02-.012.018-.01.019-.012.018-.011.02-.012.017-.011.019-.012.018-.011.018-.012.019-.012.018-.011.018-.012.018-.012.018-.012.018-.012.018-.012.018-.012.017-.012.018-.012.002-.002a.445.445 0 01.588.068.446.446 0 01.048-.587l.01-.01.015-.014.015-.014.014-.014.015-.015.014-.014.014-.014.015-.015.014-.014.014-.015.014-.015.014-.014.014-.015.014-.015.014-.014.013-.015.014-.015.013-.015.014-.015.013-.015.014-.015.013-.015.013-.015.013-.015.013-.015.013-.015.013-.016.012-.015.013-.015.013-.015.012-.016.013-.015.012-.016.012-.015.012-.016.012-.015.013-.016.012-.015.011-.016.012-.016.012-.015a.446.446 0 01.569-.13.445.445 0 01-.15-.56l.006-.012.008-.017.008-.016.007-.017.008-.017.008-.017.007-.017.008-.017.007-.017.008-.017.007-.017.007-.017.007-.017.007-.017.007-.017.006-.017.007-.017.007-.017.006-.017.007-.018.006-.017.006-.017.006-.017.006-.017.006-.017.006-.018.006-.017.006-.017.005-.017.006-.018.005-.017.005-.017.006-.018.005-.017.005-.017.005-.017.005-.018.005-.017.004-.018.005-.017.004-.017.005-.017.004-.018.004-.017z" fill="#FFD3B3"/></svg>