<svg width="29" height="29" fill="none" xmlns="http://www.w3.org/2000/svg"><g clip-path="url(#clip0_512_19575)"><path d="M4.383 26.458h19.731v.897l-.897.897-.897-.897-.897.897-.896-.897-.897.897-.897-.897-.897.897-.897-.897-.897.897-.897-.897-.897.897-.896-.897-.897.897-.897-.897-.897.897-.897-.897-.897.897-.897-.897-.897.897-.896-.897-.897.897-.897-.897v-.897z" fill="#FFD3B3"/><path d="M4.383 2.242h19.731v24.216H4.383V2.242zm19.731 0H4.383v-.897L5.28.448l.897.897.896-.897.897.897.897-.897.897.897.897-.897.897.897.897-.897.897.897.896-.897.897.897.897-.897.897.897.897-.897.897.897.897-.897.897.897.896-.897.897.897.897-.897.897.897v.897z" fill="#FFD3B3"/><path d="M12.008 9.866a1.343 1.343 0 01-1.346 1.345H8.87a1.34 1.34 0 01-1.346-1.345A1.34 1.34 0 018.868 8.52h1.794a1.34 1.34 0 011.265.896c.053.14.08.292.08.449zm1.347 7.623c0 .583-.373 1.08-.893 1.264a1.248 1.248 0 01-.453.081c-.157 0-.309-.027-.448-.08a1.337 1.337 0 01-.897-1.265v-1.794c0-.583.377-1.08.897-1.265.14-.053.291-.08.448-.08.157 0 .31.027.449.08.524.184.897.682.897 1.265v1.794zm-4.485 0a1.34 1.34 0 01-.892 1.264c-.14.054-.292.081-.453.081-.157 0-.309-.027-.448-.08a1.331 1.331 0 01-.897-1.265v-1.794c0-.583.372-1.08.897-1.265.139-.053.291-.08.448-.08.157 0 .309.027.448.08.525.184.897.682.897 1.265v1.794zm3.057-12.556c.053.14.08.291.08.448 0 .157-.027.31-.08.449a1.34 1.34 0 01-1.264.897H8.868A1.34 1.34 0 017.523 5.38a1.34 1.34 0 011.345-1.345h1.794c.584 0 1.081.372 1.265.897zm.005 17.937a1.356 1.356 0 010 .897 1.34 1.34 0 01-1.27.897H8.87a1.342 1.342 0 01-1.265-.892 1.26 1.26 0 01-.08-.453c0-.157.027-.31.08-.448a1.34 1.34 0 011.265-.897h1.793a1.34 1.34 0 011.27.896zm8.968-8.968a1.355 1.355 0 010 .897 1.34 1.34 0 01-1.269.896h-1.794c-.582 0-1.08-.372-1.264-.892a1.259 1.259 0 01-.08-.453c0-.157.027-.31.08-.448a1.34 1.34 0 011.264-.897h1.794a1.34 1.34 0 011.27.897zm0 4.484a1.356 1.356 0 010 .897 1.34 1.34 0 01-1.269.897h-1.794c-.582 0-1.08-.372-1.264-.892a1.259 1.259 0 01-.08-.453c0-.157.027-.31.08-.449.184-.52.682-.897 1.264-.897h1.794c.588 0 1.081.377 1.27.897zm0 4.484a1.356 1.356 0 010 .897 1.34 1.34 0 01-1.269.897h-1.794c-.582 0-1.08-.372-1.264-.892a1.26 1.26 0 01-.08-.453c0-.157.027-.31.08-.448a1.34 1.34 0 011.264-.897h1.794a1.34 1.34 0 011.27.896zm.531-17.408c.52.183.892.681.892 1.264V8.52a1.33 1.33 0 01-.896 1.265c-.14.053-.292.08-.449.08-.157 0-.309-.027-.448-.08a1.33 1.33 0 01-.897-1.265V6.726c0-.588.372-1.085.897-1.264a1.24 1.24 0 01.448-.081c.161 0 .314.027.453.08z" fill="#B38E85"/><path d="M7.525 5.381c0 .157.027.31.076.449l-1.421.897v-2.69l1.421.896c-.049.14-.076.291-.076.448zm0 4.485c0 .157.027.309.076.448l-1.421.897v-2.69l1.421.896a1.36 1.36 0 00-.076.449zm13.454 8.969c0-.157-.028-.31-.077-.449l1.422-.897v2.69l-1.422-.896a1.33 1.33 0 00.077-.448zm1.345 3.139v2.69l-1.422-.897a1.356 1.356 0 000-.896l1.422-.897zM12.01 5.381c0-.157-.027-.309-.08-.448l1.426-.897v2.69L11.93 5.83c.053-.14.08-.292.08-.449zm4.932 4.409l.897 1.421h-2.69l.892-1.421v-.005c.14.054.292.08.453.08.157 0 .309-.026.448-.08v.005zm-6.278 3.215h2.69l-.896 1.426a1.245 1.245 0 00-.449-.08c-.157 0-.309.026-.448.08l-.897-1.426zm1.346-3.139c0-.157-.027-.31-.08-.449l1.426-.896v2.69l-1.426-.892a1.26 1.26 0 00.08-.453zm.452 8.892l.893 1.422h-2.69l.896-1.422v-.004c.14.054.291.08.448.08.161 0 .314-.026.453-.08v.004zm-4.937 4.561c0 .161.027.314.08.453l-1.425.892v-2.69l1.426.896c-.054.14-.081.292-.081.449zm4.485 0c0-.157-.027-.31-.076-.448l1.421-.897v2.69l-1.421-.897a1.35 1.35 0 00.076-.448zM6.18 13.005h2.69l-.897 1.426a1.245 1.245 0 00-.448-.08c-.157 0-.309.026-.448.08l-.897-1.426zm1.798 5.753l.892 1.422H6.18l.897-1.422v-.004c.139.054.291.08.448.08.161 0 .314-.026.453-.08v.004zm7.17-14.722h2.691l-.897 1.426a1.255 1.255 0 00-.448-.08c-.157 0-.31.027-.449.08l-.897-1.426zm1.346 14.799c0 .161.027.313.08.453l-1.426.892v-2.69l1.427.896c-.054.14-.081.292-.081.449zm0-4.485c0 .162.027.314.08.453l-1.426.892v-2.69l1.427.897a1.237 1.237 0 00-.081.448zm0 8.969c0 .161.027.314.08.453l-1.426.892v-2.69l1.427.896c-.054.14-.081.292-.081.449zM21.427 9.79l.896 1.421h-2.69l.897-1.421v-.005c.14.054.291.08.448.08.157 0 .31-.026.449-.08v.005zm-1.794-5.754h2.69l-.892 1.426a1.261 1.261 0 00-.453-.08c-.157 0-.309.027-.448.08l-.897-1.426zm1.346 10.314c0-.157-.028-.31-.077-.448l1.422-.897v2.69l-1.422-.896c.05-.14.077-.292.077-.449z" fill="#FFD3B3"/><path d="M17.84 8.52a1.33 1.33 0 01-.898 1.265c-.14.053-.291.08-.448.08a1.27 1.27 0 01-.453-.08 1.342 1.342 0 01-.893-1.265V6.726c0-.588.373-1.085.897-1.264.14-.054.292-.081.449-.081.157 0 .309.027.448.08.525.18.897.678.897 1.265V8.52z" fill="#B38E85"/><path d="M4.382 1.794a.447.447 0 01-.317-.766l.897-.896a.448.448 0 11.634.634l-.897.896a.447.447 0 01-.317.132z" fill="#333"/><path d="M6.177 1.794a.447.447 0 01-.317-.132L4.964.766a.448.448 0 11.634-.634l.897.896a.448.448 0 01-.318.766z" fill="#333"/><path d="M6.179 1.794a.447.447 0 01-.317-.766l.897-.896a.448.448 0 11.634.634l-.897.896a.447.447 0 01-.317.132z" fill="#333"/><path d="M7.97 1.794a.447.447 0 01-.317-.132L6.757.766A.448.448 0 117.39.132l.896.896a.448.448 0 01-.317.766z" fill="#333"/><path d="M7.972 1.794a.447.447 0 01-.317-.766l.897-.896a.448.448 0 11.634.634l-.897.896a.447.447 0 01-.317.132z" fill="#333"/><path d="M9.767 1.794a.447.447 0 01-.317-.132L8.553.766a.448.448 0 11.634-.634l.897.896a.448.448 0 01-.317.766z" fill="#333"/><path d="M9.765 1.794a.447.447 0 01-.317-.766l.897-.896a.448.448 0 11.634.634l-.897.896a.447.447 0 01-.317.132z" fill="#333"/><path d="M11.56 1.794a.447.447 0 01-.317-.132l-.897-.896a.448.448 0 11.634-.634l.897.896a.448.448 0 01-.317.766z" fill="#333"/><path d="M11.558 1.794a.447.447 0 01-.317-.766l.897-.896a.448.448 0 11.634.634l-.897.896a.447.447 0 01-.317.132z" fill="#333"/><path d="M13.353 1.794a.447.447 0 01-.317-.132L12.14.766a.448.448 0 11.634-.634l.897.896a.448.448 0 01-.317.766z" fill="#333"/><path d="M13.35 1.794a.447.447 0 01-.316-.766l.897-.896a.448.448 0 11.634.634l-.897.896a.447.447 0 01-.317.132z" fill="#333"/><path d="M15.146 1.794a.447.447 0 01-.317-.132l-.897-.896a.448.448 0 11.634-.634l.897.896a.448.448 0 01-.317.766z" fill="#333"/><path d="M15.148 1.794a.447.447 0 01-.317-.766l.897-.896a.448.448 0 11.634.634l-.897.896a.447.447 0 01-.317.132z" fill="#333"/><path d="M16.94 1.794a.447.447 0 01-.318-.132l-.897-.896a.448.448 0 11.634-.634l.897.896a.448.448 0 01-.317.766z" fill="#333"/><path d="M16.94 1.794a.447.447 0 01-.316-.766l.897-.896a.448.448 0 11.634.634l-.897.896a.447.447 0 01-.317.132z" fill="#333"/><path d="M18.732 1.794a.447.447 0 01-.317-.132l-.897-.896a.448.448 0 11.634-.634l.897.896a.448.448 0 01-.317.766z" fill="#333"/><path d="M18.734 1.794a.447.447 0 01-.317-.766l.896-.896a.448.448 0 11.635.634l-.897.896a.447.447 0 01-.317.132z" fill="#333"/><path d="M20.529 1.794a.447.447 0 01-.317-.132l-.897-.896a.448.448 0 11.634-.634l.897.896a.448.448 0 01-.317.766z" fill="#333"/><path d="M20.527 1.794a.447.447 0 01-.317-.766l.896-.896a.448.448 0 11.635.634l-.897.896a.447.447 0 01-.317.132z" fill="#333"/><path d="M22.322 1.794a.447.447 0 01-.317-.132l-.897-.896a.448.448 0 11.634-.634l.897.896a.448.448 0 01-.317.766z" fill="#333"/><path d="M22.323 1.794a.447.447 0 01-.317-.766l.897-.896a.448.448 0 11.635.634l-.897.896a.447.447 0 01-.317.132z" fill="#333"/><path d="M24.115 1.794a.447.447 0 01-.317-.132L22.9.766a.448.448 0 11.634-.634l.897.896a.448.448 0 01-.317.766zM23.218 28.7a.447.447 0 01-.317-.765l.897-.897a.448.448 0 11.634.634l-.897.897a.447.447 0 01-.317.131z" fill="#333"/><path d="M23.22 28.7a.447.447 0 01-.317-.131l-.896-.897a.448.448 0 11.634-.634l.897.897a.448.448 0 01-.318.765z" fill="#333"/><path d="M21.425 28.7a.448.448 0 01-.317-.765l.897-.897a.448.448 0 11.634.634l-.897.897a.447.447 0 01-.317.131z" fill="#333"/><path d="M21.424 28.7a.447.447 0 01-.317-.131l-.897-.897a.448.448 0 11.634-.634l.897.897a.448.448 0 01-.317.765z" fill="#333"/><path d="M19.632 28.7a.448.448 0 01-.317-.765l.897-.897a.448.448 0 11.634.634l-.897.897a.447.447 0 01-.317.131z" fill="#333"/><path d="M19.63 28.7a.447.447 0 01-.316-.131l-.897-.897a.448.448 0 11.634-.634l.897.897a.448.448 0 01-.317.765z" fill="#333"/><path d="M17.835 28.7a.447.447 0 01-.317-.765l.897-.897a.448.448 0 11.634.634l-.897.897a.447.447 0 01-.317.131z" fill="#333"/><path d="M17.838 28.7a.447.447 0 01-.317-.131l-.897-.897a.448.448 0 11.634-.634l.897.897a.448.448 0 01-.317.765z" fill="#333"/><path d="M16.042 28.7a.448.448 0 01-.317-.765l.897-.897a.448.448 0 11.634.634l-.897.897a.447.447 0 01-.317.131z" fill="#333"/><path d="M16.045 28.7a.447.447 0 01-.317-.131l-.897-.897a.448.448 0 11.634-.634l.897.897a.448.448 0 01-.317.765z" fill="#333"/><path d="M14.25 28.7a.448.448 0 01-.317-.765l.896-.897a.448.448 0 11.634.634l-.897.897a.447.447 0 01-.317.131z" fill="#333"/><path d="M14.248 28.7a.447.447 0 01-.317-.131l-.897-.897a.448.448 0 11.634-.634l.897.897a.448.448 0 01-.317.765z" fill="#333"/><path d="M12.456 28.7a.447.447 0 01-.317-.765l.897-.897a.448.448 0 11.634.634l-.897.897a.447.447 0 01-.317.131z" fill="#333"/><path d="M12.455 28.7a.447.447 0 01-.317-.131l-.897-.897a.448.448 0 11.634-.634l.897.897a.448.448 0 01-.317.765z" fill="#333"/><path d="M10.663 28.7a.447.447 0 01-.317-.765l.897-.897a.448.448 0 11.634.634l-.897.897a.447.447 0 01-.317.131z" fill="#333"/><path d="M10.662 28.7a.447.447 0 01-.317-.131l-.897-.897a.448.448 0 11.634-.634l.897.897a.448.448 0 01-.317.765z" fill="#333"/><path d="M8.87 28.7a.447.447 0 01-.317-.765l.897-.897a.448.448 0 11.634.634l-.897.897a.447.447 0 01-.317.131z" fill="#333"/><path d="M8.869 28.7a.447.447 0 01-.317-.131l-.897-.897a.448.448 0 11.634-.634l.897.897a.448.448 0 01-.317.765z" fill="#333"/><path d="M7.074 28.7a.447.447 0 01-.317-.765l.896-.897a.448.448 0 11.634.634l-.896.897a.447.447 0 01-.317.131z" fill="#333"/><path d="M7.076 28.7a.447.447 0 01-.317-.131l-.897-.897a.448.448 0 11.634-.634l.897.897a.448.448 0 01-.317.765z" fill="#333"/><path d="M5.28 28.7a.447.447 0 01-.316-.765l.896-.897a.448.448 0 11.635.634l-.897.897a.447.447 0 01-.317.131z" fill="#333"/><path d="M5.283 28.7a.447.447 0 01-.317-.131l-.897-.897a.448.448 0 11.634-.634l.897.897a.448.448 0 01-.317.765z" fill="#333"/><path d="M4.386 27.803a.448.448 0 01-.449-.449V1.344a.448.448 0 11.897 0v26.01c0 .248-.2.449-.448.449zm19.727 0a.448.448 0 01-.449-.449V1.344a.448.448 0 11.897 0v26.01c0 .248-.2.449-.448.449z" fill="#333"/><path d="M24.115 2.69H4.385a.448.448 0 110-.896h19.73a.448.448 0 110 .897zm0 24.218H4.385a.448.448 0 110-.897h19.73a.448.448 0 110 .897zM8.868 7.175c-.99 0-1.794-.804-1.794-1.793 0-.99.805-1.794 1.794-1.794a.448.448 0 110 .897.898.898 0 000 1.794.448.448 0 110 .896zm1.792 0a.448.448 0 110-.896.898.898 0 000-1.794.448.448 0 110-.897c.989 0 1.793.804 1.793 1.794 0 .989-.804 1.793-1.794 1.793z" fill="#333"/><path d="M10.66 4.485H8.865a.448.448 0 110-.897h1.793a.448.448 0 110 .897zm0 2.69H8.865a.448.448 0 110-.897h1.793a.448.448 0 110 .897zm1.27-1.795a.448.448 0 01-.24-.829l1.423-.896a.449.449 0 01.478.758l-1.423.897a.447.447 0 01-.238.07z" fill="#333"/><path d="M13.352 7.174a.445.445 0 01-.238-.069l-1.424-.894a.448.448 0 11.478-.76l1.423.895a.448.448 0 01-.24.828z" fill="#333"/><path d="M13.35 7.175a.448.448 0 01-.448-.448v-2.69a.448.448 0 11.897 0v2.69c0 .247-.2.448-.448.448zm-7.17-.001a.448.448 0 01-.24-.827l1.423-.897a.449.449 0 01.478.758l-1.423.897a.447.447 0 01-.239.07z" fill="#333"/><path d="M7.602 5.379a.445.445 0 01-.238-.069L5.94 4.416a.448.448 0 11.478-.76l1.423.895a.448.448 0 01-.24.828z" fill="#333"/><path d="M6.179 7.175a.448.448 0 01-.449-.448v-2.69a.448.448 0 11.897 0v2.69c0 .247-.2.448-.448.448zm2.689 4.485c-.99 0-1.794-.805-1.794-1.794 0-.99.805-1.794 1.794-1.794a.448.448 0 110 .897.898.898 0 000 1.794.448.448 0 110 .897zm1.792 0a.448.448 0 110-.897.898.898 0 000-1.794.448.448 0 110-.897 1.795 1.795 0 01-.001 3.588z" fill="#333"/><path d="M10.66 8.97H8.865a.448.448 0 110-.898h1.793a.448.448 0 110 .897zm0 2.69H8.865a.448.448 0 110-.897h1.793a.448.448 0 110 .897zm1.27-1.794a.448.448 0 01-.24-.828l1.423-.897a.45.45 0 01.478.759l-1.423.896a.447.447 0 01-.238.07z" fill="#333"/><path d="M13.352 11.66a.444.444 0 01-.238-.068l-1.424-.895a.448.448 0 11.478-.759l1.423.895a.448.448 0 01-.24.827z" fill="#333"/><path d="M13.35 11.66a.448.448 0 01-.448-.449v-2.69a.448.448 0 11.897 0v2.69c0 .248-.2.449-.448.449zm-7.17-.001a.448.448 0 01-.24-.828l1.423-.897a.45.45 0 01.478.759l-1.423.896a.446.446 0 01-.239.07z" fill="#333"/><path d="M7.602 9.864a.445.445 0 01-.238-.07L5.94 8.9a.448.448 0 11.478-.759l1.423.895a.448.448 0 01-.24.828z" fill="#333"/><path d="M6.179 11.66a.448.448 0 01-.449-.449v-2.69a.448.448 0 11.897 0v2.69c0 .248-.2.449-.448.449zm11.659-4.485a.448.448 0 01-.448-.449.898.898 0 00-1.794 0 .448.448 0 11-.897 0 1.795 1.795 0 013.588 0c0 .248-.2.449-.449.449zm-1.345 3.14c-.99 0-1.794-.805-1.794-1.794a.448.448 0 11.897 0 .898.898 0 001.794 0 .448.448 0 11.897 0c0 .989-.805 1.793-1.794 1.793z" fill="#333"/><path d="M17.84 8.968a.448.448 0 01-.45-.448V6.727a.448.448 0 11.898 0V8.52a.449.449 0 01-.449.448zm-2.692 0a.448.448 0 01-.449-.448V6.727a.448.448 0 11.897 0V8.52c0 .247-.2.448-.448.448zm2.69 2.691a.448.448 0 01-.38-.21l-.897-1.423a.448.448 0 11.76-.478l.896 1.423a.448.448 0 01-.379.688z" fill="#333"/><path d="M15.147 11.658a.448.448 0 01-.379-.687l.894-1.424a.449.449 0 01.76.478l-.895 1.423a.448.448 0 01-.38.21z" fill="#333"/><path d="M17.838 11.66h-2.69a.448.448 0 110-.897h2.69a.448.448 0 110 .897zm-1.793-5.752a.448.448 0 01-.38-.21l-.897-1.423a.448.448 0 11.76-.478l.896 1.423a.448.448 0 01-.379.688z" fill="#333"/><path d="M16.94 5.908a.448.448 0 01-.379-.687l.895-1.423a.449.449 0 01.76.477l-.896 1.423a.45.45 0 01-.38.21z" fill="#333"/><path d="M17.838 4.485h-2.69a.448.448 0 110-.897h2.69a.448.448 0 110 .897zm4.485 2.69a.448.448 0 01-.449-.449.898.898 0 00-1.793 0 .448.448 0 11-.897 0 1.795 1.795 0 013.587 0c0 .248-.2.449-.448.449zm-1.346 3.14a1.795 1.795 0 01-1.793-1.794.448.448 0 11.896 0 .898.898 0 001.794 0 .448.448 0 11.897 0c0 .989-.804 1.793-1.794 1.793z" fill="#333"/><path d="M22.323 8.968a.448.448 0 01-.448-.448V6.727a.448.448 0 11.897 0V8.52c0 .247-.2.448-.449.448zm-2.691 0a.448.448 0 01-.448-.448V6.727a.448.448 0 11.896 0V8.52c0 .247-.2.448-.448.448zm2.69 2.691a.448.448 0 01-.38-.21l-.896-1.423a.448.448 0 11.759-.478l.896 1.423a.448.448 0 01-.379.688z" fill="#333"/><path d="M19.631 11.658a.448.448 0 01-.379-.687l.895-1.424a.449.449 0 01.759.478l-.894 1.423a.448.448 0 01-.38.21z" fill="#333"/><path d="M22.323 11.66h-2.691a.448.448 0 110-.897h2.69a.448.448 0 110 .897zM20.53 5.908a.448.448 0 01-.38-.21l-.897-1.423a.448.448 0 11.759-.478l.896 1.423a.448.448 0 01-.379.688z" fill="#333"/><path d="M21.428 5.908a.448.448 0 01-.379-.687l.896-1.423a.449.449 0 01.759.477l-.895 1.423a.45.45 0 01-.38.21z" fill="#333"/><path d="M22.323 4.485h-2.691a.448.448 0 110-.897h2.69a.448.448 0 110 .897zm-2.691 11.659a.448.448 0 110-.897.898.898 0 000-1.793.448.448 0 110-.897c.99 0 1.794.804 1.794 1.793 0 .99-.805 1.794-1.794 1.794zm-1.792 0a1.795 1.795 0 01-1.793-1.794c0-.989.804-1.793 1.794-1.793a.448.448 0 110 .896.898.898 0 000 1.794.448.448 0 110 .897z" fill="#333"/><path d="M19.632 13.454h-1.793a.448.448 0 110-.897h1.793a.448.448 0 110 .896zm0 2.69h-1.793a.448.448 0 110-.897h1.793a.448.448 0 110 .897zm-3.062-1.793a.446.446 0 01-.238-.069l-1.423-.897a.449.449 0 01.478-.759l1.423.897a.449.449 0 01-.24.828z" fill="#333"/><path d="M15.148 16.143a.45.45 0 01-.24-.828l1.424-.895a.449.449 0 01.478.76l-1.423.894a.445.445 0 01-.239.07z" fill="#333"/><path d="M15.148 16.144a.448.448 0 01-.449-.448v-2.69a.448.448 0 11.897 0v2.69c0 .248-.2.448-.448.448zm7.172-.001a.446.446 0 01-.238-.07l-1.423-.896a.449.449 0 01.478-.759l1.423.897a.449.449 0 01-.24.828z" fill="#333"/><path d="M20.898 14.348a.45.45 0 01-.24-.828l1.424-.895a.45.45 0 01.478.76l-1.423.894a.442.442 0 01-.239.07z" fill="#333"/><path d="M22.323 16.144a.448.448 0 01-.448-.448v-2.69a.448.448 0 11.897 0v2.69c0 .248-.2.448-.449.448zm-2.691 4.484a.448.448 0 110-.896.898.898 0 000-1.794.448.448 0 110-.897c.99 0 1.794.805 1.794 1.794s-.805 1.793-1.794 1.793zm-1.792 0a1.795 1.795 0 01.001-3.587.448.448 0 110 .897.898.898 0 000 1.794.448.448 0 110 .896z" fill="#333"/><path d="M19.632 17.938h-1.793a.448.448 0 110-.897h1.793a.448.448 0 110 .897zm0 2.69h-1.793a.448.448 0 110-.897h1.793a.448.448 0 110 .897zm-3.062-1.793a.446.446 0 01-.238-.07l-1.423-.896a.449.449 0 01.478-.76l1.423.898a.449.449 0 01-.24.828z" fill="#333"/><path d="M15.148 20.63a.45.45 0 01-.24-.83l1.424-.894a.449.449 0 01.478.76l-1.424.894a.446.446 0 01-.238.07z" fill="#333"/><path d="M15.148 20.628a.448.448 0 01-.449-.448v-2.69a.448.448 0 11.897 0v2.69c0 .248-.2.448-.448.448zm7.172.002a.446.446 0 01-.238-.07l-1.423-.896a.449.449 0 01.478-.76l1.423.898a.449.449 0 01-.24.827z" fill="#333"/><path d="M20.898 18.833a.45.45 0 01-.24-.828l1.424-.895a.449.449 0 01.478.76l-1.424.894a.446.446 0 01-.238.07z" fill="#333"/><path d="M22.323 20.628a.448.448 0 01-.448-.448v-2.69a.448.448 0 11.897 0v2.69c0 .248-.2.448-.449.448zm-2.691 4.485a.448.448 0 110-.897.898.898 0 000-1.794.448.448 0 110-.897c.99 0 1.794.805 1.794 1.794 0 .99-.805 1.794-1.794 1.794zm-1.792 0a1.795 1.795 0 01.001-3.588.448.448 0 110 .897.898.898 0 000 1.794.448.448 0 110 .897z" fill="#333"/><path d="M19.632 22.422h-1.793a.448.448 0 110-.897h1.793a.448.448 0 110 .897zm0 2.691h-1.793a.448.448 0 110-.897h1.793a.448.448 0 110 .897zm-3.062-1.794a.447.447 0 01-.238-.07l-1.423-.896a.448.448 0 01.478-.759l1.423.897a.449.449 0 01-.24.828z" fill="#333"/><path d="M15.148 25.112a.45.45 0 01-.24-.828l1.424-.895a.45.45 0 01.478.76l-1.423.894a.446.446 0 01-.239.069z" fill="#333"/><path d="M15.148 25.113a.448.448 0 01-.449-.448v-2.691a.448.448 0 11.897 0v2.69c0 .248-.2.449-.448.449zm7.172-.001a.447.447 0 01-.238-.07l-1.423-.896a.448.448 0 01.478-.76l1.423.898a.449.449 0 01-.24.828z" fill="#333"/><path d="M20.898 23.317a.45.45 0 01-.24-.828l1.424-.894a.449.449 0 01.478.76l-1.424.893a.445.445 0 01-.238.07z" fill="#333"/><path d="M22.323 25.113a.448.448 0 01-.448-.448v-2.691a.448.448 0 11.897 0v2.69c0 .248-.2.449-.449.449zm-11.66 0a.448.448 0 110-.897.898.898 0 000-1.794.448.448 0 110-.897c.99 0 1.794.805 1.794 1.794 0 .99-.805 1.794-1.794 1.794zm-1.791 0c-.99 0-1.794-.805-1.794-1.794 0-.99.805-1.794 1.794-1.794a.448.448 0 110 .897.898.898 0 000 1.794.448.448 0 110 .897z" fill="#333"/><path d="M10.663 22.422H8.87a.448.448 0 110-.897h1.793a.448.448 0 110 .897zm0 2.691H8.87a.448.448 0 110-.897h1.793a.448.448 0 110 .897zm-3.061-1.794a.447.447 0 01-.239-.07l-1.423-.896a.449.449 0 01.478-.759l1.423.897a.449.449 0 01-.24.828z" fill="#333"/><path d="M6.18 25.112a.45.45 0 01-.24-.828l1.423-.895a.45.45 0 01.478.76l-1.423.894a.446.446 0 01-.238.069z" fill="#333"/><path d="M6.179 25.113a.448.448 0 01-.449-.448v-2.691a.448.448 0 11.897 0v2.69c0 .248-.2.449-.448.449zm7.173-.001a.447.447 0 01-.239-.07l-1.423-.896a.449.449 0 01.478-.76l1.423.898a.448.448 0 01-.24.828z" fill="#333"/><path d="M11.93 23.317a.45.45 0 01-.24-.828l1.424-.894a.449.449 0 01.478.76l-1.424.893a.445.445 0 01-.238.07z" fill="#333"/><path d="M13.355 25.113a.448.448 0 01-.449-.448v-2.691a.448.448 0 11.897 0v2.69c0 .248-.2.449-.448.449zm-.001-8.969a.448.448 0 01-.448-.449.898.898 0 00-1.794 0 .448.448 0 11-.897 0c0-.99.804-1.794 1.794-1.794.989 0 1.793.805 1.793 1.794 0 .248-.2.449-.448.449zm-1.345 3.139c-.99 0-1.794-.804-1.794-1.794a.448.448 0 11.897 0 .898.898 0 001.793 0 .448.448 0 11.897 0c0 .99-.804 1.794-1.793 1.794z" fill="#333"/><path d="M10.663 17.937a.448.448 0 01-.448-.449v-1.793a.448.448 0 11.897 0v1.793c0 .248-.2.449-.449.449zm2.692 0a.448.448 0 01-.449-.449v-1.793a.448.448 0 11.897 0v1.793c0 .248-.2.449-.448.449zm-2.692 2.692a.447.447 0 01-.38-.688l.898-1.423a.449.449 0 01.758.478l-.896 1.423a.448.448 0 01-.38.21z" fill="#333"/><path d="M13.355 20.627a.449.449 0 01-.38-.21l-.894-1.423a.449.449 0 01.759-.478l.894 1.424a.449.449 0 01-.379.687z" fill="#333"/><path d="M13.354 20.628h-2.69a.448.448 0 110-.897h2.69a.448.448 0 110 .897zm-.898-5.751a.448.448 0 01-.38-.687l.898-1.423a.45.45 0 01.758.478l-.896 1.423a.448.448 0 01-.38.21z" fill="#333"/><path d="M11.559 14.877a.448.448 0 01-.38-.21l-.895-1.423a.449.449 0 01.759-.478l.895 1.424a.449.449 0 01-.379.687z" fill="#333"/><path d="M13.354 13.454h-2.69a.448.448 0 110-.897h2.69a.448.448 0 110 .896zm-4.484 2.69a.448.448 0 01-.449-.449.898.898 0 00-1.794 0 .448.448 0 11-.897 0c0-.99.805-1.794 1.794-1.794.99 0 1.794.805 1.794 1.794 0 .248-.2.449-.448.449zm-1.346 3.139a1.796 1.796 0 01-1.794-1.794.448.448 0 11.897 0 .898.898 0 001.794 0 .448.448 0 11.897 0c0 .99-.805 1.794-1.794 1.794z" fill="#333"/><path d="M6.179 17.937a.448.448 0 01-.449-.449v-1.793a.448.448 0 11.897 0v1.793c0 .248-.2.449-.448.449zm2.691 0a.448.448 0 01-.448-.449v-1.793a.448.448 0 11.897 0v1.793c0 .248-.2.449-.449.449zm-2.692 2.692a.447.447 0 01-.379-.688l.897-1.423a.448.448 0 01.76.478l-.898 1.423a.448.448 0 01-.38.21z" fill="#333"/><path d="M8.867 20.627a.449.449 0 01-.38-.21l-.895-1.423a.449.449 0 01.76-.478l.894 1.424a.449.449 0 01-.38.687z" fill="#333"/><path d="M8.87 20.628H6.179a.448.448 0 110-.897h2.69a.448.448 0 110 .897zm-.899-5.751a.447.447 0 01-.379-.687l.897-1.423a.45.45 0 01.759.478l-.897 1.423a.448.448 0 01-.38.21z" fill="#333"/><path d="M7.075 14.877a.448.448 0 01-.38-.21l-.896-1.423a.449.449 0 01.76-.478l.895 1.424a.449.449 0 01-.38.687z" fill="#333"/><path d="M8.87 13.454H6.179a.448.448 0 110-.897h2.69a.448.448 0 110 .896z" fill="#333"/></g><defs><clipPath id="clip0_512_19575"><path fill="#fff" transform="translate(4)" d="M0 0h20.5v28.7H0z"/></clipPath></defs></svg>