<svg width="29" height="29" fill="none" xmlns="http://www.w3.org/2000/svg"><g clip-path="url(#clip0_512_19964)"><path d="M22.26 15.02V6.78a4.96 4.96 0 01-3.042-1.395 4.77 4.77 0 01-1.387-4.151H7.072V13.09l15.187 1.93zm.891-8.657v9.15c0 .02 0 .04-.003.06a.444.444 0 01-.5.377v-.001L6.608 13.91a.441.441 0 01-.428-.437V.797c0-.242.2-.438.446-.438h11.747a.5.5 0 01.126.016.436.436 0 01.312.538l-.43-.116.428.116a3.874 3.874 0 00-.143 1.054 3.91 3.91 0 001.183 2.8 4.069 4.069 0 002.856 1.159c.247 0 .446.196.446.437z" fill="#333"/><path d="M9.333 2.895h3.234c.246 0 .446.195.446.437V6.5c0 .241-.2.437-.446.437H9.333a.442.442 0 01-.446-.437V3.33c0-.24.2-.436.446-.436zm2.787.874H9.78v2.295h2.341V3.769zM9.333 8.6h3.234c.246 0 .446.195.446.437v3.169c0 .242-.2.437-.446.437H9.333a.442.442 0 01-.446-.437v-3.17c0-.24.2-.436.446-.436zm2.787.874H9.78v2.295h2.341V9.474zm8.322-4.003c0-.241-.2-.437-.446-.437a.442.442 0 00-.446.437v.593h-2.34V3.769h1.23a.442.442 0 00.447-.437c0-.242-.2-.437-.447-.437h-1.676a.442.442 0 00-.447.437V6.5c0 .241.2.437.447.437h3.233a.442.442 0 00.447-.437V5.47zM16.763 8.6h3.233c.247 0 .447.195.447.437v3.169c0 .242-.2.437-.447.437h-3.233a.442.442 0 01-.447-.437v-3.17c0-.24.2-.436.447-.436zm2.787.874h-2.34v2.295h2.341V9.474zm4.616 6.042c0-.242-.2-.437-.446-.437a.442.442 0 00-.447.437V25.4l-.722 1.693-1.131-1.26a.453.453 0 00-.683.015l-1.253 1.395-1.267-1.41a.452.452 0 00-.682.015l-1.253 1.395-1.267-1.41a.453.453 0 00-.682.014l-1.254 1.396-1.267-1.41a.453.453 0 00-.682.015l-1.253 1.395-1.267-1.41a.453.453 0 00-.682.015l-1.139 1.267-.733-1.724v-11.92c0-.241-.2-.437-.446-.437a.442.442 0 00-.446.437V25.47a.428.428 0 00.034.176H5.2l1.02 2.401a.447.447 0 00.423.295h.034a.45.45 0 00.335-.148l1.264-1.41 1.253 1.396a.449.449 0 00.347.162h.003c.124 0 .247-.05.335-.148l1.265-1.41 1.253 1.396a.449.449 0 00.346.162h.004a.45.45 0 00.335-.148l1.264-1.41 1.253 1.396a.45.45 0 00.346.162h.004a.45.45 0 00.335-.148l1.265-1.41 1.253 1.396a.45.45 0 00.345.162h.005a.45.45 0 00.334-.148l1.265-1.41 1.253 1.396a.448.448 0 00.33.162h.006a.447.447 0 00.426-.268l-.412-.17.412.168 1.02-2.39a.428.428 0 00.046-.194v-9.971z" fill="#333"/><path d="M5.61 23.95a.442.442 0 00-.446.437c0 .242.2.438.446.438h18.11a.442.442 0 00.446-.438c0-.241-.2-.437-.446-.437H5.61zm.153-10.888a.448.448 0 00-.572.26.434.434 0 00.265.56c.79.285 1.563.68 2.337 1.077 1.636.837 3.271 1.674 5.111 1.575l10.84-.583a.44.44 0 00.42-.46.442.442 0 00-.47-.411l-10.839.583c-1.598.086-3.125-.695-4.65-1.476-.808-.413-1.615-.826-2.442-1.125z" fill="#333"/><path fill-rule="evenodd" clip-rule="evenodd" d="M17.21 3.77v2.294h2.342v-.38A4.834 4.834 0 0118.13 3.77h-.918z" fill="#FFD3B3"/><path fill-rule="evenodd" clip-rule="evenodd" d="M16.316 6.502v-3.17c0-.241.2-.437.446-.437h1.1a4.76 4.76 0 01-.032-1.66H7.07V13.09l15.187 1.93V6.78a4.977 4.977 0 01-1.815-.517v.238c0 .241-.2.437-.446.437h-3.234a.442.442 0 01-.446-.437zm.446 2.098h3.234c.246 0 .446.195.446.437v3.17c0 .24-.2.436-.446.436h-3.234a.442.442 0 01-.446-.437v-3.17c0-.24.2-.436.446-.436zm-3.75-5.268v3.17c0 .241-.2.437-.446.437H9.332a.442.442 0 01-.446-.437v-3.17c0-.241.2-.437.446-.437h3.234c.246 0 .446.196.446.437zM9.332 8.6h3.234c.246 0 .446.195.446.437v3.17c0 .24-.2.436-.446.436H9.332a.442.442 0 01-.446-.437v-3.17c0-.24.2-.436.446-.436z" fill="#B38E85"/><path fill-rule="evenodd" clip-rule="evenodd" d="M12.123 6.064V3.77H9.78v2.294h2.342zm0 3.409H9.78v2.294h2.342V9.473zm5.087 0v2.294h2.342V9.473h-2.341z" fill="#FFD3B3"/><path fill-rule="evenodd" clip-rule="evenodd" d="M18.165 15.38L8.012 14.088l.195.1c1.526.78 3.052 1.562 4.651 1.476l5.307-.286z" fill="#CDA69D"/><path fill-rule="evenodd" clip-rule="evenodd" d="M23.272 15.978l-10.369.558c-1.84.099-3.476-.738-5.111-1.575a28.11 28.11 0 00-1.737-.84v9.83h17.217v-7.973z" fill="#A87D73"/><path fill-rule="evenodd" clip-rule="evenodd" d="M23.272 24.825H6.055v.568l.733 1.724 1.138-1.268a.453.453 0 01.683-.015l1.266 1.411 1.253-1.396a.453.453 0 01.683-.015l1.266 1.411 1.254-1.396a.453.453 0 01.683-.015l1.266 1.411 1.253-1.396a.453.453 0 01.683-.015l1.266 1.411 1.253-1.396a.453.453 0 01.683-.015l1.131 1.26.723-1.692v-.577z" fill="#B38E85"/></g><defs><clipPath id="clip0_512_19964"><path fill="#fff" transform="translate(5)" d="M0 0h19.329v28.7H0z"/></clipPath></defs></svg>