<svg width="29" height="29" fill="none" xmlns="http://www.w3.org/2000/svg"><g clip-path="url(#clip0_512_19977)"><path d="M10.281 13.736h8.222v14.389h-8.222V13.736z" fill="#B38E85"/><path d="M10.281 13.736h1.613v14.39h-1.613v-14.39zm2.047 12.346h4.136V15.779h-4.136v10.303z" fill="#B38E85"/><path d="M12.328 15.78v10.302h1.613V15.78h-1.613z" fill="#B38E85"/><path d="M10.285 1.404h8.222v12.333h-8.222V1.404z" fill="#FFD3B3"/><path d="M10.285 1.404h1.613v12.333h-1.613V1.404z" fill="#FFD3B3"/><path d="M16.46 23.187c.224 0 .404-.18.404-.403v-7.005a.403.403 0 00-.403-.403h-4.136a.403.403 0 00-.403.403v10.303c0 .223.18.403.403.403h4.136c.223 0 .403-.18.403-.403v-1.54a.403.403 0 10-.806 0v1.137h-3.33v-9.496h3.33v6.601c0 .223.18.403.403.403z" fill="#000"/><path d="M18.504 1h-8.222a.403.403 0 00-.403.403v15.669a.403.403 0 00.806 0V14.14h7.416v13.582h-7.416V18.83a.403.403 0 10-.806 0v9.296c0 .223.18.404.403.404h8.222c.223 0 .403-.18.403-.404V7.831a.403.403 0 10-.806 0v5.502h-3.073l-.565-1.31.67-1.553a.403.403 0 000-.32l-.67-1.553.67-1.553a.403.403 0 000-.32l-.67-1.552.565-1.31h3.073v2.212a.403.403 0 10.806 0v-4.67A.403.403 0 0018.505 1zm-4.85 4.332l.67 1.553-.67 1.553a.403.403 0 000 .32l.67 1.552-.67 1.554a.403.403 0 000 .32l.495 1.15h-3.464V3.861h3.464l-.496 1.15a.403.403 0 000 .32zm-2.969-2.276v-1.25h7.416v1.25h-7.416z" fill="#000"/></g><defs><clipPath id="clip0_512_19977"><path fill="#fff" transform="translate(10 1)" d="M0 0h8.786v27.529H0z"/></clipPath></defs></svg>