<svg width="29" height="29" fill="none" xmlns="http://www.w3.org/2000/svg"><g clip-path="url(#clip0_512_20004)"><path d="M5.286.075h18.757c.246 0 .446.2.446.446v27.662c0 .246-.2.446-.446.446H5.286a.446.446 0 01-.446-.446V.52c0-.246.2-.446.446-.446zm18.31.892H5.733v26.77h17.865V.966z" fill="#333"/><path d="M6.93 13.47a.446.446 0 00.892 0V3.042h5.96a.446.446 0 000-.893H7.376c-.247 0-.446.2-.446.447V13.47zm8.618-11.32a.446.446 0 000 .892h5.96v10.405a.446.446 0 00.892 0V2.596c0-.247-.2-.447-.446-.447h-6.406zM22.4 15.235a.446.446 0 10-.892 0V25.66h-5.96a.446.446 0 100 .892h6.406c.247 0 .446-.2.446-.446v-10.87zm-8.618 11.316a.446.446 0 000-.892h-5.96V15.27a.446.446 0 00-.892 0v10.835c0 .246.2.446.446.446h6.406z" fill="#333"/><path d="M5.598.205a.445.445 0 00-.627.63l2.09 2.076a.445.445 0 00.627-.63L5.598.204zm18.762.63a.445.445 0 00-.628-.631l-2.09 2.075a.445.445 0 00.628.631L24.36.835zM4.975 27.865a.445.445 0 00.627.631l2.09-2.075a.445.445 0 00-.628-.631l-2.09 2.075zm18.757.631a.445.445 0 00.628-.63l-2.09-2.076a.445.445 0 10-.627.63l2.09 2.076zM15.993.521a.446.446 0 00-.893 0V13.47c0 .246.2.446.447.446h6.326l2.014.748a.446.446 0 00.31-.837l-2.079-.771a.445.445 0 00-.165-.032h-5.96V.52zm7.894 15.908a.446.446 0 00.31-.837l-2.09-.775a.446.446 0 00-.164-.028h-6.397c-.246 0-.446.2-.446.446v12.948a.446.446 0 10.893 0V15.68h5.88l2.014.748zM13.334 28.183a.446.446 0 00.893 0V15.235c0-.246-.2-.446-.447-.446H7.375a.445.445 0 00-.187.04l-2.059.78a.445.445 0 00.314.833l2.01-.76h5.882v12.5zm-8.206-14.34a.445.445 0 00.314.833l2-.76h6.338c.247 0 .447-.2.447-.447V.521a.446.446 0 00-.893 0v12.502H7.372a.443.443 0 00-.168.029v.001l-2.076.79z" fill="#333"/><path fill-rule="evenodd" clip-rule="evenodd" d="M21.51 3.042h-5.514v9.98h5.514v-9.98z" fill="#B38E85"/><path fill-rule="evenodd" clip-rule="evenodd" d="M15.104 13.468V.966h-.874v12.503c0 .247-.2.446-.446.446h-6.34l-1.71.65v.816l1.456-.55a.445.445 0 01.187-.042h6.407c.246 0 .446.2.446.446v12.501h.873V15.234c0-.246.2-.446.447-.446h6.396a.444.444 0 01.165.028l1.488.552v-.814l-1.723-.64H15.55a.446.446 0 01-.447-.446z" fill="#FFD3B3"/><path fill-rule="evenodd" clip-rule="evenodd" d="M13.338 13.022v-9.98H7.824v9.98h5.514z" fill="#B38E85"/><path fill-rule="evenodd" clip-rule="evenodd" d="M7.558 2.15h5.778V.967H6.367L7.558 2.15zm-.627 11.007V2.78L5.734 1.59v12.022l1.197-.455zM15.996 2.15h5.778L22.965.967h-6.969V2.15zm6.406.63v10.378l1.197.444V1.591L22.402 2.78z" fill="#FFD3B3"/><path fill-rule="evenodd" clip-rule="evenodd" d="M21.51 15.68h-5.514v9.98h5.514v-9.98z" fill="#B38E85"/><path fill-rule="evenodd" clip-rule="evenodd" d="M21.774 26.553h-5.778v1.183h6.969l-1.191-1.183zm.628-10.677v10.047l1.197 1.189V16.32l-1.197-.444zM6.931 25.923V15.879l-1.197.453v10.78l1.197-1.19z" fill="#FFD3B3"/><path fill-rule="evenodd" clip-rule="evenodd" d="M7.824 15.68v9.98h5.514v-9.98H7.824z" fill="#B38E85"/><path fill-rule="evenodd" clip-rule="evenodd" d="M13.336 26.553H7.558l-1.19 1.183h6.968v-1.183z" fill="#FFD3B3"/></g><defs><clipPath id="clip0_512_20004"><path fill="#fff" transform="translate(5)" d="M0 0h19.329v28.7H0z"/></clipPath></defs></svg>