<svg width="29" height="29" fill="none" xmlns="http://www.w3.org/2000/svg"><g clip-path="url(#clip0_512_20100)"><path d="M14.35 14.35a6.276 6.276 0 00-8.573 2.296c-1.417 2.457-1.072 4.83-.341 6.62-1.888-.768-3.121-1.965-3.121-1.965s-.418-1.669-.144-3.687c.26-1.915 1.149-4.148 3.606-5.564a6.277 6.277 0 018.574 2.3z" fill="#B38E85"/><path d="M14.35 14.35a6.28 6.28 0 00-6.277 6.278c0 2.834 1.484 4.713 3.009 5.901-2.018.278-3.682-.143-3.682-.143s-1.197-1.233-1.964-3.121c-.731-1.79-1.076-4.162.34-6.62a6.276 6.276 0 018.575-2.295z" fill="#FFD3B3"/><path d="M11.084 2.17c1.915.26 4.143 1.149 5.565 3.606a6.279 6.279 0 01-2.3 8.574 6.275 6.275 0 00-2.296-8.574c-2.457-1.421-4.83-1.072-6.62-.34V5.43C6.2 3.548 7.399 2.309 7.399 2.309s1.668-.416 3.686-.138z" fill="#FFD3B3"/><path d="M14.352 14.35a6.277 6.277 0 006.278-6.278c0-2.834-1.485-4.713-3.01-5.901 2.019-.278 3.682.139 3.682.139s1.198 1.238 1.969 3.12c.73 1.79 1.076 4.162-.34 6.62a6.284 6.284 0 01-8.58 2.3z" fill="#FFD3B3"/><path d="M8.07 20.628a6.28 6.28 0 016.278-6.278 6.273 6.273 0 00-2.296 8.574c1.422 2.457 3.646 3.34 5.561 3.6v.005c-1.61 1.251-3.265 1.722-3.265 1.722s-1.654-.476-3.269-1.722c-1.524-1.188-3.009-3.068-3.009-5.901z" fill="#B38E85"/><path d="M14.35 14.35a6.278 6.278 0 00-8.573-2.3C3.319 13.466 2.43 15.7 2.17 17.615.925 16.005.45 14.35.45 14.35s.471-1.654 1.722-3.264C3.355 9.56 5.234 8.072 8.073 8.072a6.277 6.277 0 016.278 6.278z" fill="#FFD3B3"/><path d="M20.629 8.072a6.277 6.277 0 01-6.278 6.278 6.279 6.279 0 002.3-8.574c-1.421-2.458-3.65-3.346-5.565-3.606C12.696.92 14.35.448 14.35.448s1.654.471 3.264 1.722h.005c1.524 1.188 3.009 3.068 3.009 5.902z" fill="#B38E85"/><path d="M14.349 14.35A6.277 6.277 0 008.07 8.072c-2.84 0-4.718 1.488-5.902 3.013-.278-2.018.144-3.686.144-3.686s1.233-1.197 3.12-1.964c1.79-.732 4.162-1.08 6.62.34a6.276 6.276 0 012.296 8.575zm6.278 6.278c2.838 0 4.722-1.49 5.901-3.018l.005.004c.273 2.018-.144 3.687-.144 3.687s-1.233 1.197-3.121 1.964c-1.789.731-4.161 1.076-6.619-.34a6.277 6.277 0 01-2.3-8.575 6.28 6.28 0 006.278 6.278z" fill="#B38E85"/><path d="M14.352 14.35a6.278 6.278 0 008.578 2.297c2.458-1.417 3.346-3.647 3.606-5.561 1.246 1.61 1.717 3.265 1.717 3.265s-.47 1.65-1.722 3.26c-1.18 1.529-3.063 3.018-5.901 3.018a6.28 6.28 0 01-6.278-6.278z" fill="#FFD3B3"/><path d="M14.35 14.35a6.276 6.276 0 002.301 8.574c2.458 1.416 4.83 1.072 6.62.34-.772 1.889-1.97 3.126-1.97 3.126s-1.668.417-3.686.135c-1.915-.26-4.139-1.144-5.56-3.6a6.274 6.274 0 012.296-8.575z" fill="#FFD3B3"/><path d="M14.352 14.35a6.283 6.283 0 008.578-2.3c1.417-2.458 1.072-4.831.341-6.62 1.883.771 3.121 1.969 3.121 1.969s.418 1.668.144 3.686c-.26 1.915-1.148 4.143-3.606 5.56a6.278 6.278 0 01-8.578-2.295z" fill="#B38E85"/><path d="M14.35 14.799a.448.448 0 110-.897 5.836 5.836 0 005.829-5.83c0-4.989-4.978-6.868-5.83-7.153-.402.134-1.718.619-2.99 1.604a.447.447 0 11-.548-.709C12.47.528 14.156.038 14.226.017a.45.45 0 01.247 0c.066.019 6.603 1.958 6.603 8.055a6.734 6.734 0 01-6.727 6.727z" fill="#333"/><path d="M14.348 28.7a.455.455 0 01-.123-.017c-.067-.02-6.604-1.958-6.604-8.055a6.734 6.734 0 016.727-6.727.448.448 0 110 .897 5.836 5.836 0 00-5.83 5.83c0 4.989 4.978 6.868 5.83 7.153a10.64 10.64 0 002.99-1.604.447.447 0 11.549.709c-1.66 1.286-3.346 1.776-3.417 1.797a.454.454 0 01-.122.017z" fill="#333"/><path d="M14.351 14.798a.449.449 0 01-.225-.836 5.789 5.789 0 002.717-3.54 5.79 5.79 0 00-.583-4.423c-2.495-4.321-7.744-3.46-8.626-3.281a10.649 10.649 0 00-1.786 2.885.449.449 0 01-.83-.34C5.812 3.32 7.026 2.053 7.078 2a.448.448 0 01.213-.123c.067-.017 6.697-1.606 9.746 3.675a6.684 6.684 0 01.672 5.103 6.68 6.68 0 01-3.134 4.085.451.451 0 01-.224.06z" fill="#333"/><path d="M19.068 27.062c-2.226 0-5.51-.626-7.406-3.912a6.735 6.735 0 012.461-9.188.449.449 0 01.449.776 5.837 5.837 0 00-2.134 7.964c2.494 4.32 7.744 3.458 8.626 3.28a10.649 10.649 0 001.786-2.885.448.448 0 11.83.34c-.794 1.943-2.008 3.21-2.06 3.264a.447.447 0 01-.213.123c-.024.007-.987.238-2.339.238z" fill="#333"/><path d="M14.349 14.798a.448.448 0 01-.388-.673 5.792 5.792 0 00.582-4.423 5.79 5.79 0 00-2.716-3.54c-4.323-2.494-8.437.876-9.11 1.472a10.628 10.628 0 00-.104 3.391.45.45 0 01-.89.123c-.284-2.081.134-3.786.152-3.858a.452.452 0 01.123-.213c.05-.048 4.998-4.74 10.277-1.691a6.68 6.68 0 013.134 4.083 6.68 6.68 0 01-.671 5.105.448.448 0 01-.39.224z" fill="#333"/><path d="M20.177 24.343c-1.186.001-2.459-.282-3.753-1.028a6.736 6.736 0 01-2.462-9.19.448.448 0 11.777.45 5.838 5.838 0 002.134 7.963c4.365 2.52 8.421-.85 9.11-1.47.084-.413.323-1.797.104-3.393a.45.45 0 01.889-.122c.284 2.08-.133 3.785-.151 3.857a.448.448 0 01-.123.214c-.037.035-2.868 2.72-6.525 2.72z" fill="#333"/><path d="M2.17 18.063a.446.446 0 01-.356-.174C.528 16.23.038 14.544.017 14.474a.45.45 0 010-.247c.019-.066 1.957-6.603 8.055-6.603a6.734 6.734 0 016.727 6.727.448.448 0 11-.897 0 5.836 5.836 0 00-5.83-5.83c-4.99 0-6.868 4.978-7.153 5.83.134.401.619 1.718 1.604 2.99a.447.447 0 01-.354.722z" fill="#333"/><path d="M20.63 21.076a6.736 6.736 0 01-6.728-6.726.448.448 0 11.897 0 5.838 5.838 0 005.83 5.83c5.04 0 6.869-4.948 7.154-5.83-.133-.4-.619-1.717-1.605-2.99a.447.447 0 11.708-.549c1.287 1.659 1.778 3.344 1.799 3.414a.452.452 0 010 .247c-.02.066-1.958 6.604-8.055 6.604z" fill="#333"/><path d="M5.435 23.716a.443.443 0 01-.17-.033c-1.944-.794-3.211-2.008-3.264-2.06a.448.448 0 01-.123-.213c-.017-.067-1.607-6.697 3.674-9.746a6.681 6.681 0 015.104-.672 6.682 6.682 0 014.084 3.134.448.448 0 01-.776.449 5.79 5.79 0 00-3.54-2.717A5.788 5.788 0 006 12.44c-4.321 2.494-3.46 7.744-3.281 8.625a10.635 10.635 0 002.885 1.786.448.448 0 01-.17.864z" fill="#333"/><path d="M19.796 17.935a6.732 6.732 0 01-5.837-3.361.449.449 0 01.776-.448 5.838 5.838 0 007.965 2.133c4.32-2.495 3.46-7.744 3.28-8.626a10.643 10.643 0 00-2.886-1.786.448.448 0 11.34-.83c1.944.794 3.212 2.008 3.265 2.06.06.057.102.131.122.213.017.066 1.607 6.697-3.673 9.746a6.679 6.679 0 01-3.352.899z" fill="#333"/><path d="M9.665 27.075c-1.355 0-2.322-.237-2.376-.251a.452.452 0 01-.213-.123c-.048-.05-4.74-4.998-1.691-10.277a6.68 6.68 0 014.083-3.134 6.682 6.682 0 015.105.672.448.448 0 11-.449.777 5.796 5.796 0 00-4.424-.584 5.79 5.79 0 00-3.539 2.717c-2.495 4.32.876 8.436 1.472 9.11.415.084 1.797.323 3.391.105a.449.449 0 01.121.889c-.523.072-1.024.099-1.48.099z" fill="#333"/><path d="M17.48 15.638a6.69 6.69 0 01-3.353-.9.448.448 0 11.448-.777 5.838 5.838 0 007.965-2.134c2.52-4.364-.85-8.421-1.47-9.11a10.63 10.63 0 00-3.394-.104.449.449 0 01-.122-.89c2.081-.284 3.785.134 3.858.152.081.02.155.063.214.123.047.049 4.74 4.998 1.691 10.278a6.733 6.733 0 01-5.838 3.362z" fill="#333"/></g><defs><clipPath id="clip0_512_20100"><path fill="#fff" d="M0 0h28.7v28.7H0z"/></clipPath></defs></svg>