<svg width="29" height="29" fill="none" xmlns="http://www.w3.org/2000/svg"><g clip-path="url(#clip0_512_20180)"><path fill-rule="evenodd" clip-rule="evenodd" d="M18.045 21.003c-.42.442-.852.894-1.445.94-.563.045-1.056-.301-1.558-.653-.37-.26-.745-.522-1.035-.522-.29 0-.666.263-1.035.522-.502.352-.995.698-1.558.654-.593-.047-1.024-.5-1.445-.94-.277-.29-.547-.574-.744-.606-.206-.034-.557.174-.897.374-.486.287-.956.564-1.447.433-.54-.144-.786-.688-1.02-1.206-.129-.284-.252-.555-.321-.584-.077-.032-.382.106-.67.237-.475.215-.923.418-1.304.159-.455-.31-.316-.886-.187-1.422h-.002a.459.459 0 01.02-.061c.054-.165.14-.251.11-.292-.02-.029-.217-.004-.448-.036l-.193-.028v2.61c-.351-.096-.16-.193-.443-.193-.247 0-.446.2-.446.446 0 .473.413.587.889.66l.193.029c.231.032.428.007.448.036.03.041-.056.127-.11.292a.451.451 0 00-.02.06h.002c-.13.537-.268 1.114.187 1.423.381.26.83.056 1.304-.16.288-.13.593-.268.67-.236.07.029.192.3.32.584.235.518.481 1.061 1.02 1.206.492.131.962-.146 1.448-.433.34-.2.69-.407.897-.374.197.032.467.316.744.605.42.442.852.894 1.445.94.563.045 1.056-.301 1.558-.653.37-.26.745-.522 1.035-.522.29 0 .666.263 1.035.522.502.352.995.698 1.558.654.593-.047 1.024-.5 1.445-.94.277-.29.547-.574.744-.606.206-.034.557.174.897.374.486.287.956.564 1.447.433.54-.145.786-.688 1.02-1.206.129-.283.252-.555.322-.584.076-.032.381.106.669.237.475.215.923.418 1.305.159.454-.31.315-.887.186-1.423-.05-.205-.16-.306-.129-.352.021-.029.218-.004.449-.036l.193-.028c.476-.074.89-.188.89-.661 0-.247-.2-.446-.447-.446-.284 0-.092.098-.443.192v-2.61l-.193.029c-.231.032-.428.007-.448.036-.033.046.078.147.128.352.13.536.268 1.114-.187 1.423-.381.26-.83.056-1.304-.16-.288-.13-.593-.268-.67-.236-.07.029-.192.3-.32.584-.235.518-.481 1.062-1.02 1.206-.492.131-.962-.146-1.448-.433-.34-.2-.69-.407-.897-.374-.197.032-.467.316-.744.605z" fill="#FFD3B3"/><path fill-rule="evenodd" clip-rule="evenodd" d="M22.34 16.759c-2.142.714-5.089 1.156-8.333 1.156-3.244 0-6.19-.442-8.333-1.156-1.205-.402-2.167-.9-2.808-1.469v1.767c-.351-.095-.159-.193-.443-.193-.247 0-.446.2-.446.446 0 .474.413.588.889.661.063.01.128.02.193.028.231.033.428.008.448.037.03.04-.056.127-.11.291a.457.457 0 00-.02.061h.002c-.13.536-.268 1.113.187 1.422.381.26.83.056 1.304-.159.288-.13.593-.268.67-.236.07.028.192.3.32.583.235.519.481 1.062 1.02 1.206.492.132.962-.146 1.448-.432.34-.2.69-.408.897-.374.197.032.467.315.744.605.42.442.852.894 1.445.94.563.044 1.056-.302 1.558-.654.37-.259.745-.522 1.035-.522.29 0 .666.264 1.035.523.502.351.995.697 1.558.653.593-.046 1.024-.498 1.445-.94.277-.29.547-.573.744-.605.206-.034.557.173.897.374.486.286.956.564 1.447.432.54-.144.786-.687 1.02-1.206.129-.283.252-.555.322-.584.076-.032.381.107.669.237.475.216.923.419 1.305.16.454-.31.315-.887.186-1.423-.05-.205-.16-.306-.129-.352.021-.03.218-.004.449-.037l.193-.028c.476-.073.89-.187.89-.66 0-.247-.2-.447-.447-.447-.284 0-.092.098-.443.193V15.29c-.64.569-1.603 1.067-2.808 1.469z" fill="#B38E85"/><path fill-rule="evenodd" clip-rule="evenodd" d="M14.822 9.85c-.297-.207-.598-.419-.816-.419-.217 0-.52.212-.816.42-.428.3-.848.595-1.341.556-.522-.04-.89-.427-1.25-.804-.22-.23-.435-.457-.574-.48-.144-.023-.423.142-.694.301-.417.246-.821.485-1.26.368-.481-.13-.693-.597-.895-1.043-.1-.222-.197-.434-.227-.446-.033-.014-.27.094-.495.195-.414.188-.805.365-1.156.126-.421-.286-.3-.791-.186-1.26H5.11a.444.444 0 01.127-.22.065.065 0 00-.007-.012c-.036-.05-.145.026-.32.001a20.64 20.64 0 01-.075-.01V9.14c-.36-.083-.12-.176-.444-.176-.246 0-.446.2-.446.446 0 .486.427.57.89.637l.075.01c.175.025.284-.052.32-.001a.065.065 0 01.007.012.444.444 0 00-.127.219h.002c-.114.47-.235.975.186 1.26.351.24.742.063 1.156-.125.224-.102.462-.21.495-.195.03.012.127.224.227.445.202.447.414.914.896 1.043.438.118.842-.12 1.26-.367.27-.16.549-.324.693-.3.139.022.354.248.575.48.359.376.727.762 1.248.803.494.039.914-.256 1.342-.556.297-.208.599-.42.816-.42.217 0 .52.212.816.42.428.3.848.595 1.342.556.521-.04.89-.427 1.248-.804.22-.23.437-.457.575-.48.144-.023.423.142.694.301.417.246.821.485 1.26.367.481-.129.693-.596.895-1.043.1-.22.197-.433.227-.445.033-.014.27.093.495.195.414.188.805.365 1.157.126.42-.286.299-.792.185-1.261-.037-.153-.164-.165-.118-.23.036-.052.145.025.32 0l.075-.01c.463-.067.89-.151.89-.637 0-.246-.2-.446-.446-.446-.324 0-.083.093-.444.176V7.123l-.074.01c-.176.025-.285-.052-.32 0-.047.065.08.077.117.23.114.47.236.975-.185 1.261-.352.24-.743.062-1.157-.126-.224-.101-.462-.21-.495-.195-.03.012-.126.224-.227.446-.202.446-.414.914-.896 1.043-.438.117-.842-.122-1.26-.368-.27-.16-.549-.324-.693-.3-.138.022-.354.248-.574.48-.36.376-.728.762-1.25.803-.493.039-.913-.256-1.341-.556z" fill="#FFD3B3"/><path fill-rule="evenodd" clip-rule="evenodd" d="M20.946 6.1c-1.786.596-4.24.964-6.94.964s-5.154-.368-6.94-.963c-.933-.311-1.694-.694-2.231-1.13v1.245c-.36-.083-.12-.176-.444-.176-.246 0-.446.2-.446.446 0 .486.427.57.89.637l.074.01c.176.025.285-.052.32 0a.065.065 0 01.008.011.444.444 0 00-.127.22h.002c-.114.469-.235.974.186 1.26.351.24.742.062 1.156-.126.224-.101.462-.21.495-.195.03.012.127.224.227.446.202.446.414.914.896 1.043.438.117.842-.122 1.26-.368.27-.16.549-.324.693-.3.139.022.354.248.575.48.359.376.727.762 1.248.803.494.039.914-.256 1.342-.556.297-.208.599-.42.816-.42.217 0 .52.212.816.42.428.3.848.595 1.342.556.521-.04.89-.427 1.248-.804.22-.23.437-.457.575-.48.144-.023.423.142.694.301.417.247.821.485 1.26.368.481-.13.693-.597.895-1.043.1-.222.197-.434.227-.446.033-.014.27.094.495.195.414.188.805.365 1.157.126.42-.286.299-.792.185-1.26-.037-.154-.164-.166-.118-.232.036-.05.145.026.32.001l.075-.01c.463-.066.89-.151.89-.637 0-.246-.2-.446-.446-.446-.324 0-.083.093-.444.176V4.972c-.537.435-1.298.818-2.231 1.129z" fill="#B38E85"/><path d="M23.82 11.052a.445.445 0 00-.393.798c.585.29 1.04.602 1.338.928.249.273.383.551.383.828 0 .853-1.18 1.674-3.087 2.31-2.052.683-4.899 1.106-8.055 1.106-3.155 0-6.002-.423-8.054-1.107-1.907-.635-3.087-1.456-3.087-2.31 0-.276.134-.554.383-.827.298-.326.753-.638 1.338-.928a.445.445 0 00-.394-.798c-.68.337-1.223.715-1.6 1.127-.402.44-.62.92-.62 1.427 0 1.28 1.415 2.39 3.701 3.153 2.142.714 5.09 1.155 8.333 1.155 3.244 0 6.191-.441 8.333-1.155 2.287-.762 3.701-1.874 3.701-3.153 0-.508-.217-.986-.62-1.427-.376-.412-.92-.79-1.6-1.127z" fill="#333"/><path d="M26.04 13.606a.446.446 0 00-.892 0v10.4c0 .853-1.18 1.673-3.087 2.309-2.052.684-4.899 1.107-8.055 1.107-3.155 0-6.002-.423-8.054-1.107-1.907-.636-3.087-1.456-3.087-2.31V13.606a.446.446 0 00-.892 0v10.4c0 1.28 1.414 2.39 3.7 3.152 2.142.714 5.09 1.156 8.333 1.156 3.244 0 6.191-.442 8.333-1.156 2.287-.762 3.701-1.873 3.701-3.153V13.606z" fill="#333"/><path d="M26.037 20.834c0-.247-.2-.446-.446-.446-.346 0 .014.145-.758.253-.42.059-.853.12-1.055.406-.198.282-.106.665-.007 1.074.06.248.234.44.18.478-.033.021-.198-.126-.441-.236-.458-.208-.943-.428-1.377-.248-.395.164-.589.593-.792 1.04-.15.33-.306.677-.438.712-.13.035-.442-.149-.764-.339-.476-.28-.968-.57-1.492-.485-.494.08-.866.47-1.246.87-.304.319-.616.645-.867.665-.251.02-.614-.235-.983-.494-.485-.34-.979-.686-1.544-.686-.566 0-1.059.346-1.544.686-.369.26-.732.514-.982.494-.252-.02-.564-.346-.867-.665-.381-.4-.753-.79-1.246-.87-.525-.086-1.017.204-1.493.485-.322.19-.634.374-.764.339-.132-.035-.289-.381-.438-.711-.203-.448-.397-.877-.792-1.04-.434-.18-.919.039-1.377.247-.243.11-.408.257-.44.236-.055-.038.12-.23.18-.478l-.433-.105.434.105a.458.458 0 00.008-.04c.094-.394.175-.761-.017-1.034-.202-.286-.635-.347-1.055-.406-.772-.108-.413-.253-.758-.253-.247 0-.446.2-.446.446 0 .537.532.612 1.082.689.231.032.428.007.448.036.03.041-.056.127-.11.292a.453.453 0 00-.02.06h.002c-.13.537-.268 1.114.187 1.423.381.26.83.056 1.304-.16.288-.13.593-.268.67-.236.07.029.192.3.32.584.235.518.481 1.062 1.02 1.206.492.131.962-.146 1.448-.433.34-.2.69-.407.897-.374.197.032.467.316.744.606.42.441.852.893 1.445.94.563.044 1.056-.302 1.558-.654.37-.26.745-.522 1.035-.522.29 0 .666.263 1.035.522.502.352.995.698 1.558.654.593-.047 1.024-.499 1.445-.94.277-.29.547-.574.744-.606.206-.033.557.174.897.374.486.287.956.564 1.447.433.54-.144.786-.688 1.02-1.206.129-.283.252-.555.322-.584.076-.032.381.106.669.237.475.215.923.418 1.305.159.454-.31.315-.887.186-1.422-.05-.206-.16-.306-.129-.353.021-.029.218-.004.449-.036.55-.077 1.082-.152 1.082-.69z" fill="#333"/><path d="M26.037 17.31c0-.247-.2-.447-.446-.447-.346 0 .014.145-.758.254-.42.059-.853.12-1.055.406-.198.282-.106.665-.007 1.073.06.248.234.44.18.478-.033.022-.198-.126-.441-.236-.458-.207-.943-.427-1.377-.247-.395.164-.589.593-.792 1.04-.15.33-.306.676-.438.712-.13.035-.442-.15-.764-.34-.476-.28-.968-.57-1.492-.485-.494.081-.866.471-1.246.87-.304.32-.616.646-.867.665-.251.02-.614-.234-.983-.493-.485-.34-.979-.686-1.544-.686-.566 0-1.059.346-1.544.686-.369.259-.732.513-.982.494-.252-.02-.564-.347-.867-.665-.381-.4-.753-.79-1.246-.87-.525-.086-1.017.204-1.493.485-.322.19-.634.373-.764.338-.132-.035-.289-.38-.438-.71-.203-.448-.397-.877-.792-1.041-.434-.18-.919.04-1.377.247-.243.11-.408.258-.44.236-.055-.037.12-.23.18-.478l-.433-.104.434.104a.458.458 0 00.008-.04c.094-.393.175-.76-.017-1.033-.202-.287-.635-.348-1.055-.406-.772-.109-.412-.254-.758-.254-.247 0-.446.2-.446.446 0 .537.532.612 1.082.69.231.032.428.007.448.036.03.04-.056.127-.11.292a.453.453 0 00-.02.06h.002c-.13.536-.268 1.113.187 1.422.381.26.83.057 1.304-.159.288-.13.593-.268.67-.236.07.028.192.3.32.583.235.519.481 1.062 1.02 1.206.492.132.962-.146 1.448-.432.34-.2.69-.408.897-.374.197.032.467.315.744.605.42.442.852.894 1.445.94.563.044 1.056-.302 1.558-.653.37-.26.745-.523 1.035-.523.29 0 .666.264 1.035.523.502.351.995.697 1.558.653.593-.046 1.024-.498 1.445-.94.277-.29.547-.573.744-.605.206-.034.557.173.897.374.486.286.956.564 1.447.432.54-.144.786-.687 1.02-1.206.129-.283.252-.555.322-.583.076-.032.381.106.669.236.475.216.923.419 1.305.16.454-.31.315-.887.186-1.423-.05-.205-.16-.306-.129-.352.021-.03.218-.004.449-.037.55-.077 1.082-.152 1.082-.689zM14.005-.24c2.7 0 5.154.368 6.94.963 1.93.643 3.123 1.59 3.123 2.689 0 1.098-1.193 2.045-3.123 2.688-1.786.595-4.24.964-6.94.964S8.85 6.695 7.065 6.1c-1.93-.643-3.124-1.59-3.124-2.688 0-1.099 1.194-2.046 3.124-2.689 1.786-.595 4.24-.963 6.94-.963zm6.66 1.807c-1.694-.565-4.049-.915-6.66-.915-2.612 0-4.966.35-6.661.915-1.551.517-2.51 1.172-2.51 1.845 0 .672.959 1.328 2.51 1.845 1.695.565 4.05.914 6.66.914 2.612 0 4.967-.35 6.662-.914 1.55-.517 2.51-1.173 2.51-1.845 0-.673-.96-1.328-2.51-1.845z" fill="#333"/><path d="M24.068 3.411a.446.446 0 00-.892 0v8.63c0 .673-.96 1.33-2.51 1.846-1.695.565-4.05.915-6.661.915-2.612 0-4.966-.35-6.661-.915-1.551-.517-2.51-1.173-2.51-1.845V3.41a.446.446 0 00-.893 0v8.63c0 1.1 1.194 2.046 3.124 2.69 1.786.595 4.24.963 6.94.963s5.154-.368 6.94-.964c1.93-.643 3.123-1.59 3.123-2.688V3.41z" fill="#333"/><path d="M24.067 9.41c0-.246-.2-.446-.446-.446-.37 0-.002.121-.64.211-.365.051-.741.104-.927.368-.184.262-.104.597-.018.953.044.181.27.255.18.316-.062.042-.11-.12-.292-.202-.394-.18-.812-.369-1.203-.206-.355.147-.522.517-.697.902-.117.258-.239.528-.314.548-.078.021-.323-.124-.576-.273-.407-.24-.827-.488-1.29-.412-.434.07-.751.404-1.076.745-.242.254-.49.514-.67.528-.182.014-.472-.19-.767-.396-.413-.29-.832-.583-1.325-.583s-.912.294-1.325.583c-.295.207-.585.41-.766.396-.18-.014-.428-.274-.67-.528-.325-.341-.643-.674-1.077-.745-.463-.076-.883.172-1.29.412-.253.15-.498.294-.576.273-.075-.02-.197-.29-.314-.548-.175-.385-.342-.755-.697-.902-.39-.163-.809.027-1.203.206-.182.082-.23.244-.292.202-.09-.06.136-.135.18-.316l-.432-.105.434.105a.447.447 0 00.007-.04c.082-.341.15-.66-.027-.913-.186-.264-.562-.317-.927-.368-.638-.09-.27-.211-.64-.211-.246 0-.446.2-.446.446 0 .512.474.578.965.647.175.024.284-.052.32-.001a.065.065 0 01.007.012.444.444 0 00-.127.219h.002c-.114.47-.235.975.186 1.26.351.24.742.063 1.156-.125.224-.102.462-.21.495-.196.03.013.127.225.227.446.202.446.414.914.896 1.043.438.117.842-.121 1.26-.367.27-.16.549-.324.693-.3.139.022.354.248.575.479.359.377.727.763 1.248.804.494.038.914-.257 1.342-.556.297-.209.599-.42.816-.42.217 0 .52.211.816.42.428.3.848.594 1.342.556.521-.041.89-.427 1.248-.804.22-.231.437-.457.575-.48.144-.023.423.141.694.3.417.247.821.485 1.26.368.481-.129.693-.597.895-1.043.1-.221.197-.433.227-.446.033-.014.27.094.495.196.414.188.805.365 1.157.125.42-.286.299-.791.185-1.26-.037-.153-.164-.165-.118-.231.036-.051.145.026.32 0 .491-.068.965-.134.965-.646z" fill="#333"/><path d="M24.067 6.485c0-.246-.2-.446-.446-.446-.37 0-.002.122-.64.211-.365.051-.741.104-.927.369-.184.261-.104.596-.018.952.044.181.27.256.18.316-.062.042-.11-.12-.292-.202-.394-.179-.812-.368-1.203-.206-.355.147-.522.517-.697.902-.117.258-.239.528-.314.548-.078.021-.323-.123-.576-.273-.407-.24-.827-.488-1.29-.412-.434.07-.751.404-1.076.745-.242.254-.49.514-.67.528-.182.014-.472-.189-.767-.396-.413-.29-.832-.583-1.325-.583s-.912.294-1.325.583c-.295.207-.585.41-.766.396-.18-.014-.428-.274-.67-.528-.325-.341-.643-.674-1.077-.745-.463-.076-.883.172-1.29.412-.253.15-.498.294-.576.273-.075-.02-.197-.29-.314-.548-.175-.385-.342-.755-.697-.902-.39-.162-.809.027-1.203.206-.182.082-.23.244-.292.202-.09-.06.136-.135.18-.316l-.432-.105.434.105a.449.449 0 00.007-.04c.082-.341.15-.66-.027-.912-.186-.265-.562-.318-.927-.369-.638-.09-.27-.21-.64-.21a.446.446 0 00-.446.445c0 .512.474.578.964.647.176.025.285-.052.32-.001a.065.065 0 01.008.012.444.444 0 00-.127.219h.002c-.114.47-.235.975.186 1.26.351.24.742.063 1.156-.125.224-.102.462-.21.495-.195.03.012.127.224.227.445.202.447.414.914.896 1.043.438.117.842-.12 1.26-.367.27-.16.549-.324.693-.3.139.022.354.248.575.48.359.376.727.762 1.248.803.494.038.914-.256 1.342-.556.297-.208.599-.42.816-.42.217 0 .52.212.816.42.428.3.848.595 1.342.556.521-.04.89-.427 1.248-.804.22-.231.437-.457.575-.48.144-.023.423.142.694.301.417.246.821.484 1.26.367.481-.129.693-.596.895-1.043.1-.22.197-.433.227-.445.033-.014.27.093.495.195.414.188.805.365 1.157.126.42-.286.299-.792.185-1.261-.037-.153-.164-.165-.118-.231.036-.051.145.026.32.001.491-.069.965-.135.965-.647zM14.008 2.033c.957 0 1.832.111 2.474.29.805.226 1.303.607 1.303 1.089s-.498.862-1.303 1.088c-.642.179-1.517.29-2.474.29-.958 0-1.833-.111-2.474-.29-.806-.226-1.304-.606-1.304-1.088 0-.482.498-.863 1.304-1.088.641-.18 1.516-.29 2.474-.29zm2.236 1.148c-.564-.158-1.354-.256-2.236-.256-.883 0-1.673.098-2.237.256-.4.112-.648.198-.648.23 0 .033.247.12.648.231.564.158 1.354.256 2.237.256.882 0 1.672-.098 2.236-.256.4-.112.648-.198.648-.23 0-.033-.247-.119-.648-.23zm-7.861-.692c.669-.163 1.178-.43 1.138-.598-.041-.166-.617-.17-1.286-.006-.669.163-1.179.43-1.138.598.04.166.616.17 1.286.006zm-.055 1.657c.67.163 1.179.43 1.138.597-.04.167-.616.17-1.285.007-.67-.164-1.18-.431-1.139-.598.041-.167.617-.17 1.286-.006zM19.27 2.489c-.67-.163-1.179-.43-1.138-.598.04-.166.616-.17 1.285-.006.67.163 1.179.43 1.138.598-.04.166-.616.17-1.285.006zm.058 1.657c-.669.163-1.178.43-1.138.597.04.167.616.17 1.286.007.669-.164 1.178-.431 1.138-.598-.04-.167-.616-.17-1.286-.006z" fill="#333"/><path fill-rule="evenodd" clip-rule="evenodd" d="M14.006 3.899c.882 0 1.672-.098 2.237-.256.4-.112.648-.197.648-.23s-.248-.119-.648-.23c-.564-.159-1.355-.256-2.237-.256-.882 0-1.673.097-2.237.255-.4.112-.648.198-.648.23 0 .034.248.12.648.231.564.158 1.355.256 2.237.256z" fill="#F45A52"/><path fill-rule="evenodd" clip-rule="evenodd" d="M14.007 2.035c.957 0 1.833.11 2.474.29.805.225 1.303.606 1.303 1.088 0 .482-.498.863-1.303 1.088-.641.18-1.517.29-2.474.29-.957 0-1.832-.11-2.474-.29-.805-.225-1.303-.606-1.303-1.088 0-.482.498-.863 1.303-1.088.642-.18 1.517-.29 2.474-.29zm5.264.454c-.67-.163-1.18-.43-1.139-.597.041-.167.617-.17 1.286-.007.67.164 1.179.431 1.138.598-.04.167-.616.17-1.285.006zm3.907.924c0-.672-.959-1.328-2.51-1.845-1.695-.565-4.05-.915-6.66-.915-2.612 0-4.967.35-6.662.915-1.55.517-2.51 1.173-2.51 1.845 0 .672.96 1.328 2.51 1.845 1.695.565 4.05.915 6.661.915 2.612 0 4.966-.35 6.661-.915 1.551-.517 2.51-1.173 2.51-1.845zM8.238 1.885c.669-.163 1.244-.16 1.285.007.04.166-.47.434-1.138.597-.67.163-1.245.16-1.286-.006-.04-.167.469-.434 1.138-.598zm.089 2.263c.669.163 1.178.43 1.138.597-.04.167-.616.17-1.286.007-.669-.164-1.178-.431-1.138-.598.04-.167.616-.17 1.286-.006zm9.863.597c-.04-.166.47-.434 1.139-.597.669-.163 1.244-.16 1.285.006.04.167-.469.434-1.138.598-.67.163-1.245.16-1.286-.007zm-3.367 8.031c-.297-.208-.598-.42-.816-.42-.217 0-.519.212-.816.42-.427.3-.848.595-1.341.556-.522-.04-.89-.427-1.25-.804-.22-.23-.435-.457-.574-.48-.144-.023-.423.142-.694.301-.417.246-.82.485-1.259.367-.482-.129-.694-.596-.896-1.043-.1-.22-.196-.433-.227-.446-.033-.013-.27.094-.495.196-.414.188-.805.365-1.156.126-.421-.286-.3-.792-.186-1.26l-.002-.001a.444.444 0 01.127-.219.065.065 0 00-.007-.012c-.036-.051-.145.026-.32.001l-.075-.01v1.995c0 .672.96 1.328 2.51 1.845 1.695.565 4.05.914 6.661.914 2.612 0 4.966-.349 6.661-.914 1.551-.517 2.51-1.173 2.51-1.845v-1.995l-.074.01c-.176.025-.285-.052-.32-.001-.047.066.08.078.118.23.113.47.235.976-.186 1.262-.352.239-.743.062-1.157-.126-.224-.102-.462-.21-.495-.196-.03.013-.126.225-.227.446-.202.447-.413.914-.896 1.043-.438.118-.842-.12-1.259-.367-.27-.16-.55-.324-.694-.3-.138.022-.354.248-.574.48-.36.376-.728.762-1.25.803-.493.038-.913-.256-1.34-.556h-.001z" fill="#B38E85"/><path fill-rule="evenodd" clip-rule="evenodd" d="M20.945 14.73c-1.786.595-4.24.963-6.94.963s-5.155-.368-6.94-.963c-1.834-.611-3.003-1.497-3.115-2.526a3.55 3.55 0 00-.704.573c-.249.272-.383.55-.383.827 0 .854 1.18 1.674 3.087 2.31 2.052.684 4.899 1.107 8.055 1.107 3.155 0 6.002-.423 8.054-1.107 1.907-.636 3.087-1.456 3.087-2.31 0-.276-.134-.555-.383-.827a3.549 3.549 0 00-.704-.573c-.111 1.03-1.28 1.915-3.114 2.526zm-4.347 10.737c-.563.044-1.056-.302-1.558-.654-.37-.259-.745-.522-1.035-.522-.29 0-.666.263-1.036.522-.501.352-.995.698-1.557.654-.594-.046-1.025-.499-1.446-.94-.276-.29-.546-.573-.744-.605-.205-.034-.556.173-.896.373-.486.287-.957.564-1.448.433-.539-.144-.785-.687-1.02-1.206-.128-.283-.251-.555-.32-.584-.078-.032-.383.107-.67.237-.475.215-.923.418-1.305.16-.455-.31-.316-.887-.186-1.423h-.002a.453.453 0 01.02-.06c.053-.166.139-.252.11-.292-.02-.03-.217-.004-.448-.037l-.194-.028v2.51c0 .854 1.18 1.674 3.087 2.31 2.052.683 4.899 1.106 8.055 1.106 3.155 0 6.002-.423 8.054-1.107 1.907-.636 3.087-1.456 3.087-2.31v-2.509c-.064.01-.129.02-.194.028-.23.033-.427.008-.448.037-.032.046.08.147.129.352.129.536.268 1.113-.187 1.422-.381.26-.83.056-1.304-.159-.288-.13-.593-.269-.67-.237-.07.03-.193.3-.32.584-.236.519-.482 1.062-1.021 1.206-.491.131-.961-.146-1.447-.433-.34-.2-.691-.407-.897-.373-.198.032-.468.315-.744.605-.42.441-.852.894-1.445.94z" fill="#B38E85"/></g><defs><clipPath id="clip0_512_20180"><path fill="#fff" transform="translate(2)" d="M0 0h24.014v29H0z"/></clipPath></defs></svg>