<svg width="29" height="29" fill="none" xmlns="http://www.w3.org/2000/svg"><g clip-path="url(#clip0_512_20199)"><path d="M.645 22.147a.763.763 0 010-1.077L20.507 1.207a.763.763 0 011.078 1.078L1.722 22.147a.763.763 0 01-1.077 0z" fill="#FFD3B3"/><path d="M11.7 13.662L9.128 11.09a1.397 1.397 0 010-1.977l2.561-2.561a1.397 1.397 0 011.977 0l2.572 2.572c.546.546.546 1.43 0 1.976l-2.561 2.562a1.398 1.398 0 01-1.977 0z" fill="#FFD3B3"/><path d="M16.238 9.125l-1.196-1.197c.546.546.546 1.43 0 1.976l-3.55 3.55.209.208c.545.546 1.43.546 1.976 0l2.561-2.561a1.398 1.398 0 000-1.976z" fill="#E0A87F"/><path d="M5.978 19.384l-2.573-2.572a1.398 1.398 0 010-1.976l2.562-2.561a1.397 1.397 0 011.976 0l2.572 2.572c.546.546.546 1.43 0 1.976l-2.561 2.561a1.398 1.398 0 01-1.976 0z" fill="#FFD3B3"/><path d="M10.516 14.847L9.319 13.65a1.398 1.398 0 010 1.977l-3.55 3.55.209.208a1.4 1.4 0 001.977 0l2.56-2.561a1.398 1.398 0 000-1.977z" fill="#E0A87F"/><path d="M17.423 7.94l-2.572-2.572a1.397 1.397 0 010-1.976L17.412.83a1.397 1.397 0 011.976 0l2.573 2.572a1.4 1.4 0 010 1.977L19.399 7.94a1.398 1.398 0 01-1.976 0z" fill="#FFD3B3"/><path d="M21.962 3.402l-1.19-1.19c.546.546.546 1.43 0 1.976l-3.55 3.55.203.202c.546.546 1.43.546 1.976 0l2.561-2.561a1.397 1.397 0 000-1.977z" fill="#E0A87F"/><path d="M6.55 28.056a.763.763 0 010-1.077L26.414 7.116a.763.763 0 011.078 1.078L7.628 28.057a.763.763 0 01-1.077 0z" fill="#FFD3B3"/><path d="M17.61 19.57L15.038 17a1.398 1.398 0 010-1.977l2.561-2.56a1.397 1.397 0 011.977 0l2.572 2.571c.546.546.546 1.43 0 1.977l-2.561 2.56a1.398 1.398 0 01-1.977 0z" fill="#FFD3B3"/><path d="M22.148 15.034l-1.196-1.197c.545.546.545 1.43 0 1.976l-3.55 3.55.209.208c.546.546 1.43.546 1.976 0l2.561-2.56a1.398 1.398 0 000-1.977z" fill="#E0A87F"/><path d="M11.888 25.294L9.316 22.72a1.397 1.397 0 010-1.976l2.56-2.561a1.397 1.397 0 011.977 0l2.572 2.572c.546.546.546 1.43 0 1.976l-2.56 2.562a1.398 1.398 0 01-1.977 0z" fill="#FFD3B3"/><path d="M16.426 20.755l-1.197-1.196c.546.546.546 1.43 0 1.976l-3.55 3.55.21.208c.545.546 1.43.546 1.976 0l2.56-2.561a1.398 1.398 0 000-1.977z" fill="#E0A87F"/><path d="M23.333 13.85l-2.572-2.573a1.397 1.397 0 010-1.976l2.561-2.562a1.398 1.398 0 011.977 0l2.572 2.572a1.4 1.4 0 010 1.977l-2.561 2.561a1.398 1.398 0 01-1.977 0z" fill="#FFD3B3"/><path d="M27.869 9.312l-1.19-1.19c.545.545.545 1.43 0 1.976l-3.55 3.55.202.201c.546.546 1.43.546 1.977 0l2.56-2.561a1.398 1.398 0 000-1.976z" fill="#E0A87F"/><path d="M8.252 19.682l2.561-2.561c.71-.71.71-1.86 0-2.571l-.45-.45.59-.59.45.45c.344.343.8.532 1.286.532.485 0 .942-.19 1.285-.532l2.562-2.562a1.82 1.82 0 000-2.57l-.45-.45.59-.59.45.45c.71.71 1.86.71 2.57 0l2.562-2.562c.71-.71.71-1.86 0-2.57l-.45-.45.072-.074A1.183 1.183 0 0020.208.91l-.072.073-.45-.45a1.82 1.82 0 00-2.572 0l-.588.588a.42.42 0 10.595.595l.588-.589a.976.976 0 011.382 0L21.663 3.7c.382.381.382 1 0 1.381l-2.561 2.562a.977.977 0 01-1.382 0L15.148 5.07a.977.977 0 010-1.382l.77-.77a.42.42 0 10-.594-.595l-.77.77a1.816 1.816 0 000 2.571l.45.45-.59.59-.45-.45a1.82 1.82 0 00-2.572 0l-2.56 2.561a1.82 1.82 0 000 2.571l.45.45-.591.59-.45-.45c-.71-.71-1.86-.71-2.571 0L3.109 14.54c-.71.71-.71 1.86 0 2.57l.45.45-3.213 3.214a1.184 1.184 0 000 1.672c.46.46 1.21.46 1.672 0l3.213-3.213.45.45a1.82 1.82 0 002.571 0zm12.55-18.177a.342.342 0 01.484 0c.275.275-.07.55-.073.555l-.483-.483.073-.072zM15.599 6.71l.483.483-.59.59-.483-.483.59-.59zm-6.172 2.7l2.56-2.56a.976.976 0 011.383 0l2.572 2.572a.979.979 0 010 1.382l-2.561 2.56a.971.971 0 01-.691.287.971.971 0 01-.691-.286l-2.572-2.572a.978.978 0 010-1.382zm.45 3.022l.483.483-.59.59-.484-.483.59-.59zm-6.173 2.701l2.562-2.561a.977.977 0 011.382 0l2.572 2.572c.382.382.382 1 0 1.382l-2.561 2.561a.978.978 0 01-1.382 0l-2.573-2.572a.977.977 0 010-1.382zm-2.28 6.717a.342.342 0 01-.483-.483l3.213-3.213.483.483-3.213 3.213zM28.168 9.014l-.45-.45.073-.073a1.183 1.183 0 00-1.672-1.672l-.073.073-.45-.45a1.82 1.82 0 00-2.571 0l-2.561 2.561c-.71.71-.711 1.86 0 2.57l.45.45-.59.59-.45-.45a1.82 1.82 0 00-2.572 0l-2.56 2.562a1.82 1.82 0 000 2.571l.45.45-.59.59-.45-.45a1.82 1.82 0 00-2.572 0l-2.56 2.562a1.815 1.815 0 000 2.57l.45.45-3.214 3.214a1.183 1.183 0 001.672 1.672l3.213-3.213.45.45a1.82 1.82 0 002.571 0l.71-.71a.42.42 0 10-.595-.595l-.71.71a.978.978 0 01-1.381 0l-2.572-2.572a.977.977 0 010-1.382l2.56-2.561a.977.977 0 011.383 0l2.572 2.572c.38.38.38 1 0 1.382l-.647.647a.42.42 0 10.594.594l.648-.647a1.82 1.82 0 000-2.57l-.45-.45.59-.59.45.45c.71.71 1.86.71 2.57 0l2.562-2.562a1.82 1.82 0 000-2.571l-.45-.45.59-.59.45.45c.71.71 1.86.71 2.57 0l2.562-2.561c.71-.71.71-1.86 0-2.571zM7.334 27.759a.342.342 0 01-.483-.483l3.212-3.213.484.483-3.213 3.213zM26.713 7.413c.32-.32.802.164.483.484l-.073.072-.483-.483.073-.073zm-11.034 12l-.483-.482.59-.59.483.483-.59.59zm6.172-2.7l-2.561 2.56a.977.977 0 01-1.382 0l-2.572-2.572a.978.978 0 010-1.381l2.56-2.562a.979.979 0 011.383 0l1.823 1.823.002.002.002.002.745.745a.978.978 0 010 1.382zm-.45-3.022l-.483-.482.59-.59.483.482-.59.59zm6.172-2.7l-2.56 2.56a.977.977 0 01-1.383 0l-2.572-2.572a.977.977 0 010-1.382l2.561-2.56a.978.978 0 011.382 0l.746.745.002.002 1.824 1.824c.382.382.382 1 0 1.382z" fill="#000"/></g><defs><clipPath id="clip0_512_20199"><path fill="#fff" d="M0 0h28.7v28.7H0z"/></clipPath></defs></svg>