<svg width="60" height="60" fill="none" xmlns="http://www.w3.org/2000/svg"><path d="M35.177 24.066l-17.185-7.408L.81 24.066v17.697l17.183 7.406v-.002l.002.002 17.186-7.406V24.066h-.003z" fill="#FDDC85"/><path d="M35.979 24.03a.748.748 0 00-.075-.294c-.013-.027-.023-.053-.037-.08a.769.769 0 00-.217-.235c-.011-.01-.016-.023-.026-.03-.014-.01-.032-.007-.047-.017-.027-.015-.05-.036-.08-.048L18.31 15.918a.81.81 0 00-.639 0L.49 23.326c-.031.012-.058.035-.086.052-.013.008-.026.006-.039.014-.009.006-.012.017-.021.025a.803.803 0 00-.231.25c-.01.017-.017.034-.025.052a.807.807 0 00-.088.347v17.697c0 .323.191.613.489.741l17.182 7.41a.804.804 0 00.322.065.787.787 0 00.32-.066L35.5 42.504a.809.809 0 00.489-.74V24.065c-.002-.013-.009-.023-.01-.035zM1.616 25.294l6.8 2.933v15.937l-6.8-2.932V25.293zm15.568 22.65l-7.152-3.082V28.92l7.152 3.083v15.94zm.808-17.35L2.85 24.064l15.143-6.527 15.144 6.527-15.144 6.53zm16.38 10.638l-15.57 6.712v-15.94l15.57-6.71V41.23z" fill="#E49A61"/><path d="M59.188 34.088l.001-.002-17.186-7.408-17.184 7.409v17.696l17.184 7.407v-.003l.001.003 17.188-7.407V34.086l-.004.002z" fill="#FDDC85"/><path d="M59.99 34.053a.79.79 0 00-.074-.296l-.036-.078a.782.782 0 00-.22-.239c-.01-.007-.014-.021-.025-.027-.014-.009-.03-.008-.045-.015-.028-.018-.052-.038-.082-.052l-17.186-7.408a.824.824 0 00-.64 0l-17.184 7.409c-.031.014-.057.036-.086.053-.011.008-.026.005-.036.013-.009.007-.013.017-.021.024a.797.797 0 00-.232.252c-.01.017-.016.034-.025.051a.79.79 0 00-.087.348v17.696c0 .322.191.613.487.74l17.184 7.41a.816.816 0 00.641 0l17.188-7.41a.806.806 0 00.488-.74V34.087c0-.013-.008-.023-.008-.034zm-17.986-6.495l15.144 6.529-15.144 6.527-15.144-6.527 15.145-6.53zM25.628 51.25V36.694l14.138 20.651-14.138-6.095zm15.568 5.328L27.06 35.93l14.135 6.093v14.554zm17.187-5.328l-15.571 6.712V42.023l15.571-6.71V51.25z" fill="#E49A61"/><path d="M56.009 8.216l.005-.002L38.829.806 21.644 8.214v17.697l17.185 7.407v-.004.004l17.187-7.407V8.214l-.007.002z" fill="#FDDC85"/><path d="M56.818 8.191a.808.808 0 00-.08-.314.863.863 0 00-.032-.069.75.75 0 00-.222-.242c-.01-.008-.014-.02-.025-.026-.013-.008-.028-.008-.042-.015-.028-.018-.053-.04-.083-.052L39.147.065a.82.82 0 00-.638 0L21.324 7.473c-.033.014-.059.037-.088.054-.011.008-.026.005-.036.013-.009.006-.012.017-.02.023a.786.786 0 00-.232.253c-.01.017-.017.032-.026.051a.807.807 0 00-.087.348V25.91c0 .323.191.613.489.74l17.185 7.41a.815.815 0 00.32.067h.001a.808.808 0 00.319-.066l17.186-7.41a.807.807 0 00.49-.741V8.215c-.001-.01-.008-.015-.008-.024zm-17.99-6.506l6.378 2.748-15.144 6.53-6.378-2.748 15.145-6.53zM38.02 32.09l-15.569-6.712V9.442l15.569 6.71V32.09zm.809-17.35L32.1 11.843l15.144-6.53 6.729 2.901-15.145 6.528zm16.379 10.638l-15.57 6.712V16.152l15.57-6.71v15.936z" fill="#E49A61"/></svg>