<svg width="54" height="60" fill="none" xmlns="http://www.w3.org/2000/svg"><path d="M4.1 30.885c1.468-.755 3.022-1.374 4.622-1.891a35.76 35.76 0 012.081-.61c-.45.12-.375.098 0 0 6.071-1.565 12.727-1.565 18.8 0 .707.182 1.405.392 2.096.616 1.598.516 3.149 1.134 4.614 1.887 2.266 1.167 3.712 3.478 3.712 6.027V60H.381V36.919c0-2.553 1.45-4.87 3.72-6.034z" fill="#F87670"/><path d="M13.54 27.775c2.88-2.857 1.908-6.657 1.886-6.743 1.413 1.024 3.043 1.609 4.778 1.609 1.74 0 3.374-.588 4.789-1.618-.001.005-1.027 3.863 1.885 6.75 0 2.307-6.674 2.47-6.674 2.47s-6.673-.163-6.673-2.47h.008v.002zm1.885-6.751v.007l-.003-.003.003-.004z" fill="#E49A61"/><path d="M10.706 7.84C11.729 1.577 15.799 0 20.21 0c4.413 0 8.49 1.574 9.51 7.844-3.71-3.345-15.297-3.347-19.015-.004z" fill="#F87670"/><path d="M10.068 11.067a.953.953 0 01.38.048c0-.375.01-.734.025-1.085.035-.786.12-1.496.23-2.17l4.38 3.022c1.975-1.79 8.284-1.79 10.26 0l4.383-3.025c.129.794.215 1.65.24 2.6.005.217.01.434.01.657a.976.976 0 01.379-.047c.884.09 1.49 1.437 1.35 3.01-.14 1.572-.973 2.773-1.86 2.683a.94.94 0 01-.317-.09c-.772 3.041-2.405 5.576-4.526 7.118-1.415 1.032-3.049 1.62-4.79 1.62-1.739 0-3.37-.587-4.785-1.613-2.124-1.543-3.759-4.081-4.531-7.125a.948.948 0 01-.318.09c-.886.089-1.718-1.113-1.858-2.684-.14-1.571.463-2.92 1.348-3.009z" fill="#F1BB6B"/><path d="M15.082 10.882L10.703 7.86l.004-.02c3.719-3.343 15.305-3.341 19.017.004l.002.013-4.383 3.025c-1.975-1.79-8.285-1.79-10.261 0z" fill="#DB5743"/><path d="M5.709 40.048h47.582V60H5.709V40.048z" fill="#FDDC85"/><path d="M5.709 40.047l7.845-5.455h31.893l7.844 5.455H5.709z" fill="#FFBD66"/><path d="M24.677 34.592h9.644l2.371 5.455H22.306l2.371-5.455z" fill="#525C6B"/><path d="M36.692 40.048v10.148L29.5 47.7l-7.193 2.498v-10.15h14.386z" fill="#7A8E9B"/><path d="M9.922 54.462h9.055v1.875H9.922v-1.875z" fill="#525C6B"/></svg>