<svg width="65" height="65" fill="none" xmlns="http://www.w3.org/2000/svg"><path d="M48.668 15.337c-.215.8-.472 1.014-1.28 1.014-3.103 0-6.205.011-9.307-.01-.457 0-.612.084-.592.575.044 1.052.024 2.11 0 3.165 0 .31.071.422.41.461 9.708 1.086 17.296 8.263 18.799 17.883.506 3.268.8 6.57 1.182 9.857.194 1.633.363 3.27.586 4.898.287 2.11-1.054 3.7-3.185 3.7H9.572c-2.133 0-3.46-1.583-3.199-3.69.517-4.165 1.066-8.326 1.463-12.497.507-5.325 2.34-10.025 6.122-13.87 3.572-3.636 7.918-5.717 12.985-6.278.322-.035.427-.121.42-.449a65.99 65.99 0 010-3.165c.017-.466-.096-.592-.577-.589-3.187.025-6.374.014-9.56.014H7.412C3.626 16.35.924 14.154.118 10.41c-.012-.052-.07-.093-.106-.14V8.878c.353-.507.844-.646 1.454-.646 20.656.014 41.31.018 61.96.012 1.16 0 1.495.367 1.41 1.542-.252 3.547-3.222 6.448-6.769 6.546-2.087.056-4.176.015-6.265.018-.676 0-1.047-.356-1.152-1.013-.1-.564.14-.95.7-1.123.286-.068.582-.093.876-.074 1.829 0 3.656.017 5.485 0a4.872 4.872 0 003.969-1.974c.233-.323.43-.67.586-1.037.251-.578.2-.676-.406-.676-.606 0-1.214-.02-1.822.015-.902 0-1.803.022-2.702 0-16.874.044-33.75 0-50.625.022-.316 0-.631-.023-.947-.022-.885.03-1.772 0-2.657.014-.628.013-.709.142-.446.724.835 1.816 2.289 2.741 4.258 2.91.294.026.591.01.885.01h38.903c.379-.023.76-.005 1.135.053.65.145.934.55.826 1.158z" fill="#E49A61"/><path d="M48.667 15.337c-.222-.845-.46-1.014-1.403-1.014H7.321c-2.378 0-4.295-1.335-5.03-3.436-.168-.485-.12-.655.445-.628.99.047 1.982.025 2.974.03.25.113.483.26.692.437a5.763 5.763 0 003.727 1.365c2.005.013 4.01 0 6.014 0h39.822c.464 0 .927.029 1.391.015.922-.022 1.844 0 2.767 0 .57.112 1.162-.169 1.726.088-.956 1.403-2.331 2.079-3.996 2.116-1.974.046-3.95.01-5.926.015-.802 0-1.06.215-1.268 1.014l-1.992-.002z" fill="#FFBD66"/><path d="M13.55 30.505c1.31-1.976 3.018-3.546 4.977-4.853a18.746 18.746 0 0110.604-3.209c2.804 0 5.614-.169 8.41.1a19.19 19.19 0 0116.69 13.944c.573 2.042.71 4.148.974 6.235.407 3.24.77 6.487 1.148 9.73a3.51 3.51 0 010 .38c-.28.256-.632.2-.964.2H36.602c-.337 0-.856.132-.942-.258-.078-.358.492-.353.735-.56 1.217-.578 2.497-1.031 3.629-1.784 3.623-2.406 5.723-5.765 6.3-10.077.506-3.77-.477-7.18-2.75-10.18-2.395-3.163-5.617-4.986-9.579-5.426-4.512-.507-8.356.957-11.577 4.091-1.329 1.294-2.278 2.871-2.996 4.582-.155.37-.275.753-.462 1.11a12.976 12.976 0 005.302 17.595c.306.156.88.303.77.623-.13.387-.675.139-1.013.092a13.715 13.715 0 01-6.924-3.04c-3.678-3.021-5.451-6.971-5.323-11.709.071-2.63.605-5.19 1.778-7.586z" fill="#FDDC85"/><path d="M13.551 30.506c0 .525-.284.96-.446 1.432-.816 2.388-1.285 4.842-1.168 7.36a13.972 13.972 0 003.277 8.42c1.726 2.092 3.905 3.49 6.428 4.39 1.128.4 2.312.62 3.508.655-1.52-.738-2.79-1.558-3.895-2.645a13.093 13.093 0 01-4.014-10.104c.084-1.895.63-3.673 1.439-5.377.034-.071.116-.119.169-.178.216.21.067.436.018.65-.297 1.32-.506 2.65-.449 4.01.147 3.129 1.182 5.936 3.158 8.37 2.518 3.088 5.82 4.728 9.746 5.137 1.564.169 3.113-.06 4.64-.42.214-.05.44-.192.653.014-.194.338-.639.279-.971.608H56.36c.036.186.08.372.105.56.14 1.013-.25 1.467-1.275 1.467H9.882c-1.298 0-1.602-.382-1.448-1.65.458-3.764.93-7.529 1.32-11.301.355-3.42.918-6.766 2.703-9.779.34-.559.643-1.134 1.094-1.62z" fill="#FFBD66"/><path d="M57.42 12.273c-.232 0-.464.022-.695.022-15.563 0-31.126-.003-46.688-.01-1.71 0-3.199-.64-4.32-1.996.169 0 .338-.018.506-.018h50.683c.169 0 .338.013.507.021.008.14-.098.217-.17.311-.425.529-.425.845 0 1.36.073.096.178.165.176.31z" fill="#FDDC85"/><path d="M35.456 17.364v2.026c-.218.218-.507.203-.773.205-1.499.006-2.996.006-4.492 0-.272 0-.556.013-.774-.205v-2.026c.218-.218.507-.203.773-.205 1.499-.006 2.996-.006 4.493 0 .272.005.555-.01.773.205z" fill="#E5E5E5"/><path d="M57.419 12.274c-.902-.645-.905-1.319-.008-1.98h2.742c.59.195.828.49.802 1.03-.025.538-.268.87-.814.954l-2.722-.004z" fill="#FEFEFE"/><path d="M35.456 17.364h-6.039c-.052-1.013-.052-1.013.93-1.013h4.179c.983 0 .983 0 .93 1.013zm-6.039 2.026h6.04c.052 1.014.052 1.014-.931 1.014h-4.178c-.983 0-.983 0-.93-1.013z" fill="#CDCDCD"/><path d="M60.14 12.275c.906-.646.91-1.32.012-1.982.73 0 1.458 0 2.187-.027.301 0 .42.05.301.381-.2.55-.38 1.1-.785 1.54a5.464 5.464 0 01-1.714.088z" fill="#FBAA67"/><path d="M36.621 52.22c-3.683 1.033-7.253.781-10.678-.97a14.17 14.17 0 01-7.197-16.302c.044-.169.074-.326.11-.49 1.112-3.29 3.066-5.936 6.015-7.807 8.792-5.582 20.487.022 21.647 10.37a14.171 14.171 0 01-9.483 15.043c-.14.047-.277.103-.413.155z" fill="#E49A61"/><path d="M22.557 34.083c.581.023 1.036-.17 1.2-.774.199-.728-.35-1.033-.827-1.371-.226-.534.249-.845.39-1.272.52-.704 1.198-1.24 1.87-1.782.253-.202.392-.145.524.125.098.21.22.408.364.59.358.43.82.537 1.297.243.478-.294.637-.726.402-1.253-.135-.307-.312-.596-.488-.925a11.193 11.193 0 013.797-1.095c.314-.037.356.081.338.338-.017.21-.017.421 0 .632a1.013 1.013 0 00.984.966c.552.011.976-.394 1.032-.987.098-1.032.096-1.013 1.182-.824.826.166 1.636.399 2.423.698.438.155.637.337.28.766a1.786 1.786 0 00-.236.444.923.923 0 00.372 1.215c.468.316.917.224 1.309-.17.028-.03.052-.063.08-.095.214-.249.25-.754.572-.76.356 0 .626.388.913.63.622.54 1.193 1.134 1.708 1.776.293.358.395.62-.139.82a1.55 1.55 0 00-.429.266c-.425.36-.547.814-.255 1.295a.943.943 0 001.253.42c.04-.014.08-.028.117-.046.907-.424.905-.424 1.265.562a12.3 12.3 0 01.645 2.702c.04.33-.017.47-.368.427a2.91 2.91 0 00-.57 0c-.594.048-.998.471-.986 1.025.009.529.402.91.958 1 .327.053.8-.22.952.154.117.289-.055.697-.115 1.05a10.194 10.194 0 01-.952 2.932c-.307-.169-.576-.338-.861-.47a.997.997 0 00-1.326.36c-.284.46-.169.99.275 1.351.262.208.775.276.789.556.022.409-.419.696-.686 1.013-.55.64-1.17 1.22-1.846 1.726-.268.21-.462.26-.616-.103a2.13 2.13 0 00-.127-.218c-.278-.506-.647-.844-1.273-.675-.556.157-.763.554-.711 1.3-.127.284-.392.292-.643.3-3.462.13-6.587-.817-9.263-3.04-3.413-2.838-4.969-6.538-4.868-10.956.005-.32-.011-.648.294-.866z" fill="#fff"/><path d="M22.557 34.083c-.309 1.667-.093 3.305.318 4.921a12.51 12.51 0 003.195 5.718c2.161 2.216 4.794 3.572 7.905 3.937 1.023.12 2.042.243 3.06-.017.603 1.04.603 1.04-.522 1.442-.855.303-1.74.51-2.641.62-.338.04-.47-.022-.429-.373.018-.19.018-.38 0-.57a1.013 1.013 0 00-1.032-.982c-.53.013-.903.407-.995.966-.052.324.232.785-.168.947-.27.11-.657-.052-.99-.105-.911-.163-1.8-.43-2.65-.798-.284-.117-.338-.245-.154-.507a2.99 2.99 0 00.306-.55 1.013 1.013 0 00-.383-1.321c-.465-.274-.988-.152-1.351.304-.204.258-.252.751-.568.773-.361.024-.626-.38-.913-.62a13.142 13.142 0 01-1.82-1.911c-.23-.294-.2-.456.134-.611.213-.095.41-.22.585-.374.39-.353.495-.795.214-1.253-.28-.458-.714-.636-1.251-.427-.04.015-.08.03-.117.049-.908.425-.908.425-1.268-.56a11.99 11.99 0 01-.645-2.703c-.04-.326.015-.473.37-.43.189.017.38.017.569 0a1.013 1.013 0 00.984-1.032c-.012-.529-.407-.904-.964-.995-.326-.052-.787.231-.95-.169-.109-.27.053-.657.107-.99.16-.868.408-1.717.743-2.533.152-.395.321-.464.662-.214.212.137.432.26.659.368z" fill="#E3E3E3"/><path d="M23.32 30.67l-.39 1.272c-.37-.082-.52-.247-.221-.583l.611-.69z" fill="#79B0C2"/><path d="M33.45 33.489c0 .569.02 1.14 0 1.707-.019.39.072.615.464.823a2.967 2.967 0 011.351 3.737 3.04 3.04 0 01-5.853-1.334 2.896 2.896 0 011.643-2.456.583.583 0 00.38-.616c-.02-1.2-.013-2.402 0-3.602 0-.75.383-1.2.998-1.208.615-.008 1.013.44 1.025 1.182-.002.588-.008 1.18-.008 1.767z" fill="#525C6B"/><path d="M33.446 38.617a1.012 1.012 0 11-1.013-.986 1.023 1.023 0 011.013.986z" fill="#7A8E9B"/></svg>