<svg width="20" height="20" viewBox="0 0 20 20" fill="none" xmlns="http://www.w3.org/2000/svg">
<g clip-path="url(#clip0_381_24518)">
<path d="M9.99979 4.16699C4.86569 4.16699 0.290767 9.50359 0.0982699 9.73108C-0.0334077 9.88608 -0.0334077 10.1136 0.0982699 10.2694C0.213268 10.4052 1.89492 12.3577 4.31988 13.9127L6.93152 11.301C6.76153 10.901 6.66653 10.4619 6.66653 10.0002C6.66653 8.16193 8.1615 6.66695 9.99979 6.66695C10.4615 6.66695 10.9006 6.76195 11.3006 6.93195L13.4481 4.78448C12.4014 4.41031 11.2523 4.16699 9.99979 4.16699Z" fill="#C7C7C7"/>
<path d="M19.9264 9.76262C19.8197 9.60844 18.0506 7.11848 15.0765 5.51351L17.3789 3.21104C17.5414 3.04855 17.5414 2.78437 17.3789 2.62187C17.2164 2.45938 16.9523 2.45938 16.7898 2.62187L2.62334 16.7884C2.46084 16.9509 2.46084 17.215 2.62334 17.3775C2.70416 17.4592 2.81083 17.5 2.91751 17.5C3.02419 17.5 3.13083 17.4592 3.21251 17.3784L5.82497 14.7659C7.11245 15.3942 8.53242 15.8334 10.0007 15.8334C15.1348 15.8334 19.7097 10.4968 19.9022 10.2693C20.0231 10.1251 20.0339 9.91762 19.9264 9.76262ZM10.0007 13.3334C9.23155 13.3334 8.53242 13.0609 7.96743 12.6226L12.6232 7.96687C13.0615 8.53186 13.334 9.23103 13.334 10.0002C13.334 11.8384 11.839 13.3334 10.0007 13.3334Z" fill="#C7C7C7"/>
</g>
<defs>
<clipPath id="clip0_381_24518">
<rect width="20" height="20" fill="white"/>
</clipPath>
</defs>
</svg>
