<svg width="24" height="12" viewBox="0 0 24 12" fill="none" xmlns="http://www.w3.org/2000/svg">
<path d="M12 0C8.16094 0 5.17031 2.2875 1.5 6C4.65938 9.17344 7.3125 12 12 12C16.6828 12 20.1281 8.41875 22.5 6.06562C20.0719 3.30937 16.6313 0 12 0ZM12 10.2797C9.68437 10.2797 7.8 8.35781 7.8 6C7.8 3.6375 9.68437 1.72031 12 1.72031C14.3156 1.72031 16.2 3.64219 16.2 6C16.2 8.3625 14.3156 10.2797 12 10.2797Z" fill="#C7C7C7"/>
<path d="M11.9999 4.4999C11.9999 4.12959 12.1358 3.79209 12.3562 3.52959C12.239 3.51084 12.1218 3.50146 11.9999 3.50146C10.6499 3.50146 9.54834 4.62178 9.54834 5.9999C9.54834 7.37803 10.6499 8.49834 11.9999 8.49834C13.3499 8.49834 14.4515 7.37803 14.4515 5.9999C14.4515 5.89209 14.4421 5.78428 14.4327 5.67647C14.1749 5.87803 13.8562 5.9999 13.5046 5.9999C12.6702 5.9999 11.9999 5.32959 11.9999 4.4999Z" fill="#C7C7C7"/>
</svg>
