<svg width="298" height="298" viewBox="0 0 298 298" fill="none" xmlns="http://www.w3.org/2000/svg">
<path fill-rule="evenodd" clip-rule="evenodd" d="M149 8.14844C226.146 8.14844 288.688 65.5728 288.688 136.41C288.688 207.246 226.146 264.672 149 264.672C126.935 264.672 106.071 259.967 87.5165 251.602L25.6909 288.861C22.3919 290.838 18.1151 289.76 16.1421 286.457C14.9326 284.432 14.8686 282.038 15.7579 280.035L40.3126 218.106C40.4058 217.873 40.5047 217.538 40.6176 217.32C21.0486 195.251 9.3125 167.088 9.3125 136.41C9.3125 65.5728 71.8541 8.14844 149 8.14844ZM154.124 166.193C157.737 150.894 168.577 142.296 178.483 135.886C201.38 121.068 206.683 99.7276 197.49 79.8139C181.274 44.6744 128.526 39.5781 101.889 65.127C87.1615 79.2587 103.574 108.899 124.283 90.6153C134.746 81.3784 158.662 79.0818 164.725 94.0411C167.838 101.724 163.7 109.956 154.802 115.689C132.508 130.05 128.856 150.893 133.875 167.321C138.409 182.163 150.58 181.193 154.124 166.193ZM127.033 214.291C128.868 241.124 169.276 238.328 167.362 211.437C165.495 185.277 125.191 188.164 127.033 214.291Z" fill="#EDE6D6"/>
</svg>
