<svg width="16" height="16" fill="none" xmlns="http://www.w3.org/2000/svg"><g clip-path="url(#clip0_381_21785)" fill="#000"><path d="M15.4 5.004c-.034-.773-.16-1.304-.342-1.765a3.545 3.545 0 00-.85-1.29 3.623 3.623 0 00-1.302-.838c-.468-.179-1.002-.304-1.784-.338C10.335.736 10.085.728 8.09.728c-1.997 0-2.247.008-3.031.042-.781.034-1.319.16-1.784.338a3.592 3.592 0 00-1.304.841 3.578 3.578 0 00-.848 1.288C.942 3.7.815 4.228.78 5 .743 5.779.734 6.026.734 8c0 1.976.009 2.223.043 2.998.035.773.161 1.305.342 1.765.187.489.477.926.85 1.29.368.37.814.656 1.302.838.468.18 1.003.304 1.784.338.784.034 1.034.043 3.03.043 1.997 0 2.247-.008 3.032-.043.781-.034 1.318-.159 1.784-.338a3.741 3.741 0 002.152-2.128c.18-.463.307-.992.341-1.765.035-.775.043-1.023.043-2.997 0-1.975-.002-2.222-.037-2.998zm-1.324 5.939c-.032.71-.152 1.094-.253 1.35a2.426 2.426 0 01-1.396 1.38c-.259.1-.65.22-1.365.25-.776.034-1.008.043-2.97.043-1.962 0-2.198-.009-2.97-.043-.72-.03-1.107-.15-1.365-.25a2.265 2.265 0 01-.845-.543 2.259 2.259 0 01-.549-.835c-.1-.255-.221-.642-.252-1.35-.035-.767-.044-.997-.044-2.938 0-1.94.009-2.173.044-2.938.031-.71.152-1.094.252-1.35.118-.315.305-.602.552-.835.238-.241.526-.426.844-.542.259-.1.65-.22 1.365-.25.776-.035 1.008-.043 2.97-.043 1.966 0 2.198.008 2.971.042.718.032 1.106.151 1.365.25.318.117.609.302.844.543.244.236.431.52.549.836.1.255.221.642.253 1.35.034.767.043.997.043 2.937 0 1.941-.009 2.168-.043 2.936z"/><path d="M8.086 4.265C6.001 4.265 4.31 5.938 4.31 8S6 11.738 8.086 11.738s3.778-1.674 3.778-3.737-1.692-3.736-3.778-3.736zm0 6.16c-1.353 0-2.45-1.085-2.45-2.424 0-1.338 1.097-2.424 2.45-2.424 1.353 0 2.45 1.086 2.45 2.424 0 1.339-1.097 2.424-2.45 2.424zm4.811-6.308a.877.877 0 01-.882.873.877.877 0 01-.882-.873c0-.481.395-.872.882-.872s.882.39.882.872z"/></g><defs><clipPath id="clip0_381_21785"><path fill="#fff" transform="translate(.707 .728)" d="M0 0h14.706v14.546H0z"/></clipPath></defs></svg>