<svg width="17" height="16" fill="none" xmlns="http://www.w3.org/2000/svg"><g clip-path="url(#clip0_381_21789)"><path d="M16.337 1.59a1.055 1.055 0 00-.834-.371c-.184 0-.38.038-.581.114L1.229 6.503c-.727.275-.825.686-.819.907.007.221.128.627.87.86a.558.558 0 00.013.004l2.84.804 1.536 4.344c.21.592.68.96 1.227.96.345 0 .685-.143.982-.413l1.757-1.6 2.548 2.03.025.02c.002 0 .005.003.007.005.283.217.592.332.894.332.59 0 1.06-.432 1.197-1.1L16.55 2.697c.09-.44.014-.834-.213-1.109zM5.083 8.924l5.48-2.769L7.15 9.742a.466.466 0 00-.115.209l-.658 2.636-1.295-3.662zm2.153 4.354a.908.908 0 01-.069.056l.61-2.445 1.111.884-1.652 1.505zM15.62 2.511L13.377 13.47c-.022.105-.09.349-.268.349a.55.55 0 01-.31-.133l-2.888-2.3H9.91l-1.718-1.369 4.934-5.186a.465.465 0 00.034-.603.477.477 0 00-.595-.136l-8.115 4.1-2.88-.814 13.69-5.169a.701.701 0 01.243-.053c.03 0 .081.004.1.027.025.03.057.134.018.328z" fill="#000"/></g><defs><clipPath id="clip0_381_21789"><path fill="#fff" transform="translate(.41)" d="M0 0h16.177v16H0z"/></clipPath></defs></svg>