<svg width="14" height="12" viewBox="0 0 14 12" fill="none" xmlns="http://www.w3.org/2000/svg">
<g clip-path="url(#clip0_381_22623)">
<path d="M13.773 5.28294C12.9873 4.24674 11.9695 3.38963 10.8298 2.80435C9.66639 2.20689 8.41479 1.8969 7.10823 1.88064C7.07224 1.87963 6.92776 1.87963 6.89177 1.88064C5.58524 1.89693 4.33361 2.20689 3.17019 2.80435C2.03047 3.38963 1.01277 4.24671 0.227021 5.28294C-0.0756737 5.68212 -0.0756737 6.2397 0.227021 6.63888C1.01274 7.67508 2.03047 8.53219 3.17019 9.11747C4.33361 9.71493 5.58521 10.0249 6.89177 10.0412C6.92776 10.0422 7.07224 10.0422 7.10823 10.0412C8.41476 10.0249 9.66639 9.71493 10.8298 9.11747C11.9695 8.53219 12.9873 7.67511 13.773 6.63888C14.0757 6.23964 14.0757 5.68212 13.773 5.28294ZM3.42462 8.59336C2.3604 8.04684 1.40999 7.2464 0.676114 6.2786C0.534282 6.09154 0.534282 5.83028 0.676114 5.64323C1.40996 4.67542 2.36038 3.87498 3.42462 3.32846C3.72688 3.17326 4.03553 3.03905 4.3499 2.92543C3.54113 3.67321 3.03158 4.75692 3.03158 5.9609C3.03158 7.16493 3.54116 8.24872 4.35001 8.99648C4.03564 8.88285 3.7269 8.74858 3.42462 8.59336ZM7.00003 9.45691C5.12583 9.45691 3.6011 7.88861 3.6011 5.96087C3.6011 4.03313 5.12583 2.46485 7.00003 2.46485C8.87422 2.46485 10.399 4.03316 10.399 5.9609C10.399 7.88864 8.87422 9.45691 7.00003 9.45691ZM13.3239 6.27857C12.5901 7.24638 11.6397 8.04681 10.5754 8.59334C10.2735 8.74836 9.96507 8.88198 9.65108 8.99549C10.4593 8.24774 10.9685 7.16436 10.9685 5.96087C10.9685 4.75673 10.4588 3.67288 9.64988 2.92509C9.96433 3.03874 10.2731 3.17312 10.5755 3.3284C11.6397 3.87493 12.5901 4.67536 13.324 5.64317C13.4658 5.83026 13.4658 6.09151 13.3239 6.27857Z" fill="#353535"/>
<path d="M6.99947 4.46582C6.19742 4.46582 5.54492 5.13697 5.54492 5.96193C5.54492 6.78689 6.19742 7.45804 6.99947 7.45804C7.80152 7.45804 8.45402 6.78689 8.45402 5.96193C8.45405 5.13697 7.80154 4.46582 6.99947 4.46582ZM6.99947 6.87228C6.51147 6.87228 6.11441 6.46393 6.11441 5.96193C6.11441 5.45995 6.51141 5.05161 6.99947 5.05161C7.48747 5.05161 7.8845 5.45995 7.8845 5.96193C7.88453 6.46393 7.48747 6.87228 6.99947 6.87228Z" fill="#353535"/>
</g>
<defs>
<clipPath id="clip0_381_22623">
<rect width="14" height="12" fill="white"/>
</clipPath>
</defs>
</svg>
