<svg width="12" height="12" viewBox="0 0 12 12" fill="none" xmlns="http://www.w3.org/2000/svg">
<g clip-path="url(#clip0_381_22601)">
<path d="M9.07785 11.4972C9.07785 11.6639 9.2127 11.7988 9.37944 11.7988C9.54617 11.7988 9.68103 11.6639 9.68103 11.4972V1.22828L11.4857 3.03294C11.5445 3.09179 11.6206 3.12121 11.699 3.12121C11.7775 3.12121 11.8535 3.09179 11.9123 3.03294C12.03 2.91525 12.03 2.72644 11.9123 2.60875L9.59521 0.291625C9.48242 0.178833 9.28381 0.178833 9.17102 0.291625L6.8539 2.60875C6.7362 2.72644 6.7362 2.91525 6.8539 3.03294C6.97159 3.15064 7.16039 3.15064 7.27809 3.03294L9.08275 1.22828V11.4972H9.07785Z" fill="#353535"/>
<path d="M5.14671 8.96701C5.02901 8.84931 4.84021 8.84931 4.72252 8.96701L2.91786 10.7717V0.502766C2.91786 0.336031 2.783 0.201172 2.61626 0.201172C2.44953 0.201172 2.31467 0.336031 2.31467 0.502766V10.7717L0.512464 8.96701C0.394769 8.84931 0.205966 8.84931 0.0882713 8.96701C-0.0294238 9.0847 -0.0294238 9.27351 0.0882713 9.3912L2.40539 11.7083C2.46424 11.7672 2.54025 11.7966 2.61872 11.7966C2.69718 11.7966 2.77319 11.7672 2.83204 11.7083L5.14916 9.3912C5.26195 9.27596 5.26195 9.0847 5.14671 8.96701Z" fill="#353535"/>
</g>
<defs>
<clipPath id="clip0_381_22601">
<rect width="12" height="12" fill="white"/>
</clipPath>
</defs>
</svg>
