<svg width="11" height="11" viewBox="0 0 11 11" fill="none" xmlns="http://www.w3.org/2000/svg">
<g clip-path="url(#clip0_381_24692)">
<path d="M9.82952 8.59868L6.67141 5.44057L9.82952 2.28246C10.1705 1.9415 10.1705 1.39258 9.82952 1.05162C9.48856 0.710658 8.93964 0.710658 8.59868 1.05162L5.44057 4.20973L2.28246 1.05162C1.9415 0.710658 1.39258 0.710658 1.05162 1.05162C0.710658 1.39258 0.710658 1.9415 1.05162 2.28246L4.20973 5.44057L1.05162 8.59868C0.710658 8.93964 0.710658 9.48856 1.05162 9.82952C1.39258 10.1705 1.9415 10.1705 2.28246 9.82952L5.44057 6.67141L8.59868 9.82952C8.93964 10.1705 9.48856 10.1705 9.82952 9.82952C10.1681 9.48856 10.1681 8.93722 9.82952 8.59868Z" fill="#ED452A"/>
</g>
<defs>
<clipPath id="clip0_381_24692">
<rect width="11" height="11" fill="white"/>
</clipPath>
</defs>
</svg>
