<svg width="15" height="15" viewBox="0 0 15 15" fill="none" xmlns="http://www.w3.org/2000/svg">
<g clip-path="url(#clip0_381_22811)">
<path d="M13.403 11.7261L9.09653 7.41958L13.403 3.11307C13.868 2.64812 13.868 1.89959 13.403 1.43465C12.9381 0.969701 12.1896 0.969701 11.7246 1.43465L7.41811 5.74116L3.1116 1.43465C2.64666 0.969701 1.89813 0.969701 1.43318 1.43465C0.968236 1.89959 0.968236 2.64812 1.43318 3.11307L5.7397 7.41958L1.43318 11.7261C0.968236 12.191 0.968236 12.9396 1.43318 13.4045C1.89813 13.8695 2.64666 13.8695 3.1116 13.4045L7.41811 9.098L11.7246 13.4045C12.1896 13.8695 12.9381 13.8695 13.403 13.4045C13.8647 12.9396 13.8647 12.1877 13.403 11.7261Z" fill="#ED452A"/>
</g>
<defs>
<clipPath id="clip0_381_22811">
<rect width="15" height="15" fill="white"/>
</clipPath>
</defs>
</svg>
