<svg width="32" height="8" viewBox="0 0 32 8" fill="none" xmlns="http://www.w3.org/2000/svg">
<path d="M29.7604 1.72214C30.3539 1.72287 30.923 1.9642 31.3427 2.39319C31.7624 2.82218 31.9985 3.4038 31.9993 4.01048C31.9993 4.61739 31.7634 5.19944 31.3435 5.62859C30.9236 6.05773 30.3542 6.29883 29.7604 6.29883L3.12561 6.29883C2.8315 6.29919 2.5402 6.24025 2.26841 6.12538C1.99661 6.0105 1.74966 5.84196 1.54169 5.6294C1.33371 5.41683 1.16881 5.16442 1.05642 4.88662C0.944034 4.60883 0.886365 4.3111 0.88672 4.01049C0.88672 3.40358 1.1226 2.82153 1.54248 2.39239C1.96235 1.96324 2.53182 1.72215 3.12561 1.72215L29.7604 1.72214Z" fill="#C4B697"/>
<path d="M14.8908 1.25351L3.12715 1.25351C2.41174 1.25351 1.72563 1.54398 1.21976 2.06102C0.713883 2.57807 0.429687 3.27933 0.429687 4.01054C0.429687 4.74175 0.713884 5.44302 1.21976 5.96006C1.72563 6.47711 2.41174 6.76758 3.12715 6.76758L16.0048 6.76758C16.6441 4.80181 16.28 2.63202 14.8908 1.25351Z" fill="#592D0D"/>
<path d="M9.07293 5.00523C9.26659 5.00523 9.45591 5.06392 9.61693 5.17389C9.77796 5.28386 9.90346 5.44017 9.97757 5.62304C10.0517 5.80591 10.0711 6.00714 10.0333 6.20128C9.99551 6.39542 9.90225 6.57374 9.76531 6.71371C9.62837 6.85367 9.4539 6.94899 9.26396 6.98761C9.07402 7.02622 8.87714 7.0064 8.69821 6.93065C8.51929 6.85491 8.36636 6.72663 8.25877 6.56205C8.15118 6.39747 8.09375 6.20397 8.09375 6.00603C8.09375 5.7406 8.19691 5.48604 8.38054 5.29836C8.56418 5.11067 8.81323 5.00523 9.07293 5.00523Z" fill="#E29059"/>
<path d="M7.72137 1.83531C7.91503 1.83531 8.10435 1.894 8.26537 2.00397C8.4264 2.11394 8.5519 2.27025 8.62601 2.45312C8.70012 2.63599 8.71951 2.83722 8.68173 3.03136C8.64395 3.22549 8.55069 3.40382 8.41375 3.54379C8.27681 3.68375 8.10234 3.77907 7.9124 3.81768C7.72245 3.8563 7.52557 3.83648 7.34665 3.76073C7.16773 3.68498 7.0148 3.55671 6.90721 3.39213C6.79962 3.22755 6.74219 3.03405 6.74219 2.83611C6.74219 2.57068 6.84535 2.31612 7.02898 2.12843C7.21261 1.94075 7.46167 1.83531 7.72137 1.83531Z" fill="#E29059"/>
<path d="M11.194 0.731792C11.3877 0.731792 11.577 0.790489 11.738 0.900459C11.8991 1.01043 12.0246 1.16673 12.0987 1.3496C12.1728 1.53248 12.1922 1.73371 12.1544 1.92784C12.1166 2.12198 12.0234 2.30031 11.8864 2.44027C11.7495 2.58023 11.575 2.67555 11.3851 2.71417C11.1951 2.75278 10.9982 2.73297 10.8193 2.65722C10.6404 2.58147 10.4875 2.45319 10.3799 2.28861C10.2723 2.12403 10.2148 1.93054 10.2148 1.7326C10.2148 1.60117 10.2402 1.47103 10.2894 1.3496C10.3386 1.22818 10.4107 1.11785 10.5016 1.02492C10.5926 0.931988 10.7005 0.858269 10.8193 0.807974C10.9381 0.757679 11.0654 0.731792 11.194 0.731792Z" fill="#E5AE89"/>
<path d="M13.1159 5.55699C13.3096 5.55699 13.4989 5.61568 13.6599 5.72565C13.8209 5.83562 13.9464 5.99193 14.0205 6.1748C14.0947 6.35767 14.114 6.5589 14.0763 6.75304C14.0385 6.94717 13.9452 7.1255 13.8083 7.26546C13.6713 7.40543 13.4969 7.50075 13.3069 7.53936C13.117 7.57798 12.9201 7.55816 12.7412 7.48241C12.5623 7.40666 12.4093 7.27839 12.3017 7.11381C12.1941 6.94922 12.1367 6.75573 12.1367 6.55779C12.1367 6.29236 12.2399 6.0378 12.4235 5.85011C12.6071 5.66243 12.8562 5.55699 13.1159 5.55699Z" fill="#E5AE89"/>
<path d="M4.21746 3.76499C4.41112 3.76499 4.60044 3.82369 4.76146 3.93366C4.92249 4.04363 5.04799 4.19993 5.1221 4.3828C5.19622 4.56568 5.21561 4.76691 5.17782 4.96104C5.14004 5.15518 5.04679 5.33351 4.90984 5.47347C4.7729 5.61344 4.59843 5.70875 4.40849 5.74737C4.21855 5.78599 4.02167 5.76617 3.84274 5.69042C3.66382 5.61467 3.5109 5.48639 3.4033 5.32181C3.29571 5.15723 3.23828 4.96374 3.23828 4.7658C3.23828 4.50037 3.34144 4.24581 3.52508 4.05812C3.70871 3.87043 3.95777 3.76499 4.21746 3.76499Z" fill="#E5AE89"/>
<path d="M0.979179 2.66245C1.17284 2.66245 1.36216 2.72115 1.52318 2.83112C1.68421 2.94109 1.80971 3.09739 1.88382 3.28027C1.95793 3.46314 1.97733 3.66437 1.93954 3.85851C1.90176 4.05264 1.8085 4.23097 1.67156 4.37093C1.53462 4.5109 1.36015 4.60622 1.17021 4.64483C0.980265 4.68345 0.783385 4.66363 0.604463 4.58788C0.425542 4.51213 0.272615 4.38386 0.165021 4.21928C0.0574278 4.05469 -3.50943e-08 3.8612 -4.37465e-08 3.66326C-5.53488e-08 3.39783 0.103163 3.14327 0.286795 2.95558C0.470427 2.7679 0.719485 2.66245 0.979179 2.66245Z" fill="#E29059"/>
<path d="M4.75652 0.043312C4.95019 0.043312 5.1395 0.102009 5.30053 0.211978C5.46155 0.321948 5.58706 0.478252 5.66117 0.661125C5.73528 0.843999 5.75467 1.04523 5.71689 1.23936C5.67911 1.4335 5.58585 1.61183 5.44891 1.75179C5.31197 1.89176 5.13749 1.98707 4.94755 2.02569C4.75761 2.06431 4.56073 2.04449 4.38181 1.96874C4.20289 1.89299 4.04996 1.76472 3.94237 1.60013C3.83477 1.43555 3.77734 1.24206 3.77734 1.04412C3.77734 0.912689 3.80267 0.782549 3.85188 0.661126C3.90109 0.539702 3.97321 0.429374 4.06414 0.336441C4.15506 0.243507 4.26301 0.169789 4.38181 0.119494C4.50061 0.0691986 4.62794 0.043312 4.75652 0.043312Z" fill="#E5AE89"/>
</svg>
