<svg width="32" height="7" viewBox="0 0 32 7" fill="none" xmlns="http://www.w3.org/2000/svg">
<path d="M29.7604 5.77636C30.3542 5.77636 30.9236 5.53527 31.3435 5.10613C31.7634 4.67698 31.9993 4.09493 31.9993 3.48803C31.9985 2.88135 31.7624 2.29972 31.3427 1.87073C30.923 1.44175 30.3539 1.20042 29.7604 1.19969L3.12561 1.19969C2.53182 1.19969 1.96235 1.44078 1.54248 1.86993C1.1226 2.29907 0.88672 2.88112 0.88672 3.48803C0.886365 3.78864 0.944034 4.08637 1.05642 4.36417C1.16881 4.64196 1.33371 4.89437 1.54169 5.10694C1.74966 5.3195 1.99661 5.48804 2.26841 5.60292C2.5402 5.71779 2.8315 5.77673 3.12561 5.77637L29.7604 5.77636Z" fill="#C4B697"/>
<path d="M0.429687 3.48808C0.429687 2.75687 0.713883 2.05561 1.21976 1.53856C1.72563 1.02152 2.41174 0.731045 3.12715 0.731045L17.7663 0.731044C17.8423 0.731184 17.9172 0.750661 17.984 0.787719C18.0509 0.824779 18.1077 0.878258 18.1493 0.943337C18.1917 1.00867 18.2171 1.08392 18.2232 1.16203C18.2293 1.24015 18.216 1.31858 18.1844 1.38998C17.6815 2.62037 17.2465 3.87864 16.8815 5.15885L16.8545 5.24156C16.7844 5.46763 16.7143 5.69922 16.636 5.93081C16.6043 6.02264 16.5455 6.10215 16.4677 6.15843C16.3899 6.21471 16.297 6.24499 16.2018 6.24512L3.12715 6.24512C2.41174 6.24512 1.72563 5.95464 1.21976 5.4376C0.713884 4.92056 0.429687 4.21929 0.429687 3.48808Z" fill="#7F4218"/>
<path d="M11.8689 2.58359C11.3294 1.65171 10.2073 -0.112789 8.90171 0.309038C7.15915 0.860445 10.5553 4.32604 10.7279 5.54741C9.9327 5.22636 9.22817 4.70808 8.67782 4.03931C8.09247 3.30869 7.642 2.4485 7.09711 1.66826C6.72486 1.13891 5.36534 -0.537372 4.56419 0.162916C3.96805 0.686753 4.62624 1.90536 4.86631 2.45401C5.23047 3.28112 5.75108 4.00347 6.18807 4.78922C6.33642 5.05401 6.46361 5.33062 6.56841 5.61633L6.60078 5.72937C6.20477 5.35864 5.82839 4.96658 5.47324 4.55488C4.58577 3.59818 3.67673 2.30238 2.50603 1.66826C1.49178 1.11685 1.23822 2.18107 1.45402 2.96406C1.62529 3.5292 1.86162 4.07154 2.15806 4.57969C2.4278 5.07044 3.04822 5.779 3.03473 6.34971C3.03473 6.44111 3.07026 6.52877 3.13349 6.5934C3.19672 6.65803 3.28249 6.69434 3.37191 6.69434C3.46134 6.69434 3.5471 6.65803 3.61034 6.5934C3.67357 6.52877 3.7091 6.44111 3.7091 6.34971C3.73337 5.44264 2.87019 4.51903 2.47905 3.72501C2.40892 3.5844 1.84515 2.17555 2.1095 2.24172C2.61662 2.3713 3.08868 2.98888 3.43665 3.36108C4.31603 4.27917 5.12527 5.25241 6.02622 6.12639C6.49288 6.57854 7.35067 6.88457 7.3183 5.88928C7.29133 4.98497 6.53604 4.02277 6.07747 3.29767C5.63358 2.61114 5.29347 1.86014 5.06862 1.06998C5.02816 0.923858 5.06862 0.711565 4.95533 0.722594C5.28711 0.689509 5.74568 1.15821 5.95339 1.35671C6.5819 1.94396 7.01349 2.77107 7.47476 3.49893C8.2527 4.82216 9.45883 5.82573 10.8843 6.33592C10.9558 6.35519 11.0315 6.35029 11.1001 6.32197C11.1686 6.29364 11.2264 6.24341 11.2647 6.17877C11.8797 5.35166 10.7765 4.01725 10.3395 3.37762C10.1506 3.10192 8.85316 0.97624 9.21462 0.945913C10.0239 0.885258 10.6901 1.98532 11.0597 2.54775C11.5102 3.23425 11.8986 3.95936 12.3491 4.64586C12.7564 5.27446 14.2373 6.86803 15.1086 6.3883C16.8808 5.4261 13.3741 2.54224 13.9325 1.32087C14.2966 0.513058 15.7317 2.58635 15.9151 2.8593C16.4546 3.59818 16.8835 4.37567 17.3475 5.14212C17.5768 5.51984 18.1567 5.17521 17.9301 4.79474C17.4365 3.96762 16.9617 3.14051 16.4115 2.37406C15.9151 1.66826 15.2003 0.565442 14.2966 0.435861C13.4281 0.317309 13.1313 1.30157 13.2932 1.9991C13.5656 3.20117 14.4693 4.14959 14.8361 5.33787C15.1275 6.27527 13.8084 5.20829 13.5764 4.98497C12.8562 4.28744 12.3868 3.44379 11.8689 2.58359Z" fill="#592D0D"/>
</svg>
