<svg width="32" height="7" viewBox="0 0 32 7" fill="none" xmlns="http://www.w3.org/2000/svg">
<path d="M29.7643 1.54441C30.3578 1.54514 30.9269 1.78647 31.3466 2.21546C31.7663 2.64445 32.0025 3.22607 32.0032 3.83275C32.0032 4.43966 31.7673 5.0217 31.3474 5.45085C30.9275 5.88 30.3581 6.12109 29.7643 6.12109L3.12952 6.12109C2.83541 6.12145 2.54411 6.06251 2.27231 5.94764C2.00052 5.83277 1.75356 5.66423 1.54559 5.45166C1.33762 5.2391 1.17272 4.98669 1.06033 4.70889C0.94794 4.43109 0.890272 4.13336 0.890627 3.83275C0.890627 3.22585 1.12651 2.6438 1.54638 2.21465C1.96626 1.78551 2.53573 1.54441 3.12952 1.54441L29.7643 1.54441Z" fill="#C4B697"/>
<path d="M0.429687 3.83183C0.429687 4.56304 0.713884 5.26431 1.21976 5.78135C1.72563 6.29839 2.41174 6.58887 3.12715 6.58887L17.7663 6.58887C17.8423 6.58873 17.9172 6.56925 17.984 6.53219C18.0509 6.49513 18.1077 6.44165 18.1493 6.37657C18.1993 6.30086 18.2256 6.21147 18.2249 6.12017C18.2247 6.05454 18.2109 5.9897 18.1844 5.92993C17.681 4.70065 17.2461 3.44327 16.8815 2.16382L16.8545 2.08111C16.7844 1.85228 16.7143 1.62069 16.636 1.3891C16.6043 1.29728 16.5455 1.21776 16.4677 1.16148C16.3899 1.1052 16.297 1.07492 16.2018 1.0748L3.12715 1.0748C2.77291 1.0748 2.42215 1.14611 2.09488 1.28466C1.7676 1.42322 1.47024 1.6263 1.21976 1.88231C0.969273 2.13833 0.77058 2.44226 0.635019 2.77676C0.499459 3.11126 0.429687 3.46977 0.429687 3.83183Z" fill="#7F4218"/>
<path d="M2.4284 5.2219C2.66847 4.94619 3.2754 5.07578 3.77713 5.52517C4.27886 5.97457 4.50814 6.57009 4.27077 6.85406C4.03339 7.13804 3.42376 7.00019 2.92203 6.55079C2.42031 6.10139 2.18563 5.50587 2.4284 5.2219Z" fill="#E5AE73"/>
<path d="M1.72146 2.16417C1.87791 1.88847 2.47675 1.95739 3.054 2.31029C3.63126 2.66319 3.97654 3.16497 3.82008 3.43516C3.66363 3.70535 3.06749 3.64194 2.48754 3.2918C1.90758 2.94165 1.565 2.43712 1.72146 2.16417Z" fill="#E5AE73"/>
<path d="M9.02336 3.72472C9.17982 3.44901 9.77596 3.51794 10.3559 3.87084C10.9359 4.22374 11.2784 4.72552 11.122 4.99571C10.9655 5.2659 10.3667 5.20249 9.78674 4.85234C9.20679 4.5022 8.86421 3.99766 9.02336 3.72472Z" fill="#E5AE73"/>
<path d="M4.26208 4.78104C4.24589 4.46673 4.77729 4.18 5.44896 4.14416C6.12063 4.10832 6.6817 4.33164 6.69789 4.64594C6.71407 4.96024 6.18267 5.24422 5.50831 5.28282C4.83394 5.32142 4.27826 5.09534 4.26208 4.78104Z" fill="#E5AE73"/>
<path d="M0.829419 2.63341L0.810537 2.65271C0.532253 2.90699 0.274276 3.18357 0.0390625 3.47982L0.122684 3.53496C0.702638 3.8851 1.29878 3.94852 1.45523 3.67833C1.61168 3.40814 1.32036 2.97804 0.829419 2.63341Z" fill="#E5AE73"/>
<path d="M10.8949 1.98547L10.8949 2.01304C10.763 2.36714 10.6583 2.73126 10.582 3.10207L10.6818 3.10207C11.3319 3.14067 11.9011 2.92011 11.9173 2.58926C11.9335 2.25842 11.4857 2.0544 10.8949 1.98547Z" fill="#E5AE73"/>
<path d="M2.80688 1.64902C2.68279 1.37331 2.91478 0.98733 3.32479 0.797094C3.7348 0.606858 4.1691 0.678541 4.29318 0.957002C4.41726 1.23546 4.18798 1.62145 3.77527 1.81168C3.36256 2.00192 2.93096 1.93024 2.80688 1.64902Z" fill="#E5AE73"/>
<path d="M6.70922 1.64902C6.58514 1.37331 6.81712 0.98733 7.22713 0.797094C7.63715 0.606858 8.07144 0.678541 8.19822 0.957002C8.325 1.23546 8.09032 1.62145 7.67761 1.81168C7.2649 2.00192 6.8333 1.93024 6.70922 1.64902Z" fill="#E5AE73"/>
<path d="M4.35873 2.74601C4.37006 2.95715 4.41848 3.16448 4.50169 3.35807C4.53138 3.41567 4.55403 3.47679 4.56913 3.54004C4.68719 3.51757 4.80282 3.4834 4.9144 3.43803C5.6643 3.14027 6.12556 2.48685 5.93404 1.97129L4.33984 2.58886L4.35873 2.74601Z" fill="#E5AE73"/>
<path d="M0.242187 4.92426C0.468774 5.31576 1.11617 5.41226 1.73119 5.12828C2.34621 4.84431 2.69958 4.28738 2.5701 3.85453L0.242187 4.92426Z" fill="#E5AE73"/>
<path d="M6.55469 3.04633C6.77858 3.43783 7.42867 3.53433 8.04369 3.25035C8.65871 2.96638 9.02286 2.42324 8.8826 1.9766L6.55469 3.04633Z" fill="#E5AE73"/>
<path d="M8.27344 5.46722C8.27344 6.01863 8.8426 6.53419 9.62217 6.6555C10.4017 6.77681 11.0896 6.46526 11.2406 5.94143L8.27344 5.46722Z" fill="#E5AE73"/>
</svg>
