<svg width="20" height="20" viewBox="0 0 20 20" fill="none" xmlns="http://www.w3.org/2000/svg">
<path d="M9.9337 12.7658C10.9213 12.7658 11.7219 11.9652 11.7219 10.9776C11.7219 9.99006 10.9213 9.18945 9.9337 9.18945C8.94611 9.18945 8.14551 9.99006 8.14551 10.9776C8.14551 11.9652 8.94611 12.7658 9.9337 12.7658Z" fill="#CFCFCF"/>
<path d="M15.9556 6.22875H13.4621L13.2952 5.40618C13.2131 5.00191 12.9938 4.63843 12.6745 4.37735C12.3551 4.11627 11.9552 3.97364 11.5427 3.97363H8.68957C8.28772 3.97436 7.89784 4.11042 7.58279 4.35986C7.26774 4.60931 7.0459 4.95759 6.95303 5.34856L6.7444 6.22875H4.86481C4.93972 6.35516 4.98964 6.49478 5.01184 6.64003C5.29322 6.6834 5.5498 6.82603 5.73515 7.04214C5.92051 7.25825 6.0224 7.53355 6.0224 7.81826C6.0224 8.10297 5.92051 8.37827 5.73515 8.59438C5.5498 8.81048 5.29322 8.95312 5.01184 8.99648C4.96714 9.27654 4.82406 9.53149 4.60829 9.71555C4.39253 9.89961 4.11821 10.0007 3.83461 10.0007C3.551 10.0007 3.27669 9.89961 3.06093 9.71555C2.84516 9.53149 2.70208 9.27654 2.65738 8.99648C2.51197 8.97492 2.37222 8.92496 2.24609 8.84945V14.1763C2.24609 14.6506 2.43449 15.1054 2.76984 15.4407C3.1052 15.7761 3.56003 15.9645 4.03429 15.9645H15.9556C16.4299 15.9645 16.8847 15.7761 17.2201 15.4407C17.5554 15.1054 17.7438 14.6506 17.7438 14.1763V8.01695C17.7438 7.54269 17.5554 7.08785 17.2201 6.7525C16.8847 6.41715 16.4299 6.22875 15.9556 6.22875ZM9.93336 13.9577C9.3439 13.9577 8.76769 13.7829 8.27757 13.4555C7.78746 13.128 7.40547 12.6625 7.17989 12.1179C6.95432 11.5733 6.8953 10.9741 7.01029 10.396C7.12529 9.81785 7.40914 9.2868 7.82595 8.87C8.24275 8.45319 8.7738 8.16934 9.35192 8.05434C9.93005 7.93935 10.5293 7.99837 11.0739 8.22394C11.6185 8.44952 12.0839 8.83151 12.4114 9.32163C12.7389 9.81174 12.9137 10.388 12.9137 10.9774C12.9137 11.7678 12.5997 12.5259 12.0408 13.0848C11.4818 13.6437 10.7238 13.9577 9.93336 13.9577ZM15.6953 8.79183H13.9071C13.749 8.79183 13.5974 8.72903 13.4856 8.61725C13.3739 8.50547 13.3111 8.35385 13.3111 8.19577C13.3111 8.03768 13.3739 7.88607 13.4856 7.77429C13.5974 7.6625 13.749 7.5997 13.9071 7.5997H15.6953C15.8534 7.5997 16.005 7.6625 16.1168 7.77429C16.2286 7.88607 16.2914 8.03768 16.2914 8.19577C16.2914 8.35385 16.2286 8.50547 16.1168 8.61725C16.005 8.72903 15.8534 8.79183 15.6953 8.79183Z" fill="#CFCFCF"/>
<path d="M4.82905 7.22293H4.43167V6.82556C4.43167 6.66747 4.36887 6.51586 4.25709 6.40408C4.1453 6.29229 3.99369 6.22949 3.8356 6.22949C3.67752 6.22949 3.5259 6.29229 3.41412 6.40408C3.30234 6.51586 3.23954 6.66747 3.23954 6.82556V7.22293H2.84216C2.68407 7.22293 2.53246 7.28573 2.42068 7.39752C2.30889 7.5093 2.24609 7.66091 2.24609 7.819C2.24609 7.97709 2.30889 8.1287 2.42068 8.24048C2.53246 8.35227 2.68407 8.41507 2.84216 8.41507H3.23954V8.81244C3.23954 8.97053 3.30234 9.12214 3.41412 9.23393C3.5259 9.34571 3.67752 9.40851 3.8356 9.40851C3.99369 9.40851 4.1453 9.34571 4.25709 9.23393C4.36887 9.12214 4.43167 8.97053 4.43167 8.81244V8.41507H4.82905C4.98713 8.41507 5.13874 8.35227 5.25053 8.24048C5.36231 8.1287 5.42511 7.97709 5.42511 7.819C5.42511 7.66091 5.36231 7.5093 5.25053 7.39752C5.13874 7.28573 4.98713 7.22293 4.82905 7.22293Z" fill="#CFCFCF"/>
</svg>
