<svg width="16" height="16" viewBox="0 0 16 16" fill="none" xmlns="http://www.w3.org/2000/svg">
<path d="M7.64635 13.646L8.35335 14.353L14.3534 8.35301C15.9264 6.78001 15.9264 4.21902 14.3534 2.64602C12.7794 1.07202 10.2204 1.07202 8.64635 2.64602L2.14635 9.14602C0.848352 10.444 0.848352 12.555 2.14635 13.853C2.79435 14.501 3.64735 14.827 4.50035 14.827C5.35335 14.827 6.20535 14.502 6.85435 13.853L12.8544 7.85302C13.3494 7.35802 13.6214 6.70002 13.6214 6.00002C13.6214 5.30002 13.3494 4.64202 12.8534 4.14602C11.8634 3.15602 10.1364 3.15602 9.14635 4.14602L3.64635 9.64602L4.35335 10.353L9.85335 4.85302C10.4644 4.24202 11.5354 4.24202 12.1464 4.85302C12.4524 5.15902 12.6214 5.56602 12.6214 6.00002C12.6214 6.43402 12.4524 6.84102 12.1464 7.14602L6.14635 13.146C5.23835 14.054 3.76135 14.054 2.85335 13.146C1.94535 12.238 1.94535 10.761 2.85335 9.85301L9.35335 3.35302C10.5374 2.16902 12.4624 2.16902 13.6464 3.35302C14.8304 4.53702 14.8304 6.46202 13.6464 7.64602L7.64635 13.646Z" fill="#3B6D9A"/>
</svg>
