<svg width="19" height="19" viewBox="0 0 19 19" fill="none" xmlns="http://www.w3.org/2000/svg">
<g clip-path="url(#clip0_381_30814)">
<path d="M16.9766 14.852L11.5217 9.39712L16.9766 3.94221C17.5655 3.35328 17.5655 2.40514 16.9766 1.81621C16.3876 1.22728 15.4395 1.22728 14.8506 1.81621L9.39566 7.27113L3.94074 1.81621C3.35181 1.22728 2.40368 1.22728 1.81474 1.81621C1.22581 2.40514 1.22581 3.35328 1.81474 3.94221L7.26966 9.39712L1.81474 14.852C1.22581 15.441 1.22581 16.3891 1.81474 16.978C2.40368 17.567 3.35181 17.567 3.94074 16.978L9.39566 11.5231L14.8506 16.978C15.4395 17.567 16.3876 17.567 16.9766 16.978C17.5613 16.3891 17.5613 15.4368 16.9766 14.852Z" fill="#888888"/>
</g>
<defs>
<clipPath id="clip0_381_30814">
<rect width="19" height="19" fill="white"/>
</clipPath>
</defs>
</svg>
