<svg width="104" height="104" viewBox="0 0 104 104" fill="none" xmlns="http://www.w3.org/2000/svg">
<path d="M62.896 10.5022L38.0703 14.8355V100.194L62.896 95.9036V10.5022Z" fill="#525C6B"/>
<path d="M57.0818 71.7899H16.043V89.6801H57.0818V71.7899Z" fill="#2BA0BF"/>
<path d="M55.4568 28.355H17.668V70.1673H55.4568V28.355Z" fill="#F1BB6B"/>
<path d="M16.043 26.73V71.7901H57.0818V26.73H16.043ZM51.9251 29.98L19.293 65.8079V29.98H51.9251ZM21.2018 68.5401L53.834 32.7143V68.5401H21.2018Z" fill="#E49A61"/>
<path d="M16.042 10.8334H0V104H16.042V10.8334Z" fill="#DB5743"/>
<path d="M16.043 104V10.8333L78.7506 0V93.1645L62.8971 95.9032V10.5018L38.0715 14.8351V100.193L16.043 104Z" fill="#F87670"/>
<path d="M98.5823 60.578H76.582C73.592 60.578 71.1654 58.1514 71.1654 55.1614V34.3397H57.082L57.0842 89.6807H98.5823C101.562 89.6807 103.999 87.2432 103.999 84.264V65.9947C103.999 63.0025 101.575 60.578 98.5823 60.578Z" fill="#59C5EF"/>
<path d="M77.4198 99.6651C82.935 99.6651 87.4059 95.1941 87.4059 89.6789C87.4059 84.1637 82.935 79.6927 77.4198 79.6927C71.9046 79.6927 67.4336 84.1637 67.4336 89.6789C67.4336 95.1941 71.9046 99.6651 77.4198 99.6651Z" fill="#C6C6C6"/>
<path d="M77.4197 101.292C71.0172 101.292 65.8086 96.0834 65.8086 89.6809C65.8086 83.2784 71.0172 78.0719 77.4197 78.0719C83.8222 78.0719 89.0309 83.2784 89.0309 89.6809C89.0309 96.0834 83.8222 101.292 77.4197 101.292ZM77.4197 81.3197C72.8091 81.3197 69.0586 85.0681 69.0586 89.6787C69.0586 94.2894 72.8091 98.0399 77.4197 98.0399C82.0304 98.0399 85.7809 94.2894 85.7809 89.6787C85.7809 85.0681 82.0304 81.3197 77.4197 81.3197Z" fill="#525C6B"/>
<path d="M77.418 92.9286C79.2129 92.9286 80.668 91.4735 80.668 89.6786C80.668 87.8837 79.2129 86.4286 77.418 86.4286C75.623 86.4286 74.168 87.8837 74.168 89.6786C74.168 91.4735 75.623 92.9286 77.418 92.9286Z" fill="#7A8E9B"/>
<path d="M86.3152 38.3893C85.3185 35.9388 82.9373 34.3376 80.294 34.3376H71.168V55.1593C71.168 58.1493 73.5946 60.5759 76.5846 60.5759H95.3328L86.3152 38.3893Z" fill="#E2E2E2"/>
<path d="M0 10.8333H16.042L78.7497 0H0V10.8333Z" fill="#7A8E9B"/>
<path d="M104.001 69.6232H89.4258L92.3248 75.0398H104.001V69.6232Z" fill="#FDDC85"/>
<path d="M92.3242 75.0399L95.2232 80.4566H104V75.0399H92.3242Z" fill="#FFBD66"/>
</svg>
