<svg width="104" height="104" viewBox="0 0 104 104" fill="none" xmlns="http://www.w3.org/2000/svg">
<path d="M71.5022 0H6.5C2.90983 0 0 2.912 0 6.5V97.5C0 101.09 2.90983 104 6.5 104H71.5022C75.0923 104 78.0022 101.09 78.0022 97.5V6.5C78.0022 2.90983 75.0923 0 71.5022 0Z" fill="#E2E2E2"/>
<path d="M104 52H52V104H104V52Z" fill="#F1BB6B"/>
<path d="M87.75 52V70.369L78 66.0357L68.25 70.369V52H87.75Z" fill="#E49A61"/>
<path d="M95.3294 94.1589H81.2461V97.4089H95.3294V94.1589Z" fill="#7A8E9B"/>
<path d="M19.5 0V6.5C19.5 10.0902 22.4098 13 26 13H52C55.5902 13 58.5 10.0902 58.5 6.5V0H19.5ZM55.25 6.5C55.25 8.294 53.7918 9.75 52 9.75H26C24.2082 9.75 22.75 8.294 22.75 6.5V3.25H55.25V6.5Z" fill="#7A8E9B"/>
<path d="M64.9996 19.8225H53.3906V23.5037H64.9996V19.8225Z" fill="#525C6B"/>
<path d="M46.8874 19.823H24.8633V23.5042H46.8874V19.823Z" fill="#525C6B"/>
<path d="M65.0001 34.9917H46.3516V38.6729H65.0001V34.9917Z" fill="#525C6B"/>
<path d="M39.8479 34.9917H24.8633V38.6729H39.8479V34.9917Z" fill="#525C6B"/>
<path d="M43.3315 50.1578H24.8672V53.839H43.3315V50.1578Z" fill="#525C6B"/>
<path d="M38.9982 65.327H24.8672V69.0082H38.9982V65.327Z" fill="#525C6B"/>
<path d="M43.3315 80.4956H24.8672V84.1768H43.3315V80.4956Z" fill="#525C6B"/>
<path d="M18.3647 19.8226H13V23.5038H18.3647V19.8226Z" fill="#F87670"/>
<path d="M18.3647 34.9917H13V38.6729H18.3647V34.9917Z" fill="#F87670"/>
<path d="M18.3647 50.1578H13V53.839H18.3647V50.1578Z" fill="#F87670"/>
<path d="M18.3647 65.327H13V69.0082H18.3647V65.327Z" fill="#F87670"/>
<path d="M18.3647 80.4956H13V84.1768H18.3647V80.4956Z" fill="#F87670"/>
</svg>
