<svg width="23" height="23" viewBox="0 0 23 23" fill="none" xmlns="http://www.w3.org/2000/svg">
<g clip-path="url(#clip0_497_7959)">
<path d="M22.0252 8.34275H17.2536L14.577 2.21393C14.4281 1.87292 14.0309 1.71709 13.6898 1.8661C13.3488 2.01501 13.193 2.41226 13.342 2.7533L15.7831 8.3428H7.21699L9.65805 2.7533C9.80696 2.41226 9.65126 2.01506 9.31022 1.8661C8.96921 1.71709 8.57193 1.87283 8.42305 2.21393L5.74643 8.34275H0.974872C0.350683 8.34275 -0.112551 8.90783 0.0240112 9.50264L2.53672 20.447C2.63649 20.8815 3.03153 21.1904 3.48758 21.1904H19.5125C19.9685 21.1904 20.3636 20.8815 20.4633 20.447L22.976 9.50264C23.1126 8.90787 22.6493 8.34275 22.0252 8.34275ZM5.8732 10.4093C5.78317 10.4093 5.69167 10.3912 5.60385 10.3528C5.2628 10.2039 5.10706 9.80671 5.25602 9.46562L5.7622 8.30655H7.23276L6.49101 10.005C6.38046 10.2583 6.13294 10.4093 5.8732 10.4093ZM8.13088 17.5967C8.13088 17.9688 7.82919 18.2705 7.45705 18.2705C7.08492 18.2705 6.78323 17.9688 6.78323 17.5967V12.6553C6.78323 12.2831 7.08492 11.9814 7.45705 11.9814C7.82919 11.9814 8.13088 12.2831 8.13088 12.6553V17.5967ZM12.1739 17.5967C12.1739 17.9688 11.8722 18.2705 11.5 18.2705C11.1279 18.2705 10.8262 17.9688 10.8262 17.5967V12.6553C10.8262 12.2831 11.1279 11.9814 11.5 11.9814C11.8722 11.9814 12.1739 12.2831 12.1739 12.6553V17.5967ZM16.2168 17.5967C16.2168 17.9688 15.9151 18.2705 15.543 18.2705C15.1709 18.2705 14.8692 17.9688 14.8692 17.5967V12.6553C14.8692 12.2831 15.1709 11.9814 15.543 11.9814C15.9151 11.9814 16.2168 12.2831 16.2168 12.6553V17.5967ZM17.3962 10.3528C17.3084 10.3912 17.2169 10.4093 17.1268 10.4093C16.8671 10.4093 16.6196 10.2583 16.509 10.005L15.7672 8.30659H17.2378L17.744 9.46567C17.8929 9.80671 17.7372 10.2039 17.3962 10.3528Z" fill="white"/>
</g>
<defs>
<clipPath id="clip0_497_7959">
<rect width="23" height="23" fill="white"/>
</clipPath>
</defs>
</svg>
