<svg width="19" height="19" viewBox="0 0 19 19" fill="none" xmlns="http://www.w3.org/2000/svg">
<g clip-path="url(#clip0_381_21894)">
<path d="M18.1947 6.89209H14.253L12.0419 1.82915C11.9188 1.54745 11.5907 1.41872 11.309 1.54181C11.0273 1.66483 10.8986 1.99299 11.0217 2.27472L13.0382 6.89213H5.96186L7.97839 2.27472C8.1014 1.99299 7.97278 1.66487 7.69105 1.54181C7.40935 1.41872 7.08116 1.54738 6.95817 1.82915L4.74705 6.89209H0.805329C0.289695 6.89209 -0.0929772 7.35889 0.0198353 7.85026L2.09555 16.8912C2.17797 17.2502 2.50431 17.5054 2.88104 17.5054H16.119C16.4957 17.5054 16.8221 17.2502 16.9045 16.8912L18.9802 7.85026C19.093 7.35893 18.7103 6.89209 18.1947 6.89209ZM4.85177 8.59927C4.77741 8.59927 4.70181 8.58428 4.62927 8.55259C4.34753 8.42957 4.21887 8.10145 4.34193 7.81968L4.76008 6.86218H5.97489L5.36214 8.26522C5.27081 8.47448 5.06634 8.59927 4.85177 8.59927ZM6.71682 14.5366C6.71682 14.844 6.46759 15.0933 6.16017 15.0933C5.85276 15.0933 5.60353 14.844 5.60353 14.5366V10.4546C5.60353 10.1472 5.85276 9.89795 6.16017 9.89795C6.46759 9.89795 6.71682 10.1472 6.71682 10.4546V14.5366ZM10.0567 14.5366C10.0567 14.844 9.80743 15.0933 9.50002 15.0933C9.19261 15.0933 8.94338 14.844 8.94338 14.5366V10.4546C8.94338 10.1472 9.19261 9.89795 9.50002 9.89795C9.80743 9.89795 10.0567 10.1472 10.0567 10.4546V14.5366ZM13.3965 14.5366C13.3965 14.844 13.1473 15.0933 12.8399 15.0933C12.5324 15.0933 12.2832 14.844 12.2832 14.5366V10.4546C12.2832 10.1472 12.5324 9.89795 12.8399 9.89795C13.1473 9.89795 13.3965 10.1472 13.3965 10.4546V14.5366ZM14.3707 8.55259C14.2982 8.58428 14.2226 8.59927 14.1483 8.59927C13.9337 8.59927 13.7292 8.47451 13.6379 8.26525L13.0251 6.86222H14.2399L14.6581 7.81972C14.7811 8.10145 14.6525 8.42957 14.3707 8.55259Z" fill="#331E0E"/>
</g>
<defs>
<clipPath id="clip0_381_21894">
<rect width="19" height="19" fill="white"/>
</clipPath>
</defs>
</svg>
