<svg width="16" height="16" viewBox="0 0 16 16" fill="none" xmlns="http://www.w3.org/2000/svg">
<path d="M11.293 0H4.70597C3.84078 0 3.13672 0.705125 3.13672 1.57169V14.4283C3.13672 15.2949 3.84075 16 4.70597 16H11.293C12.1582 16 12.8622 15.2949 12.8622 14.4283V1.57169C12.8622 0.705125 12.1582 0 11.293 0ZM12.2347 14.4283C12.2347 14.949 11.8122 15.3726 11.293 15.3726H4.70597C4.18666 15.3726 3.76419 14.949 3.76419 14.4283V1.57169C3.76419 1.051 4.18669 0.627437 4.70597 0.627437H11.293C11.8123 0.627437 12.2347 1.051 12.2347 1.57169V14.4283Z" fill="#353535"/>
<path d="M9.41359 1.25488H7.53125V1.88232H9.41359V1.25488Z" fill="#353535"/>
<path d="M6.90213 1.25488H5.96094V1.88232H6.90213V1.25488Z" fill="#353535"/>
<path d="M8.00038 12.8633C7.395 12.8633 6.90234 13.3559 6.90234 13.9613C6.90234 14.5667 7.395 15.0593 8.00038 15.0593C8.60578 15.0593 9.09841 14.5667 9.09841 13.9613C9.09841 13.3559 8.60578 12.8633 8.00038 12.8633ZM8.00038 14.4319C7.74088 14.4319 7.52978 14.2208 7.52978 13.9613C7.52978 13.7018 7.74088 13.4907 8.00038 13.4907C8.25988 13.4907 8.47097 13.7018 8.47097 13.9613C8.47097 14.2208 8.25988 14.4319 8.00038 14.4319Z" fill="#353535"/>
</svg>
