<svg width="19" height="19" viewBox="0 0 19 19" fill="none" xmlns="http://www.w3.org/2000/svg">
<path d="M14.8033 11.6967C13.9864 10.8798 13.0141 10.2751 11.9533 9.90904C13.0895 9.12649 13.8359 7.81684 13.8359 6.33594C13.8359 3.94511 11.8908 2 9.5 2C7.10917 2 5.16406 3.94511 5.16406 6.33594C5.16406 7.81684 5.91052 9.12649 7.04674 9.90904C5.9859 10.2751 5.01359 10.8798 4.19671 11.6967C2.78015 13.1133 2 14.9967 2 17H3.17188C3.17188 13.5107 6.01065 10.6719 9.5 10.6719C12.9893 10.6719 15.8281 13.5107 15.8281 17H17C17 14.9967 16.2199 13.1133 14.8033 11.6967ZM9.5 9.5C7.75534 9.5 6.33594 8.08063 6.33594 6.33594C6.33594 4.59125 7.75534 3.17188 9.5 3.17188C11.2447 3.17188 12.6641 4.59125 12.6641 6.33594C12.6641 8.08063 11.2447 9.5 9.5 9.5Z" fill="#353535"/>
</svg>
