<svg width="204" height="204" viewBox="0 0 204 204" fill="none" xmlns="http://www.w3.org/2000/svg">
<g clip-path="url(#clip0_381_21813)">
<path fill-rule="evenodd" clip-rule="evenodd" d="M193.903 11.1959C198.498 17.2674 200.568 27.3318 201.588 39.5671C202.936 57.8259 203.478 79.7363 203.996 102.377C203.325 125.439 203.052 148.698 201.588 165.187C200.432 177.844 197.976 186.319 193.874 191.46C188.657 196.592 178.649 200.926 164.378 201.953C147.021 203.434 125.607 203.418 101.982 204C75.7195 203.55 57.9092 203.743 39.224 201.961C24.6483 200.95 15.1131 196.668 9.24585 191.5C4.89962 185.665 3.62745 179.461 2.42351 164.918C0.918582 148.124 0.585491 125.367 0.015625 102.502C0.870424 79.7564 0.922595 56.8307 2.43555 39.6956C3.45087 26.1761 5.05212 17.0869 9.15756 11.3083C14.9164 6.40049 24.7406 3.96064 39.3966 2.75677C59.4623 0.40922 80.3547 -0.0522639 101.953 -9.61106e-05C124.182 0.03602 145.52 0.670059 164.558 2.54409C177.4 3.57139 188.027 5.7825 193.882 11.1959H193.903Z" fill="#675CA8"/>
<path d="M99.3924 38.9976C87.4866 38.9976 75.8481 42.5278 65.9487 49.142C56.0494 55.7562 48.3337 65.1571 43.7776 76.156C39.2214 87.155 38.0293 99.2579 40.352 110.934C42.6747 122.611 48.4079 133.336 56.8267 141.754C65.2454 150.173 75.9715 155.906 87.6486 158.228C99.3257 160.551 111.429 159.359 122.429 154.803C133.428 150.247 142.83 142.532 149.445 132.633C156.059 122.734 159.59 111.096 159.59 99.1911C159.59 91.2864 158.033 83.4591 155.007 76.156C151.982 68.853 147.548 62.2173 141.958 56.6278C136.368 51.0384 129.732 46.6045 122.429 43.5795C115.125 40.5545 107.298 38.9976 99.3924 38.9976ZM98.6741 64.8286C98.7533 64.553 98.8906 64.2976 99.0768 64.0795C99.263 63.8615 99.4938 63.6859 99.7536 63.5646C100.158 63.3982 100.592 63.3136 101.03 63.3158C101.03 63.3158 101.564 63.2796 102.033 63.2957C117.949 63.7211 131.694 75.0214 133.677 92.1364C133.924 93.8867 134.067 95.6502 134.106 97.4174C134.106 97.9752 134.13 98.9865 133.444 99.6406C133.187 99.8786 132.873 100.047 132.533 100.13C132.037 100.034 131.583 99.7872 131.233 99.4239C130.839 98.946 130.623 98.3459 130.623 97.7264C130.456 94.6169 130.014 91.5282 129.302 88.4967C126.658 77.2606 116.46 68.4001 104.971 67.116C103.634 66.9675 102.298 66.819 100.958 66.7588C100.047 66.7187 99.1436 66.5502 98.7865 65.9562C98.6079 65.6081 98.5678 65.2052 98.6741 64.8286ZM104.927 75.4066C104.427 75.3859 103.93 75.3119 103.446 75.1859C102.808 75.0174 102.31 74.881 101.933 74.4435C101.633 74.0745 101.468 73.6147 101.463 73.1394C101.565 72.7286 101.792 72.3597 102.113 72.084C102.581 71.7567 103.152 71.6138 103.719 71.6827C113.101 72.1522 118.656 77.5816 118.656 77.5816C120.35 79.2785 121.782 81.2179 122.905 83.3361C124.533 86.3839 125.525 89.7298 125.823 93.1718C125.897 93.8725 125.788 94.5806 125.506 95.2264C125.367 95.6035 125.125 95.9343 124.808 96.1814C124.455 96.4277 124.033 96.5543 123.604 96.5426C123.301 96.4301 123.027 96.252 122.801 96.0209C122.547 95.7747 122.367 95.4618 122.283 95.118C121.79 90.8122 121.116 86.6067 118.467 82.971C115.1 78.3682 110.34 76.3176 104.927 75.4066ZM117.195 91.7673C117.102 93.0153 116.597 93.4768 116.468 93.5851C116.16 93.8344 115.784 93.9866 115.389 94.0225C114.978 93.9523 114.597 93.7625 114.293 93.4768C113.926 93.0748 113.708 92.5593 113.675 92.0161C113.551 90.9366 112.776 87.4815 111.01 85.8884C109.907 84.8932 108.378 84.3675 106.147 84.0424C105.252 83.914 104.381 83.7294 104.068 83.1355C103.912 82.7776 103.902 82.3731 104.04 82.0079C104.405 80.8241 105.842 80.483 105.954 80.4589C106.905 80.5913 112.993 81.5303 115.778 86.077C116.804 87.7914 117.297 89.772 117.195 91.7673ZM133.962 125.295C131.678 128.076 129.471 131.005 126.766 133.321C124.442 135.327 121.409 135.56 118.387 134.324C93.5734 124.204 75.751 106.972 65.4814 82.1002C65.2246 81.4782 65.0159 80.8321 64.7952 80.194C62.8729 74.6121 63.4508 72.4451 68.0338 68.689C69.5443 67.471 71.1212 66.3376 72.7572 65.2941C75.4902 63.5204 78.492 63.5405 80.5588 66.0285C84.0332 70.1472 87.2153 74.5038 90.082 79.0664C92.1849 82.4774 91.4344 84.4116 88.3483 86.9799C87.6339 87.5738 86.8715 88.1075 86.1571 88.6974C84.3713 90.1822 83.6168 91.9478 84.4034 94.3155C87.8547 104.601 95.0623 111.105 105.103 114.561C106.271 114.962 108.097 114.059 109.373 113.337C110.328 112.795 110.886 111.563 111.625 110.64C113.631 108.144 116.842 107.089 119.51 108.778C124.27 111.8 128.833 115.154 133.308 118.59C134.267 119.328 134.511 120.997 135.017 122.145C134.6 123.449 134.544 124.589 133.962 125.299V125.295Z" fill="white"/>
</g>
<defs>
<clipPath id="clip0_381_21813">
<rect width="204" height="204" fill="white"/>
</clipPath>
</defs>
</svg>
