<svg width="32" height="32" viewBox="0 0 32 32" fill="none" xmlns="http://www.w3.org/2000/svg">
<path d="M15.9997 18.667C19.6816 18.667 22.6663 15.0853 22.6663 10.667C22.6663 6.24871 19.6816 2.66699 15.9997 2.66699C12.3178 2.66699 9.33301 6.24871 9.33301 10.667C9.33301 15.0853 12.3178 18.667 15.9997 18.667Z" fill="#CFCFCF"/>
<path d="M29.0666 25.4675C27.8666 23.0675 25.6 21.0675 22.6666 19.8675C21.8666 19.6008 20.9333 19.6008 20.2666 20.0008C18.9333 20.8008 17.6 21.2008 16 21.2008C14.4 21.2008 13.0666 20.8008 11.7333 20.0008C11.0666 19.7342 10.1333 19.6008 9.3333 20.0008C6.39996 21.2008 4.1333 23.2008 2.9333 25.6008C1.99996 27.3342 3.46663 29.3342 5.46663 29.3342H26.5333C28.5333 29.3342 30 27.3342 29.0666 25.4675Z" fill="#CFCFCF"/>
</svg>
