<svg width="27" height="27" viewBox="0 0 27 27" fill="none" xmlns="http://www.w3.org/2000/svg">
<path d="M5.06699 1.22349C4.21269 1.55571 3.49023 1.99868 2.76777 2.72114C2.04531 3.43833 1.60234 4.16606 1.27012 5.01509C0.948437 5.83774 0.732227 6.78169 0.668945 8.16333C0.605664 9.54497 0.589844 9.98794 0.589844 13.5106C0.589844 17.0333 0.605664 17.4762 0.668945 18.8579C0.732227 20.2395 0.953711 21.1834 1.27012 22.0061C1.60234 22.8604 2.04531 23.5829 2.76777 24.3053C3.49023 25.0278 4.21269 25.4708 5.06699 25.803C5.88965 26.1247 6.83359 26.3409 8.21523 26.4042C9.59687 26.4674 10.0398 26.4833 13.5625 26.4833C17.0852 26.4833 17.5281 26.4674 18.9098 26.4042C20.2914 26.3409 21.2353 26.1194 22.058 25.803C22.9123 25.4708 23.6348 25.0278 24.3572 24.3053C25.0797 23.5829 25.5227 22.8604 25.8549 22.0061C26.1766 21.1834 26.3928 20.2395 26.4561 18.8579C26.5193 17.4762 26.5352 17.0333 26.5352 13.5106C26.5352 9.98794 26.5193 9.54497 26.4561 8.16333C26.3928 6.78169 26.1713 5.83774 25.8549 5.01509C25.5227 4.16606 25.0797 3.43833 24.3625 2.72114C23.64 1.99868 22.9176 1.55571 22.0633 1.22349C21.2406 0.901807 20.2967 0.685596 18.915 0.622314C17.5334 0.559033 17.0904 0.543213 13.5678 0.543213C10.0451 0.543213 9.60215 0.559033 8.22051 0.622314C6.83359 0.680322 5.88965 0.901807 5.06699 1.22349ZM18.8043 2.95317C20.0699 3.01118 20.7555 3.22212 21.2143 3.40142C21.8207 3.63872 22.2531 3.91821 22.7066 4.37173C23.1602 4.82524 23.4396 5.25767 23.6769 5.86411C23.8562 6.3229 24.0672 7.00845 24.1252 8.27407C24.1885 9.63989 24.199 10.0512 24.199 13.5159C24.199 16.9805 24.1832 17.3918 24.1252 18.7577C24.0672 20.0233 23.8562 20.7088 23.6769 21.1676C23.4396 21.7741 23.1602 22.2065 22.7066 22.66C22.2531 23.1135 21.8207 23.393 21.2143 23.6303C20.7555 23.8096 20.0699 24.0206 18.8043 24.0786C17.4385 24.1418 17.0271 24.1524 13.5625 24.1524C10.0979 24.1524 9.68652 24.1366 8.3207 24.0786C7.05508 24.0206 6.36953 23.8096 5.91074 23.6303C5.3043 23.393 4.87187 23.1135 4.41836 22.66C3.96484 22.2065 3.68535 21.7741 3.44805 21.1676C3.26875 20.7088 3.05781 20.0233 2.9998 18.7577C2.93652 17.3918 2.92598 16.9805 2.92598 13.5159C2.92598 10.0512 2.9418 9.63989 2.9998 8.27407C3.05781 7.00845 3.26875 6.3229 3.44805 5.86411C3.68535 5.25767 3.96484 4.82524 4.41836 4.37173C4.87187 3.91821 5.3043 3.63872 5.91074 3.40142C6.36953 3.22212 7.05508 3.01118 8.3207 2.95317C9.68652 2.88989 10.0979 2.87935 13.5625 2.87935C17.0271 2.87935 17.4385 2.88989 18.8043 2.95317Z" fill="url(#paint0_radial_381_30561)"/>
<path d="M6.90234 13.5158C6.90234 17.1967 9.88711 20.1762 13.5627 20.1762C17.2383 20.1762 20.2231 17.1914 20.2231 13.5158C20.2231 9.84023 17.2436 6.85547 13.5627 6.85547C9.88184 6.85547 6.90234 9.83496 6.90234 13.5158ZM17.8869 13.5158C17.8869 15.9047 15.9516 17.84 13.5627 17.84C11.1738 17.84 9.23848 15.9047 9.23848 13.5158C9.23848 11.127 11.1738 9.1916 13.5627 9.1916C15.9516 9.1916 17.8869 11.127 17.8869 13.5158Z" fill="url(#paint1_radial_381_30561)"/>
<path d="M20.4912 8.14746C21.3504 8.14746 22.0469 7.45097 22.0469 6.5918C22.0469 5.73263 21.3504 5.03613 20.4912 5.03613C19.632 5.03613 18.9355 5.73263 18.9355 6.5918C18.9355 7.45097 19.632 8.14746 20.4912 8.14746Z" fill="#654C9F"/>
<defs>
<radialGradient id="paint0_radial_381_30561" cx="0" cy="0" r="1" gradientUnits="userSpaceOnUse" gradientTransform="translate(1.06192 24.1083) rotate(-3.00009) scale(37.5107 31.8837)">
<stop stop-color="#FED576"/>
<stop offset="0.2634" stop-color="#F47133"/>
<stop offset="0.6091" stop-color="#BC3081"/>
<stop offset="1" stop-color="#4C63D2"/>
</radialGradient>
<radialGradient id="paint1_radial_381_30561" cx="0" cy="0" r="1" gradientUnits="userSpaceOnUse" gradientTransform="translate(7.14394 18.9547) rotate(-3.00009) scale(19.2623 16.3727)">
<stop stop-color="#FED576"/>
<stop offset="0.2634" stop-color="#F47133"/>
<stop offset="0.6091" stop-color="#BC3081"/>
<stop offset="1" stop-color="#4C63D2"/>
</radialGradient>
</defs>
</svg>
