<svg width="27" height="27" viewBox="0 0 27 27" fill="none" xmlns="http://www.w3.org/2000/svg">
<path d="M5.06699 1.22324C4.21269 1.55547 3.49023 1.99844 2.76777 2.7209C2.04531 3.43809 1.60234 4.16582 1.27012 5.01484C0.948437 5.8375 0.732227 6.78145 0.668945 8.16309C0.605664 9.54473 0.589844 9.9877 0.589844 13.5104C0.589844 17.033 0.605664 17.476 0.668945 18.8576C0.732227 20.2393 0.953711 21.1832 1.27012 22.0059C1.60234 22.8602 2.04531 23.5826 2.76777 24.3051C3.49023 25.0275 4.21269 25.4705 5.06699 25.8027C5.88965 26.1244 6.83359 26.3406 8.21523 26.4039C9.59687 26.4672 10.0398 26.483 13.5625 26.483C17.0852 26.483 17.5281 26.4672 18.9098 26.4039C20.2914 26.3406 21.2353 26.1191 22.058 25.8027C22.9123 25.4705 23.6348 25.0275 24.3572 24.3051C25.0797 23.5826 25.5227 22.8602 25.8549 22.0059C26.1766 21.1832 26.3928 20.2393 26.4561 18.8576C26.5193 17.476 26.5352 17.033 26.5352 13.5104C26.5352 9.9877 26.5193 9.54473 26.4561 8.16309C26.3928 6.78145 26.1713 5.8375 25.8549 5.01484C25.5227 4.16582 25.0797 3.43809 24.3625 2.7209C23.64 1.99844 22.9176 1.55547 22.0633 1.22324C21.2406 0.901563 20.2967 0.685352 18.915 0.62207C17.5334 0.558789 17.0904 0.542969 13.5678 0.542969C10.0451 0.542969 9.60215 0.558789 8.22051 0.62207C6.83359 0.680078 5.88965 0.901563 5.06699 1.22324ZM18.8043 2.95293C20.0699 3.01094 20.7555 3.22188 21.2143 3.40117C21.8207 3.63848 22.2531 3.91797 22.7066 4.37148C23.1602 4.825 23.4396 5.25742 23.6769 5.86387C23.8562 6.32266 24.0672 7.0082 24.1252 8.27383C24.1885 9.63965 24.199 10.051 24.199 13.5156C24.199 16.9803 24.1832 17.3916 24.1252 18.7574C24.0672 20.0231 23.8562 20.7086 23.6769 21.1674C23.4396 21.7738 23.1602 22.2063 22.7066 22.6598C22.2531 23.1133 21.8207 23.3928 21.2143 23.6301C20.7555 23.8094 20.0699 24.0203 18.8043 24.0783C17.4385 24.1416 17.0271 24.1522 13.5625 24.1522C10.0979 24.1522 9.68652 24.1363 8.3207 24.0783C7.05508 24.0203 6.36953 23.8094 5.91074 23.6301C5.3043 23.3928 4.87187 23.1133 4.41836 22.6598C3.96484 22.2063 3.68535 21.7738 3.44805 21.1674C3.26875 20.7086 3.05781 20.0231 2.9998 18.7574C2.93652 17.3916 2.92598 16.9803 2.92598 13.5156C2.92598 10.051 2.9418 9.63965 2.9998 8.27383C3.05781 7.0082 3.26875 6.32266 3.44805 5.86387C3.68535 5.25742 3.96484 4.825 4.41836 4.37148C4.87187 3.91797 5.3043 3.63848 5.91074 3.40117C6.36953 3.22188 7.05508 3.01094 8.3207 2.95293C9.68652 2.88965 10.0979 2.8791 13.5625 2.8791C17.0271 2.8791 17.4385 2.88965 18.8043 2.95293Z" fill="white"/>
<path d="M6.90234 13.5158C6.90234 17.1967 9.88711 20.1762 13.5627 20.1762C17.2383 20.1762 20.2231 17.1914 20.2231 13.5158C20.2231 9.84023 17.2436 6.85547 13.5627 6.85547C9.88184 6.85547 6.90234 9.83496 6.90234 13.5158ZM17.8869 13.5158C17.8869 15.9047 15.9516 17.84 13.5627 17.84C11.1738 17.84 9.23848 15.9047 9.23848 13.5158C9.23848 11.127 11.1738 9.1916 13.5627 9.1916C15.9516 9.1916 17.8869 11.127 17.8869 13.5158Z" fill="white"/>
<path d="M20.4912 8.14746C21.3504 8.14746 22.0469 7.45097 22.0469 6.5918C22.0469 5.73263 21.3504 5.03613 20.4912 5.03613C19.632 5.03613 18.9355 5.73263 18.9355 6.5918C18.9355 7.45097 19.632 8.14746 20.4912 8.14746Z" fill="white"/>
</svg>
