<svg width="22" height="22" viewBox="0 0 22 22" fill="none" xmlns="http://www.w3.org/2000/svg">
<path d="M18.5626 2.0625V19.9375C18.5626 20.1198 18.4901 20.2947 18.3612 20.4236C18.2323 20.5526 18.0574 20.625 17.8751 20.625H4.12508C3.94274 20.625 3.76788 20.5526 3.63894 20.4236C3.51001 20.2947 3.43758 20.1198 3.43758 19.9375V18.5625H4.81258V19.25H17.1876V2.75H4.81258V4.8125H3.43758V2.0625C3.43758 1.88016 3.51001 1.7053 3.63894 1.57636C3.76788 1.44743 3.94274 1.375 4.12508 1.375H17.8751C18.0574 1.375 18.2323 1.44743 18.3612 1.57636C18.4901 1.7053 18.5626 1.88016 18.5626 2.0625ZM7.3632 13.9494L5.09446 11.6875H12.3751V10.3125H5.09446L7.3632 8.05062L6.38696 7.07438L2.94946 10.5119C2.88502 10.5758 2.83387 10.6518 2.79897 10.7356C2.76406 10.8194 2.74609 10.9092 2.74609 11C2.74609 11.0908 2.76406 11.1806 2.79897 11.2644C2.83387 11.3482 2.88502 11.4242 2.94946 11.4881L6.38696 14.9256L7.3632 13.9494Z" fill="#ED452A"/>
</svg>
