<svg width="169" height="35" viewBox="0 0 169 35" fill="none" xmlns="http://www.w3.org/2000/svg">
<path d="M169 0H0V35H169V0Z" fill="#331E0E"/>
<path d="M167.709 1.2959H1.28906V33.7033H167.709V1.2959Z" fill="#C4B697"/>
<path fill-rule="evenodd" clip-rule="evenodd" d="M95.1006 10.6531H98.4709V14.4006C98.3487 14.5346 98.1869 14.6503 97.9854 14.7479C97.7698 14.8508 97.5462 14.9364 97.3169 15.0039L97.4452 15.5887C97.8114 15.5887 98.1502 15.5309 98.4617 15.4152C98.7732 15.2995 99.1059 15.138 99.4598 14.9307C99.765 15.1744 100.073 15.345 100.385 15.4425C100.684 15.538 100.996 15.5874 101.31 15.5887L101.493 15.0039C101.116 14.9272 100.752 14.7979 100.412 14.6199C100.558 13.8522 100.744 13.1423 100.97 12.4903C101.191 11.8504 101.476 11.2348 101.822 10.6531H105.192C104.927 11.1083 104.689 11.5783 104.478 12.0608C104.246 12.5848 104.026 13.1301 103.819 13.6967C103.611 14.2633 103.419 14.8331 103.242 15.406C103.065 15.9794 102.909 16.5217 102.775 17.0329C103.092 18.0689 103.468 19.1078 103.901 20.1497C104.334 21.1916 104.844 22.2915 105.43 23.4492H101.584C101.193 22.4866 100.928 21.5878 100.787 20.7529C100.647 19.9181 100.54 19.0313 100.467 18.0928C100.638 17.9953 100.812 17.8978 100.989 17.8003C101.152 17.7081 101.328 17.6404 101.511 17.5992L101.309 17.0325C100.992 17.0325 100.674 17.1057 100.357 17.252C100.04 17.3982 99.7282 17.5448 99.4228 17.6916C99.0564 17.5208 98.7359 17.3685 98.4613 17.2346C98.1867 17.1006 97.8538 17.0334 97.4627 17.0329L97.3162 17.5996C97.5332 17.6475 97.7427 17.7247 97.9389 17.829C98.1221 17.9251 98.2995 18.0319 98.4701 18.1488V23.45H95.0998V18.1296C95.2736 18.0184 95.454 17.9178 95.64 17.8282C95.8369 17.7335 96.042 17.6568 96.2528 17.5989L96.0879 17.0322C95.7339 17.0322 95.4226 17.0778 95.154 17.1692C94.8854 17.2606 94.5801 17.4221 94.2381 17.6537C93.884 17.4465 93.5574 17.2911 93.2582 17.1875C92.9589 17.084 92.6201 17.0322 92.2417 17.0322L92.0586 17.5805C92.4676 17.6264 92.8519 17.7991 93.1574 18.0742C93.0684 18.9717 92.9247 19.8629 92.7271 20.743C92.538 21.5712 92.2663 22.4731 91.9121 23.4485H88.1205C88.7188 22.242 89.2225 21.1207 89.6316 20.0845C90.0279 19.0869 90.3673 18.0677 90.6481 17.0318C90.5136 16.5199 90.364 15.9776 90.1992 15.4049C90.0344 14.8321 89.858 14.2627 89.6701 13.6967C89.4809 13.1302 89.2766 12.5849 89.0573 12.0608C88.8573 11.5765 88.6247 11.1062 88.3612 10.6531H91.7316C92.0771 11.2345 92.3534 11.8541 92.555 12.4994C92.7736 13.2015 92.9509 13.9156 93.0862 14.6382C92.8053 14.809 92.4391 14.9428 91.9874 15.0396L92.2432 15.5889C92.6707 15.5889 93.0492 15.5188 93.3788 15.3787C93.7085 15.2385 93.9771 15.0831 94.1848 14.9125C94.5021 15.1563 94.8164 15.3299 95.1279 15.4333C95.444 15.5378 95.7749 15.5902 96.1078 15.5887L96.1988 15.0404C95.9997 14.9903 95.8064 14.9199 95.6218 14.8301C95.428 14.7354 95.2516 14.6088 95.1 14.4555L95.1006 10.6531ZM82.7736 12.5543C82.9642 12.5184 83.1569 12.4939 83.3505 12.4811C83.543 12.4693 83.7361 12.4757 83.9273 12.5002V11.9511C83.5456 11.8918 83.1599 11.8613 82.7736 11.8597C81.7967 11.8597 81.0641 12.0516 80.5758 12.4354C80.0875 12.8192 79.8433 13.4255 79.8433 14.2542C79.8433 15.01 80.1791 15.6681 80.8506 16.2286C81.5221 16.7892 82.4623 17.1547 83.6711 17.3254L83.8908 16.7953L82.7736 16.3749V12.5543ZM86.1439 23.4489H82.7736V19.19C83.1765 19.19 83.5245 19.2327 83.8176 19.3179L84.0007 18.7696C83.5244 18.5501 83.097 18.4404 82.7186 18.4404C82.2668 18.4404 81.87 18.5654 81.5283 18.8152C81.1865 19.0651 80.9026 19.3913 80.6765 19.7938C80.4505 20.196 80.2827 20.6438 80.1729 21.1373C80.0649 21.614 80.0096 22.1011 80.008 22.5899C80.008 22.7362 80.0172 22.9555 80.0356 23.248C80.0539 23.5404 80.0753 23.7963 80.0995 24.0158L76.6015 23.4491L75.9056 20.8168C75.9859 20.8403 76.0691 20.8526 76.1528 20.8533H76.4C76.8385 20.8564 77.2715 20.7562 77.6639 20.5608C78.0541 20.366 78.4145 20.1167 78.7343 19.8206C79.0564 19.5246 79.3512 19.2003 79.6152 18.8517C79.8778 18.5044 80.1129 18.1845 80.3203 17.8921L79.8259 17.5264L79.0024 18.3483C78.3797 17.9462 77.8577 17.3825 77.4366 16.6573C77.0154 15.9322 76.8048 15.204 76.8046 14.4729C76.7919 13.5834 76.92 12.8461 77.1892 12.2611C77.4424 11.7041 77.7362 11.1664 78.0683 10.6523H85.9072L86.4932 11.859C86.2613 12.1879 86.1452 12.5352 86.1452 12.8978L86.1439 23.4489ZM68.8171 21.566V17.8191C68.6096 17.8798 68.4386 17.9499 68.3043 18.0293C68.17 18.1087 68.0113 18.2093 67.8281 18.3311L67.5351 17.9297C67.9096 17.6395 68.315 17.3912 68.7438 17.1893C69.1712 16.9882 69.5681 16.8877 69.9343 16.8877C70.606 16.8877 71.131 17.0979 71.5094 17.5184C71.8878 17.9389 72.077 18.4172 72.0772 18.9532C72.0771 19.3675 72.0059 19.7788 71.8665 20.169C71.729 20.5604 71.5107 20.9185 71.2256 21.2203C70.9386 21.5249 70.5845 21.7717 70.1632 21.9605C69.7419 22.1493 69.2504 22.2438 68.6886 22.244C68.53 22.244 68.3651 22.2376 68.1942 22.2248C68.0233 22.2121 67.8462 22.1938 67.663 22.17V21.6216C67.8543 21.6462 68.0475 21.6526 68.24 21.6407C68.4336 21.6275 68.6262 21.6027 68.8168 21.5664L68.8171 21.566ZM65.4468 10.6523V23.4485H73.5235C73.841 22.9611 74.1066 22.3609 74.3204 21.6478C74.5341 20.9348 74.6409 20.0421 74.6409 18.9699C74.6409 18.3728 74.5643 17.8274 74.4111 17.3338C74.2579 16.8401 74.029 16.4133 73.7244 16.0532C73.4192 15.6937 73.0345 15.4165 72.5705 15.2216C72.1064 15.0266 71.5695 14.9296 70.9596 14.9307C70.4955 14.9307 69.9888 15.0282 69.4395 15.2233C68.8902 15.4184 68.2979 15.723 67.6628 16.1373L67.4248 15.6619C67.6446 15.4912 67.8705 15.3327 68.1025 15.1866C68.3312 15.0421 68.5699 14.9138 68.8168 14.8028V10.6531L65.4468 10.6523ZM63.2664 23.4485H59.8961V13.4865C60.108 13.3564 60.3283 13.2404 60.5554 13.1392C60.7582 13.048 60.966 12.9686 61.178 12.9014L61.0499 12.3347C60.6039 12.3339 60.1601 12.3955 59.7312 12.5176C59.3135 12.6356 58.9085 12.7948 58.5223 12.9928C58.2287 12.7978 57.8593 12.6394 57.4143 12.5176C56.988 12.3984 56.5476 12.3368 56.1049 12.3347L55.9766 12.9014C56.2718 12.9667 56.5579 13.068 56.8283 13.203C57.0787 13.3311 57.3015 13.456 57.4968 13.5778C57.2648 14.3212 57.1091 15.0463 57.0298 15.7531C56.9508 16.4512 56.9111 17.1531 56.9107 17.8556C56.909 18.7994 56.9917 19.7416 57.1579 20.6707C57.3227 21.5847 57.5089 22.5719 57.7165 23.6322L53.0645 24.0335V20.5062L53.962 20.3233L54.6579 21.9137L55.3356 21.7126C54.8961 20.6646 54.487 19.516 54.1085 18.2669C53.7293 17.0131 53.538 15.7103 53.5407 14.4006C53.5416 13.7796 53.5875 13.1595 53.678 12.5451C53.7742 11.8994 53.9368 11.2653 54.1635 10.6529H63.0278L63.614 11.8412C63.3819 12.1702 63.2659 12.5175 63.2661 12.8831L63.2664 23.4485ZM41.3976 10.6523V23.4485H44.7679V19.976C44.5554 20.064 44.3528 20.1744 44.1635 20.3051C43.973 20.4354 43.7897 20.5758 43.6141 20.7256L43.321 20.2503C43.7455 19.8259 44.2226 19.4574 44.7405 19.1535C45.2592 18.8489 45.775 18.6173 46.288 18.4588C46.5689 17.8854 46.9474 17.3339 47.4236 16.8043C47.8964 16.2773 48.4244 15.8024 48.9986 15.3877L49.31 15.8447C49.0319 16.0375 48.7741 16.258 48.5408 16.5029C48.2854 16.776 48.0526 17.0694 47.8449 17.3802V23.4492H51.2152V10.6531H47.8449V13.5056C48.0519 13.4267 48.2512 13.3288 48.44 13.2131C48.6415 13.0912 48.8399 12.9574 49.0352 12.8118L49.3466 13.2688C48.9293 13.5917 48.4816 13.8733 48.0097 14.1097C47.5633 14.3353 47.0891 14.5012 46.5994 14.6034C46.2805 15.3848 45.8418 16.1119 45.2991 16.7586C44.7502 17.4169 44.1884 17.9227 43.614 18.276L43.2658 17.8556C43.5467 17.624 43.8212 17.3772 44.0892 17.1151C44.3572 16.8541 44.5855 16.5555 44.767 16.2286V10.6531L41.3976 10.6523ZM32.2582 17.5264L32.4781 18.075C33.0034 17.855 33.5169 17.6078 34.0166 17.3345C34.4926 17.0724 34.9075 16.7857 35.2613 16.4744C35.615 16.1631 35.8928 15.8191 36.0947 15.4423C36.2961 15.0646 36.3969 14.6505 36.3969 14.2C36.3955 13.9224 36.3586 13.6462 36.2869 13.3781C36.2137 13.0974 36.0761 12.8376 35.8848 12.6193C35.6895 12.3939 35.427 12.2111 35.0974 12.0709C34.7677 11.9308 34.3528 11.8607 33.8526 11.8607C33.7183 11.8607 33.4986 11.8671 33.1933 11.8798C32.8881 11.8925 32.65 11.9108 32.479 11.9347V12.5744C32.6866 12.5623 32.8819 12.5532 33.065 12.547C33.2481 12.5409 33.4373 12.5379 33.6328 12.5379V16.4299C33.3887 16.6975 33.1751 16.9014 32.9919 17.0415C32.8087 17.1817 32.5641 17.3433 32.2582 17.5264ZM30.5001 10.6531H38.8151C39.0235 11.1185 39.189 11.6019 39.3095 12.0973C39.4317 12.5969 39.4928 13.0539 39.4928 13.4683C39.4955 14.4261 39.3376 15.3777 39.0257 16.2835C38.7142 17.1853 38.2163 17.9165 37.532 18.4771C37.2485 18.4184 36.9599 18.3878 36.6703 18.3858C36.3269 18.3887 35.9841 18.4162 35.6447 18.4679C35.2564 18.5249 34.8712 18.6015 34.4907 18.6973C34.1035 18.7936 33.7215 18.9095 33.3461 19.0444C32.9979 19.1683 32.6584 19.3152 32.3297 19.484L32.4762 20.0507C32.6715 19.9653 32.8638 19.8889 33.0531 19.8214C33.2425 19.7538 33.4347 19.696 33.6299 19.6478V23.45H30.2596V12.8832C30.2596 12.5178 30.1436 12.1705 29.9116 11.8414L30.5001 10.6531ZM19.5465 10.6531H28.0262L28.3374 15.1136C27.6657 15.1622 27.0461 15.2719 26.4785 15.4425C25.9074 15.6144 25.3477 15.822 24.8027 16.0641L24.418 13.6877C24.6133 13.4926 24.8667 13.322 25.1781 13.1759C25.4894 13.0297 25.8282 12.8896 26.1945 12.7554L25.9565 12.3349C25.6146 12.3349 25.2513 12.3959 24.8667 12.5178C24.4876 12.6372 24.1224 12.7965 23.7771 12.993C23.4962 12.8467 23.1515 12.7005 22.743 12.5543C22.3467 12.4103 21.9284 12.3361 21.5067 12.3349L21.3602 12.8286C21.6044 12.9016 21.8028 12.9777 21.9554 13.057C22.124 13.1461 22.2862 13.2469 22.4408 13.3586L22.9171 23.4492H19.2894V12.8832C19.2894 12.5178 19.1734 12.1705 18.9414 11.8414L19.5465 10.6531Z" fill="#331E0E"/>
<path fill-rule="evenodd" clip-rule="evenodd" d="M132.735 13.5981H124.27L125.262 10.9502H140.21L141.203 13.5981H132.735ZM132.735 20.4638H124.27V14.2493H141.203V20.4638H132.735ZM132.735 23.7291H140.209L141.202 21.0812H124.27L125.262 23.7291H132.735Z" fill="#331E0E"/>
<path fill-rule="evenodd" clip-rule="evenodd" d="M123.896 17.6127V17.9777L122.249 23.7224H117.353C116.973 23.6347 116.679 23.4699 116.613 23.2815C116.55 23.1049 116.701 22.9493 116.982 22.8581C116.601 22.7637 116.31 22.5953 116.242 22.4034C116.174 22.2115 116.346 22.0431 116.66 21.9487C116.315 21.8575 116.054 21.7019 115.992 21.5253C115.925 21.3369 116.102 21.1721 116.42 21.0844L121.573 21.0821L123.896 17.6127ZM123.896 17.1134V17.5651L121.572 20.4307L116.418 20.4282C116.245 20.3242 116.101 20.1788 115.999 20.0052C115.898 19.8316 115.841 19.6353 115.834 19.4342C115.828 19.2331 115.872 19.0336 115.962 18.8538C116.053 18.6741 116.187 18.5197 116.353 18.4049C116.175 18.2898 116.029 18.1321 115.928 17.9463C115.826 17.7604 115.773 17.5523 115.773 17.3408C115.773 17.1293 115.826 16.9211 115.928 16.7353C116.029 16.5494 116.175 16.3918 116.353 16.2766C116.187 16.1618 116.053 16.0075 115.962 15.8277C115.872 15.6479 115.828 15.4484 115.834 15.2473C115.841 15.0462 115.898 14.8499 115.999 14.6763C116.101 14.5027 116.245 14.3573 116.418 14.2533L121.572 14.248L123.896 17.1134ZM123.896 16.7008V17.066L121.572 13.5975L116.418 13.5952C116.101 13.5073 115.924 13.3428 115.991 13.1541C116.053 12.9775 116.314 12.8219 116.659 12.7307C116.345 12.6363 116.173 12.4681 116.241 12.2762C116.309 12.0843 116.6 11.9159 116.981 11.8215C116.7 11.7304 116.549 11.5748 116.612 11.3982C116.678 11.2095 116.971 11.045 117.351 10.957H122.248L123.896 16.7008Z" fill="#331E0E"/>
<path fill-rule="evenodd" clip-rule="evenodd" d="M141.578 17.6127V17.9777L143.225 23.7224H148.122C148.502 23.6347 148.795 23.4699 148.862 23.2815C148.924 23.1049 148.773 22.9493 148.493 22.8581C148.874 22.7637 149.164 22.5953 149.232 22.4034C149.3 22.2115 149.128 22.0431 148.814 21.9487C149.159 21.8575 149.42 21.7019 149.483 21.5253C149.549 21.3369 149.373 21.1721 149.055 21.0844L143.901 21.0821L141.578 17.6127ZM141.578 17.1134V17.5651L143.901 20.4307L149.055 20.4282C149.228 20.3242 149.372 20.1788 149.474 20.0052C149.575 19.8316 149.632 19.6353 149.639 19.4342C149.645 19.2331 149.601 19.0336 149.511 18.8538C149.42 18.6741 149.286 18.5197 149.12 18.4049C149.298 18.2898 149.444 18.1321 149.545 17.9463C149.647 17.7604 149.7 17.5523 149.7 17.3408C149.7 17.1293 149.647 16.9211 149.545 16.7353C149.444 16.5494 149.298 16.3918 149.12 16.2766C149.286 16.1618 149.42 16.0075 149.511 15.8277C149.601 15.6479 149.645 15.4484 149.639 15.2473C149.632 15.0462 149.575 14.8499 149.474 14.6763C149.372 14.5027 149.228 14.3573 149.055 14.2533L143.901 14.248L141.578 17.1134ZM141.578 16.7008V17.066L143.901 13.5975L149.055 13.5952C149.372 13.5073 149.549 13.3428 149.483 13.1541C149.42 12.9775 149.159 12.8219 148.814 12.7307C149.128 12.6363 149.3 12.4681 149.232 12.2762C149.164 12.0843 148.873 11.9159 148.493 11.8215C148.773 11.7304 148.924 11.5748 148.862 11.3982C148.795 11.2095 148.502 11.045 148.122 10.957H143.225L141.578 16.7008Z" fill="#331E0E"/>
</svg>
