<svg width="330" height="46" viewBox="0 0 330 46" fill="none" xmlns="http://www.w3.org/2000/svg">
<path d="M330 0H0V46H330V0Z" fill="#331E0E"/>
<path d="M328 2H2V44H328V2Z" fill="#C4B697"/>
<path fill-rule="evenodd" clip-rule="evenodd" d="M178.905 14.001H183.326V18.9263C183.166 19.1023 182.953 19.2545 182.689 19.3828C182.406 19.518 182.113 19.6305 181.812 19.7191L181.98 20.4878C182.461 20.4878 182.905 20.4118 183.314 20.2597C183.722 20.1077 184.159 19.8954 184.623 19.6229C185.023 19.9433 185.428 20.1675 185.836 20.2956C186.229 20.4212 186.638 20.486 187.05 20.4878L187.29 19.7191C186.796 19.6183 186.318 19.4484 185.872 19.2145C186.064 18.2055 186.308 17.2725 186.605 16.4156C186.893 15.5747 187.268 14.7656 187.722 14.001H192.143C191.795 14.5992 191.482 15.2169 191.206 15.8511C190.902 16.5397 190.613 17.2564 190.341 18.0012C190.068 18.7459 189.816 19.4947 189.584 20.2477C189.352 21.0013 189.148 21.714 188.971 22.3859C189.388 23.7474 189.88 25.1129 190.449 26.4823C191.018 27.8517 191.686 29.2972 192.455 30.8188H187.41C186.897 29.5536 186.549 28.3723 186.364 27.2751C186.18 26.1778 186.04 25.0124 185.944 23.7788C186.168 23.6507 186.397 23.5226 186.629 23.3945C186.843 23.2733 187.073 23.1843 187.313 23.1302L187.049 22.3854C186.633 22.3854 186.216 22.4815 185.8 22.6738C185.384 22.866 184.975 23.0586 184.575 23.2515C184.094 23.0271 183.674 22.8269 183.313 22.6509C182.953 22.4749 182.516 22.3866 182.003 22.3859L181.811 23.1307C182.096 23.1936 182.371 23.2951 182.628 23.4322C182.868 23.5585 183.101 23.6988 183.325 23.8524V30.8198H178.904V23.8273C179.132 23.6811 179.368 23.5489 179.612 23.4312C179.871 23.3067 180.14 23.2058 180.416 23.1297L180.2 22.3849C179.736 22.3849 179.327 22.4449 178.975 22.565C178.622 22.6851 178.222 22.8974 177.773 23.2018C177.309 22.9295 176.88 22.7253 176.488 22.5891C176.095 22.453 175.651 22.3849 175.154 22.3849L174.914 23.1056C175.451 23.166 175.955 23.3929 176.356 23.7545C176.239 24.934 176.05 26.1054 175.791 27.262C175.543 28.3505 175.187 29.5358 174.722 30.8178H169.748C170.533 29.2322 171.194 27.7585 171.731 26.3966C172.25 25.0854 172.696 23.7459 173.064 22.3844C172.888 21.7117 172.691 20.9989 172.475 20.2462C172.259 19.4934 172.028 18.7451 171.781 18.0012C171.533 17.2566 171.265 16.5399 170.977 15.8511C170.715 15.2146 170.41 14.5965 170.064 14.001H174.485C174.939 14.7651 175.301 15.5795 175.565 16.4276C175.852 17.3503 176.085 18.2888 176.262 19.2386C175.894 19.463 175.413 19.6388 174.821 19.7661L175.157 20.4881C175.717 20.4881 176.214 20.396 176.646 20.2117C177.079 20.0275 177.431 19.8233 177.703 19.5991C178.12 19.9194 178.532 20.1476 178.941 20.2836C179.355 20.4208 179.789 20.4898 180.226 20.4878L180.345 19.7671C180.084 19.7013 179.831 19.6087 179.588 19.4908C179.334 19.3664 179.103 19.1999 178.904 18.9984L178.905 14.001ZM162.734 16.4997C162.984 16.4525 163.237 16.4204 163.491 16.4035C163.744 16.388 163.997 16.3964 164.248 16.4286V15.7069C163.747 15.629 163.241 15.5889 162.734 15.5868C161.453 15.5868 160.492 15.8391 159.851 16.3435C159.211 16.8479 158.89 17.6447 158.89 18.7339C158.89 19.7272 159.331 20.5921 160.212 21.3288C161.093 22.0655 162.326 22.546 163.912 22.7702L164.2 22.0737L162.734 21.521V16.4997ZM167.155 30.8183H162.734V25.221C163.263 25.221 163.719 25.277 164.104 25.389L164.344 24.6683C163.719 24.38 163.159 24.2358 162.662 24.2358C162.07 24.2358 161.549 24.4 161.101 24.7284C160.652 25.0568 160.28 25.4855 159.983 26.0145C159.687 26.5431 159.467 27.1316 159.323 27.7802C159.181 28.4068 159.109 29.047 159.106 29.6894C159.106 29.8816 159.118 30.1699 159.143 30.5543C159.167 30.9386 159.195 31.275 159.227 31.5633L154.638 30.8185L153.725 27.359C153.83 27.3899 153.939 27.4061 154.049 27.4069H154.374C154.949 27.4111 155.517 27.2794 156.031 27.0226C156.543 26.7665 157.016 26.4389 157.436 26.0497C157.858 25.6606 158.245 25.2345 158.591 24.7764C158.936 24.3198 159.244 23.8994 159.516 23.5151L158.868 23.0345L157.787 24.1147C156.97 23.5862 156.286 22.8454 155.733 21.8923C155.181 20.9392 154.904 19.9822 154.904 19.0213C154.888 17.8522 155.056 16.8832 155.409 16.1144C155.741 15.3823 156.126 14.6756 156.562 14H166.845L167.614 15.5858C167.309 16.0182 167.157 16.4746 167.157 16.9511L167.155 30.8183ZM144.426 28.3437V23.4191C144.154 23.499 143.93 23.5911 143.754 23.6954C143.578 23.7998 143.369 23.932 143.129 24.0921L142.745 23.5645C143.236 23.1832 143.768 22.8568 144.33 22.5914C144.891 22.3271 145.411 22.195 145.892 22.195C146.773 22.195 147.462 22.4713 147.958 23.024C148.454 23.5766 148.703 24.2052 148.703 24.9097C148.703 25.4543 148.609 25.9947 148.427 26.5076C148.246 27.022 147.96 27.4927 147.586 27.8893C147.209 28.2897 146.745 28.614 146.192 28.8622C145.639 29.1104 144.995 29.2345 144.258 29.2347C144.05 29.2347 143.833 29.2263 143.609 29.2096C143.385 29.1928 143.153 29.1688 142.912 29.1375V28.4168C143.163 28.4491 143.417 28.4575 143.669 28.4419C143.923 28.4245 144.176 28.3919 144.426 28.3442L144.426 28.3437ZM140.005 14V30.8178H150.6C151.017 30.1772 151.365 29.3883 151.645 28.4512C151.926 27.514 152.066 26.3408 152.066 24.9316C152.066 24.1468 151.965 23.4301 151.765 22.7813C151.564 22.1325 151.263 21.5715 150.864 21.0982C150.463 20.6258 149.959 20.2615 149.35 20.0053C148.741 19.749 148.037 19.6216 147.237 19.6229C146.628 19.6229 145.963 19.7511 145.243 20.0075C144.522 20.2639 143.745 20.6643 142.912 21.2088L142.6 20.584C142.888 20.3596 143.185 20.1514 143.489 19.9593C143.789 19.7694 144.102 19.6008 144.426 19.4549V14.001L140.005 14ZM137.145 30.8178H132.724V17.7248C133.002 17.5539 133.291 17.4015 133.589 17.2684C133.855 17.1486 134.127 17.0442 134.405 16.9559L134.237 16.2111C133.652 16.21 133.07 16.291 132.508 16.4515C131.96 16.6066 131.428 16.8158 130.922 17.076C130.537 16.8198 130.052 16.6116 129.468 16.4515C128.909 16.2948 128.331 16.2139 127.751 16.2111L127.582 16.9559C127.97 17.0417 128.345 17.1748 128.7 17.3523C129.028 17.5206 129.32 17.6848 129.577 17.8449C129.272 18.8219 129.068 19.7749 128.964 20.7039C128.86 21.6213 128.808 22.5438 128.808 23.4671C128.805 24.7076 128.914 25.9458 129.132 27.167C129.348 28.3683 129.592 29.6657 129.865 31.0592L123.762 31.5867V26.9508L124.94 26.7104L125.853 28.8006L126.742 28.5364C126.165 27.1589 125.628 25.6494 125.132 24.0077C124.634 22.3599 124.383 20.6476 124.387 18.9263C124.388 18.1102 124.448 17.2951 124.567 16.4877C124.693 15.639 124.907 14.8056 125.204 14.0008H136.832L137.601 15.5625C137.297 15.9949 137.144 16.4513 137.145 16.9318L137.145 30.8178ZM108.458 14V30.8178H112.879V26.2539C112.6 26.3696 112.334 26.5146 112.086 26.6865C111.836 26.8578 111.596 27.0422 111.365 27.2391L110.981 26.6144C111.538 26.0567 112.164 25.5723 112.843 25.173C113.523 24.7726 114.2 24.4682 114.873 24.2599C115.241 23.5063 115.738 22.7815 116.363 22.0855C116.983 21.3928 117.675 20.7686 118.429 20.2235L118.837 20.8242C118.472 21.0776 118.134 21.3675 117.828 21.6893C117.493 22.0483 117.188 22.4339 116.915 22.8423V30.8188H121.336V14.001H116.915V17.75C117.187 17.6463 117.448 17.5177 117.696 17.3656C117.96 17.2053 118.22 17.0295 118.477 16.8381L118.885 17.4387C118.338 17.8631 117.751 18.2333 117.132 18.544C116.546 18.8404 115.924 19.0586 115.281 19.1929C114.863 20.2198 114.288 21.1754 113.576 22.0254C112.856 22.8906 112.119 23.5553 111.365 24.0197L110.908 23.4671C111.277 23.1628 111.637 22.8384 111.989 22.4939C112.34 22.1509 112.64 21.7584 112.878 21.3288V14.001L108.458 14ZM96.4689 23.0345L96.7572 23.7555C97.4464 23.4663 98.12 23.1415 98.7754 22.7823C99.3999 22.4378 99.9442 22.061 100.408 21.6519C100.872 21.2428 101.237 20.7906 101.501 20.2954C101.766 19.799 101.898 19.2547 101.898 18.6626C101.896 18.2978 101.848 17.9348 101.754 17.5824C101.658 17.2135 101.477 16.8721 101.226 16.5851C100.97 16.2889 100.626 16.0486 100.193 15.8644C99.7608 15.6802 99.2165 15.5881 98.5604 15.5881C98.3842 15.5881 98.0959 15.5965 97.6955 15.6132C97.2951 15.63 96.9827 15.654 96.7585 15.6853V16.5261C97.0308 16.5102 97.287 16.4982 97.5272 16.4902C97.7673 16.4821 98.0156 16.4781 98.272 16.4781V21.5934C97.9518 21.945 97.6715 22.213 97.4312 22.3972C97.1909 22.5814 96.8701 22.7939 96.4689 23.0345ZM94.1626 14.001H105.07C105.343 14.6127 105.56 15.248 105.719 15.8991C105.879 16.5557 105.959 17.1564 105.959 17.701C105.963 18.9598 105.756 20.2104 105.346 21.4009C104.938 22.5861 104.285 23.5471 103.387 24.284C103.015 24.2068 102.636 24.1666 102.257 24.1639C101.806 24.1678 101.356 24.2039 100.911 24.2719C100.402 24.3468 99.8966 24.4474 99.3974 24.5734C98.8895 24.6999 98.3884 24.8522 97.8959 25.0296C97.4392 25.1924 96.9937 25.3854 96.5626 25.6073L96.7547 26.3521C97.011 26.2399 97.2633 26.1395 97.5116 26.0507C97.76 25.9619 98.0122 25.8859 98.2682 25.8226V30.8198H93.8471V16.932C93.8471 16.4517 93.6949 15.9953 93.3906 15.5627L94.1626 14.001ZM79.7938 14.001H90.9173L91.3255 19.8633C90.4444 19.9273 89.6316 20.0714 88.8871 20.2956C88.1379 20.5216 87.4037 20.7944 86.6888 21.1126L86.1841 17.9894C86.4404 17.733 86.7727 17.5087 87.1812 17.3166C87.5896 17.1245 88.0341 16.9403 88.5145 16.764L88.2023 16.2113C87.7538 16.2113 87.2773 16.2915 86.7727 16.4517C86.2755 16.6086 85.7963 16.818 85.3434 17.0762C84.9749 16.884 84.5228 16.6918 83.9869 16.4997C83.467 16.3105 82.9183 16.2129 82.3651 16.2113L82.1729 16.8602C82.4933 16.9562 82.7535 17.0562 82.9537 17.1604C83.1749 17.2775 83.3877 17.41 83.5905 17.5568L84.2152 30.8188H79.4564V16.932C79.4564 16.4517 79.3043 15.9953 79 15.5627L79.7938 14.001Z" fill="#331E0E"/>
<path fill-rule="evenodd" clip-rule="evenodd" d="M228.273 17.8718H217.168L218.47 14.3916H238.078L239.381 17.8718H228.273ZM228.273 26.8952H217.168V18.7276H239.381V26.8952H228.273ZM228.273 31.1868H238.077L239.38 27.7066H217.168L218.47 31.1868H228.273Z" fill="#331E0E"/>
<path fill-rule="evenodd" clip-rule="evenodd" d="M216.679 23.1478V23.6276L214.519 31.1777H208.095C207.597 31.0624 207.212 30.8459 207.124 30.5982C207.042 30.3661 207.241 30.1616 207.609 30.0418C207.109 29.9177 206.727 29.6964 206.638 29.4442C206.549 29.192 206.775 28.9707 207.187 28.8466C206.734 28.7267 206.392 28.5223 206.31 28.2902C206.222 28.0425 206.454 27.8259 206.871 27.7106L213.631 27.7076L216.679 23.1478ZM216.679 22.4916V23.0852L213.63 26.8515L206.869 26.8482C206.642 26.7116 206.454 26.5204 206.32 26.2923C206.186 26.0641 206.112 25.8061 206.103 25.5418C206.095 25.2775 206.153 25.0153 206.271 24.7791C206.39 24.5428 206.566 24.3399 206.783 24.189C206.55 24.0377 206.358 23.8305 206.226 23.5862C206.093 23.342 206.023 23.0684 206.023 22.7904C206.023 22.5125 206.093 22.2389 206.226 21.9947C206.358 21.7504 206.55 21.5432 206.783 21.3919C206.566 21.2409 206.39 21.0381 206.271 20.8018C206.153 20.5656 206.095 20.3033 206.103 20.0391C206.112 19.7748 206.186 19.5168 206.32 19.2886C206.454 19.0605 206.642 18.8693 206.869 18.7326L213.63 18.7256L216.679 22.4916ZM216.679 21.9493V22.4293L213.63 17.8708L206.87 17.8677C206.453 17.7522 206.221 17.5359 206.308 17.288C206.39 17.0559 206.733 16.8514 207.185 16.7316C206.773 16.6075 206.547 16.3864 206.636 16.1342C206.725 15.882 207.107 15.6607 207.607 15.5366C207.239 15.4168 207.041 15.2123 207.123 14.9802C207.21 14.7322 207.595 14.5159 208.093 14.4004H214.517L216.679 21.9493Z" fill="#331E0E"/>
<path fill-rule="evenodd" clip-rule="evenodd" d="M239.871 23.1478V23.6276L242.031 31.1777H248.455C248.954 31.0624 249.338 30.8459 249.426 30.5982C249.508 30.3661 249.309 30.1616 248.942 30.0418C249.441 29.9177 249.823 29.6964 249.912 29.4442C250.001 29.192 249.776 28.9707 249.363 28.8466C249.816 28.7267 250.158 28.5223 250.24 28.2902C250.328 28.0425 250.096 27.8259 249.679 27.7106L242.919 27.7076L239.871 23.1478ZM239.871 22.4916V23.0852L242.918 26.8515L249.68 26.8482C249.906 26.7116 250.095 26.5204 250.228 26.2923C250.362 26.0641 250.436 25.8061 250.445 25.5418C250.453 25.2775 250.395 25.0153 250.277 24.7791C250.158 24.5428 249.982 24.3399 249.765 24.189C249.998 24.0377 250.19 23.8305 250.323 23.5862C250.455 23.342 250.525 23.0684 250.525 22.7904C250.525 22.5125 250.455 22.2389 250.323 21.9947C250.19 21.7504 249.998 21.5432 249.765 21.3919C249.982 21.2409 250.158 21.0381 250.277 20.8018C250.395 20.5656 250.453 20.3033 250.445 20.0391C250.436 19.7748 250.362 19.5168 250.228 19.2886C250.095 19.0605 249.906 18.8693 249.68 18.7326L242.918 18.7256L239.871 22.4916ZM239.871 21.9493V22.4293L242.918 17.8708L249.679 17.8677C250.096 17.7522 250.327 17.5359 250.24 17.288C250.158 17.0559 249.815 16.8514 249.363 16.7316C249.775 16.6075 250.001 16.3864 249.912 16.1342C249.823 15.882 249.441 15.6607 248.941 15.5366C249.309 15.4168 249.507 15.2123 249.425 14.9802C249.338 14.7322 248.953 14.5159 248.455 14.4004H242.031L239.871 21.9493Z" fill="#331E0E"/>
</svg>
