<svg width="29" height="29" viewBox="0 0 29 29" fill="none" xmlns="http://www.w3.org/2000/svg">
<path d="M17.085 4.4078L24.222 11.5448C24.4321 11.7548 24.5371 12.0312 24.5371 12.3071C24.5371 12.5831 24.4321 12.8595 24.222 13.0695L13.0705 24.221C12.8616 24.4299 12.5852 24.5343 12.3081 24.5344V24.5361C12.0322 24.5361 11.7558 24.4311 11.5458 24.2211L4.4088 17.0841C4.19878 16.874 4.09375 16.5977 4.09375 16.3217H4.09549C4.09551 16.0447 4.19997 15.7682 4.40882 15.5594L15.5604 4.40782L15.5604 4.4078C15.7704 4.19783 16.0467 4.09277 16.3227 4.09277C16.5987 4.09277 16.875 4.19783 17.085 4.4078L17.085 4.40782V4.4078ZM23.5895 12.1774L16.4525 5.04039L16.4525 5.04037C16.3822 4.97005 16.2633 4.97005 16.193 5.04037L16.193 5.04039L5.04142 16.192C4.9697 16.2637 4.96959 16.3797 5.0414 16.4515L12.1784 23.5885C12.2137 23.6238 12.2608 23.6414 12.3082 23.6414V23.6432C12.3545 23.6432 12.4015 23.6249 12.4379 23.5885L23.5895 12.4369C23.6248 12.4016 23.6425 12.3545 23.6425 12.3071C23.6425 12.2598 23.6248 12.2127 23.5895 12.1774V12.1774Z" fill="#333333"/>
<path fill-rule="evenodd" clip-rule="evenodd" d="M23.5902 12.1781L16.4532 5.04101C16.3829 4.9707 16.264 4.9707 16.1937 5.04104L5.04212 16.1926C4.97039 16.2643 4.97028 16.3803 5.0421 16.4521L12.1791 23.5891C12.2144 23.6244 12.2615 23.6421 12.3089 23.6421V23.6438C12.3552 23.6438 12.4022 23.6256 12.4386 23.5891L23.5902 12.4376C23.6255 12.4023 23.6431 12.3552 23.6431 12.3078C23.6431 12.2604 23.6255 12.2133 23.5902 12.178L23.5902 12.1781Z" fill="#FFD3B3"/>
<path d="M7.90911 19.3204L9.3178 20.729L9.31782 20.729C9.45572 20.8669 9.48471 21.0725 9.40489 21.2389L6.74278 28.3378L6.32514 28.1823L6.74399 28.3394C6.65725 28.5707 6.39938 28.6879 6.16807 28.6011C6.10258 28.5766 6.04624 28.5383 6.00109 28.4908L5.01506 27.5048L5.01503 27.5048C4.89428 27.3841 4.85701 27.2114 4.90322 27.0587L5.02983 26.5097L4.45133 26.6431L4.45155 26.6441C4.29269 26.6807 4.13408 26.6277 4.0286 26.5183L3.55923 26.0489L3.87552 25.7327L3.55919 26.049C3.43837 25.9281 3.40115 25.7554 3.44747 25.6025L3.574 25.0538L2.99548 25.1872L2.9957 25.1882C2.83685 25.2248 2.67823 25.1719 2.57276 25.0625L2.10341 24.5931L2.10339 24.5932C1.98264 24.4724 1.94537 24.2998 1.99158 24.147L2.11818 23.598L1.53964 23.7314L1.53986 23.7324C1.38104 23.769 1.2225 23.7161 1.11702 23.6068L0.131036 22.6208L0.131014 22.6208C-0.0436714 22.4461 -0.0436714 22.1629 0.131014 21.9882C0.187591 21.9316 0.255572 21.8934 0.327538 21.8734L7.42781 19.2108L7.42722 19.2093C7.60069 19.1442 7.78911 19.1939 7.90909 19.3203L7.90911 19.3204ZM8.48285 21.1592L7.47041 20.1468L1.25351 22.4781L1.58113 22.8057L2.58347 22.5746C2.65592 22.5525 2.73498 22.5485 2.81408 22.5668C3.0548 22.6222 3.20494 22.8624 3.14945 23.1032L3.1485 23.1029L2.91046 24.1351L3.03695 24.2616L4.03927 24.0304C4.11172 24.0083 4.19078 24.0043 4.26987 24.0226C4.5106 24.0781 4.66074 24.3183 4.60524 24.559L4.6043 24.5588L4.36628 25.5909L4.49279 25.7174L5.49512 25.4862C5.56756 25.4641 5.64662 25.4602 5.72572 25.4784C5.96645 25.5339 6.11659 25.7741 6.06109 26.0148L6.06014 26.0146L5.8221 27.0467L6.1515 27.3761L8.48284 21.1592L8.48285 21.1592Z" fill="#333333"/>
<path d="M20.1458 7.47043L21.1582 8.48288L27.3751 6.15154L27.0457 5.82214L26.0136 6.06018L26.0138 6.06113C25.7731 6.11662 25.5329 5.96648 25.4774 5.72576C25.4592 5.64666 25.4632 5.5676 25.4852 5.49515L25.7164 4.49281L25.5899 4.36629L24.5578 4.60433L24.558 4.60528C24.3173 4.66078 24.0771 4.51064 24.0216 4.26991C24.0034 4.19081 24.0073 4.11176 24.0294 4.03931L24.2606 3.03699L24.1341 2.91047L23.102 3.14851L23.1022 3.14948C22.8615 3.205 22.6213 3.05486 22.5658 2.81414C22.5475 2.73497 22.5515 2.65587 22.5737 2.58336L22.8048 1.58117L22.4772 1.25355L20.1458 7.47045L20.1458 7.47043ZM20.7281 9.31782L19.3194 7.90913C19.1929 7.78916 19.1432 7.60073 19.2083 7.42726L19.2099 7.42785L21.8725 0.327637C21.8924 0.255627 21.9306 0.187603 21.9872 0.131003C22.1619 -0.0436825 22.4452 -0.0436602 22.6199 0.131025L22.6198 0.131047L23.6058 1.11704C23.7151 1.22251 23.768 1.38106 23.7314 1.53987L23.7305 1.53965L23.597 2.11819L24.1457 1.99163C24.2986 1.94531 24.4714 1.98254 24.5922 2.10338L24.5922 2.1034L25.0615 2.57277C25.1709 2.67824 25.2239 2.83686 25.1872 2.99571L25.1863 2.99549L25.0529 3.57399L25.6019 3.44739C25.7546 3.40118 25.9272 3.43845 26.048 3.5592L26.048 3.55922L26.5174 4.02859C26.6268 4.13406 26.6797 4.29268 26.6431 4.45154L26.6421 4.45132L26.5087 5.02984L27.0577 4.90323C27.2105 4.85702 27.3831 4.89429 27.5038 5.01504L27.5038 5.01507L28.4898 6.0011C28.5373 6.04625 28.5756 6.10259 28.6002 6.16808C28.6869 6.39939 28.5697 6.65726 28.3384 6.744L28.1813 6.32515L28.3368 6.74279L21.2379 9.4049C21.0715 9.48472 20.8659 9.45573 20.728 9.31783L20.7281 9.31781L20.7281 9.31782Z" fill="#333333"/>
<path d="M16.8683 8.65073L19.9801 11.7625C20.1209 11.9034 20.1913 12.0885 20.1913 12.2732C20.1913 12.458 20.1209 12.6431 19.9801 12.784L12.786 19.9781C12.6451 20.119 12.46 20.1894 12.2752 20.1894C12.0904 20.1894 11.9053 20.119 11.7645 19.9781L8.6527 16.8663L8.65268 16.8663C8.51187 16.7255 8.44141 16.5403 8.44141 16.3556C8.44141 16.1719 8.51187 15.9875 8.65268 15.8466L8.96896 16.1611L8.65259 15.8449L8.65442 15.8431L15.8468 8.65075C15.9876 8.5099 16.1728 8.43945 16.3576 8.43945C16.5424 8.43945 16.7275 8.5099 16.8683 8.65075L16.8683 8.65073ZM19.2257 12.2732L16.3576 9.40511L9.40709 16.3556L12.2752 19.2237L19.2257 12.2732Z" fill="#333333"/>
<path fill-rule="evenodd" clip-rule="evenodd" d="M20.1484 7.46981L21.1609 8.48226L27.3778 6.15092L27.0484 5.82152L26.0162 6.05956L26.0165 6.06051C25.7757 6.116 25.5356 5.96587 25.4801 5.72514C25.4618 5.64604 25.4658 5.56698 25.4879 5.49453L25.7191 4.49219L25.5926 4.36567L24.5604 4.60372L24.5606 4.60466C24.3199 4.66016 24.0797 4.51002 24.0242 4.26929C24.006 4.19019 24.01 4.11114 24.0321 4.03869L24.2632 3.03637L24.1367 2.90985L23.1046 3.14789L23.1049 3.14886C22.8641 3.20438 22.624 3.05424 22.5684 2.81352C22.5502 2.73435 22.5542 2.65525 22.5763 2.58274L22.8074 1.58055L22.4798 1.25293L20.1484 7.46983L20.1484 7.46981Z" fill="#B38E85"/>
<path fill-rule="evenodd" clip-rule="evenodd" d="M19.2249 12.2744L16.3567 9.40625L9.40625 16.3567L12.2744 19.2249L19.2249 12.2744Z" fill="#B38E85"/>
<path fill-rule="evenodd" clip-rule="evenodd" d="M8.48325 21.1599L7.4708 20.1475L1.25391 22.4788L1.58153 22.8064L2.58387 22.5752C2.65632 22.5532 2.73537 22.5492 2.81447 22.5674C3.0552 22.6229 3.20534 22.8631 3.14984 23.1038L3.1489 23.1036L2.91085 24.1357L3.03735 24.2622L4.03967 24.0311C4.11212 24.009 4.19117 24.005 4.27027 24.0233C4.511 24.0788 4.66114 24.3189 4.60564 24.5597L4.60469 24.5594L4.36667 25.5915L4.49319 25.7181L5.49551 25.4869C5.56796 25.4648 5.64702 25.4608 5.72612 25.4791C5.96684 25.5346 6.11698 25.7747 6.06148 26.0155L6.06054 26.0153L5.8225 27.0474L6.1519 27.3768L8.48324 21.1599L8.48325 21.1599Z" fill="#B38E85"/>
</svg>
