<svg width="29" height="29" viewBox="0 0 29 29" fill="none" xmlns="http://www.w3.org/2000/svg">
<path d="M3.94346 1.08334L3.94425 1.08294L3.94962 1.08029C5.70614 0.0755986 7.65969 -0.208388 9.40196 0.145576C11.1639 0.503579 12.7109 1.51066 13.6304 3.08281C13.6436 3.10189 13.655 3.12174 13.6649 3.14223C14.2701 4.20477 14.158 4.78567 13.5609 5.13038C13.0886 5.40309 12.3158 5.40038 11.3661 5.39706C10.0092 5.39235 8.24948 5.3862 6.85919 6.18888C5.47271 6.98934 4.59802 8.51663 3.92356 9.69433C3.45226 10.5173 3.06865 11.1871 2.59254 11.462C1.99001 11.8098 1.4264 11.6102 0.802614 10.5297L1.18742 10.3069L1.17531 10.3139L0.802614 10.5297L0.802329 10.5292L0.801408 10.5297C0.795639 10.5198 0.790308 10.5097 0.785416 10.4994C-0.116569 8.91614 -0.215631 7.07329 0.354847 5.36967C0.922781 3.67378 2.15603 2.11561 3.91985 1.09725L4.14273 1.48206L4.11814 1.43946L3.91992 1.09723L3.9204 1.09697L3.91985 1.09602C3.92764 1.09153 3.93554 1.08732 3.94346 1.08335L3.94346 1.08334ZM4.39033 1.85278L4.38785 1.85438C4.37249 1.86452 4.35646 1.87373 4.33985 1.88193C2.78304 2.78894 1.69651 4.16192 1.1976 5.65172C0.705085 7.12247 0.78704 8.70681 1.55866 10.0601C1.56947 10.0763 1.57925 10.0933 1.58792 10.111C1.87717 10.6071 2.04303 10.7542 2.15026 10.6924C2.41222 10.5411 2.74349 9.96272 3.15048 9.25205C3.87572 7.98567 4.81627 6.34338 6.4169 5.41926C8.01373 4.49733 9.90656 4.50393 11.3661 4.50903C12.1839 4.51188 12.8494 4.5142 13.1151 4.36076C13.2223 4.29885 13.1778 4.08168 12.8926 3.58313C12.8871 3.57495 12.8818 3.56657 12.8768 3.55793L12.8777 3.5574C12.0928 2.19819 10.7554 1.32657 9.22783 1.01619C7.6872 0.703179 5.95422 0.957599 4.39033 1.85278L4.39033 1.85278Z" fill="#333333"/>
<path d="M1.45464 7.30272C1.46565 7.66329 1.87451 7.86309 2.16558 7.64923C2.2832 7.56041 2.34921 7.42699 2.34583 7.27929L2.34539 7.26139L2.34506 7.2436L2.34484 7.22557L2.34469 7.20754L2.34462 7.1897L2.34467 7.17165L2.34478 7.15357L2.345 7.13548L2.34528 7.11762L2.3457 7.09974L2.34618 7.08138L2.34675 7.0635L2.34743 7.0456L2.3482 7.0272L2.34906 7.00903L2.34998 6.99111L2.35101 6.9729L2.35213 6.95474L2.35333 6.93678L2.35465 6.91859L2.35605 6.90034L2.35754 6.88213L2.3591 6.8639L2.36075 6.84591L2.36252 6.82769L2.36437 6.80939L2.36632 6.79116L2.36834 6.77293L2.37047 6.75464L2.37266 6.73639L2.37496 6.71811L2.37735 6.69984L2.37981 6.68176L2.38238 6.66345L2.38507 6.64498L2.38779 6.62668L2.3906 6.60858L2.39354 6.59024L2.39655 6.57199L2.39966 6.55368L2.40291 6.53514L2.40618 6.5168L2.40951 6.4987L2.4119 6.48607C2.45496 6.25455 2.31639 6.05532 2.1248 5.98495C2.21138 6.00472 2.30672 5.99864 2.40179 5.9579C2.51139 5.90899 2.59404 5.8237 2.63807 5.7118L2.63831 5.71116L2.64555 5.69302L2.65288 5.67486L2.66033 5.65658L2.6679 5.63827L2.67543 5.62026L2.68304 5.60227L2.69083 5.58411L2.69877 5.56577L2.70664 5.54778L2.71465 5.52975L2.72281 5.51154L2.73093 5.4936L2.73924 5.47552L2.74758 5.45753L2.75602 5.43952L2.76455 5.42149L2.77326 5.40337L2.78197 5.38534L2.79068 5.36751L2.7995 5.34969L2.80849 5.3317L2.81762 5.31365L2.82666 5.2959L2.83596 5.27787L2.84521 5.26004L2.85454 5.24234L2.86404 5.22446L2.87358 5.20669L2.88325 5.18885L2.89299 5.17104L2.90282 5.15323L2.91269 5.13553L2.92263 5.11789L2.93268 5.10021L2.94279 5.08257L2.95299 5.06498L2.96334 5.04728L2.97378 5.02957L2.9842 5.01209L2.9948 4.99447L3.00169 4.98311C3.12609 4.77638 3.06081 4.53302 2.89497 4.40204C2.9495 4.43808 3.01377 4.46307 3.08606 4.47263C3.23858 4.49014 3.38266 4.43385 3.48221 4.31673L3.48376 4.31489L3.49769 4.2985L3.51175 4.28205L3.52573 4.26584L3.53977 4.24967L3.554 4.23343L3.56824 4.21731L3.58263 4.20117L3.59709 4.18502L3.61154 4.16903L3.62607 4.1531L3.64078 4.13707L3.65557 4.12108L3.67033 4.10524L3.68518 4.08944L3.7001 4.07367L3.71511 4.05796L3.73031 4.04217L3.74558 4.02642L3.7608 4.01082L3.77624 3.99514L3.79162 3.97961L3.807 3.96425L3.82266 3.9487L3.83839 3.93319L3.85401 3.91794L3.86969 3.90274L3.88568 3.88737L3.90183 3.87192L3.91773 3.85683L3.93375 3.8418L3.95013 3.82649L3.96637 3.81144L3.9826 3.79653L3.99901 3.78157L4.0155 3.76663L4.03218 3.75167L4.0488 3.73684L4.0599 3.72703C4.23463 3.57014 4.25466 3.31783 4.12964 3.13889C4.17224 3.18957 4.22761 3.23221 4.29543 3.26189C4.43633 3.32051 4.58906 3.30767 4.7171 3.22387L4.73548 3.21174L4.75478 3.19911L4.7744 3.18643L4.79412 3.17373L4.81366 3.16127L4.83341 3.14881L4.85346 3.13624L4.87318 3.12395L4.89301 3.11176L4.91328 3.09939L4.93337 3.08719L4.95342 3.07517L4.97376 3.06306L4.99394 3.05115L5.01434 3.03924L5.03487 3.02732C5.31059 2.86769 5.33433 2.48211 5.08311 2.2873C4.9369 2.17801 4.74818 2.16456 4.58912 2.25525L4.56582 2.26878L4.54248 2.2824L4.51914 2.2962L4.49604 2.30993L4.47284 2.32389L4.4498 2.33784L4.42712 2.3517L4.40409 2.36587L4.38116 2.38013L4.35866 2.39424L4.33602 2.40854L4.31331 2.42302L4.29096 2.43739L4.26863 2.45186L4.24612 2.46656L4.22511 2.4804C4.00366 2.62872 3.97067 2.9138 4.10536 3.10728C4.08096 3.07828 4.05236 3.05172 4.01954 3.02847C3.84861 2.91012 3.62407 2.92321 3.46788 3.06047L3.45678 3.07028L3.43761 3.08739L3.41861 3.10445L3.39957 3.12167L3.38062 3.13896L3.36166 3.15638L3.34289 3.17379L3.3244 3.19104L3.30566 3.20865L3.28704 3.22633L3.26879 3.24375L3.25051 3.26132L3.23211 3.27916L3.21381 3.29708L3.1958 3.31482L3.17786 3.33261L3.15981 3.35069L3.14193 3.36872L3.12425 3.38669L3.10652 3.40483L3.08902 3.4229L3.07158 3.44102L3.05412 3.45932L3.03674 3.47764L3.01943 3.49606L3.00226 3.51449L2.98524 3.53289L2.96828 3.55134L2.95134 3.56994L2.93447 3.58861L2.91778 3.60722L2.9012 3.62586L2.88459 3.64466L2.86816 3.66344L2.85171 3.68233L2.83537 3.7013L2.81929 3.72008L2.80321 3.73901L2.79928 3.74366C2.62833 3.94921 2.6788 4.23297 2.8645 4.37995C2.79145 4.33171 2.70225 4.30401 2.60312 4.30725C2.45115 4.31473 2.31773 4.39182 2.23847 4.52236L2.23159 4.53373L2.21919 4.55432L2.20684 4.5751L2.19469 4.5957L2.18258 4.61638L2.17054 4.63718L2.15854 4.65806L2.14669 4.6789L2.13491 4.69983L2.12324 4.72078L2.1117 4.74166L2.10025 4.76259L2.08891 4.78354L2.07761 4.8046L2.06645 4.82563L2.05528 4.84685L2.04427 4.86802L2.03343 4.88903L2.02255 4.91033L2.01194 4.93141L2.00132 4.9526L1.99074 4.97401L1.98024 4.99544L1.96995 5.01672L1.95979 5.03796L1.94968 5.05928L1.93961 5.08071L1.92965 5.10221L1.91985 5.12362L1.91002 5.14525L1.90045 5.16662L1.89087 5.1882L1.88137 5.20992L1.87211 5.23128L1.86288 5.25283L1.85364 5.27463L1.84454 5.29641L1.83565 5.31798L1.82684 5.33954L1.81806 5.3613L1.80937 5.38313L1.80764 5.38749C1.71046 5.64183 1.85358 5.88898 2.07101 5.96901C1.97616 5.9472 1.87205 5.95626 1.77234 6.00656C1.64687 6.07103 1.56237 6.18394 1.53554 6.32243L1.53315 6.33506L1.52898 6.35772L1.52497 6.38014L1.52111 6.40236L1.51729 6.4248L1.51358 6.44731L1.50998 6.46977L1.50647 6.49243L1.5031 6.5149L1.49987 6.53718L1.49669 6.55967L1.49362 6.58235L1.4907 6.60484L1.48787 6.62732L1.48515 6.64983L1.48254 6.67229L1.48004 6.69478L1.47765 6.7173L1.47537 6.73977L1.4732 6.76225L1.47111 6.78498L1.46916 6.80746L1.46732 6.82997L1.46561 6.85243L1.46398 6.87492L1.46247 6.89762L1.46109 6.92013L1.45979 6.94259L1.45861 6.9653L1.45758 6.98776L1.45663 7.00998L1.45578 7.03266L1.45508 7.05537L1.45446 7.07759L1.45396 7.10025L1.45359 7.12293L1.45332 7.14537L1.45317 7.16779L1.45312 7.19019L1.45319 7.21285L1.45339 7.23522L1.4537 7.25764L1.45411 7.28026L1.45464 7.30272L1.45464 7.30272Z" fill="#333333"/>
<path d="M27.8323 10.4881C27.305 12.456 26.1189 14.0509 24.6277 15.0385C23.1201 16.0369 21.301 16.4169 19.5281 15.9419C18.3214 15.6186 17.9822 15.1253 18.1624 14.4526C18.3035 13.926 18.8523 13.381 19.5267 12.7113C20.4886 11.7562 21.736 10.5174 22.1515 8.96653C22.5667 7.41727 22.1055 5.7198 21.7498 4.41087C21.5009 3.49472 21.2984 2.7491 21.4399 2.22091C21.6202 1.54782 22.1606 1.29006 23.3668 1.61325C25.1407 2.08855 26.5264 3.32719 27.3328 4.94549C28.1301 6.54584 28.3597 8.51989 27.8323 10.4881ZM24.1366 14.2967C25.4536 13.4246 26.5029 12.0094 26.9721 10.2582C27.4413 8.50723 27.24 6.75687 26.5353 5.3425C25.8395 3.94602 24.6517 2.87929 23.1369 2.47343C22.5606 2.31899 22.3324 2.33009 22.3001 2.45076C22.221 2.74577 22.3956 3.3882 22.61 4.17756C22.9929 5.58663 23.4893 7.41394 23.0117 9.19638C22.5345 10.9772 21.1902 12.3122 20.1536 13.3417C19.5739 13.9173 19.1021 14.3858 19.0226 14.6825C18.9901 14.8035 19.182 14.9274 19.7579 15.0817C21.2736 15.4878 22.836 15.1581 24.1366 14.2968L24.1366 14.2967Z" fill="#333333"/>
<path d="M25.1861 4.35582C24.9602 4.14398 24.5978 4.2167 24.4712 4.49968C24.3962 4.67416 24.4351 4.87093 24.5725 5.00255L24.5855 5.0149L24.5984 5.02736L24.6113 5.03991L24.624 5.05241L24.6368 5.06509L24.6495 5.07788L24.6621 5.09058L24.6746 5.10337L24.6873 5.11662L24.6999 5.12965L24.7121 5.14255L24.7244 5.15573L24.7368 5.16903L24.7491 5.18247L24.7613 5.19588L24.7734 5.20924L24.7855 5.22281L24.7976 5.23655L24.8095 5.2501L24.8214 5.26388L24.8333 5.2777L24.8451 5.29161L24.8568 5.30558L24.8685 5.31962L24.8802 5.33383L24.8917 5.3479L24.9032 5.36218L24.9146 5.37646L24.9261 5.39098L24.9375 5.40541L24.9487 5.41991L24.9599 5.4345L24.9711 5.44918L24.9822 5.46398L24.9933 5.47877L25.0043 5.49364L25.0152 5.50852L25.0261 5.52363L25.0368 5.53855L25.0476 5.55379L25.0584 5.56908L25.0689 5.5842L25.0795 5.5996L25.0867 5.61021C25.2214 5.80411 25.4616 5.84901 25.6478 5.75989C25.5963 5.79185 25.5498 5.83543 25.5118 5.891C25.427 6.0201 25.4132 6.17545 25.4742 6.31742L25.4745 6.31812L25.4823 6.33611L25.49 6.35436L25.4976 6.37226L25.5051 6.39043L25.5126 6.40872L25.52 6.42697L25.5273 6.44529L25.5345 6.46354L25.5418 6.48212L25.5489 6.50061L25.5559 6.51893L25.5629 6.53751L25.5698 6.5562L25.5767 6.57496L25.5835 6.59367L25.5901 6.61225L25.5968 6.63116L25.6033 6.65002L25.6098 6.66904L25.6162 6.68789L25.6226 6.70691L25.6288 6.72606L25.635 6.74497L25.6411 6.76422L25.6472 6.78351L25.6532 6.80286L25.6591 6.82201L25.665 6.84138L25.6707 6.86086L25.6764 6.88018L25.682 6.89955L25.6875 6.91916L25.6931 6.93882L25.6984 6.95832L25.7038 6.97808L25.709 6.99767L25.7141 7.01731L25.7193 7.0374L25.7243 7.05712L25.7292 7.07689L25.7324 7.08978C25.7739 7.25455 25.9004 7.37904 26.0658 7.41765C26.1162 7.42897 26.1655 7.43151 26.2128 7.42653C26.0009 7.47262 25.8444 7.66976 25.8638 7.90102L25.8641 7.9035L25.8658 7.92486L25.8675 7.94625L25.869 7.9677L25.8706 7.98918L25.872 8.0107L25.8733 8.032L25.8746 8.05356L25.8757 8.07537L25.8768 8.0968L25.8778 8.11843L25.8788 8.14015L25.8796 8.16184L25.8804 8.18358L25.8811 8.20512L25.8816 8.22695L25.8821 8.24878L25.8826 8.27065L25.8829 8.2923L25.8832 8.31421L25.8833 8.33617L25.8834 8.35793V8.37991L25.8833 8.40194L25.8832 8.42398L25.8829 8.44585L25.8826 8.46794L25.8822 8.49006L25.8817 8.51199L25.8811 8.53415L25.8804 8.55613L25.8796 8.57835L25.8788 8.60059L25.8779 8.62264L25.8769 8.64473L25.8757 8.66704L25.8745 8.68935L25.8733 8.7115L25.8724 8.72629C25.8596 8.96494 26.0278 9.15392 26.2389 9.19172C26.1761 9.18623 26.1103 9.19406 26.0447 9.21804C25.8985 9.27444 25.7956 9.3932 25.7634 9.54698L25.759 9.56843L25.7542 9.59118L25.7494 9.61393L25.7444 9.63674L25.7394 9.65938L25.7342 9.68235L25.729 9.70514L25.7237 9.7278L25.7182 9.75086L25.7127 9.77369L25.7072 9.79633L25.7015 9.81916L25.6957 9.84202L25.6898 9.86492L25.6838 9.88778L25.6777 9.9106C25.6068 10.1753 25.7898 10.4413 26.0626 10.4694C26.2803 10.4917 26.4822 10.3529 26.5388 10.1413L26.5458 10.1152L26.5526 10.089L26.5593 10.063L26.566 10.0369L26.5725 10.0107L26.579 9.98441L26.5853 9.95829L26.5914 9.93238L26.5976 9.90612L26.6035 9.87999L26.6094 9.85404L26.6152 9.82776L26.6209 9.8017L26.6265 9.77558L26.6319 9.74945L26.637 9.72466C26.6895 9.46425 26.5107 9.23855 26.2779 9.19691C26.3422 9.20257 26.4095 9.19428 26.4763 9.16932C26.6407 9.105 26.7515 8.95596 26.7623 8.77924L26.7632 8.76446L26.7647 8.7387L26.766 8.71315L26.7673 8.68764L26.7685 8.6619L26.7696 8.63622L26.7706 8.61073L26.7714 8.58526L26.7722 8.55959L26.7729 8.53419L26.7735 8.50857L26.774 8.48317L26.7743 8.45779L26.7746 8.43223L26.7748 8.40689L26.7749 8.38158V8.35626L26.7748 8.33077L26.7746 8.30552L26.7743 8.28027L26.7739 8.25485L26.7734 8.22965L26.7729 8.20449L26.7722 8.17932L26.7714 8.15396L26.7705 8.12885L26.7695 8.10377L26.7684 8.07872L26.7673 8.05367L26.766 8.02847L26.7647 8.00368L26.7632 7.97869L26.7616 7.95353L26.76 7.92863L26.7583 7.90374L26.7564 7.87886L26.7545 7.85401L26.7525 7.82917L26.7519 7.82323C26.7326 7.61227 26.5721 7.44625 26.362 7.41958C26.3273 7.41543 26.2932 7.41532 26.2601 7.41885C26.4933 7.36802 26.6598 7.13184 26.5979 6.87625L26.5948 6.86335L26.5889 6.83986L26.583 6.81641L26.5771 6.79342L26.571 6.77006L26.5647 6.74674L26.5585 6.72368L26.5521 6.70045L26.5457 6.67746L26.5391 6.65452L26.5325 6.63142L26.5257 6.60836L26.5189 6.58555L26.5121 6.56271L26.505 6.53979L26.498 6.51711L26.4909 6.49449L26.4836 6.4719L26.4763 6.44908L26.4688 6.4266L26.4613 6.40407L26.4537 6.3815L26.446 6.35914L26.4382 6.33677L26.4304 6.31453L26.4224 6.29204L26.4143 6.26982L26.4063 6.24773L26.398 6.22566L26.3898 6.20357L26.3813 6.18135L26.3728 6.15939L26.3643 6.13765L26.3556 6.11567L26.3469 6.09384L26.3381 6.07208L26.3292 6.05045L26.3202 6.02878L26.311 6.00698L26.3019 5.98561L26.2927 5.96411L26.2908 5.95986C26.1826 5.71478 25.9047 5.63388 25.6898 5.73692C25.7621 5.69212 25.8234 5.62517 25.8628 5.53701C25.9242 5.39372 25.9098 5.23534 25.8221 5.10615L25.8148 5.09554L25.8019 5.0768L25.7888 5.05792L25.7757 5.03938L25.7626 5.02089L25.7492 5.00224L25.736 4.98392L25.7225 4.9655L25.709 4.9472L25.6954 4.929L25.6818 4.91094L25.668 4.89284L25.6542 4.87488L25.6403 4.85691L25.6262 4.83906L25.6123 4.82142L25.5981 4.80367L25.5839 4.78606L25.5694 4.7684L25.5551 4.75107L25.5407 4.73365L25.5261 4.71634L25.5115 4.6991L25.4968 4.68195L25.482 4.66488L25.467 4.64777L25.4522 4.63097L25.4372 4.61414L25.422 4.59727L25.4068 4.58062L25.3916 4.56415L25.3763 4.54765L25.3609 4.53122L25.3452 4.51464L25.3297 4.4984L25.3143 4.48248L25.2985 4.46627L25.2826 4.45014L25.2667 4.43424L25.2508 4.4184L25.2347 4.40256L25.2186 4.3869L25.2024 4.37133L25.1861 4.35582V4.35582Z" fill="#333333"/>
<path d="M14.8667 13.9113C14.8499 13.9169 14.8329 13.9215 14.8159 13.9249C12.8562 14.4435 10.8923 14.2126 9.29891 13.4187C7.6807 12.6124 6.44217 11.2268 5.96677 9.45306L5.96619 9.45321C5.96402 9.44512 5.96214 9.437 5.96043 9.42889C5.64704 8.23945 5.90572 7.70496 6.57434 7.52583C7.10253 7.38432 7.84815 7.58686 8.7643 7.83579C10.0732 8.1914 11.7707 8.6526 13.32 8.23749C14.8708 7.82195 16.1096 6.57453 17.0647 5.61264C17.7344 4.93827 18.2794 4.38946 18.806 4.24837C19.4787 4.06809 19.972 4.40734 20.2953 5.61402C20.7703 7.38699 20.3903 9.20603 19.3919 10.7136C18.4086 12.1985 16.823 13.3806 14.8667 13.9113V13.9113ZM9.69592 12.6212C11.1049 13.3233 12.8474 13.5256 14.5917 13.0633C14.5982 13.0613 14.6046 13.0593 14.6112 13.0576L14.6113 13.0581L14.6116 13.0581L14.708 13.419L14.7265 13.4881L14.6116 13.0581C16.3628 12.5888 17.778 11.5396 18.6501 10.2226C19.5115 8.92195 19.8412 7.35955 19.4351 5.84387C19.2808 5.26795 19.1569 5.0761 19.0359 5.10854C18.7393 5.18802 18.2707 5.65978 17.6951 6.2395C16.6657 7.27613 15.3307 8.62051 13.5498 9.09767C11.7674 9.57527 9.94003 9.07878 8.53098 8.69597C7.74162 8.48149 7.09923 8.30695 6.80419 8.38601C6.68507 8.41792 6.67279 8.64058 6.82086 9.20031C6.82535 9.21417 6.82919 9.22835 6.83233 9.24278C7.24224 10.748 8.30557 11.9285 9.69592 12.6212L9.69592 12.6212Z" fill="#333333"/>
<path d="M18.8287 8.56156C18.8935 8.28525 18.6934 8.0232 18.4098 8.01194C18.1979 8.00528 18.0117 8.14747 17.9618 8.35352L17.9576 8.37093L17.9533 8.38839L17.9489 8.40559L17.9444 8.42306L17.9398 8.44054L17.9351 8.45771L17.9303 8.47531L17.9255 8.49244L17.9206 8.50964L17.9154 8.52721L17.9103 8.54452L17.9051 8.56169L17.8998 8.57898L17.8942 8.59655L17.8888 8.61362L17.8833 8.6306L17.8775 8.6481L17.8717 8.66534L17.8659 8.68254L17.8599 8.69976L17.8539 8.71694L17.8477 8.73411L17.8416 8.75103L17.8352 8.76847L17.8288 8.78551L17.8223 8.80253L17.8157 8.81989L17.809 8.83676L17.8023 8.85373L17.7954 8.87104L17.7884 8.88809L17.7815 8.90491L17.7744 8.92189L17.7671 8.93893L17.7598 8.956L17.7524 8.97294L17.7449 8.98985L17.7373 9.00685L17.7297 9.02383L17.722 9.04068L17.7142 9.05733L17.7063 9.07424L17.6982 9.09124L17.6926 9.10282C17.5932 9.31418 17.6722 9.54199 17.8384 9.65983C17.7811 9.63002 17.7154 9.61214 17.6433 9.61039C17.4969 9.608 17.361 9.67354 17.274 9.79183L17.2735 9.79248L17.2618 9.80812L17.25 9.82385L17.238 9.83963L17.2261 9.85518L17.2142 9.87056L17.202 9.88613L17.1898 9.90171L17.1775 9.91724L17.1651 9.93272L17.1527 9.94806L17.1403 9.96335L17.1277 9.97861L17.1149 9.99412L17.1022 10.0093L17.0894 10.0245L17.0765 10.0397L17.0635 10.0548L17.0505 10.0698L17.0373 10.085L17.0241 10.1001L17.0108 10.115L16.9974 10.1301L16.984 10.1449L16.9705 10.1598L16.9568 10.1747L16.9432 10.1894L16.9295 10.2042L16.9155 10.2191L16.9017 10.2336L16.8878 10.2482L16.8735 10.263L16.8595 10.2774L16.8452 10.292L16.8309 10.3065L16.8166 10.321L16.8023 10.3352L16.7877 10.3496L16.7731 10.364L16.7584 10.3782L16.7437 10.3924L16.7341 10.4016C16.5613 10.5689 16.5606 10.8176 16.6836 10.9865C16.6219 10.9179 16.5365 10.8668 16.4305 10.8472C16.3113 10.8275 16.1969 10.8519 16.0974 10.921L16.0952 10.9226L16.0776 10.9347L16.06 10.9468L16.0422 10.9589L16.0244 10.9709L16.0065 10.9829L15.9884 10.9949L15.9704 11.0067L15.9524 11.0184L15.9343 11.0302L15.9161 11.0419L15.8978 11.0535L15.8794 11.065L15.8609 11.0766L15.8425 11.0881L15.8241 11.0993L15.8053 11.1108L15.7866 11.1221L15.7679 11.1332L15.7491 11.1444L15.7302 11.1555L15.7114 11.1665L15.6924 11.1774L15.6732 11.1884L15.6542 11.1992L15.635 11.21L15.6158 11.2207L15.5965 11.2314L15.5771 11.242L15.5578 11.2525L15.5382 11.263L15.5187 11.2734L15.499 11.2838L15.4793 11.294L15.4597 11.3042L15.4399 11.3143L15.4201 11.3244L15.4001 11.3345L15.3868 11.3411C15.2127 11.4289 15.1162 11.6164 15.146 11.809C15.1504 11.8362 15.1571 11.8623 15.1657 11.8871C15.1305 11.8129 15.0731 11.7464 14.9925 11.6976C14.8783 11.6301 14.7479 11.6156 14.6217 11.657L14.6009 11.664L14.5788 11.6712L14.5568 11.6784L14.5345 11.6855L14.5121 11.6926L14.4899 11.6995L14.4676 11.7063L14.4452 11.7131L14.4226 11.7198L14.4001 11.7265L14.3776 11.733L14.3549 11.7395L14.3322 11.7459L14.3095 11.7522L14.2868 11.7585L14.2639 11.7646C13.9392 11.8516 13.8244 12.2541 14.0538 12.4999C14.1683 12.6198 14.3338 12.6688 14.4947 12.6258L14.5207 12.6187L14.5468 12.6116L14.5728 12.6043L14.5988 12.597L14.6246 12.5896L14.6505 12.5821L14.6763 12.5745L14.7019 12.5668L14.7277 12.559L14.7534 12.5512L14.779 12.5432L14.8044 12.5351L14.8297 12.527L14.8552 12.5188L14.8806 12.5104L14.9046 12.5025C15.1583 12.4165 15.2598 12.1502 15.1838 11.9312C15.2873 12.1498 15.5541 12.2522 15.786 12.1382L15.7993 12.1316L15.8222 12.1201L15.8451 12.1084L15.8679 12.0968L15.8907 12.0849L15.9135 12.073L15.9361 12.0611L15.9586 12.0491L15.9811 12.0371L16.0036 12.0248L16.0259 12.0126L16.0482 12.0003L16.0705 11.9879L16.0926 11.9755L16.1148 11.9629L16.1367 11.9504L16.1587 11.9377L16.1807 11.9248L16.2025 11.912L16.2242 11.8992L16.2459 11.8861L16.2675 11.8731L16.2889 11.8601L16.3106 11.8468L16.3321 11.8335L16.3532 11.8202L16.3745 11.8068L16.3957 11.7933L16.4168 11.7798L16.4379 11.7662L16.459 11.7524L16.4799 11.7386L16.5007 11.7249L16.5214 11.711L16.5422 11.697L16.5628 11.683L16.5835 11.6688L16.6039 11.6546L16.6087 11.6513C16.8304 11.4939 16.8485 11.2092 16.7123 11.022C16.774 11.0905 16.8586 11.1416 16.9623 11.1614C17.1053 11.1864 17.2468 11.145 17.3519 11.0444L17.3615 11.0352L17.3789 11.0184L17.3961 11.0016L17.4132 10.9848L17.4302 10.968L17.4474 10.9509L17.4644 10.9338L17.4811 10.9168L17.4978 10.8998L17.5147 10.8824L17.5311 10.8654L17.5476 10.8481L17.5642 10.8306L17.5804 10.8133L17.5967 10.7959L17.6129 10.7783L17.6289 10.7608L17.645 10.7431L17.661 10.7254L17.6767 10.7078L17.6925 10.6899L17.7081 10.6722L17.7237 10.6544L17.7392 10.6364L17.7547 10.6183L17.7699 10.6004L17.7852 10.5822L17.8004 10.564L17.8153 10.5461L17.8303 10.5278L17.8453 10.5094L17.8601 10.491L17.8748 10.4727L17.8894 10.4543L17.9038 10.4359L17.9183 10.4174L17.9327 10.3987L17.9471 10.38L17.9611 10.3614L17.9752 10.3428L17.9892 10.324L17.9919 10.3203C18.1493 10.1065 18.0808 9.82677 17.8896 9.69109C17.9664 9.73119 18.0572 9.7496 18.1549 9.73676C18.3051 9.71568 18.431 9.62381 18.497 9.48728L18.5025 9.4757L18.5122 9.45528L18.5219 9.43472L18.5316 9.41382L18.5411 9.39311L18.5504 9.37244L18.5597 9.35176L18.5689 9.3309L18.578 9.31005L18.5869 9.28926L18.5958 9.2684L18.6045 9.24747L18.6133 9.2263L18.6218 9.20527L18.6302 9.18449L18.6386 9.16334L18.6469 9.142L18.6549 9.12114L18.663 9.0999L18.671 9.0786L18.6787 9.05765L18.6865 9.03618L18.6941 9.01488L18.7016 8.99358L18.709 8.97223L18.7163 8.95087L18.7235 8.92946L18.7304 8.90831L18.7375 8.88659L18.7444 8.86488L18.7511 8.84366L18.7577 8.82212L18.7643 8.80043L18.7707 8.77886L18.7769 8.75748L18.7832 8.73571L18.7893 8.71384L18.7952 8.69239L18.8011 8.67048L18.8068 8.64882L18.8124 8.62715L18.818 8.60517L18.8234 8.58341L18.8287 8.56156V8.56156Z" fill="#333333"/>
<path d="M8.2286 15.8955C8.21493 15.8999 8.20098 15.9036 8.18677 15.9067C6.44505 16.3786 5.03754 17.4247 4.16877 18.7366C3.30741 20.0372 2.97771 21.5996 3.38382 23.1153C3.53814 23.6912 3.66199 23.883 3.78306 23.8506C4.07969 23.7711 4.54821 23.2993 5.12386 22.7196C6.15328 21.683 7.48831 20.3386 9.26912 19.8615C11.0516 19.3838 12.8789 19.8803 14.288 20.2632C15.0773 20.4776 15.7198 20.6522 16.0148 20.5731C16.1339 20.5412 16.1462 20.3186 15.9981 19.7588C15.9936 19.745 15.9897 19.7308 15.9866 19.7164C15.5767 18.2111 14.5134 17.0306 13.123 16.3379C11.7144 15.6361 9.97246 15.4337 8.2286 15.8955L8.2286 15.8955ZM8.00158 15.0346C9.96178 14.5155 11.9262 14.7463 13.52 15.5404C15.1382 16.3467 16.3768 17.7323 16.8522 19.5061L16.8527 19.5059C16.8549 19.514 16.8568 19.5221 16.8585 19.5303C17.1719 20.7197 16.9132 21.2542 16.2446 21.4333C15.7164 21.5748 14.9708 21.3723 14.0546 21.1233C12.7457 20.7677 11.0482 20.3065 9.49896 20.7216C7.94812 21.1372 6.70937 22.3846 5.75418 23.3465C5.08451 24.0209 4.53949 24.5697 4.01291 24.7108C3.3402 24.891 2.84694 24.5518 2.52364 23.3451C2.04861 21.5721 2.42859 19.7531 3.42701 18.2455C4.41457 16.7543 6.00933 15.5683 7.97716 15.041L7.97701 15.0404C7.98519 15.0382 7.99339 15.0363 8.00158 15.0346H8.00158Z" fill="#333333"/>
<path d="M3.98879 20.398C3.92404 20.6743 4.1241 20.9363 4.40767 20.9476C4.6196 20.9542 4.80577 20.8121 4.85568 20.606L4.85991 20.5886L4.86423 20.5711L4.86864 20.5537L4.87312 20.5365L4.87768 20.5192L4.88238 20.5018L4.88722 20.4842L4.89203 20.4671L4.89703 20.4497L4.90208 20.4322L4.90716 20.4152L4.91247 20.3977L4.91776 20.3805L4.9232 20.3632L4.92866 20.346L4.93428 20.3287L4.93998 20.3114L4.94568 20.2944L4.95163 20.277L4.9576 20.2598L4.96363 20.2426L4.96979 20.2253L4.976 20.2083L4.9823 20.1911L4.98872 20.174L4.9952 20.1569L5.0018 20.1398L5.00842 20.1228L5.01522 20.1057L5.02216 20.0885L5.02904 20.0715L5.03609 20.0545L5.04328 20.0373L5.05043 20.0205L5.05763 20.0037L5.06511 19.9866L5.07261 19.9696L5.08016 19.9527L5.08779 19.9358L5.09547 19.919L5.10334 19.9021L5.11124 19.8853L5.11922 19.8685L5.1248 19.8569C5.2266 19.6406 5.14237 19.4133 4.97499 19.2971C5.15978 19.3944 5.40475 19.3563 5.54361 19.1676L5.54402 19.167L5.55569 19.1514L5.56752 19.1357L5.57945 19.12L5.59132 19.1045L5.60341 19.0889L5.61556 19.0732L5.62769 19.0578L5.64 19.0423L5.65232 19.0269L5.6647 19.0116L5.67724 18.9962L5.68988 18.9808L5.70249 18.9655L5.7153 18.9502L5.72816 18.935L5.74103 18.9198L5.75398 18.9047L5.7671 18.8895L5.78028 18.8744L5.79333 18.8595L5.80669 18.8445L5.82001 18.8295L5.83343 18.8147L5.84712 18.7996L5.86068 18.7848L5.87441 18.7699L5.88812 18.7552L5.90181 18.7407L5.91578 18.7259L5.92984 18.7112L5.94386 18.6966L5.95797 18.6821L5.97236 18.6674L5.98659 18.653L6.00081 18.6387L6.01531 18.6242L6.02981 18.6099L6.04446 18.5955L6.05907 18.5813L6.07379 18.5671L6.0834 18.5579C6.25626 18.3906 6.25694 18.1418 6.13379 17.9728C6.19556 18.0416 6.28096 18.0927 6.38704 18.1123C6.50625 18.132 6.6206 18.1076 6.72013 18.0385L6.72219 18.037L6.7398 18.0249L6.75748 18.0127L6.77538 18.0006L6.79317 17.9885L6.81097 17.9767L6.82897 17.9647L6.84709 17.9528L6.86515 17.941L6.8832 17.9293L6.90143 17.9176L6.9197 17.906L6.93811 17.8944L6.95654 17.8829L6.97496 17.8715L6.99356 17.8601L7.01219 17.8487L7.03081 17.8375L7.04961 17.8263L7.06843 17.8151L7.08714 17.8041L7.1061 17.7931L7.12518 17.782L7.14416 17.7712L7.16331 17.7603L7.18259 17.7494L7.20161 17.7388L7.22096 17.7282L7.24044 17.7175L7.25974 17.707L7.27926 17.6965L7.29885 17.6861L7.3186 17.6757L7.33814 17.6655L7.35778 17.6553L7.37761 17.6452L7.39752 17.6351L7.41742 17.625L7.43067 17.6184C7.60478 17.5306 7.70126 17.3431 7.67151 17.1505C7.66708 17.1232 7.66041 17.0972 7.65172 17.0723C7.68698 17.1466 7.74434 17.2131 7.82498 17.262C7.93925 17.3294 8.06961 17.3439 8.19579 17.3025L8.21665 17.2955L8.23868 17.2883L8.26075 17.2812L8.28306 17.274L8.30541 17.267L8.32765 17.26L8.34994 17.2532L8.37229 17.2464L8.39489 17.2397L8.4174 17.233L8.4399 17.2265L8.46265 17.22L8.48527 17.2136L8.50797 17.2073L8.53074 17.201L8.55358 17.1949C8.87835 17.1079 8.99314 16.7054 8.76368 16.4596C8.64918 16.3397 8.48369 16.2907 8.32285 16.3337L8.29677 16.3408L8.27071 16.3479L8.24467 16.3552L8.21867 16.3625L8.1929 16.3699L8.16701 16.3774L8.14122 16.385L8.11559 16.3927L8.08986 16.4005L8.06415 16.4084L8.03853 16.4164L8.01311 16.4244L7.98777 16.4325L7.96228 16.4407L7.93688 16.4491L7.91294 16.457C7.65914 16.543 7.55766 16.8095 7.63374 17.0284C7.53035 16.8097 7.26347 16.7073 7.03147 16.8213L7.01822 16.8279L6.99525 16.8395L6.97239 16.8511L6.94962 16.8628L6.92674 16.8746L6.90395 16.8865L6.88145 16.8984L6.85892 16.9104L6.83645 16.9225L6.8139 16.9347L6.79166 16.9468L6.76937 16.9591L6.74693 16.9717L6.72488 16.984L6.70279 16.9966L6.6807 17.0092L6.65886 17.0218L6.63696 17.0346L6.61501 17.0475L6.59324 17.0604L6.57164 17.0733L6.54998 17.0864L6.52842 17.0995L6.50701 17.1127L6.48556 17.126L6.46419 17.1393L6.44298 17.1527L6.42177 17.1662L6.40064 17.1797L6.37947 17.1934L6.35848 17.2071L6.33764 17.2208L6.31682 17.2346L6.29596 17.2486L6.27523 17.2626L6.25474 17.2765L6.23416 17.2906L6.21366 17.3048L6.20879 17.3082C5.98712 17.4657 5.96902 17.7504 6.10524 17.9376C6.0436 17.8691 5.95893 17.818 5.85515 17.7981C5.71221 17.7731 5.57072 17.8145 5.46562 17.9151L5.45601 17.9243L5.43866 17.9411L5.42137 17.9579L5.40426 17.9747L5.38713 17.9916L5.37022 18.0085L5.35311 18.0257L5.33624 18.0428L5.31966 18.0597L5.30296 18.0769L5.28631 18.0942L5.26988 18.1115L5.2535 18.1287L5.237 18.1463L5.2207 18.1638L5.2046 18.1812L5.18845 18.1988L5.17262 18.2163L5.15665 18.234L5.14079 18.2517L5.12506 18.2694L5.10924 18.2875L5.09373 18.3053L5.07829 18.3231L5.06285 18.3411L5.04747 18.3592L5.03229 18.3773L5.0172 18.3954L5.00208 18.4136L4.98716 18.4317L4.97229 18.45L4.95746 18.4684L4.94272 18.4868L4.92813 18.5052L4.91355 18.5238L4.89916 18.5422L4.88483 18.5607L4.87051 18.5794L4.85638 18.598L4.84232 18.6167L4.82828 18.6355L4.82545 18.6393C4.72702 18.7731 4.71149 18.9488 4.78346 19.0982C4.81869 19.1706 4.86943 19.2277 4.92894 19.2691C4.83453 19.2192 4.72004 19.2024 4.59994 19.236C4.47607 19.272 4.37678 19.3558 4.32065 19.472L4.31507 19.4836L4.30525 19.5042L4.29555 19.5249L4.28601 19.5455L4.27644 19.5663L4.26706 19.5871L4.25775 19.6079L4.24863 19.6286L4.23961 19.6493L4.23053 19.6703L4.22162 19.6914L4.21294 19.7121L4.20427 19.7331L4.19567 19.7542L4.18729 19.7751L4.17896 19.7961L4.17067 19.8173L4.16253 19.8384L4.15448 19.8596L4.14656 19.8808L4.13873 19.9021L4.13098 19.9234L4.12342 19.9446L4.11589 19.9659L4.10852 19.9873L4.1013 20.0084L4.09402 20.0301L4.087 20.0514L4.08002 20.0729L4.07316 20.0944L4.0664 20.1159L4.05976 20.1375L4.05331 20.1589L4.04681 20.1807L4.04054 20.2023L4.03435 20.2238L4.02823 20.2457L4.02233 20.2671L4.01645 20.2888L4.01066 20.3107L4.005 20.3326L3.9995 20.3544L3.99408 20.3761L3.98879 20.398H3.98879Z" fill="#333333"/>
<path d="M19.2847 28.2355C19.2679 28.2411 19.2509 28.2457 19.2338 28.2492C17.2741 28.7677 15.3103 28.5368 13.7169 27.7429C12.0987 26.9366 10.8601 25.551 10.3847 23.7773L10.3842 23.7774C10.382 23.7693 10.3801 23.7612 10.3784 23.7531C10.065 22.5637 10.3237 22.0292 10.9923 21.85C11.5205 21.7085 12.2661 21.9111 13.1823 22.16C14.4912 22.5156 16.1887 22.9768 17.7379 22.5617C19.2888 22.1462 20.5275 20.8987 21.4827 19.9369C22.1524 19.2625 22.6974 18.7137 23.224 18.5726C23.8966 18.3923 24.3899 18.7315 24.7132 19.9379L24.7137 19.9378C24.716 19.9462 24.718 19.9546 24.7197 19.963C25.1846 21.7281 24.8037 23.5372 23.8099 25.0378C22.8265 26.5227 21.241 27.7049 19.2847 28.2355L19.2847 28.2355ZM14.1139 26.9454C15.4944 27.6333 17.1951 27.8414 18.904 27.4147C19.5454 27.2544 18.5451 27.5176 19.1008 27.3628C20.8191 26.8845 22.2078 25.8459 23.0681 24.5468C23.9256 23.2521 24.2561 21.698 23.8584 20.1888C23.854 20.1748 23.8502 20.1606 23.8471 20.1461C23.6956 19.5873 23.5733 19.4007 23.4538 19.4327C23.1572 19.5122 22.6887 19.984 22.113 20.5637C21.0836 21.6003 19.7486 22.9447 17.9678 23.4219C16.1853 23.8995 14.358 23.403 12.949 23.0202C12.1596 22.8057 11.5172 22.6312 11.2222 22.7102C11.1031 22.7421 11.0907 22.9648 11.2388 23.5245C11.2433 23.5384 11.2472 23.5526 11.2503 23.567C11.6602 25.0722 12.7235 26.2527 14.1139 26.9454V26.9454Z" fill="#333333"/>
<path d="M23.2467 22.8858C23.3114 22.6095 23.1114 22.3474 22.8278 22.3362C22.6159 22.3295 22.4297 22.4717 22.3798 22.6777L22.3756 22.6952L22.3712 22.7126L22.3668 22.73L22.3624 22.7473L22.3578 22.7645L22.3531 22.7819L22.3483 22.7995L22.3435 22.8167L22.3385 22.8341L22.3334 22.8515L22.3283 22.8685L22.323 22.886L22.3177 22.9033L22.3123 22.9206L22.3068 22.9378L22.3012 22.955L22.2955 22.9723L22.2898 22.9893L22.2839 23.0068L22.2779 23.024L22.2719 23.0412L22.2657 23.0584L22.2595 23.0755L22.2532 23.0926L22.2468 23.1097L22.2403 23.1268L22.2337 23.1439L22.2271 23.1609L22.2203 23.178L22.2133 23.1953L22.2064 23.2122L22.1994 23.2292L22.1922 23.2464L22.1851 23.2633L22.1779 23.28L22.1704 23.2972L22.1629 23.3142L22.1554 23.3309L22.1477 23.348L22.1399 23.3649L22.1321 23.3817L22.1242 23.3985L22.1163 23.4153L22.1107 23.4268C22.0089 23.6432 22.0931 23.8704 22.2604 23.9866C22.0756 23.8893 21.8307 23.9275 21.6919 24.1162L21.6914 24.1167L21.6797 24.1325L21.6679 24.1482L21.6561 24.1636L21.6441 24.1793L21.632 24.195L21.6199 24.2105L21.6078 24.2259L21.5955 24.2415L21.5833 24.2567L21.5708 24.2722L21.5581 24.2877L21.5456 24.303L21.533 24.3182L21.5203 24.3334L21.5073 24.3488L21.4943 24.3641L21.4815 24.379L21.4684 24.3942L21.4553 24.4092L21.4421 24.4242L21.4288 24.4393L21.4155 24.4542L21.4019 24.4692L21.3884 24.4841L21.3748 24.4989L21.3612 24.5137L21.3475 24.5284L21.3335 24.5432L21.3196 24.558L21.3056 24.5725L21.2916 24.5871L21.2775 24.6016L21.2632 24.6162L21.2489 24.6308L21.2347 24.6451L21.2202 24.6595L21.2056 24.674L21.1911 24.6881L21.1765 24.7024L21.1616 24.7168L21.152 24.7259C20.9869 24.8858 20.9719 25.1366 21.1032 25.313C20.9615 25.1558 20.7138 25.1074 20.5154 25.2452L20.5132 25.2468L20.4957 25.2589L20.478 25.271L20.4601 25.2832L20.4424 25.2951L20.4245 25.3071L20.4064 25.3191L20.3885 25.3309L20.3704 25.3427L20.3523 25.3544L20.334 25.3661L20.3158 25.3777L20.2973 25.3894L20.2788 25.4009L20.2606 25.4122L20.2419 25.4237L20.2232 25.4351L20.2048 25.4462L20.1858 25.4575L20.167 25.4686L20.1483 25.4797L20.1293 25.4907L20.1104 25.5017L20.0913 25.5126L20.0722 25.5234L20.053 25.5343L20.0338 25.5449L20.0144 25.5556L19.995 25.5662L19.9757 25.5767L19.9562 25.5872L19.9366 25.5976L19.917 25.608L19.8973 25.6183L19.8777 25.6284L19.8579 25.6386L19.8379 25.6487L19.8181 25.6587L19.8048 25.6653C19.6307 25.7531 19.5342 25.9406 19.564 26.1333C19.5684 26.1605 19.5751 26.1866 19.5838 26.2114C19.5485 26.1371 19.4911 26.0706 19.4105 26.0218C19.2962 25.9543 19.1659 25.9399 19.0397 25.9813L19.0188 25.9882L18.9968 25.9954L18.9747 26.0026L18.9524 26.0097L18.9301 26.0168L18.9078 26.0237L18.8855 26.0306L18.8632 26.0373L18.8406 26.0441L18.8181 26.0507L18.7956 26.0572L18.7728 26.0638L18.7502 26.0701L18.7275 26.0765L18.7047 26.0827L18.6819 26.0889C18.3571 26.1758 18.2423 26.5783 18.4718 26.8241C18.5863 26.944 18.7518 26.9931 18.9126 26.95L18.9387 26.943L18.9648 26.9358L18.9908 26.9286L19.0168 26.9212L19.0426 26.9138L19.0685 26.9063L19.0943 26.8987L19.1199 26.8911L19.1456 26.8833L19.1713 26.8754L19.197 26.8674L19.2224 26.8594L19.2477 26.8513L19.2732 26.843L19.2986 26.8347L19.3225 26.8267C19.5763 26.7407 19.6778 26.4743 19.6017 26.2553C19.7051 26.474 19.972 26.5765 20.204 26.4624L20.2173 26.4558L20.2403 26.4442L20.2631 26.4327L20.2859 26.421L20.3087 26.4092L20.3314 26.3973L20.354 26.3854L20.3766 26.3734L20.399 26.3613L20.4216 26.3491L20.4439 26.3368L20.4662 26.3246L20.4884 26.3121L20.5106 26.2997L20.5327 26.2872L20.5547 26.2746L20.5767 26.2619L20.5985 26.2492L20.6205 26.2363L20.6422 26.2233L20.6638 26.2105L20.6856 26.1973L20.707 26.1842L20.7284 26.1711L20.75 26.1577L20.7714 26.1443L20.7925 26.131L20.8137 26.1176L20.8348 26.104L20.8559 26.0904L20.8769 26.0767L20.8979 26.0629L20.9186 26.0491L20.9394 26.0352L20.9603 26.0212L20.9807 26.0072L21.0013 25.9931L21.0219 25.9789L21.0267 25.9755C21.1511 25.8871 21.2215 25.7472 21.2165 25.5945C21.2126 25.498 21.1802 25.4133 21.1294 25.345C21.1409 25.3578 21.1533 25.3702 21.1665 25.3819C21.3413 25.5351 21.6022 25.5292 21.77 25.3685L21.7796 25.3593L21.7967 25.3428L21.814 25.326L21.8313 25.309L21.8483 25.2921L21.8653 25.2752L21.8824 25.2581L21.8991 25.2411L21.9158 25.224L21.9325 25.2068L21.9492 25.1895L21.9657 25.1722L21.9821 25.1549L21.9984 25.1376L22.0147 25.1201L22.0309 25.1025L22.047 25.0849L22.063 25.0673L22.0788 25.0498L22.0947 25.032L22.1104 25.0143L22.1261 24.9964L22.1418 24.9785L22.1572 24.9606L22.1727 24.9425L22.188 24.9245L22.2031 24.9066L22.2183 24.8884L22.2334 24.8702L22.2484 24.8518L22.2632 24.8337L22.2779 24.8155L22.2928 24.7969L22.3073 24.7786L22.3219 24.76L22.3364 24.7414L22.3506 24.723L22.3649 24.7045L22.3792 24.6856L22.3933 24.6669L22.4072 24.6482L22.41 24.6444C22.5084 24.5106 22.524 24.335 22.452 24.1856C22.4168 24.1132 22.3661 24.0561 22.3066 24.0147C22.401 24.0645 22.5155 24.0814 22.6355 24.0478C22.7594 24.0118 22.8587 23.9279 22.9148 23.8117L22.9204 23.8001L22.9302 23.7795L22.9399 23.7588L22.9496 23.7381L22.959 23.7174L22.9683 23.6969L22.9777 23.6759L22.9869 23.6551L22.9959 23.6345L23.005 23.6134L23.0139 23.5924L23.0225 23.5716L23.0312 23.5506L23.0398 23.5295L23.0482 23.5086L23.0565 23.4876L23.0648 23.4664L23.073 23.4453L23.081 23.4241L23.0889 23.4029L23.0968 23.3817L23.1045 23.3603L23.1121 23.3391L23.1196 23.3178L23.127 23.2965L23.1342 23.2753L23.1415 23.2537L23.1485 23.2323L23.1555 23.2109L23.1623 23.1893L23.1691 23.1678L23.1757 23.1462L23.1822 23.1249L23.1887 23.103L23.1949 23.0815L23.2011 23.0599L23.2073 23.0381L23.2132 23.0166L23.219 22.9949L23.2248 22.973L23.2305 22.9512L23.236 22.9294L23.2414 22.9076L23.2467 22.8858L23.2467 22.8858Z" fill="#333333"/>
<path fill-rule="evenodd" clip-rule="evenodd" d="M3.15166 9.25057C3.8769 7.9842 4.81745 6.3419 6.41808 5.41779C8.01491 4.49586 9.90774 4.50246 11.3673 4.50756C12.185 4.51041 12.8505 4.51273 13.1163 4.35929C13.2235 4.29738 13.179 4.08021 12.8937 3.58166C12.8883 3.57348 12.883 3.5651 12.878 3.55646L12.8789 3.55593C12.094 2.19672 10.7566 1.3251 9.229 1.01472C7.68838 0.701708 5.9554 0.956128 4.39151 1.85131L4.38903 1.85291C4.37367 1.86305 4.35764 1.87226 4.34103 1.88047C2.78422 2.78747 1.69769 4.16046 1.19878 5.65025C0.706264 7.12101 0.788219 8.70535 1.55983 10.0586C1.57065 10.0748 1.58043 10.0919 1.5891 10.1095C1.87835 10.6057 2.04421 10.7528 2.15144 10.6909C2.4134 10.5397 2.74467 9.96125 3.15165 9.25058L3.15166 9.25057ZM2.34681 7.27741C2.35018 7.42511 2.28418 7.55853 2.16655 7.64735C1.87548 7.8612 1.46663 7.66141 1.45562 7.30084L1.45509 7.27837L1.45467 7.25576L1.45437 7.23334L1.45417 7.21096L1.4541 7.1883L1.45415 7.16591L1.4543 7.14349L1.45456 7.12105L1.45494 7.09836L1.45544 7.0757L1.45606 7.05348L1.45676 7.03078L1.45761 7.00809L1.45856 6.98587L1.45959 6.96341L1.46077 6.94071L1.46207 6.91824L1.46345 6.89574L1.46496 6.87303L1.46658 6.85055L1.4683 6.82808L1.47014 6.80558L1.47209 6.78309L1.47417 6.76037L1.47635 6.73788L1.47863 6.71542L1.48102 6.69289L1.48352 6.6704L1.48613 6.64794L1.48885 6.62543L1.49168 6.60295L1.4946 6.58047L1.49767 6.55778L1.50085 6.5353L1.50407 6.51301L1.50745 6.49055L1.51096 6.46789L1.51456 6.44542L1.51827 6.42292L1.52208 6.40048L1.52595 6.37825L1.52996 6.35584L1.53413 6.33318L1.53652 6.32054C1.56335 6.18205 1.64785 6.06915 1.77332 6.00468C1.87302 5.95438 1.97713 5.94532 2.07199 5.96712C1.85455 5.8871 1.71144 5.63994 1.80862 5.38561L1.81035 5.38124L1.81904 5.35942L1.82781 5.33765L1.83663 5.31609L1.84552 5.29453L1.85462 5.27274L1.86385 5.25094L1.87309 5.2294L1.88235 5.20803L1.89185 5.18631L1.90143 5.16473L1.911 5.14336L1.92082 5.12173L1.93063 5.10032L1.94059 5.07883L1.95066 5.05739L1.96077 5.03607L1.97093 5.01484L1.98121 4.99356L1.99172 4.97213L2.0023 4.95072L2.01291 4.92953L2.02353 4.90844L2.03441 4.88714L2.04525 4.86613L2.05626 4.84496L2.06743 4.82375L2.07859 4.80271L2.08989 4.78165L2.10123 4.7607L2.11268 4.73978L2.12422 4.71889L2.13589 4.69794L2.14767 4.67702L2.15951 4.65618L2.17151 4.63529L2.18356 4.6145L2.19567 4.59381L2.20782 4.57321L2.22017 4.55244L2.23256 4.53184L2.23945 4.52048C2.31871 4.38993 2.45213 4.31285 2.6041 4.30537C2.70323 4.30212 2.79243 4.32983 2.86547 4.37806C2.67978 4.23109 2.62931 3.94732 2.80026 3.74177L2.80418 3.73712L2.82026 3.71819L2.83634 3.69942L2.85269 3.68044L2.86914 3.66155L2.88557 3.64278L2.90217 3.62398L2.91876 3.60533L2.93545 3.58673L2.95232 3.56806L2.96926 3.54946L2.98621 3.53101L3.00324 3.5126L3.02041 3.49418L3.03772 3.47575L3.05509 3.45743L3.07255 3.43914L3.08999 3.42102L3.1075 3.40294L3.12522 3.3848L3.14291 3.36684L3.16078 3.3488L3.17884 3.33073L3.19678 3.31294L3.21479 3.29519L3.23309 3.27727L3.25149 3.25943L3.26976 3.24186L3.28801 3.22445L3.30664 3.20677L3.32537 3.18915L3.34387 3.17191L3.36264 3.15449L3.3816 3.13707L3.40055 3.11979L3.41959 3.10257L3.43859 3.0855L3.45776 3.06839L3.46886 3.05858C3.62505 2.92133 3.84959 2.90823 4.02052 3.02658C4.05334 3.04983 4.08194 3.0764 4.10633 3.1054C3.97164 2.91192 4.00464 2.62683 4.22608 2.47852L4.2471 2.46468L4.26961 2.44998L4.29194 2.4355L4.31429 2.42113L4.337 2.40665L4.35963 2.39235L4.38214 2.37825L4.40506 2.36399L4.4281 2.34982L4.45078 2.33595L4.47381 2.322L4.49702 2.30805L4.52012 2.29432L4.54346 2.28052L4.5668 2.2669L4.5901 2.25336C4.74916 2.16268 4.93788 2.17612 5.08409 2.28541C5.3353 2.48023 5.31157 2.8658 5.03585 3.02544L5.01532 3.03735L4.99491 3.04926L4.97473 3.06117L4.9544 3.07328L4.93435 3.0853L4.91425 3.0975L4.89398 3.10987L4.87415 3.12207L4.85443 3.13435L4.83438 3.14692L4.81464 3.15938L4.79509 3.17184L4.77537 3.18454L4.75576 3.19722L4.73646 3.20986L4.71808 3.22199C4.59003 3.30579 4.43731 3.31862 4.29641 3.26C4.22858 3.23032 4.17322 3.18768 4.13062 3.13701C4.25563 3.31594 4.23561 3.56826 4.06088 3.72515L4.04978 3.73495L4.03315 3.74978L4.01648 3.76474L3.99999 3.77968L3.98358 3.79464L3.96734 3.80956L3.95111 3.82461L3.93472 3.83992L3.91871 3.85494L3.90281 3.87004L3.88666 3.88548L3.87067 3.90086L3.85498 3.91606L3.83937 3.9313L3.82364 3.94681L3.80798 3.96237L3.7926 3.97772L3.77722 3.99325L3.76178 4.00894L3.74655 4.02453L3.73129 4.04029L3.71608 4.05608L3.70108 4.07179L3.68616 4.08756L3.67131 4.10335L3.65655 4.11919L3.64176 4.13518L3.62704 4.15122L3.61252 4.16714L3.59807 4.18314L3.58361 4.19928L3.56922 4.21543L3.55498 4.23155L3.54075 4.24778L3.52671 4.26395L3.51273 4.28016L3.49867 4.29661L3.48474 4.313L3.48318 4.31484C3.38364 4.43196 3.23956 4.48825 3.08703 4.47074C3.01475 4.46118 2.95048 4.43619 2.89594 4.40015C3.06178 4.53114 3.12707 4.7745 3.00266 4.98123L2.99578 4.99259L2.98518 5.0102L2.97476 5.02769L2.96432 5.04539L2.95397 5.06309L2.94377 5.08069L2.93365 5.09832L2.92361 5.116L2.91367 5.13364L2.9038 5.15134L2.89397 5.16916L2.88423 5.18697L2.87456 5.2048L2.86501 5.22257L2.85552 5.24045L2.84619 5.25815L2.83694 5.27599L2.82763 5.29402L2.8186 5.31176L2.80947 5.32982L2.80048 5.34781L2.79166 5.36562L2.78295 5.38345L2.77424 5.40149L2.76553 5.4196L2.757 5.43764L2.74855 5.45565L2.74022 5.47363L2.7319 5.49171L2.72379 5.50965L2.71563 5.52786L2.70762 5.54589L2.69974 5.56388L2.6918 5.58222L2.68402 5.60038L2.6764 5.61837L2.66888 5.63638L2.66131 5.6547L2.65385 5.67297L2.64653 5.69113L2.63929 5.70928L2.63905 5.70991C2.59502 5.82181 2.51236 5.9071 2.40277 5.95602C2.3077 5.99675 2.21236 6.00283 2.12578 5.98307C2.31737 6.05344 2.45594 6.25266 2.41288 6.48418L2.41049 6.49682L2.40716 6.51492L2.40389 6.53325L2.40064 6.55179L2.39753 6.57011L2.39452 6.58836L2.39158 6.6067L2.38877 6.6248L2.38605 6.64309L2.38335 6.66156L2.38079 6.67988L2.37833 6.69795L2.37594 6.71623L2.37364 6.7345L2.37144 6.75275L2.36931 6.77105L2.3673 6.78927L2.36534 6.8075L2.3635 6.8258L2.36172 6.84403L2.36008 6.86202L2.35852 6.88025L2.35703 6.89845L2.35563 6.9167L2.35431 6.93489L2.3531 6.95286L2.35199 6.97102L2.35095 6.98923L2.35003 7.00715L2.34918 7.02531L2.34841 7.04372L2.34773 7.06162L2.34716 7.07949L2.34668 7.09786L2.34626 7.11573L2.34597 7.13359L2.34576 7.15169L2.34565 7.16976L2.3456 7.18782L2.34567 7.20565L2.34582 7.22368L2.34604 7.24171L2.34637 7.25951L2.34681 7.27741L2.34681 7.27741Z" fill="#FFD3B3"/>
<path fill-rule="evenodd" clip-rule="evenodd" d="M6.80671 8.38443C6.68759 8.41635 6.67531 8.63901 6.82338 9.19874C6.82788 9.21261 6.83172 9.22678 6.83485 9.24121C7.24476 10.7465 8.30809 11.9269 9.69844 12.6197C11.1075 13.3217 12.8499 13.524 14.5943 13.0617L14.6137 13.056L14.6139 13.0566L14.6141 13.0565C16.3654 12.5873 17.7805 11.538 18.6527 10.221C19.514 8.92039 19.8437 7.35798 19.4376 5.84231C19.2833 5.26639 19.1594 5.07453 19.0384 5.10698C18.7418 5.18645 18.2733 5.65822 17.6976 6.23793C16.6682 7.27456 15.3332 8.61894 13.5523 9.0961C11.7699 9.57371 9.94255 9.07722 8.5335 8.6944C7.74414 8.47993 7.10175 8.30538 6.80671 8.38444L6.80671 8.38443ZM17.9653 8.35241C18.0152 8.14636 18.2014 8.00417 18.4133 8.01083C18.6969 8.02209 18.897 8.28414 18.8322 8.56045L18.8269 8.5823L18.8215 8.60406L18.8159 8.62604L18.8103 8.64772L18.8046 8.66937L18.7987 8.69128L18.7928 8.71274L18.7866 8.73461L18.7804 8.75637L18.7742 8.77776L18.7678 8.79932L18.7612 8.82101L18.7545 8.84256L18.7479 8.86377L18.741 8.88549L18.7339 8.9072L18.727 8.92835L18.7198 8.94976L18.7125 8.97113L18.7051 8.99247L18.6976 9.01377L18.69 9.03507L18.6822 9.05655L18.6745 9.0775L18.6665 9.0988L18.6584 9.12003L18.6504 9.14089L18.6421 9.16224L18.6337 9.18338L18.6253 9.20416L18.6168 9.22519L18.608 9.24636L18.5992 9.26729L18.5904 9.28815L18.5814 9.30895L18.5724 9.32979L18.5632 9.35065L18.5539 9.37134L18.5446 9.392L18.5351 9.41271L18.5254 9.43361L18.5157 9.45417L18.506 9.47459L18.5004 9.48617C18.4345 9.6227 18.3085 9.71458 18.1584 9.73566C18.0606 9.74849 17.9699 9.73009 17.8931 9.68999C18.0843 9.82566 18.1528 10.1054 17.9954 10.3192L17.9927 10.3229L17.9787 10.3417L17.9646 10.3603L17.9506 10.3789L17.9362 10.3976L17.9218 10.4163L17.9073 10.4348L17.8928 10.4532L17.8783 10.4716L17.8636 10.4899L17.8488 10.5083L17.8338 10.5267L17.8188 10.545L17.8039 10.5629L17.7887 10.5811L17.7734 10.5993L17.7582 10.6172L17.7427 10.6353L17.7272 10.6533L17.7116 10.6711L17.696 10.6888L17.6802 10.7067L17.6644 10.7243L17.6485 10.742L17.6324 10.7597L17.6164 10.7772L17.6002 10.7947L17.5839 10.8122L17.5677 10.8295L17.5511 10.847L17.5346 10.8643L17.5181 10.8813L17.5013 10.8987L17.4846 10.9157L17.4679 10.9327L17.4509 10.9498L17.4337 10.9669L17.4167 10.9837L17.3996 11.0005L17.3823 11.0173L17.365 11.0341L17.3554 11.0433C17.2503 11.1439 17.1088 11.1853 16.9658 11.1603C16.8621 11.1404 16.7775 11.0894 16.7158 11.0209C16.8519 11.2081 16.8338 11.4928 16.6122 11.6502L16.6074 11.6535L16.5869 11.6677L16.5663 11.6819L16.5457 11.6959L16.5249 11.7099L16.5042 11.7238L16.4834 11.7375L16.4625 11.7513L16.4414 11.7651L16.4203 11.7787L16.3992 11.7922L16.378 11.8057L16.3567 11.8191L16.3355 11.8323L16.3141 11.8457L16.2924 11.859L16.271 11.872L16.2494 11.885L16.2277 11.898L16.206 11.9109L16.1842 11.9237L16.1621 11.9366L16.1402 11.9492L16.1183 11.9618L16.0961 11.9744L16.074 11.9868L16.0517 11.9992L16.0294 12.0115L16.0071 12.0237L15.9845 12.036L15.9621 12.048L15.9396 12.06L15.917 12.0719L15.8942 12.0838L15.8714 12.0956L15.8486 12.1073L15.8257 12.119L15.8028 12.1305L15.7895 12.1371C15.5575 12.2511 15.2907 12.1487 15.1873 11.9301C15.2633 12.149 15.1618 12.4154 14.9081 12.5014L14.8841 12.5093L14.8587 12.5177L14.8332 12.5259L14.8079 12.534L14.7825 12.5421L14.7568 12.55L14.7311 12.5579L14.7054 12.5657L14.6798 12.5734L14.654 12.581L14.6281 12.5885L14.6023 12.5959L14.5763 12.6032L14.5503 12.6105L14.5242 12.6176L14.4981 12.6247C14.3373 12.6677 14.1718 12.6187 14.0573 12.4988C13.8279 12.253 13.9427 11.8505 14.2674 11.7635L14.2903 11.7574L14.313 11.7511L14.3357 11.7448L14.3583 11.7384L14.3811 11.7319L14.4036 11.7254L14.4261 11.7187L14.4487 11.712L14.4711 11.7052L14.4933 11.6984L14.5156 11.6914L14.5379 11.6844L14.5603 11.6773L14.5823 11.6701L14.6043 11.6629L14.6252 11.6559C14.7514 11.6145 14.8818 11.629 14.996 11.6964C15.0766 11.7453 15.134 11.8117 15.1692 11.886C15.1606 11.8612 15.1539 11.8351 15.1495 11.8079C15.1197 11.6153 15.2162 11.4277 15.3903 11.34L15.4036 11.3334L15.4236 11.3233L15.4434 11.3132L15.4632 11.3031L15.4828 11.2929L15.5025 11.2827L15.5221 11.2723L15.5417 11.2619L15.5613 11.2514L15.5806 11.2409L15.6 11.2303L15.6193 11.2196L15.6385 11.2089L15.6577 11.1981L15.6767 11.1873L15.6959 11.1763L15.7149 11.1654L15.7337 11.1544L15.7526 11.1433L15.7714 11.1321L15.7901 11.1209L15.8088 11.1096L15.8276 11.0982L15.846 11.0869L15.8644 11.0755L15.8829 11.0639L15.9013 11.0524L15.9195 11.0408L15.9378 11.0291L15.9559 11.0173L15.9739 11.0056L15.9919 10.9938L16.01 10.9818L16.0279 10.9698L16.0457 10.9578L16.0635 10.9457L16.0811 10.9336L16.0987 10.9215L16.1009 10.9199C16.2004 10.8508 16.3148 10.8264 16.434 10.8461C16.54 10.8657 16.6254 10.9168 16.6871 10.9854C16.5641 10.8165 16.5648 10.5678 16.7376 10.4005L16.7472 10.3913L16.7619 10.3771L16.7765 10.3629L16.7912 10.3485L16.8058 10.3341L16.8201 10.3198L16.8344 10.3054L16.8487 10.2909L16.863 10.2763L16.877 10.2619L16.8912 10.2471L16.9052 10.2325L16.9189 10.218L16.933 10.2031L16.9467 10.1883L16.9603 10.1736L16.974 10.1587L16.9875 10.1438L17.0009 10.129L17.0143 10.1139L17.0275 10.099L17.0408 10.0839L17.054 10.0687L17.067 10.0537L17.08 10.0386L17.0929 10.0234L17.1057 10.0082L17.1184 9.99302L17.1312 9.97751L17.1438 9.96224L17.1562 9.94695L17.1686 9.93162L17.181 9.91613L17.1933 9.9006L17.2055 9.88502L17.2177 9.86945L17.2296 9.85407L17.2415 9.83852L17.2534 9.82275L17.2653 9.80702L17.277 9.79138L17.2774 9.79072C17.3645 9.67244 17.5004 9.60689 17.6468 9.60928C17.7188 9.61104 17.7846 9.62891 17.8419 9.65873C17.6757 9.54088 17.5967 9.31307 17.6961 9.10171L17.7017 9.09013L17.7097 9.07313L17.7177 9.05622L17.7254 9.03957L17.7331 9.02272L17.7408 9.00574L17.7484 8.98874L17.7559 8.97183L17.7633 8.95489L17.7706 8.93783L17.7779 8.92078L17.785 8.9038L17.7919 8.88698L17.7988 8.86993L17.8058 8.85263L17.8125 8.83565L17.8191 8.81878L17.8258 8.80143L17.8323 8.7844L17.8386 8.76736L17.8451 8.74992L17.8512 8.73301L17.8574 8.71583L17.8634 8.69865L17.8694 8.68143L17.8752 8.66424L17.881 8.64699L17.8868 8.62949L17.8923 8.61251L17.8977 8.59544L17.9032 8.57787L17.9086 8.56059L17.9138 8.54341L17.9189 8.5261L17.924 8.50853L17.929 8.49133L17.9338 8.4742L17.9386 8.45661L17.9433 8.43943L17.9479 8.42195L17.9524 8.40449L17.9568 8.38729L17.9611 8.36983L17.9653 8.35241V8.35241Z" fill="#FFD3B3"/>
<path fill-rule="evenodd" clip-rule="evenodd" d="M23.0082 9.19589C22.5311 10.9767 21.1867 12.3118 20.1501 13.3412C19.5704 13.9168 19.0986 14.3853 19.0191 14.682C18.9866 14.8031 19.1785 14.9269 19.7544 15.0812C21.2701 15.4873 22.8325 15.1576 24.1331 14.2963C25.4501 13.4241 26.4994 12.0089 26.9686 10.2577C27.4378 8.50674 27.2365 6.75638 26.5318 5.34201C25.836 3.94553 24.6482 2.8788 23.1334 2.47294C22.5571 2.31851 22.3289 2.32961 22.2966 2.45028C22.2175 2.74528 22.3921 3.38771 22.6065 4.17707C22.9894 5.58614 23.4858 7.41345 23.0082 9.1959V9.19589ZM24.9011 5.36254L24.8896 5.34826L24.8781 5.3342L24.8664 5.31998L24.8548 5.30594L24.843 5.29197L24.8312 5.27806L24.8193 5.26424L24.8074 5.25047L24.7956 5.23691L24.7834 5.22318L24.7713 5.2096L24.7593 5.19624L24.7471 5.18284L24.7347 5.16939L24.7224 5.1561L24.71 5.14291L24.6978 5.13001L24.6853 5.11698L24.6725 5.10373L24.66 5.09094L24.6475 5.07824L24.6348 5.06545L24.622 5.05277L24.6093 5.04027L24.5964 5.02772L24.5834 5.01526L24.5705 5.00291C24.4331 4.87129 24.3941 4.67452 24.4691 4.50004C24.5957 4.21706 24.9581 4.14434 25.1841 4.35618L25.2004 4.37169L25.2165 4.38727L25.2326 4.40293L25.2487 4.41877L25.2646 4.4346L25.2805 4.45051L25.2964 4.46663L25.3122 4.48284L25.3276 4.49877L25.3432 4.515L25.3589 4.53159L25.3743 4.54802L25.3896 4.56451L25.4047 4.58099L25.4199 4.59764L25.4351 4.61451L25.4501 4.63133L25.465 4.64813L25.4799 4.66524L25.4947 4.68231L25.5094 4.69947L25.524 4.71671L25.5386 4.73402L25.5531 4.75143L25.5674 4.76876L25.5818 4.78642L25.596 4.80404L25.6102 4.82178L25.6242 4.83942L25.6382 4.85728L25.6521 4.87524L25.666 4.89321L25.6797 4.91131L25.6933 4.92936L25.7069 4.94757L25.7205 4.96586L25.7339 4.98429L25.7472 5.00261L25.7606 5.02125L25.7737 5.03974L25.7867 5.05828L25.7999 5.07717L25.8128 5.0959L25.82 5.10652C25.9077 5.2357 25.9221 5.39408 25.8607 5.53737C25.8214 5.62554 25.7601 5.69249 25.6877 5.73728C25.9026 5.63424 26.1805 5.71515 26.2888 5.96022L26.2907 5.96448L26.2999 5.98597L26.309 6.00734L26.3182 6.02915L26.3271 6.05082L26.336 6.07245L26.3448 6.09421L26.3536 6.11604L26.3623 6.13802L26.3708 6.15976L26.3792 6.18171L26.3877 6.20394L26.396 6.22603L26.4042 6.24809L26.4123 6.27018L26.4203 6.29241L26.4283 6.31489L26.4362 6.33713L26.444 6.35951L26.4516 6.38186L26.4593 6.40443L26.4668 6.42696L26.4742 6.44945L26.4816 6.47226L26.4888 6.49486L26.4959 6.51747L26.503 6.54016L26.51 6.56308L26.5169 6.58591L26.5237 6.60873L26.5304 6.63178L26.5371 6.65488L26.5436 6.67783L26.55 6.70082L26.5564 6.72405L26.5627 6.7471L26.5689 6.77042L26.575 6.79379L26.5809 6.81677L26.5869 6.84023L26.5927 6.86372L26.5959 6.87662C26.6578 7.1322 26.4913 7.36839 26.2581 7.41922C26.2911 7.41568 26.3252 7.41579 26.36 7.41994C26.57 7.44662 26.7306 7.61263 26.7499 7.82359L26.7504 7.82954L26.7524 7.85437L26.7544 7.87922L26.7562 7.9041L26.7579 7.929L26.7596 7.9539L26.7612 7.97906L26.7626 8.00404L26.764 8.02883L26.7652 8.05404L26.7664 8.07909L26.7675 8.10414L26.7684 8.12921L26.7693 8.15433L26.7701 8.17969L26.7708 8.20485L26.7714 8.23001L26.7719 8.25522L26.7723 8.28064L26.7726 8.30589L26.7728 8.33114L26.7729 8.35663V8.38194L26.7728 8.40726L26.7726 8.43259L26.7723 8.45815L26.7719 8.48353L26.7714 8.50893L26.7708 8.53456L26.7702 8.55996L26.7694 8.58562L26.7685 8.61109L26.7675 8.63658L26.7664 8.66227L26.7652 8.688L26.764 8.71351L26.7626 8.73907L26.7611 8.76482L26.7602 8.77961C26.7494 8.95633 26.6386 9.10537 26.4742 9.16968C26.4075 9.19465 26.3402 9.20294 26.2759 9.19728C26.5086 9.23891 26.6874 9.46462 26.635 9.72503L26.6299 9.74982L26.6244 9.77594L26.6188 9.80207L26.6132 9.82813L26.6074 9.85441L26.6015 9.88036L26.5955 9.90649L26.5894 9.93274L26.5832 9.95865L26.5769 9.98478L26.5705 10.0111L26.5639 10.0372L26.5573 10.0633L26.5506 10.0894L26.5437 10.1155L26.5368 10.1417C26.4801 10.3533 26.2783 10.4921 26.0605 10.4698C25.7877 10.4416 25.6048 10.1757 25.6756 9.91096L25.6817 9.88815L25.6877 9.86529L25.6936 9.84239L25.6994 9.81953L25.7051 9.79669L25.7107 9.77406L25.7162 9.75122L25.7216 9.72816L25.727 9.70551L25.7322 9.68271L25.7374 9.65974L25.7424 9.63711L25.7473 9.61429L25.7522 9.59154L25.7569 9.5688L25.7614 9.54734C25.7936 9.39357 25.8965 9.2748 26.0426 9.2184C26.1082 9.19443 26.1741 9.1866 26.2368 9.19208C26.0258 9.15429 25.8575 8.9653 25.8703 8.72665L25.8712 8.71187L25.8725 8.68971L25.8737 8.6674L25.8748 8.6451L25.8758 8.623L25.8767 8.60096L25.8776 8.57871L25.8784 8.55649L25.879 8.53451L25.8796 8.51236L25.8801 8.49042L25.8805 8.46831L25.8809 8.44622L25.8811 8.42435L25.8813 8.4023L25.8814 8.38028V8.3583L25.8813 8.33654L25.8811 8.31458L25.8809 8.29266L25.8805 8.27101L25.8801 8.24914L25.8796 8.22732L25.879 8.20549L25.8783 8.18395L25.8775 8.16221L25.8767 8.14051L25.8758 8.1188L25.8748 8.09717L25.8737 8.07573L25.8725 8.05393L25.8712 8.03236L25.8699 8.01106L25.8685 7.98954L25.867 7.96807L25.8654 7.94662L25.8637 7.92523L25.862 7.90386L25.8618 7.90138C25.8424 7.67013 25.9988 7.47299 26.2107 7.4269C26.1635 7.43188 26.1141 7.42933 26.0638 7.41801C25.8983 7.3794 25.7719 7.25491 25.7303 7.09015L25.7272 7.07725L25.7223 7.05749L25.7172 7.03777L25.7121 7.01767L25.7069 6.99804L25.7017 6.97845L25.6963 6.95868L25.691 6.93918L25.6855 6.91953L25.6799 6.89992L25.6743 6.88055L25.6687 6.86122L25.6629 6.84174L25.6571 6.82237L25.6512 6.80322L25.6452 6.78387L25.6391 6.76459L25.6329 6.74533L25.6268 6.72642L25.6205 6.70727L25.6142 6.68825L25.6078 6.66941L25.6013 6.65039L25.5947 6.63152L25.5881 6.61261L25.5814 6.59403L25.5746 6.57532L25.5678 6.55657L25.5608 6.53788L25.5539 6.5193L25.5469 6.50098L25.5397 6.48249L25.5325 6.46391L25.5253 6.44566L25.5179 6.42734L25.5105 6.40909L25.503 6.39079L25.4955 6.37263L25.488 6.35473L25.4802 6.33648L25.4725 6.31849L25.4721 6.31779C25.4111 6.17581 25.425 6.02046 25.5098 5.89136C25.5477 5.8358 25.5943 5.79221 25.6458 5.76025C25.4595 5.84938 25.2193 5.80447 25.0847 5.61058L25.0775 5.59996L25.0668 5.58456L25.0563 5.56945L25.0456 5.55416L25.0347 5.53891L25.0241 5.52399L25.0131 5.50888L25.0022 5.49401L24.9912 5.47913L24.9802 5.46435L24.969 5.44954L24.9579 5.43487L24.9466 5.42028L24.9354 5.40578L24.9241 5.39134L24.9126 5.37682L24.9011 5.36254L24.9011 5.36254Z" fill="#FFD3B3"/>
<path fill-rule="evenodd" clip-rule="evenodd" d="M15.9864 19.7146C15.5765 18.2093 14.5132 17.0289 13.1228 16.3362C11.7142 15.6343 9.97224 15.4319 8.22838 15.8938C8.21472 15.8981 8.20076 15.9019 8.18655 15.9049C6.44483 16.3769 5.03732 17.423 4.16855 18.7348C3.30719 20.0354 2.97749 21.5978 3.3836 23.1135C3.53792 23.6895 3.66178 23.8813 3.78284 23.8488C4.07947 23.7694 4.54799 23.2976 5.12365 22.7179C6.15306 21.6812 7.48809 20.3369 9.2689 19.8597C11.0514 19.3821 12.8787 19.8786 14.2877 20.2614C15.0771 20.4759 15.7195 20.6504 16.0145 20.5714C16.1337 20.5395 16.1459 20.3168 15.9979 19.7571C15.9934 19.7432 15.9895 19.729 15.9864 19.7146L15.9864 19.7146ZM4.85598 20.6034C4.80607 20.8095 4.6199 20.9517 4.40797 20.945C4.1244 20.9337 3.92433 20.6717 3.98909 20.3954L3.99438 20.3735L3.9998 20.3518L4.0053 20.33L4.01096 20.3081L4.01675 20.2862L4.02263 20.2645L4.02853 20.2431L4.03465 20.2212L4.04084 20.1997L4.04711 20.1781L4.05361 20.1563L4.06006 20.1349L4.0667 20.1133L4.07346 20.0918L4.08032 20.0703L4.0873 20.0488L4.09432 20.0275L4.1016 20.0058L4.10882 19.9847L4.11619 19.9634L4.12371 19.9421L4.13128 19.9208L4.13903 19.8995L4.14686 19.8782L4.15478 19.857L4.16283 19.8359L4.17097 19.8147L4.17926 19.7935L4.18759 19.7725L4.19597 19.7516L4.20457 19.7305L4.21324 19.7095L4.22192 19.6888L4.23083 19.6678L4.23991 19.6467L4.24893 19.626L4.25805 19.6053L4.26736 19.5845L4.27674 19.5637L4.28631 19.5429L4.29585 19.5223L4.30555 19.5017L4.31537 19.481L4.32095 19.4695C4.37708 19.3533 4.47637 19.2694 4.60024 19.2334C4.72034 19.1998 4.83483 19.2166 4.92924 19.2665C4.86973 19.2251 4.81899 19.168 4.78376 19.0956C4.71179 18.9462 4.72732 18.7705 4.82575 18.6367L4.82858 18.633L4.84262 18.6141L4.85668 18.5954L4.87081 18.5768L4.88513 18.5581L4.89946 18.5396L4.91385 18.5212L4.92843 18.5026L4.94302 18.4842L4.95776 18.4658L4.97259 18.4474L4.98746 18.4292L5.00238 18.411L5.0175 18.3928L5.03259 18.3747L5.04777 18.3567L5.06314 18.3385L5.07859 18.3205L5.09403 18.3027L5.10954 18.2849L5.12536 18.2669L5.14108 18.2492L5.15695 18.2314L5.17291 18.2137L5.18875 18.1962L5.2049 18.1786L5.221 18.1612L5.2373 18.1437L5.25379 18.1261L5.27018 18.1089L5.28661 18.0916L5.30326 18.0744L5.31995 18.0571L5.33654 18.0402L5.35341 18.0231L5.37052 18.0059L5.38743 17.989L5.40456 17.9721L5.42167 17.9553L5.43896 17.9385L5.45631 17.9217L5.46592 17.9126C5.57102 17.8119 5.71251 17.7705 5.85545 17.7955C5.95923 17.8154 6.0439 17.8665 6.10554 17.935C5.96932 17.7478 5.98742 17.4631 6.20908 17.3056L6.21395 17.3022L6.23447 17.288L6.25504 17.2739L6.27553 17.26L6.29626 17.246L6.31712 17.232L6.33794 17.2182L6.35878 17.2045L6.37977 17.1908L6.40094 17.1771L6.42207 17.1636L6.44328 17.1501L6.46449 17.1367L6.48586 17.1234L6.50731 17.1101L6.52872 17.097L6.55028 17.0838L6.57194 17.0707L6.59354 17.0578L6.6153 17.0449L6.63726 17.032L6.65915 17.0193L6.681 17.0066L6.70309 16.994L6.72518 16.9815L6.74723 16.9691L6.76967 16.9565L6.79196 16.9443L6.8142 16.9321L6.83675 16.9199L6.85922 16.9078L6.88174 16.8958L6.90425 16.8839L6.92704 16.872L6.94992 16.8602L6.97269 16.8485L6.99555 16.8369L7.01852 16.8253L7.03177 16.8187C7.26377 16.7047 7.53065 16.8071 7.63404 17.0258C7.55796 16.8069 7.65944 16.5404 7.91324 16.4545L7.93718 16.4465L7.96258 16.4381L7.98807 16.4299L8.01341 16.4218L8.03883 16.4138L8.06445 16.4058L8.09016 16.3979L8.11589 16.3901L8.14152 16.3824L8.16731 16.3748L8.1932 16.3673L8.21897 16.3599L8.24497 16.3526L8.27101 16.3453L8.29707 16.3382L8.32315 16.3312C8.48399 16.2881 8.64948 16.3371 8.76399 16.457C8.99344 16.7028 8.87865 17.1053 8.55388 17.1923L8.53104 17.1985L8.50827 17.2047L8.48557 17.211L8.46295 17.2174L8.4402 17.2239L8.41769 17.2304L8.39519 17.2371L8.37259 17.2438L8.35024 17.2506L8.32795 17.2574L8.30571 17.2644L8.28336 17.2714L8.26105 17.2786L8.23898 17.2857L8.21695 17.2929L8.19609 17.2999C8.06991 17.3413 7.93955 17.3269 7.82528 17.2594C7.74464 17.2105 7.68728 17.144 7.65202 17.0697C7.66071 17.0946 7.66738 17.1207 7.67181 17.1479C7.70156 17.3405 7.60508 17.5281 7.43097 17.6158L7.41772 17.6224L7.39782 17.6325L7.37791 17.6426L7.35808 17.6527L7.33844 17.6629L7.3189 17.6731L7.29915 17.6835L7.27956 17.694L7.26004 17.7044L7.24074 17.7149L7.22126 17.7256L7.20191 17.7363L7.18289 17.7469L7.16361 17.7577L7.14446 17.7686L7.12548 17.7794L7.1064 17.7905L7.08745 17.8015L7.06873 17.8125L7.04991 17.8237L7.03111 17.8349L7.01249 17.8462L6.99386 17.8575L6.97526 17.8689L6.95683 17.8803L6.93841 17.8919L6.92 17.9035L6.90173 17.9151L6.8835 17.9268L6.86545 17.9384L6.84739 17.9502L6.82927 17.9621L6.81126 17.9741L6.79347 17.986L6.77568 17.998L6.75778 18.0102L6.7401 18.0223L6.72249 18.0345L6.72043 18.0359C6.6209 18.105 6.50654 18.1294 6.38734 18.1097C6.28126 18.0901 6.19586 18.039 6.13409 17.9703C6.25724 18.1392 6.25656 18.388 6.0837 18.5553L6.07409 18.5645L6.05937 18.5787L6.04476 18.5929L6.03011 18.6073L6.01561 18.6216L6.00111 18.6361L5.98689 18.6504L5.97265 18.6648L5.95826 18.6795L5.94416 18.694L5.93014 18.7086L5.91608 18.7233L5.90211 18.7381L5.88842 18.7526L5.87471 18.7674L5.86098 18.7822L5.84742 18.797L5.83373 18.8121L5.82031 18.827L5.80699 18.8419L5.79363 18.8569L5.78058 18.8718L5.76739 18.8869L5.75428 18.9021L5.74133 18.9172L5.72846 18.9324L5.7156 18.9476L5.70279 18.9629L5.69018 18.9782L5.67754 18.9936L5.665 19.009L5.65262 19.0243L5.64029 19.0397L5.62799 19.0552L5.61586 19.0706L5.60371 19.0863L5.59162 19.1019L5.57975 19.1174L5.56782 19.1331L5.55599 19.1488L5.54432 19.1644L5.54391 19.165C5.40505 19.3537 5.16008 19.3918 4.97529 19.2945C5.14267 19.4107 5.2269 19.638 5.1251 19.8543L5.11952 19.8659L5.11154 19.8827L5.10364 19.8995L5.09577 19.9164L5.08809 19.9332L5.08046 19.9501L5.07291 19.967L5.06541 19.984L5.05793 20.0011L5.05073 20.0179L5.04358 20.0347L5.03638 20.0519L5.02934 20.0689L5.02245 20.0859L5.01552 20.1031L5.00872 20.1202L5.0021 20.1372L4.99549 20.1543L4.98902 20.1714L4.9826 20.1886L4.9763 20.2057L4.97009 20.2228L4.96393 20.24L4.9579 20.2572L4.95193 20.2744L4.94598 20.2918L4.94028 20.3088L4.93458 20.3261L4.92896 20.3434L4.9235 20.3606L4.91806 20.3779L4.91277 20.3951L4.90746 20.4126L4.90237 20.4297L4.89733 20.4471L4.89233 20.4645L4.88752 20.4816L4.88268 20.4992L4.87798 20.5166L4.87342 20.5339L4.86894 20.5511L4.86453 20.5685L4.86021 20.586L4.85598 20.6034H4.85598Z" fill="#F45A52"/>
<path fill-rule="evenodd" clip-rule="evenodd" d="M17.9703 23.4203C16.1879 23.8979 14.3605 23.4015 12.9515 23.0186C12.1621 22.8042 11.5197 22.6296 11.2247 22.7087C11.1056 22.7406 11.0933 22.9632 11.2413 23.523C11.2458 23.5368 11.2497 23.551 11.2528 23.5654C11.6627 25.0707 12.7261 26.2511 14.1164 26.9439C15.4969 27.6317 17.1977 27.8399 18.9065 27.4131C18.9478 27.4028 18.9823 27.3943 19.0109 27.3872C19.0352 27.3803 19.0657 27.3717 19.1033 27.3613C20.8216 26.883 22.2103 25.8444 23.0706 24.5452C23.9281 23.2505 24.2586 21.6964 23.861 20.1872C23.8565 20.1733 23.8527 20.1591 23.8496 20.1445C23.6981 19.5858 23.5759 19.3992 23.4564 19.4312C23.1597 19.5107 22.6912 19.9824 22.1155 20.5621C21.0862 21.5988 19.7511 22.9432 17.9703 23.4203V23.4203ZM22.3833 22.6766C22.4332 22.4706 22.6193 22.3284 22.8313 22.3351C23.1148 22.3463 23.3149 22.6084 23.2501 22.8847L23.2449 22.9065L23.2394 22.9283L23.2339 22.9501L23.2283 22.9719L23.2225 22.9938L23.2166 23.0155L23.2107 23.037L23.2046 23.0588L23.1984 23.0804L23.1921 23.1019L23.1856 23.1238L23.1792 23.1451L23.1725 23.1667L23.1658 23.1882L23.1589 23.2098L23.1519 23.2312L23.1449 23.2526L23.1376 23.2742L23.1304 23.2954L23.123 23.3167L23.1155 23.338L23.108 23.3592L23.1002 23.3806L23.0924 23.4018L23.0845 23.423L23.0764 23.4442L23.0683 23.4653L23.06 23.4865L23.0516 23.5075L23.0433 23.5284L23.0347 23.5495L23.026 23.5705L23.0173 23.5913L23.0084 23.6123L22.9993 23.6334L22.9903 23.654L22.9812 23.6748L22.9718 23.6958L22.9625 23.7163L22.953 23.737L22.9434 23.7577L22.9337 23.7784L22.9239 23.799L22.9183 23.8106C22.8622 23.9268 22.7629 24.0107 22.639 24.0467C22.5189 24.0803 22.4044 24.0634 22.31 24.0136C22.3695 24.0549 22.4202 24.1121 22.4555 24.1845C22.5274 24.3338 22.5119 24.5095 22.4135 24.6433L22.4106 24.6471L22.3967 24.6658L22.3827 24.6845L22.3683 24.7033L22.3541 24.7219L22.3399 24.7403L22.3254 24.7589L22.3108 24.7774L22.2962 24.7958L22.2814 24.8144L22.2666 24.8326L22.2519 24.8507L22.2369 24.8691L22.2217 24.8873L22.2065 24.9055L22.1914 24.9234L22.1762 24.9414L22.1606 24.9595L22.1452 24.9774L22.1296 24.9953L22.1139 25.0132L22.0982 25.0309L22.0823 25.0487L22.0664 25.0662L22.0505 25.0838L22.0343 25.1014L22.0181 25.119L22.0018 25.1365L21.9855 25.1538L21.9692 25.1711L21.9526 25.1884L21.936 25.2057L21.9193 25.2229L21.9026 25.24L21.8858 25.257L21.8687 25.2741L21.8518 25.291L21.8348 25.3079L21.8175 25.3249L21.8001 25.3417L21.783 25.3582L21.7734 25.3674C21.6056 25.5281 21.3447 25.534 21.17 25.3808C21.1567 25.3691 21.1444 25.3567 21.1328 25.3439C21.1837 25.4122 21.216 25.4969 21.22 25.5934C21.225 25.7461 21.1546 25.886 21.0302 25.9744L21.0254 25.9777L21.0048 25.992L20.9842 26.0061L20.9637 26.0201L20.9429 26.0341L20.9221 26.048L20.9014 26.0618L20.8803 26.0756L20.8594 26.0893L20.8383 26.1029L20.8171 26.1165L20.7959 26.1299L20.7748 26.1432L20.7535 26.1566L20.7318 26.17L20.7105 26.1831L20.689 26.1962L20.6672 26.2094L20.6457 26.2222L20.6239 26.2351L20.602 26.248L20.5802 26.2608L20.5581 26.2735L20.5361 26.2861L20.5141 26.2986L20.4919 26.311L20.4696 26.3235L20.4474 26.3357L20.425 26.348L20.4025 26.3602L20.38 26.3723L20.3575 26.3843L20.3349 26.3962L20.3122 26.4081L20.2893 26.4199L20.2665 26.4316L20.2438 26.4431L20.2207 26.4547L20.2075 26.4613C19.9755 26.5754 19.7086 26.4729 19.6052 26.2542C19.6813 26.4732 19.5798 26.7396 19.326 26.8256L19.3021 26.8336L19.2767 26.8419L19.2512 26.8502L19.2258 26.8583L19.2004 26.8663L19.1748 26.8743L19.1491 26.8822L19.1233 26.89L19.0977 26.8976L19.0719 26.9052L19.046 26.9127L19.0203 26.9201L18.9943 26.9275L18.9682 26.9347L18.9422 26.9419L18.9161 26.9489C18.7552 26.992 18.5898 26.9429 18.4753 26.823C18.2458 26.5772 18.3606 26.1747 18.6854 26.0878L18.7082 26.0816L18.731 26.0754L18.7537 26.069L18.7763 26.0627L18.799 26.0561L18.8215 26.0496L18.844 26.043L18.8666 26.0362L18.889 26.0294L18.9113 26.0226L18.9335 26.0157L18.9559 26.0086L18.9782 26.0015L19.0003 25.9943L19.0223 25.9871L19.0431 25.9802C19.1693 25.9388 19.2997 25.9532 19.414 26.0207C19.4946 26.0695 19.552 26.136 19.5872 26.2103C19.5785 26.1855 19.5719 26.1594 19.5674 26.1322C19.5377 25.9395 19.6342 25.752 19.8083 25.6642L19.8215 25.6576L19.8413 25.6476L19.8613 25.6375L19.8812 25.6273L19.9008 25.6172L19.9204 25.6069L19.9401 25.5965L19.9597 25.5861L19.9792 25.5756L19.9985 25.5651L20.0179 25.5545L20.0372 25.5438L20.0564 25.5332L20.0756 25.5223L20.0948 25.5115L20.1138 25.5006L20.1328 25.4896L20.1518 25.4786L20.1705 25.4675L20.1893 25.4564L20.2082 25.4451L20.2267 25.434L20.2453 25.4226L20.2641 25.4111L20.2823 25.3998L20.3007 25.3883L20.3192 25.3766L20.3375 25.365L20.3557 25.3533L20.3739 25.3416L20.392 25.3298L20.4099 25.318L20.428 25.306L20.4458 25.294L20.4636 25.2821L20.4815 25.2699L20.4991 25.2578L20.5166 25.2457L20.5188 25.2441C20.7173 25.1063 20.9649 25.1547 21.1066 25.3119C20.9754 25.1355 20.9904 24.8846 21.1554 24.7248L21.165 24.7157L21.18 24.7013L21.1946 24.687L21.209 24.6729L21.2236 24.6584L21.2381 24.644L21.2523 24.6297L21.2667 24.6151L21.281 24.6005L21.2951 24.586L21.3091 24.5714L21.323 24.5569L21.337 24.5421L21.3509 24.5273L21.3646 24.5126L21.3783 24.4978L21.3918 24.483L21.4054 24.4681L21.4189 24.4531L21.4322 24.4382L21.4456 24.4231L21.4588 24.4081L21.4718 24.3931L21.485 24.3779L21.4978 24.363L21.5108 24.3477L21.5237 24.3323L21.5364 24.3171L21.5491 24.3019L21.5616 24.2866L21.5742 24.2711L21.5867 24.2556L21.5989 24.2404L21.6112 24.2248L21.6234 24.2094L21.6354 24.1939L21.6476 24.1782L21.6596 24.1625L21.6713 24.1471L21.6831 24.1314L21.6949 24.1156L21.6953 24.1151C21.8342 23.9264 22.0791 23.8882 22.2639 23.9855C22.0965 23.8693 22.0124 23.6421 22.1141 23.4257L22.1197 23.4142L22.1277 23.3974L22.1356 23.3805L22.1434 23.3638L22.1511 23.3469L22.1589 23.3298L22.1663 23.3131L22.1738 23.2961L22.1813 23.2789L22.1885 23.2622L22.1957 23.2453L22.2029 23.2281L22.2099 23.2111L22.2168 23.1942L22.2237 23.1769L22.2305 23.1598L22.2371 23.1428L22.2437 23.1257L22.2502 23.1086L22.2566 23.0915L22.2629 23.0744L22.2691 23.0573L22.2753 23.0401L22.2813 23.0229L22.2873 23.0057L22.2933 22.9882L22.299 22.9712L22.3047 22.9539L22.3103 22.9367L22.3157 22.9195L22.3212 22.9022L22.3265 22.8849L22.3318 22.8674L22.3369 22.8504L22.3419 22.833L22.3469 22.8156L22.3517 22.7984L22.3566 22.7808L22.3613 22.7634L22.3658 22.7462L22.3703 22.7289L22.3747 22.7115L22.379 22.694L22.3833 22.6766L22.3833 22.6766Z" fill="#FFD3B3"/>
</svg>
