<svg width="29" height="29" viewBox="0 0 29 29" fill="none" xmlns="http://www.w3.org/2000/svg">
<g clip-path="url(#clip0_512_19575)">
<path d="M4.38281 26.458H24.1141V27.3549L23.2172 28.2518L22.3203 27.3549L21.4234 28.2518L20.5266 27.3549L19.6297 28.2518L18.7328 27.3549L17.8359 28.2518L16.9391 27.3549L16.0422 28.2518L15.1453 27.3549L14.2484 28.2518L13.3516 27.3549L12.4547 28.2518L11.5578 27.3549L10.6609 28.2518L9.76406 27.3549L8.86719 28.2518L7.97031 27.3549L7.07344 28.2518L6.17656 27.3549L5.27969 28.2518L4.38281 27.3549V26.458Z" fill="#FFD3B3"/>
<path d="M4.38281 2.24219H24.1141V26.4578H4.38281V2.24219Z" fill="#FFD3B3"/>
<path d="M24.1141 2.24199H4.38281V1.34512L5.27969 0.448242L6.17656 1.34512L7.07344 0.448242L7.97031 1.34512L8.86719 0.448242L9.76406 1.34512L10.6609 0.448242L11.5578 1.34512L12.4547 0.448242L13.3516 1.34512L14.2484 0.448242L15.1453 1.34512L16.0422 0.448242L16.9391 1.34512L17.8359 0.448242L18.7328 1.34512L19.6297 0.448242L20.5266 1.34512L21.4234 0.448242L22.3203 1.34512L23.2172 0.448242L24.1141 1.34512V2.24199Z" fill="#FFD3B3"/>
<path d="M12.0078 9.86582C12.0078 10.0268 11.9805 10.1797 11.9271 10.3187C11.7432 10.8389 11.2459 11.2111 10.6625 11.2111H8.86875C8.28085 11.2111 7.78353 10.8389 7.59967 10.3143C7.55079 10.1748 7.52344 10.0228 7.52344 9.86582C7.52344 9.70887 7.55079 9.55685 7.59967 9.41738C7.78353 8.89271 8.2813 8.52051 8.86875 8.52051H10.6625C11.2459 8.52051 11.7432 8.89271 11.9271 9.41738C11.9805 9.55685 12.0078 9.70887 12.0078 9.86582Z" fill="#B38E85"/>
<path d="M13.3547 17.4887C13.3547 18.0716 12.9825 18.5694 12.4623 18.7533C12.3233 18.8071 12.1704 18.834 12.0094 18.834C11.8524 18.834 11.7004 18.8071 11.5609 18.7533C11.0408 18.5739 10.6641 18.0757 10.6641 17.4887V15.6949C10.6641 15.112 11.0408 14.6142 11.5609 14.4303C11.7004 14.3765 11.8524 14.3496 12.0094 14.3496C12.1663 14.3496 12.3183 14.3765 12.4578 14.4303C12.9825 14.6142 13.3547 15.1124 13.3547 15.6949V17.4887Z" fill="#B38E85"/>
<path d="M8.87031 17.4887C8.87031 18.0716 8.49811 18.5694 7.97792 18.7533C7.83891 18.8071 7.68599 18.834 7.525 18.834C7.36805 18.834 7.21603 18.8071 7.07656 18.7533C6.55189 18.5739 6.17969 18.0757 6.17969 17.4887V15.6949C6.17969 15.112 6.55189 14.6142 7.07656 14.4303C7.21603 14.3765 7.36805 14.3496 7.525 14.3496C7.68195 14.3496 7.83397 14.3765 7.97344 14.4303C8.49811 14.6142 8.87031 15.1124 8.87031 15.6949V17.4887Z" fill="#B38E85"/>
<path d="M11.9271 4.93301C11.9805 5.07247 12.0078 5.22449 12.0078 5.38145C12.0078 5.5384 11.9805 5.69042 11.9271 5.82988C11.7432 6.35455 11.2455 6.72676 10.6625 6.72676H8.86875C8.28085 6.72676 7.78353 6.35455 7.59967 5.82988C7.55079 5.69042 7.52344 5.5384 7.52344 5.38145C7.52344 5.22449 7.55079 5.07247 7.59967 4.93301C7.78353 4.40834 8.2813 4.03613 8.86875 4.03613H10.6625C11.2459 4.03613 11.7432 4.40834 11.9271 4.93301Z" fill="#B38E85"/>
<path d="M11.9316 22.8705C11.9805 23.0095 12.0078 23.162 12.0078 23.3189C12.0078 23.4759 11.9805 23.6284 11.9316 23.7674C11.7477 24.2921 11.25 24.6643 10.6625 24.6643H8.86875C8.28578 24.6643 7.78802 24.2921 7.60416 23.7719C7.55079 23.6328 7.52344 23.4804 7.52344 23.3189C7.52344 23.162 7.55079 23.0095 7.60416 22.8705C7.78802 22.3458 8.28623 21.9736 8.86875 21.9736H10.6625C11.2504 21.9736 11.7477 22.3458 11.9316 22.8705Z" fill="#B38E85"/>
<path d="M20.9003 13.9018C20.9492 14.0408 20.9766 14.1932 20.9766 14.3502C20.9766 14.5071 20.9492 14.6596 20.9003 14.7986C20.7165 15.3233 20.2187 15.6955 19.6313 15.6955H17.8375C17.2545 15.6955 16.7568 15.3233 16.5729 14.8031C16.5195 14.6641 16.4922 14.5116 16.4922 14.3502C16.4922 14.1932 16.5195 14.0408 16.5729 13.9018C16.7568 13.3771 17.255 13.0049 17.8375 13.0049H19.6313C20.2192 13.0049 20.7165 13.3771 20.9003 13.9018V13.9018Z" fill="#B38E85"/>
<path d="M20.9003 18.3861C20.9492 18.5251 20.9766 18.6776 20.9766 18.8346C20.9766 18.9915 20.9492 19.144 20.9003 19.283C20.7165 19.8077 20.2187 20.1799 19.6313 20.1799H17.8375C17.2545 20.1799 16.7568 19.8077 16.5729 19.2875C16.5195 19.1485 16.4922 18.996 16.4922 18.8346C16.4922 18.6776 16.5195 18.5251 16.5729 18.3861C16.7568 17.8659 17.255 17.4893 17.8375 17.4893H19.6313C20.2192 17.4893 20.712 17.8659 20.9003 18.3861Z" fill="#B38E85"/>
<path d="M20.9003 22.8705C20.9492 23.0095 20.9766 23.162 20.9766 23.3189C20.9766 23.4759 20.9492 23.6284 20.9003 23.7674C20.7165 24.2921 20.2187 24.6643 19.6313 24.6643H17.8375C17.2545 24.6643 16.7568 24.2921 16.5729 23.7719C16.5195 23.6328 16.4922 23.4804 16.4922 23.3189C16.4922 23.162 16.5195 23.0095 16.5729 22.8705C16.7568 22.3458 17.255 21.9736 17.8375 21.9736H19.6313C20.2192 21.9736 20.7165 22.3458 20.9003 22.8705Z" fill="#B38E85"/>
<path d="M21.431 5.46158C21.9512 5.64544 22.3234 6.1432 22.3234 6.72617V8.51992C22.3234 9.10782 21.9512 9.60514 21.4266 9.78452C21.2871 9.83788 21.1351 9.86523 20.9781 9.86523C20.8212 9.86523 20.6692 9.83788 20.5297 9.78452C20.005 9.60514 19.6328 9.10738 19.6328 8.51992V6.72617C19.6328 6.13827 20.005 5.64095 20.5297 5.46158C20.6692 5.40821 20.8212 5.38086 20.9781 5.38086C21.1391 5.38086 21.292 5.40821 21.431 5.46158Z" fill="#B38E85"/>
<path d="M7.525 5.38145C7.525 5.5384 7.55235 5.69042 7.60123 5.82988L6.17969 6.72676V4.03613L7.60123 4.93301C7.55235 5.07247 7.525 5.22449 7.525 5.38145Z" fill="#FFD3B3"/>
<path d="M7.525 9.86582C7.525 10.0228 7.55235 10.1748 7.60123 10.3143L6.17969 11.2111V8.52051L7.60123 9.41738C7.55235 9.55685 7.525 9.70887 7.525 9.86582Z" fill="#FFD3B3"/>
<path d="M20.9786 18.8346C20.9786 18.6776 20.9512 18.5251 20.9023 18.3861L22.3239 17.4893V20.1799L20.9023 19.283C20.9512 19.144 20.9786 18.9915 20.9786 18.8346Z" fill="#FFD3B3"/>
<path d="M22.3239 21.9736V24.6643L20.9023 23.7674C20.9512 23.6284 20.9786 23.4759 20.9786 23.3189C20.9786 23.162 20.9512 23.0095 20.9023 22.8705L22.3239 21.9736Z" fill="#FFD3B3"/>
<path d="M12.0104 5.38145C12.0104 5.22449 11.9831 5.07247 11.9297 4.93301L13.3557 4.03613V6.72676L11.9297 5.82988C11.9831 5.69042 12.0104 5.5384 12.0104 5.38145Z" fill="#FFD3B3"/>
<path d="M16.9422 9.78964L17.8391 11.2112H15.1484L16.0408 9.78964V9.78516C16.1803 9.83852 16.3328 9.86588 16.4938 9.86588C16.6507 9.86588 16.8027 9.83852 16.9422 9.78516V9.78964Z" fill="#FFD3B3"/>
<path d="M10.6641 13.0049H13.3547L12.4578 14.4309C12.3183 14.3771 12.1663 14.3502 12.0094 14.3502C11.8524 14.3502 11.7004 14.3771 11.5609 14.4309L10.6641 13.0049Z" fill="#FFD3B3"/>
<path d="M12.0104 9.86582C12.0104 9.70887 11.9831 9.55685 11.9297 9.41738L13.3557 8.52051V11.2111L11.9297 10.3187C11.9831 10.1797 12.0104 10.0268 12.0104 9.86582Z" fill="#FFD3B3"/>
<path d="M12.4623 18.7584L13.3547 20.1799H10.6641L11.5609 18.7584V18.7539C11.7004 18.8077 11.8524 18.8346 12.0094 18.8346C12.1704 18.8346 12.3233 18.8077 12.4623 18.7539V18.7584Z" fill="#FFD3B3"/>
<path d="M7.525 23.3189C7.525 23.4804 7.55235 23.6329 7.60572 23.7719L6.17969 24.6643V21.9736L7.60572 22.8705C7.55235 23.0095 7.525 23.162 7.525 23.3189Z" fill="#FFD3B3"/>
<path d="M12.0098 23.3189C12.0098 23.162 11.9825 23.0095 11.9336 22.8705L13.3551 21.9736V24.6643L11.9336 23.7674C11.9825 23.6284 12.0098 23.4759 12.0098 23.3189Z" fill="#FFD3B3"/>
<path d="M6.17969 13.0049H8.87031L7.97344 14.4309C7.83397 14.3771 7.68195 14.3502 7.525 14.3502C7.36805 14.3502 7.21603 14.3771 7.07656 14.4309L6.17969 13.0049Z" fill="#FFD3B3"/>
<path d="M7.97792 18.7584L8.87031 20.1799H6.17969L7.07656 18.7584V18.7539C7.21603 18.8077 7.36805 18.8346 7.525 18.8346C7.68599 18.8346 7.83891 18.8077 7.97792 18.7539V18.7584Z" fill="#FFD3B3"/>
<path d="M15.1484 4.03613H17.8391L16.9422 5.46216C16.8027 5.4088 16.6507 5.38145 16.4938 5.38145C16.3368 5.38145 16.1848 5.4088 16.0453 5.46216L15.1484 4.03613Z" fill="#FFD3B3"/>
<path d="M16.4938 18.8346C16.4938 18.996 16.5211 19.1485 16.5745 19.2875L15.1484 20.1799V17.4893L16.5745 18.3861C16.5211 18.5251 16.4938 18.6776 16.4938 18.8346Z" fill="#FFD3B3"/>
<path d="M16.4938 14.3502C16.4938 14.5116 16.5211 14.6641 16.5745 14.8031L15.1484 15.6955V13.0049L16.5745 13.9018C16.5211 14.0408 16.4938 14.1932 16.4938 14.3502Z" fill="#FFD3B3"/>
<path d="M16.4938 23.3189C16.4938 23.4804 16.5211 23.6329 16.5745 23.7719L15.1484 24.6643V21.9736L16.5745 22.8705C16.5211 23.0095 16.4938 23.162 16.4938 23.3189Z" fill="#FFD3B3"/>
<path d="M21.4266 9.78964L22.3234 11.2112H19.6328L20.5297 9.78964V9.78516C20.6692 9.83852 20.8212 9.86588 20.9781 9.86588C21.1351 9.86588 21.2871 9.83852 21.4266 9.78516V9.78964Z" fill="#FFD3B3"/>
<path d="M19.6328 4.03613H22.3234L21.431 5.46216C21.292 5.4088 21.1391 5.38145 20.9781 5.38145C20.8212 5.38145 20.6692 5.4088 20.5297 5.46216L19.6328 4.03613Z" fill="#FFD3B3"/>
<path d="M20.9786 14.3502C20.9786 14.1932 20.9512 14.0408 20.9023 13.9018L22.3239 13.0049V15.6955L20.9023 14.7986C20.9512 14.6596 20.9786 14.5071 20.9786 14.3502Z" fill="#FFD3B3"/>
<path d="M17.8391 8.51992C17.8391 9.10782 17.4669 9.60514 16.9422 9.78452C16.8027 9.83788 16.6507 9.86523 16.4938 9.86523C16.3328 9.86523 16.1803 9.83788 16.0408 9.78452C15.5206 9.60066 15.1484 9.10289 15.1484 8.51992V6.72617C15.1484 6.13827 15.5206 5.64095 16.0453 5.46158C16.1848 5.40821 16.3368 5.38086 16.4938 5.38086C16.6507 5.38086 16.8027 5.40821 16.9422 5.46158C17.4669 5.64095 17.8391 6.13872 17.8391 6.72617V8.51992Z" fill="#B38E85"/>
<path d="M4.38214 1.79386C4.26734 1.79386 4.15254 1.74992 4.0651 1.66247C3.88976 1.48713 3.88976 1.20372 4.0651 1.02838L4.96197 0.131504C5.13731 -0.0438348 5.42072 -0.0438348 5.59606 0.131504C5.7714 0.306843 5.7714 0.590256 5.59606 0.765595L4.69919 1.66247C4.61174 1.74992 4.49694 1.79386 4.38214 1.79386V1.79386Z" fill="#333333"/>
<path d="M6.17746 1.79386C6.06266 1.79386 5.94786 1.74992 5.86041 1.66247L4.96354 0.765595C4.7882 0.590256 4.7882 0.306843 4.96354 0.131504C5.13887 -0.0438348 5.42229 -0.0438348 5.59763 0.131504L6.4945 1.02838C6.66984 1.20372 6.66984 1.48713 6.4945 1.66247C6.40706 1.74992 6.29226 1.79386 6.17746 1.79386V1.79386Z" fill="#333333"/>
<path d="M6.17902 1.79386C6.06422 1.79386 5.94942 1.74992 5.86197 1.66247C5.68663 1.48713 5.68663 1.20372 5.86197 1.02838L6.75885 0.131504C6.93419 -0.0438348 7.2176 -0.0438348 7.39294 0.131504C7.56828 0.306843 7.56828 0.590256 7.39294 0.765595L6.49606 1.66247C6.40862 1.74992 6.29382 1.79386 6.17902 1.79386Z" fill="#333333"/>
<path d="M7.97043 1.79386C7.85563 1.79386 7.74083 1.74992 7.65338 1.66247L6.7565 0.765595C6.58117 0.590256 6.58117 0.306843 6.7565 0.131504C6.93184 -0.0438348 7.21526 -0.0438348 7.3906 0.131504L8.28747 1.02838C8.46281 1.20372 8.46281 1.48713 8.28747 1.66247C8.20003 1.74992 8.08523 1.79386 7.97043 1.79386Z" fill="#333333"/>
<path d="M7.97199 1.79386C7.85719 1.79386 7.74239 1.74992 7.65494 1.66247C7.4796 1.48713 7.4796 1.20372 7.65494 1.02838L8.55182 0.131504C8.72715 -0.0438348 9.01057 -0.0438348 9.18591 0.131504C9.36124 0.306843 9.36124 0.590256 9.18591 0.765595L8.28903 1.66247C8.20159 1.74992 8.08679 1.79386 7.97199 1.79386Z" fill="#333333"/>
<path d="M9.7673 1.79386C9.6525 1.79386 9.5377 1.74992 9.45025 1.66247L8.55338 0.765595C8.37804 0.590256 8.37804 0.306843 8.55338 0.131504C8.72872 -0.0438348 9.01213 -0.0438348 9.18747 0.131504L10.0843 1.02838C10.2597 1.20372 10.2597 1.48713 10.0843 1.66247C9.9969 1.74992 9.8821 1.79386 9.7673 1.79386Z" fill="#333333"/>
<path d="M9.76496 1.79386C9.65016 1.79386 9.53536 1.74992 9.44791 1.66247C9.27257 1.48713 9.27257 1.20372 9.44791 1.02838L10.3448 0.131504C10.5201 -0.0438348 10.8035 -0.0438348 10.9789 0.131504C11.1542 0.306843 11.1542 0.590256 10.9789 0.765595L10.082 1.66247C9.99456 1.74992 9.87976 1.79386 9.76496 1.79386Z" fill="#333333"/>
<path d="M11.5603 1.79386C11.4455 1.79386 11.3307 1.74992 11.2432 1.66247L10.3463 0.765595C10.171 0.590256 10.171 0.306843 10.3463 0.131504C10.5217 -0.0438348 10.8051 -0.0438348 10.9804 0.131504L11.8773 1.02838C12.0527 1.20372 12.0527 1.48713 11.8773 1.66247C11.7899 1.74992 11.6751 1.79386 11.5603 1.79386Z" fill="#333333"/>
<path d="M11.5579 1.79386C11.4431 1.79386 11.3283 1.74992 11.2409 1.66247C11.0655 1.48713 11.0655 1.20372 11.2409 1.02838L12.1378 0.131504C12.3131 -0.0438348 12.5965 -0.0438348 12.7718 0.131504C12.9472 0.306843 12.9472 0.590256 12.7718 0.765595L11.875 1.66247C11.7875 1.74992 11.6727 1.79386 11.5579 1.79386Z" fill="#333333"/>
<path d="M13.3532 1.79386C13.2384 1.79386 13.1236 1.74992 13.0362 1.66247L12.1393 0.765595C11.964 0.590256 11.964 0.306843 12.1393 0.131504C12.3147 -0.0438348 12.5981 -0.0438348 12.7734 0.131504L13.6703 1.02838C13.8456 1.20372 13.8456 1.48713 13.6703 1.66247C13.5828 1.74992 13.468 1.79386 13.3532 1.79386Z" fill="#333333"/>
<path d="M13.3509 1.79386C13.2361 1.79386 13.1213 1.74992 13.0338 1.66247C12.8585 1.48713 12.8585 1.20372 13.0338 1.02838L13.9307 0.131504C14.1061 -0.0438348 14.3895 -0.0438348 14.5648 0.131504C14.7401 0.306843 14.7401 0.590256 14.5648 0.765595L13.6679 1.66247C13.5805 1.74992 13.4657 1.79386 13.3509 1.79386Z" fill="#333333"/>
<path d="M15.1462 1.79386C15.0314 1.79386 14.9166 1.74992 14.8292 1.66247L13.9323 0.765595C13.7569 0.590256 13.7569 0.306843 13.9323 0.131504C14.1076 -0.0438348 14.391 -0.0438348 14.5664 0.131504L15.4632 1.02838C15.6386 1.20372 15.6386 1.48713 15.4632 1.66247C15.3758 1.74992 15.261 1.79386 15.1462 1.79386Z" fill="#333333"/>
<path d="M15.1478 1.79386C15.033 1.79386 14.9182 1.74992 14.8307 1.66247C14.6554 1.48713 14.6554 1.20372 14.8307 1.02838L15.7276 0.131504C15.9029 -0.0438348 16.1863 -0.0438348 16.3617 0.131504C16.537 0.306843 16.537 0.590256 16.3617 0.765595L15.4648 1.66247C15.3774 1.74992 15.2626 1.79386 15.1478 1.79386Z" fill="#333333"/>
<path d="M16.9392 1.79386C16.8244 1.79386 16.7096 1.74992 16.6221 1.66247L15.7253 0.765595C15.5499 0.590256 15.5499 0.306843 15.7253 0.131504C15.9006 -0.0438348 16.184 -0.0438348 16.3593 0.131504L17.2562 1.02838C17.4316 1.20372 17.4316 1.48713 17.2562 1.66247C17.1688 1.74992 17.054 1.79386 16.9392 1.79386Z" fill="#333333"/>
<path d="M16.9407 1.79386C16.8259 1.79386 16.7111 1.74992 16.6237 1.66247C16.4484 1.48713 16.4484 1.20372 16.6237 1.02838L17.5206 0.131504C17.6959 -0.0438348 17.9793 -0.0438348 18.1547 0.131504C18.33 0.306843 18.33 0.590256 18.1547 0.765595L17.2578 1.66247C17.1703 1.74992 17.0555 1.79386 16.9407 1.79386Z" fill="#333333"/>
<path d="M18.7321 1.79386C18.6173 1.79386 18.5025 1.74992 18.4151 1.66247L17.5182 0.765595C17.3429 0.590256 17.3429 0.306843 17.5182 0.131504C17.6936 -0.0438348 17.977 -0.0438348 18.1523 0.131504L19.0492 1.02838C19.2245 1.20372 19.2245 1.48713 19.0492 1.66247C18.9617 1.74992 18.8469 1.79386 18.7321 1.79386Z" fill="#333333"/>
<path d="M18.7337 1.79386C18.6189 1.79386 18.5041 1.74992 18.4167 1.66247C18.2413 1.48713 18.2413 1.20372 18.4167 1.02838L19.3135 0.131504C19.4889 -0.0438348 19.7723 -0.0438348 19.9476 0.131504C20.123 0.306843 20.123 0.590256 19.9476 0.765595L19.0507 1.66247C18.9633 1.74992 18.8485 1.79386 18.7337 1.79386Z" fill="#333333"/>
<path d="M20.529 1.79386C20.4142 1.79386 20.2994 1.74992 20.212 1.66247L19.3151 0.765595C19.1398 0.590256 19.1398 0.306843 19.3151 0.131504C19.4904 -0.0438348 19.7738 -0.0438348 19.9492 0.131504L20.8461 1.02838C21.0214 1.20372 21.0214 1.48713 20.8461 1.66247C20.7586 1.74992 20.6438 1.79386 20.529 1.79386Z" fill="#333333"/>
<path d="M20.5267 1.79386C20.4119 1.79386 20.2971 1.74992 20.2096 1.66247C20.0343 1.48713 20.0343 1.20372 20.2096 1.02838L21.1065 0.131504C21.2818 -0.0438348 21.5653 -0.0438348 21.7406 0.131504C21.9159 0.306843 21.9159 0.590256 21.7406 0.765595L20.8437 1.66247C20.7563 1.74992 20.6415 1.79386 20.5267 1.79386Z" fill="#333333"/>
<path d="M22.322 1.79386C22.2072 1.79386 22.0924 1.74992 22.0049 1.66247L21.1081 0.765595C20.9327 0.590256 20.9327 0.306843 21.1081 0.131504C21.2834 -0.0438348 21.5668 -0.0438348 21.7422 0.131504L22.639 1.02838C22.8144 1.20372 22.8144 1.48713 22.639 1.66247C22.5516 1.74992 22.4368 1.79386 22.322 1.79386Z" fill="#333333"/>
<path d="M22.3235 1.79386C22.2087 1.79386 22.0939 1.74992 22.0065 1.66247C21.8312 1.48713 21.8312 1.20372 22.0065 1.02838L22.9034 0.131504C23.0787 -0.0438348 23.3621 -0.0438348 23.5375 0.131504C23.7128 0.306843 23.7128 0.590256 23.5375 0.765595L22.6406 1.66247C22.5531 1.74992 22.4383 1.79386 22.3235 1.79386Z" fill="#333333"/>
<path d="M24.115 1.79386C24.0002 1.79386 23.8854 1.74992 23.7979 1.66247L22.901 0.765595C22.7257 0.590256 22.7257 0.306843 22.901 0.131504C23.0764 -0.0438348 23.3598 -0.0438348 23.5351 0.131504L24.432 1.02838C24.6073 1.20372 24.6073 1.48713 24.432 1.66247C24.3446 1.74992 24.2298 1.79386 24.115 1.79386Z" fill="#333333"/>
<path d="M23.2181 28.7001C23.1033 28.7001 22.9885 28.6562 22.901 28.5687C22.7257 28.3934 22.7257 28.11 22.901 27.9346L23.7979 27.0378C23.9732 26.8624 24.2567 26.8624 24.432 27.0378C24.6073 27.2131 24.6073 27.4965 24.432 27.6718L23.5351 28.5687C23.4477 28.6562 23.3329 28.7001 23.2181 28.7001Z" fill="#333333"/>
<path d="M23.2204 28.7001C23.1056 28.7001 22.9908 28.6562 22.9034 28.5687L22.0065 27.6718C21.8312 27.4965 21.8312 27.2131 22.0065 27.0378C22.1818 26.8624 22.4653 26.8624 22.6406 27.0378L23.5375 27.9346C23.7128 28.11 23.7128 28.3934 23.5375 28.5687C23.45 28.6562 23.3352 28.7001 23.2204 28.7001Z" fill="#333333"/>
<path d="M21.4251 28.7001C21.3103 28.7001 21.1955 28.6562 21.1081 28.5687C20.9327 28.3934 20.9327 28.11 21.1081 27.9346L22.0049 27.0378C22.1803 26.8624 22.4637 26.8624 22.639 27.0378C22.8144 27.2131 22.8144 27.4965 22.639 27.6718L21.7422 28.5687C21.6547 28.6562 21.5399 28.7001 21.4251 28.7001Z" fill="#333333"/>
<path d="M21.4235 28.7001C21.3087 28.7001 21.1939 28.6562 21.1065 28.5687L20.2096 27.6718C20.0343 27.4965 20.0343 27.2131 20.2096 27.0378C20.385 26.8624 20.6684 26.8624 20.8437 27.0378L21.7406 27.9346C21.9159 28.11 21.9159 28.3934 21.7406 28.5687C21.6531 28.6562 21.5383 28.7001 21.4235 28.7001Z" fill="#333333"/>
<path d="M19.6321 28.7001C19.5173 28.7001 19.4025 28.6562 19.3151 28.5687C19.1398 28.3934 19.1398 28.11 19.3151 27.9346L20.212 27.0378C20.3873 26.8624 20.6707 26.8624 20.8461 27.0378C21.0214 27.2131 21.0214 27.4965 20.8461 27.6718L19.9492 28.5687C19.8617 28.6562 19.7469 28.7001 19.6321 28.7001Z" fill="#333333"/>
<path d="M19.6306 28.7001C19.5158 28.7001 19.401 28.6562 19.3135 28.5687L18.4167 27.6718C18.2413 27.4965 18.2413 27.2131 18.4167 27.0378C18.592 26.8624 18.8754 26.8624 19.0507 27.0378L19.9476 27.9346C20.123 28.11 20.123 28.3934 19.9476 28.5687C19.8602 28.6562 19.7454 28.7001 19.6306 28.7001Z" fill="#333333"/>
<path d="M17.8353 28.7001C17.7205 28.7001 17.6057 28.6562 17.5182 28.5687C17.3429 28.3934 17.3429 28.11 17.5182 27.9346L18.4151 27.0378C18.5904 26.8624 18.8738 26.8624 19.0492 27.0378C19.2245 27.2131 19.2245 27.4965 19.0492 27.6718L18.1523 28.5687C18.0649 28.6562 17.9501 28.7001 17.8353 28.7001Z" fill="#333333"/>
<path d="M17.8376 28.7001C17.7228 28.7001 17.608 28.6562 17.5206 28.5687L16.6237 27.6718C16.4484 27.4965 16.4484 27.2131 16.6237 27.0378C16.799 26.8624 17.0824 26.8624 17.2578 27.0378L18.1547 27.9346C18.33 28.11 18.33 28.3934 18.1547 28.5687C18.0672 28.6562 17.9524 28.7001 17.8376 28.7001Z" fill="#333333"/>
<path d="M16.0423 28.7001C15.9275 28.7001 15.8127 28.6562 15.7253 28.5687C15.5499 28.3934 15.5499 28.11 15.7253 27.9346L16.6221 27.0378C16.7975 26.8624 17.0809 26.8624 17.2562 27.0378C17.4316 27.2131 17.4316 27.4965 17.2562 27.6718L16.3593 28.5687C16.2719 28.6562 16.1571 28.7001 16.0423 28.7001Z" fill="#333333"/>
<path d="M16.0446 28.7001C15.9298 28.7001 15.815 28.6562 15.7276 28.5687L14.8307 27.6718C14.6554 27.4965 14.6554 27.2131 14.8307 27.0378C15.0061 26.8624 15.2895 26.8624 15.4648 27.0378L16.3617 27.9346C16.537 28.11 16.537 28.3934 16.3617 28.5687C16.2742 28.6562 16.1594 28.7001 16.0446 28.7001Z" fill="#333333"/>
<path d="M14.2493 28.7001C14.1345 28.7001 14.0197 28.6562 13.9323 28.5687C13.7569 28.3934 13.7569 28.11 13.9323 27.9346L14.8292 27.0378C15.0045 26.8624 15.2879 26.8624 15.4632 27.0378C15.6386 27.2131 15.6386 27.4965 15.4632 27.6718L14.5664 28.5687C14.4789 28.6562 14.3641 28.7001 14.2493 28.7001Z" fill="#333333"/>
<path d="M14.2478 28.7001C14.133 28.7001 14.0182 28.6562 13.9307 28.5687L13.0338 27.6718C12.8585 27.4965 12.8585 27.2131 13.0338 27.0378C13.2092 26.8624 13.4926 26.8624 13.6679 27.0378L14.5648 27.9346C14.7401 28.11 14.7401 28.3934 14.5648 28.5687C14.4774 28.6562 14.3626 28.7001 14.2478 28.7001Z" fill="#333333"/>
<path d="M12.4564 28.7001C12.3416 28.7001 12.2268 28.6562 12.1393 28.5687C11.964 28.3934 11.964 28.11 12.1393 27.9346L13.0362 27.0378C13.2115 26.8624 13.4949 26.8624 13.6703 27.0378C13.8456 27.2131 13.8456 27.4965 13.6703 27.6718L12.7734 28.5687C12.686 28.6562 12.5712 28.7001 12.4564 28.7001Z" fill="#333333"/>
<path d="M12.4548 28.7001C12.34 28.7001 12.2252 28.6562 12.1378 28.5687L11.2409 27.6718C11.0655 27.4965 11.0655 27.2131 11.2409 27.0378C11.4162 26.8624 11.6996 26.8624 11.875 27.0378L12.7718 27.9346C12.9472 28.11 12.9472 28.3934 12.7718 28.5687C12.6844 28.6562 12.5696 28.7001 12.4548 28.7001Z" fill="#333333"/>
<path d="M10.6634 28.7001C10.5486 28.7001 10.4338 28.6562 10.3463 28.5687C10.171 28.3934 10.171 28.11 10.3463 27.9346L11.2432 27.0378C11.4186 26.8624 11.702 26.8624 11.8773 27.0378C12.0527 27.2131 12.0527 27.4965 11.8773 27.6718L10.9804 28.5687C10.893 28.6562 10.7782 28.7001 10.6634 28.7001Z" fill="#333333"/>
<path d="M10.6618 28.7001C10.547 28.7001 10.4322 28.6562 10.3448 28.5687L9.44791 27.6718C9.27257 27.4965 9.27257 27.2131 9.44791 27.0378C9.62325 26.8624 9.90666 26.8624 10.082 27.0378L10.9789 27.9346C11.1542 28.11 11.1542 28.3934 10.9789 28.5687C10.8914 28.6562 10.7766 28.7001 10.6618 28.7001Z" fill="#333333"/>
<path d="M8.87043 28.7001C8.75563 28.7001 8.64082 28.6562 8.55338 28.5687C8.37804 28.3934 8.37804 28.11 8.55338 27.9346L9.45025 27.0378C9.62559 26.8624 9.90901 26.8624 10.0843 27.0378C10.2597 27.2131 10.2597 27.4965 10.0843 27.6718L9.18747 28.5687C9.10003 28.6562 8.98523 28.7001 8.87043 28.7001Z" fill="#333333"/>
<path d="M8.86886 28.7001C8.75406 28.7001 8.63926 28.6562 8.55182 28.5687L7.65494 27.6718C7.4796 27.4965 7.4796 27.2131 7.65494 27.0378C7.83028 26.8624 8.11369 26.8624 8.28903 27.0378L9.18591 27.9346C9.36124 28.11 9.36124 28.3934 9.18591 28.5687C9.09846 28.6562 8.98366 28.7001 8.86886 28.7001Z" fill="#333333"/>
<path d="M7.07355 28.7001C6.95875 28.7001 6.84395 28.6562 6.7565 28.5687C6.58117 28.3934 6.58117 28.11 6.7565 27.9346L7.65338 27.0378C7.82872 26.8624 8.11213 26.8624 8.28747 27.0378C8.46281 27.2131 8.46281 27.4965 8.28747 27.6718L7.3906 28.5687C7.30315 28.6562 7.18835 28.7001 7.07355 28.7001Z" fill="#333333"/>
<path d="M7.0759 28.7001C6.9611 28.7001 6.84629 28.6562 6.75885 28.5687L5.86197 27.6718C5.68663 27.4965 5.68663 27.2131 5.86197 27.0378C6.03731 26.8624 6.32073 26.8624 6.49606 27.0378L7.39294 27.9346C7.56828 28.11 7.56828 28.3934 7.39294 28.5687C7.3055 28.6562 7.1907 28.7001 7.0759 28.7001Z" fill="#333333"/>
<path d="M5.28058 28.7001C5.16578 28.7001 5.05098 28.6562 4.96354 28.5687C4.7882 28.3934 4.7882 28.11 4.96354 27.9346L5.86041 27.0378C6.03575 26.8624 6.31916 26.8624 6.4945 27.0378C6.66984 27.2131 6.66984 27.4965 6.4945 27.6718L5.59763 28.5687C5.51018 28.6562 5.39538 28.7001 5.28058 28.7001V28.7001Z" fill="#333333"/>
<path d="M5.28292 28.7001C5.16812 28.7001 5.05332 28.6562 4.96588 28.5687L4.069 27.6718C3.89367 27.4965 3.89367 27.2131 4.069 27.0378C4.24434 26.8624 4.52776 26.8624 4.70309 27.0378L5.59997 27.9346C5.77531 28.11 5.77531 28.3934 5.59997 28.5687C5.51252 28.6562 5.39772 28.7001 5.28292 28.7001V28.7001Z" fill="#333333"/>
<path d="M4.38594 27.8027C4.13795 27.8027 3.9375 27.6023 3.9375 27.3543V1.34492C3.9375 1.09738 4.13795 0.896484 4.38594 0.896484C4.63392 0.896484 4.83438 1.09738 4.83438 1.34492V27.3543C4.83438 27.6023 4.63392 27.8027 4.38594 27.8027Z" fill="#333333"/>
<path d="M24.1125 27.8027C23.8645 27.8027 23.6641 27.6023 23.6641 27.3543V1.34492C23.6641 1.09738 23.8645 0.896484 24.1125 0.896484C24.3605 0.896484 24.5609 1.09738 24.5609 1.34492V27.3543C24.5609 27.6023 24.3605 27.8027 24.1125 27.8027Z" fill="#333333"/>
<path d="M24.1154 2.69082H4.38594C4.13795 2.69082 3.9375 2.48992 3.9375 2.24238C3.9375 1.99485 4.13795 1.79395 4.38594 1.79395H24.1154C24.3634 1.79395 24.5638 1.99485 24.5638 2.24238C24.5638 2.48992 24.3634 2.69082 24.1154 2.69082Z" fill="#333333"/>
<path d="M24.1154 26.9076H4.38594C4.13795 26.9076 3.9375 26.7072 3.9375 26.4592C3.9375 26.2112 4.13795 26.0107 4.38594 26.0107H24.1154C24.3634 26.0107 24.5638 26.2112 24.5638 26.4592C24.5638 26.7072 24.3634 26.9076 24.1154 26.9076Z" fill="#333333"/>
<path d="M8.86797 7.17539C7.87872 7.17539 7.07422 6.37089 7.07422 5.38164C7.07422 4.39239 7.87872 3.58789 8.86797 3.58789C9.11596 3.58789 9.31641 3.78879 9.31641 4.03633C9.31641 4.28387 9.11596 4.48477 8.86797 4.48477C8.37334 4.48477 7.97109 4.88701 7.97109 5.38164C7.97109 5.87627 8.37334 6.27852 8.86797 6.27852C9.11596 6.27852 9.31641 6.47942 9.31641 6.72695C9.31641 6.97449 9.11596 7.17539 8.86797 7.17539Z" fill="#333333"/>
<path d="M10.6594 7.17539C10.4114 7.17539 10.2109 6.97449 10.2109 6.72695C10.2109 6.47942 10.4114 6.27852 10.6594 6.27852C11.154 6.27852 11.5563 5.87627 11.5563 5.38164C11.5563 4.88701 11.154 4.48477 10.6594 4.48477C10.4114 4.48477 10.2109 4.28387 10.2109 4.03633C10.2109 3.78879 10.4114 3.58789 10.6594 3.58789C11.6486 3.58789 12.4531 4.39239 12.4531 5.38164C12.4531 6.37089 11.6486 7.17539 10.6594 7.17539Z" fill="#333333"/>
<path d="M10.6593 4.48477H8.86641C8.61842 4.48477 8.41797 4.28387 8.41797 4.03633C8.41797 3.78879 8.61842 3.58789 8.86641 3.58789H10.6593C10.9072 3.58789 11.1077 3.78879 11.1077 4.03633C11.1077 4.28387 10.9072 4.48477 10.6593 4.48477Z" fill="#333333"/>
<path d="M10.6593 7.17519H8.86641C8.61842 7.17519 8.41797 6.97429 8.41797 6.72676C8.41797 6.47922 8.61842 6.27832 8.86641 6.27832H10.6593C10.9072 6.27832 11.1077 6.47922 11.1077 6.72676C11.1077 6.97429 10.9072 7.17519 10.6593 7.17519Z" fill="#333333"/>
<path d="M11.9295 5.37931C11.7806 5.37931 11.6348 5.30532 11.5496 5.16989C11.4174 4.96047 11.4806 4.68334 11.69 4.5515L13.1133 3.65462C13.3237 3.52368 13.6003 3.58512 13.7317 3.79499C13.864 4.00441 13.8008 4.28154 13.5914 4.41338L12.168 5.31025C12.0936 5.35689 12.0115 5.37931 11.9295 5.37931Z" fill="#333333"/>
<path d="M13.3517 7.17411C13.2701 7.17411 13.1876 7.15213 13.1136 7.1055L11.6902 6.21086C11.4804 6.07902 11.4176 5.80234 11.5494 5.59247C11.6817 5.38305 11.9588 5.31982 12.1678 5.45166L13.5912 6.34629C13.801 6.47813 13.8638 6.75482 13.732 6.96469C13.6463 7.10011 13.5006 7.17411 13.3517 7.17411V7.17411Z" fill="#333333"/>
<path d="M13.3508 7.17539C13.1028 7.17539 12.9023 6.97449 12.9023 6.72695V4.03633C12.9023 3.78879 13.1028 3.58789 13.3508 3.58789C13.5988 3.58789 13.7992 3.78879 13.7992 4.03633V6.72695C13.7992 6.97449 13.5988 7.17539 13.3508 7.17539Z" fill="#333333"/>
<path d="M6.17947 7.17433C6.03059 7.17433 5.88485 7.10033 5.79964 6.96491C5.66735 6.75549 5.73058 6.47835 5.94 6.34651L7.36334 5.44964C7.57321 5.31824 7.85035 5.38058 7.98174 5.59C8.11403 5.79942 8.0508 6.07655 7.84138 6.20839L6.41804 7.10527C6.3436 7.1519 6.26153 7.17433 6.17947 7.17433V7.17433Z" fill="#333333"/>
<path d="M7.60169 5.37899C7.52008 5.37899 7.43757 5.35701 7.36357 5.31037L5.94023 4.41574C5.73036 4.2839 5.66758 4.00722 5.79942 3.79735C5.93171 3.58793 6.20885 3.52515 6.41782 3.65654L7.84116 4.55117C8.05103 4.68301 8.11381 4.9597 7.98197 5.16957C7.89632 5.30499 7.75058 5.37899 7.60169 5.37899V5.37899Z" fill="#333333"/>
<path d="M6.17891 7.17539C5.93092 7.17539 5.73047 6.97449 5.73047 6.72695V4.03633C5.73047 3.78879 5.93092 3.58789 6.17891 3.58789C6.42689 3.58789 6.62734 3.78879 6.62734 4.03633V6.72695C6.62734 6.97449 6.42689 7.17539 6.17891 7.17539Z" fill="#333333"/>
<path d="M8.86797 11.6598C7.87872 11.6598 7.07422 10.8553 7.07422 9.86602C7.07422 8.87676 7.87872 8.07227 8.86797 8.07227C9.11596 8.07227 9.31641 8.27317 9.31641 8.5207C9.31641 8.76824 9.11596 8.96914 8.86797 8.96914C8.37334 8.96914 7.97109 9.37139 7.97109 9.86602C7.97109 10.3606 8.37334 10.7629 8.86797 10.7629C9.11596 10.7629 9.31641 10.9638 9.31641 11.2113C9.31641 11.4589 9.11596 11.6598 8.86797 11.6598Z" fill="#333333"/>
<path d="M10.6594 11.6598C10.4114 11.6598 10.2109 11.4589 10.2109 11.2113C10.2109 10.9638 10.4114 10.7629 10.6594 10.7629C11.154 10.7629 11.5563 10.3606 11.5563 9.86602C11.5563 9.37139 11.154 8.96914 10.6594 8.96914C10.4114 8.96914 10.2109 8.76824 10.2109 8.5207C10.2109 8.27317 10.4114 8.07227 10.6594 8.07227C11.6486 8.07227 12.4531 8.87676 12.4531 9.86602C12.4531 10.8553 11.6486 11.6598 10.6594 11.6598Z" fill="#333333"/>
<path d="M10.6593 8.96914H8.86641C8.61842 8.96914 8.41797 8.76824 8.41797 8.5207C8.41797 8.27317 8.61842 8.07227 8.86641 8.07227H10.6593C10.9072 8.07227 11.1077 8.27317 11.1077 8.5207C11.1077 8.76824 10.9072 8.96914 10.6593 8.96914Z" fill="#333333"/>
<path d="M10.6593 11.6596H8.86641C8.61842 11.6596 8.41797 11.4587 8.41797 11.2111C8.41797 10.9636 8.61842 10.7627 8.86641 10.7627H10.6593C10.9072 10.7627 11.1077 10.9636 11.1077 11.2111C11.1077 11.4587 10.9072 11.6596 10.6593 11.6596Z" fill="#333333"/>
<path d="M11.9295 9.86553C11.7806 9.86553 11.6348 9.79154 11.5496 9.65611C11.4174 9.44669 11.4806 9.16956 11.69 9.03772L13.1133 8.14084C13.3237 8.0099 13.6003 8.07178 13.7317 8.2812C13.864 8.49062 13.8008 8.76776 13.5914 8.8996L12.168 9.79647C12.0936 9.84311 12.0115 9.86553 11.9295 9.86553Z" fill="#333333"/>
<path d="M13.3517 11.6604C13.2701 11.6604 13.1876 11.6385 13.1136 11.5918L11.6902 10.6972C11.4804 10.5654 11.4176 10.2887 11.5494 10.0788C11.6817 9.86938 11.9588 9.80615 12.1678 9.93799L13.5912 10.8326C13.801 10.9645 13.8638 11.2411 13.732 11.451C13.6463 11.586 13.5006 11.6604 13.3517 11.6604V11.6604Z" fill="#333333"/>
<path d="M13.3508 11.6598C13.1028 11.6598 12.9023 11.4589 12.9023 11.2113V8.5207C12.9023 8.27317 13.1028 8.07227 13.3508 8.07227C13.5988 8.07227 13.7992 8.27317 13.7992 8.5207V11.2113C13.7992 11.4589 13.5988 11.6598 13.3508 11.6598Z" fill="#333333"/>
<path d="M6.17947 11.6585C6.03059 11.6585 5.88485 11.5845 5.79964 11.4491C5.66735 11.2397 5.73058 10.9625 5.94 10.8307L7.36334 9.93381C7.57321 9.80287 7.85035 9.86475 7.98174 10.0742C8.11403 10.2836 8.0508 10.5607 7.84138 10.6926L6.41804 11.5894C6.3436 11.6361 6.26153 11.6585 6.17947 11.6585V11.6585Z" fill="#333333"/>
<path d="M7.60169 9.86356C7.52008 9.86356 7.43757 9.84159 7.36357 9.79495L5.94023 8.90032C5.73036 8.76848 5.66758 8.49179 5.79942 8.28192C5.93171 8.0725 6.20885 8.00927 6.41782 8.14111L7.84116 9.03575C8.05103 9.16759 8.11381 9.44427 7.98197 9.65414C7.89632 9.78957 7.75058 9.86356 7.60169 9.86356V9.86356Z" fill="#333333"/>
<path d="M6.17891 11.6598C5.93092 11.6598 5.73047 11.4589 5.73047 11.2113V8.5207C5.73047 8.27317 5.93092 8.07227 6.17891 8.07227C6.42689 8.07227 6.62734 8.27317 6.62734 8.5207V11.2113C6.62734 11.4589 6.42689 11.6598 6.17891 11.6598Z" fill="#333333"/>
<path d="M17.8383 7.1748C17.5903 7.1748 17.3898 6.9739 17.3898 6.72637C17.3898 6.23174 16.9876 5.82949 16.493 5.82949C15.9983 5.82949 15.5961 6.23174 15.5961 6.72637C15.5961 6.9739 15.3956 7.1748 15.1477 7.1748C14.8997 7.1748 14.6992 6.9739 14.6992 6.72637C14.6992 5.73711 15.5037 4.93262 16.493 4.93262C17.4822 4.93262 18.2867 5.73711 18.2867 6.72637C18.2867 6.9739 18.0863 7.1748 17.8383 7.1748Z" fill="#333333"/>
<path d="M16.493 10.3145C15.5037 10.3145 14.6992 9.50996 14.6992 8.5207C14.6992 8.27317 14.8997 8.07227 15.1477 8.07227C15.3956 8.07227 15.5961 8.27317 15.5961 8.5207C15.5961 9.01533 15.9983 9.41758 16.493 9.41758C16.9876 9.41758 17.3898 9.01533 17.3898 8.5207C17.3898 8.27317 17.5903 8.07227 17.8383 8.07227C18.0863 8.07227 18.2867 8.27317 18.2867 8.5207C18.2867 9.50996 17.4822 10.3145 16.493 10.3145Z" fill="#333333"/>
<path d="M17.8391 8.96805C17.5911 8.96805 17.3906 8.76715 17.3906 8.51961V6.72676C17.3906 6.47922 17.5911 6.27832 17.8391 6.27832C18.087 6.27832 18.2875 6.47922 18.2875 6.72676V8.51961C18.2875 8.76715 18.087 8.96805 17.8391 8.96805Z" fill="#333333"/>
<path d="M15.1477 8.96805C14.8997 8.96805 14.6992 8.76715 14.6992 8.51961V6.72676C14.6992 6.47922 14.8997 6.27832 15.1477 6.27832C15.3956 6.27832 15.5961 6.47922 15.5961 6.72676V8.51961C15.5961 8.76715 15.3956 8.96805 15.1477 8.96805Z" fill="#333333"/>
<path d="M17.8381 11.6586C17.6892 11.6586 17.5434 11.5846 17.4582 11.4492L16.5614 10.0258C16.4291 9.81642 16.4923 9.53929 16.7017 9.40745C16.912 9.2765 17.1887 9.33839 17.3201 9.54781L18.217 10.9711C18.3493 11.1806 18.286 11.4577 18.0766 11.5895C18.0022 11.6362 17.9201 11.6586 17.8381 11.6586Z" fill="#333333"/>
<path d="M15.1471 11.6578C15.0655 11.6578 14.9834 11.6358 14.909 11.5892C14.6991 11.4573 14.6363 11.1806 14.7682 10.9708L15.6624 9.54744C15.7942 9.33847 16.07 9.27479 16.2808 9.40663C16.4906 9.53847 16.5534 9.81515 16.4216 10.025L15.5274 11.4484C15.4422 11.5838 15.2964 11.6578 15.1471 11.6578Z" fill="#333333"/>
<path d="M17.8383 11.6596H15.1477C14.8997 11.6596 14.6992 11.4587 14.6992 11.2111C14.6992 10.9636 14.8997 10.7627 15.1477 10.7627H17.8383C18.0863 10.7627 18.2867 10.9636 18.2867 11.2111C18.2867 11.4587 18.0863 11.6596 17.8383 11.6596Z" fill="#333333"/>
<path d="M16.0451 5.90782C15.8962 5.90782 15.7505 5.83383 15.6653 5.6984L14.7684 4.27506C14.6361 4.06564 14.6993 3.78851 14.9088 3.65667C15.1191 3.52528 15.3953 3.58761 15.5271 3.79703L16.424 5.22037C16.5563 5.42979 16.4931 5.70692 16.2837 5.83876C16.2092 5.8854 16.1272 5.90782 16.0451 5.90782Z" fill="#333333"/>
<path d="M16.9401 5.90789C16.8585 5.90789 16.7759 5.88592 16.702 5.83928C16.4921 5.70744 16.4293 5.43031 16.5611 5.22089L17.4562 3.79755C17.5885 3.58813 17.8657 3.5249 18.0746 3.65674C18.2845 3.78858 18.3473 4.06571 18.2154 4.27513L17.3203 5.69847C17.2347 5.83345 17.089 5.90789 16.9401 5.90789Z" fill="#333333"/>
<path d="M17.8383 4.48477H15.1477C14.8997 4.48477 14.6992 4.28387 14.6992 4.03633C14.6992 3.78879 14.8997 3.58789 15.1477 3.58789H17.8383C18.0863 3.58789 18.2867 3.78879 18.2867 4.03633C18.2867 4.28387 18.0863 4.48477 17.8383 4.48477Z" fill="#333333"/>
<path d="M22.3227 7.1748C22.0747 7.1748 21.8742 6.9739 21.8742 6.72637C21.8742 6.23174 21.472 5.82949 20.9773 5.82949C20.4827 5.82949 20.0805 6.23174 20.0805 6.72637C20.0805 6.9739 19.88 7.1748 19.632 7.1748C19.384 7.1748 19.1836 6.9739 19.1836 6.72637C19.1836 5.73711 19.9881 4.93262 20.9773 4.93262C21.9666 4.93262 22.7711 5.73711 22.7711 6.72637C22.7711 6.9739 22.5706 7.1748 22.3227 7.1748Z" fill="#333333"/>
<path d="M20.9773 10.3145C19.9881 10.3145 19.1836 9.50996 19.1836 8.5207C19.1836 8.27317 19.384 8.07227 19.632 8.07227C19.88 8.07227 20.0805 8.27317 20.0805 8.5207C20.0805 9.01533 20.4827 9.41758 20.9773 9.41758C21.472 9.41758 21.8742 9.01533 21.8742 8.5207C21.8742 8.27317 22.0747 8.07227 22.3227 8.07227C22.5706 8.07227 22.7711 8.27317 22.7711 8.5207C22.7711 9.50996 21.9666 10.3145 20.9773 10.3145Z" fill="#333333"/>
<path d="M22.3234 8.96805C22.0755 8.96805 21.875 8.76715 21.875 8.51961V6.72676C21.875 6.47922 22.0755 6.27832 22.3234 6.27832C22.5714 6.27832 22.7719 6.47922 22.7719 6.72676V8.51961C22.7719 8.76715 22.5714 8.96805 22.3234 8.96805Z" fill="#333333"/>
<path d="M19.632 8.96805C19.384 8.96805 19.1836 8.76715 19.1836 8.51961V6.72676C19.1836 6.47922 19.384 6.27832 19.632 6.27832C19.88 6.27832 20.0805 6.47922 20.0805 6.72676V8.51961C20.0805 8.76715 19.88 8.96805 19.632 8.96805Z" fill="#333333"/>
<path d="M22.3224 11.6586C22.1736 11.6586 22.0278 11.5846 21.9426 11.4492L21.0457 10.0258C20.9134 9.81642 20.9767 9.53929 21.1861 9.40745C21.396 9.2765 21.6731 9.33839 21.8045 9.54781L22.7014 10.9711C22.8337 11.1806 22.7704 11.4577 22.561 11.5895C22.4866 11.6362 22.4045 11.6586 22.3224 11.6586V11.6586Z" fill="#333333"/>
<path d="M19.6315 11.6578C19.5499 11.6578 19.4678 11.6358 19.3934 11.5892C19.1835 11.4573 19.1207 11.1806 19.2525 10.9708L20.1467 9.54744C20.2786 9.33847 20.5548 9.27479 20.7651 9.40663C20.975 9.53847 21.0378 9.81515 20.9059 10.025L20.0118 11.4484C19.9266 11.5838 19.7808 11.6578 19.6315 11.6578Z" fill="#333333"/>
<path d="M22.3227 11.6596H19.632C19.384 11.6596 19.1836 11.4587 19.1836 11.2111C19.1836 10.9636 19.384 10.7627 19.632 10.7627H22.3227C22.5706 10.7627 22.7711 10.9636 22.7711 11.2111C22.7711 11.4587 22.5706 11.6596 22.3227 11.6596Z" fill="#333333"/>
<path d="M20.5295 5.90782C20.3806 5.90782 20.2348 5.83383 20.1496 5.6984L19.2528 4.27506C19.1205 4.06564 19.1837 3.78851 19.3931 3.65667C19.603 3.52528 19.8801 3.58761 20.0115 3.79703L20.9084 5.22037C21.0407 5.42979 20.9775 5.70692 20.768 5.83876C20.6936 5.8854 20.6115 5.90782 20.5295 5.90782V5.90782Z" fill="#333333"/>
<path d="M21.4284 5.90789C21.3467 5.90789 21.2642 5.88592 21.1902 5.83928C20.9804 5.70744 20.9176 5.43031 21.0494 5.22089L21.9445 3.79755C22.0768 3.58813 22.3539 3.5249 22.5629 3.65674C22.7728 3.78858 22.8356 4.06571 22.7037 4.27513L21.8086 5.69847C21.723 5.83345 21.5772 5.90789 21.4284 5.90789Z" fill="#333333"/>
<path d="M22.3227 4.48477H19.632C19.384 4.48477 19.1836 4.28387 19.1836 4.03633C19.1836 3.78879 19.384 3.58789 19.632 3.58789H22.3227C22.5706 3.58789 22.7711 3.78879 22.7711 4.03633C22.7711 4.28387 22.5706 4.48477 22.3227 4.48477Z" fill="#333333"/>
<path d="M19.632 16.1441C19.384 16.1441 19.1836 15.9437 19.1836 15.6957C19.1836 15.4477 19.384 15.2473 19.632 15.2473C20.1267 15.2473 20.5289 14.845 20.5289 14.3504C20.5289 13.8558 20.1267 13.4535 19.632 13.4535C19.384 13.4535 19.1836 13.2526 19.1836 13.0051C19.1836 12.7575 19.384 12.5566 19.632 12.5566C20.6213 12.5566 21.4258 13.3611 21.4258 14.3504C21.4258 15.3396 20.6213 16.1441 19.632 16.1441Z" fill="#333333"/>
<path d="M17.8406 16.1441C16.8514 16.1441 16.0469 15.3396 16.0469 14.3504C16.0469 13.3611 16.8514 12.5566 17.8406 12.5566C18.0886 12.5566 18.2891 12.7575 18.2891 13.0051C18.2891 13.2526 18.0886 13.4535 17.8406 13.4535C17.346 13.4535 16.9438 13.8558 16.9438 14.3504C16.9438 14.845 17.346 15.2473 17.8406 15.2473C18.0886 15.2473 18.2891 15.4477 18.2891 15.6957C18.2891 15.9437 18.0886 16.1441 17.8406 16.1441Z" fill="#333333"/>
<path d="M19.6319 13.4535H17.8391C17.5911 13.4535 17.3906 13.2526 17.3906 13.0051C17.3906 12.7575 17.5911 12.5566 17.8391 12.5566H19.6319C19.8799 12.5566 20.0804 12.7575 20.0804 13.0051C20.0804 13.2526 19.8799 13.4535 19.6319 13.4535Z" fill="#333333"/>
<path d="M19.6319 16.1439H17.8391C17.5911 16.1439 17.3906 15.9435 17.3906 15.6955C17.3906 15.4475 17.5911 15.2471 17.8391 15.2471H19.6319C19.8799 15.2471 20.0804 15.4475 20.0804 15.6955C20.0804 15.9435 19.8799 16.1439 19.6319 16.1439Z" fill="#333333"/>
<path d="M16.5705 14.3511C16.4884 14.3511 16.4063 14.3287 16.3319 14.282L14.9086 13.3852C14.6991 13.2533 14.6364 12.9762 14.7682 12.7668C14.9 12.5573 15.1767 12.495 15.3866 12.6264L16.8099 13.5233C17.0193 13.6551 17.0821 13.9322 16.9503 14.1417C16.8651 14.2771 16.7193 14.3511 16.5705 14.3511V14.3511Z" fill="#333333"/>
<path d="M15.1483 16.1432C14.9995 16.1432 14.8537 16.0688 14.7681 15.9333C14.6362 15.7235 14.6995 15.4468 14.9089 15.3149L16.3322 14.4203C16.5421 14.2885 16.8188 14.3521 16.9506 14.5611C17.0824 14.771 17.0192 15.0477 16.8098 15.1795L15.3865 16.0741C15.3125 16.1208 15.23 16.1432 15.1483 16.1432Z" fill="#333333"/>
<path d="M15.1477 16.1441C14.8997 16.1441 14.6992 15.9437 14.6992 15.6957V13.0051C14.6992 12.7575 14.8997 12.5566 15.1477 12.5566C15.3956 12.5566 15.5961 12.7575 15.5961 13.0051V15.6957C15.5961 15.9437 15.3956 16.1441 15.1477 16.1441Z" fill="#333333"/>
<path d="M22.3205 16.1429C22.2384 16.1429 22.1563 16.1205 22.0819 16.0738L20.6586 15.1769C20.4491 15.0451 20.3864 14.768 20.5182 14.5585C20.65 14.3491 20.9272 14.2872 21.1366 14.4182L22.5599 15.3151C22.7693 15.4469 22.8321 15.7236 22.7003 15.9335C22.6151 16.0689 22.4693 16.1429 22.3205 16.1429V16.1429Z" fill="#333333"/>
<path d="M20.8983 14.3481C20.7495 14.3481 20.6037 14.2736 20.5181 14.1382C20.3862 13.9283 20.4495 13.6517 20.6589 13.5198L22.0822 12.6252C22.2921 12.4938 22.5688 12.557 22.7006 12.766C22.8325 12.9759 22.7692 13.2525 22.5598 13.3844L21.1365 14.279C21.0625 14.3261 20.98 14.3481 20.8983 14.3481Z" fill="#333333"/>
<path d="M22.3234 16.1441C22.0755 16.1441 21.875 15.9437 21.875 15.6957V13.0051C21.875 12.7575 22.0755 12.5566 22.3234 12.5566C22.5714 12.5566 22.7719 12.7575 22.7719 13.0051V15.6957C22.7719 15.9437 22.5714 16.1441 22.3234 16.1441Z" fill="#333333"/>
<path d="M19.632 20.6285C19.384 20.6285 19.1836 20.4281 19.1836 20.1801C19.1836 19.9321 19.384 19.7316 19.632 19.7316C20.1267 19.7316 20.5289 19.3294 20.5289 18.8348C20.5289 18.3401 20.1267 17.9379 19.632 17.9379C19.384 17.9379 19.1836 17.7374 19.1836 17.4895C19.1836 17.2415 19.384 17.041 19.632 17.041C20.6213 17.041 21.4258 17.8455 21.4258 18.8348C21.4258 19.824 20.6213 20.6285 19.632 20.6285Z" fill="#333333"/>
<path d="M17.8406 20.6285C16.8514 20.6285 16.0469 19.824 16.0469 18.8348C16.0469 17.8455 16.8514 17.041 17.8406 17.041C18.0886 17.041 18.2891 17.2415 18.2891 17.4895C18.2891 17.7374 18.0886 17.9379 17.8406 17.9379C17.346 17.9379 16.9438 18.3401 16.9438 18.8348C16.9438 19.3294 17.346 19.7316 17.8406 19.7316C18.0886 19.7316 18.2891 19.9321 18.2891 20.1801C18.2891 20.4281 18.0886 20.6285 17.8406 20.6285Z" fill="#333333"/>
<path d="M19.6319 17.9379H17.8391C17.5911 17.9379 17.3906 17.7374 17.3906 17.4895C17.3906 17.2415 17.5911 17.041 17.8391 17.041H19.6319C19.8799 17.041 20.0804 17.2415 20.0804 17.4895C20.0804 17.7374 19.8799 17.9379 19.6319 17.9379Z" fill="#333333"/>
<path d="M19.6319 20.6283H17.8391C17.5911 20.6283 17.3906 20.4279 17.3906 20.1799C17.3906 19.9319 17.5911 19.7314 17.8391 19.7314H19.6319C19.8799 19.7314 20.0804 19.9319 20.0804 20.1799C20.0804 20.4279 19.8799 20.6283 19.6319 20.6283Z" fill="#333333"/>
<path d="M16.5705 18.8346C16.4884 18.8346 16.4063 18.8122 16.3319 18.7655L14.9086 17.8687C14.6991 17.7368 14.6364 17.4601 14.7682 17.2503C14.9 17.0404 15.1767 16.9785 15.3866 17.1099L16.8099 18.0068C17.0193 18.1386 17.0821 18.4153 16.9503 18.6252C16.8651 18.7606 16.7193 18.8346 16.5705 18.8346V18.8346Z" fill="#333333"/>
<path d="M15.1483 20.6291C14.9995 20.6291 14.8537 20.5547 14.7681 20.4193C14.6362 20.2094 14.6995 19.9327 14.9089 19.8009L16.3322 18.9062C16.5421 18.7753 16.8188 18.8381 16.9506 19.047C17.0824 19.2569 17.0192 19.5336 16.8098 19.6654L15.3865 20.5601C15.3125 20.6067 15.23 20.6291 15.1483 20.6291Z" fill="#333333"/>
<path d="M15.1477 20.6285C14.8997 20.6285 14.6992 20.4281 14.6992 20.1801V17.4895C14.6992 17.2415 14.8997 17.041 15.1477 17.041C15.3956 17.041 15.5961 17.2415 15.5961 17.4895V20.1801C15.5961 20.4281 15.3956 20.6285 15.1477 20.6285Z" fill="#333333"/>
<path d="M22.3205 20.6294C22.2384 20.6294 22.1563 20.607 22.0819 20.5603L20.6586 19.6635C20.4491 19.5316 20.3864 19.2549 20.5182 19.0451C20.65 18.8357 20.9272 18.7733 21.1366 18.9047L22.5599 19.8016C22.7693 19.9334 22.8321 20.2101 22.7003 20.42C22.6151 20.5554 22.4693 20.6294 22.3205 20.6294V20.6294Z" fill="#333333"/>
<path d="M20.8983 18.8333C20.7495 18.8333 20.6037 18.7589 20.5181 18.6234C20.3862 18.4136 20.4495 18.1369 20.6589 18.0051L22.0822 17.1104C22.2921 16.979 22.5688 17.0427 22.7006 17.2512C22.8325 17.4611 22.7692 17.7378 22.5598 17.8696L21.1365 18.7643C21.0625 18.8109 20.98 18.8333 20.8983 18.8333Z" fill="#333333"/>
<path d="M22.3234 20.6285C22.0755 20.6285 21.875 20.4281 21.875 20.1801V17.4895C21.875 17.2415 22.0755 17.041 22.3234 17.041C22.5714 17.041 22.7719 17.2415 22.7719 17.4895V20.1801C22.7719 20.4281 22.5714 20.6285 22.3234 20.6285Z" fill="#333333"/>
<path d="M19.632 25.1129C19.384 25.1129 19.1836 24.9124 19.1836 24.6645C19.1836 24.4165 19.384 24.216 19.632 24.216C20.1267 24.216 20.5289 23.8138 20.5289 23.3191C20.5289 22.8245 20.1267 22.4223 19.632 22.4223C19.384 22.4223 19.1836 22.2218 19.1836 21.9738C19.1836 21.7258 19.384 21.5254 19.632 21.5254C20.6213 21.5254 21.4258 22.3299 21.4258 23.3191C21.4258 24.3084 20.6213 25.1129 19.632 25.1129Z" fill="#333333"/>
<path d="M17.8406 25.1129C16.8514 25.1129 16.0469 24.3084 16.0469 23.3191C16.0469 22.3299 16.8514 21.5254 17.8406 21.5254C18.0886 21.5254 18.2891 21.7258 18.2891 21.9738C18.2891 22.2218 18.0886 22.4223 17.8406 22.4223C17.346 22.4223 16.9438 22.8245 16.9438 23.3191C16.9438 23.8138 17.346 24.216 17.8406 24.216C18.0886 24.216 18.2891 24.4165 18.2891 24.6645C18.2891 24.9124 18.0886 25.1129 17.8406 25.1129Z" fill="#333333"/>
<path d="M19.6319 22.4223H17.8391C17.5911 22.4223 17.3906 22.2218 17.3906 21.9738C17.3906 21.7258 17.5911 21.5254 17.8391 21.5254H19.6319C19.8799 21.5254 20.0804 21.7258 20.0804 21.9738C20.0804 22.2218 19.8799 22.4223 19.6319 22.4223Z" fill="#333333"/>
<path d="M19.6319 25.1127H17.8391C17.5911 25.1127 17.3906 24.9122 17.3906 24.6643C17.3906 24.4163 17.5911 24.2158 17.8391 24.2158H19.6319C19.8799 24.2158 20.0804 24.4163 20.0804 24.6643C20.0804 24.9122 19.8799 25.1127 19.6319 25.1127Z" fill="#333333"/>
<path d="M16.5705 23.319C16.4884 23.319 16.4063 23.2965 16.3319 23.2499L14.9086 22.353C14.6991 22.2212 14.6364 21.9445 14.7682 21.7346C14.9 21.5248 15.1767 21.4629 15.3866 21.5943L16.8099 22.4911C17.0193 22.623 17.0821 22.8997 16.9503 23.1095C16.8651 23.245 16.7193 23.319 16.5705 23.319V23.319Z" fill="#333333"/>
<path d="M15.1483 25.1118C14.9995 25.1118 14.8537 25.0373 14.7681 24.9019C14.6362 24.692 14.6995 24.4153 14.9089 24.2835L16.3322 23.3889C16.5421 23.2575 16.8188 23.3207 16.9506 23.5297C17.0824 23.7395 17.0192 24.0162 16.8098 24.1481L15.3865 25.0427C15.3125 25.0893 15.23 25.1118 15.1483 25.1118Z" fill="#333333"/>
<path d="M15.1477 25.1129C14.8997 25.1129 14.6992 24.9124 14.6992 24.6645V21.9738C14.6992 21.7258 14.8997 21.5254 15.1477 21.5254C15.3956 21.5254 15.5961 21.7258 15.5961 21.9738V24.6645C15.5961 24.9124 15.3956 25.1129 15.1477 25.1129Z" fill="#333333"/>
<path d="M22.3205 25.1116C22.2384 25.1116 22.1563 25.0892 22.0819 25.0426L20.6586 24.1457C20.4491 24.0139 20.3864 23.7372 20.5182 23.5273C20.65 23.3179 20.9272 23.256 21.1366 23.3869L22.5599 24.2838C22.7693 24.4157 22.8321 24.6923 22.7003 24.9022C22.6151 25.0376 22.4693 25.1116 22.3205 25.1116V25.1116Z" fill="#333333"/>
<path d="M20.8983 23.3175C20.7495 23.3175 20.6037 23.243 20.5181 23.1076C20.3862 22.8978 20.4495 22.6211 20.6589 22.4892L22.0822 21.5946C22.2921 21.4637 22.5688 21.5269 22.7006 21.7354C22.8325 21.9453 22.7692 22.222 22.5598 22.3538L21.1365 23.2484C21.0625 23.2951 20.98 23.3175 20.8983 23.3175Z" fill="#333333"/>
<path d="M22.3234 25.1129C22.0755 25.1129 21.875 24.9124 21.875 24.6645V21.9738C21.875 21.7258 22.0755 21.5254 22.3234 21.5254C22.5714 21.5254 22.7719 21.7258 22.7719 21.9738V24.6645C22.7719 24.9124 22.5714 25.1129 22.3234 25.1129Z" fill="#333333"/>
<path d="M10.6633 25.1129C10.4153 25.1129 10.2148 24.9124 10.2148 24.6645C10.2148 24.4165 10.4153 24.216 10.6633 24.216C11.1579 24.216 11.5602 23.8138 11.5602 23.3191C11.5602 22.8245 11.1579 22.4223 10.6633 22.4223C10.4153 22.4223 10.2148 22.2218 10.2148 21.9738C10.2148 21.7258 10.4153 21.5254 10.6633 21.5254C11.6525 21.5254 12.457 22.3299 12.457 23.3191C12.457 24.3084 11.6525 25.1129 10.6633 25.1129Z" fill="#333333"/>
<path d="M8.87187 25.1129C7.88262 25.1129 7.07812 24.3084 7.07812 23.3191C7.07812 22.3299 7.88262 21.5254 8.87187 21.5254C9.11986 21.5254 9.32031 21.7258 9.32031 21.9738C9.32031 22.2218 9.11986 22.4223 8.87187 22.4223C8.37725 22.4223 7.975 22.8245 7.975 23.3191C7.975 23.8138 8.37725 24.216 8.87187 24.216C9.11986 24.216 9.32031 24.4165 9.32031 24.6645C9.32031 24.9124 9.11986 25.1129 8.87187 25.1129Z" fill="#333333"/>
<path d="M10.6632 22.4223H8.87031C8.62233 22.4223 8.42188 22.2218 8.42188 21.9738C8.42188 21.7258 8.62233 21.5254 8.87031 21.5254H10.6632C10.9112 21.5254 11.1116 21.7258 11.1116 21.9738C11.1116 22.2218 10.9112 22.4223 10.6632 22.4223Z" fill="#333333"/>
<path d="M10.6632 25.1127H8.87031C8.62233 25.1127 8.42188 24.9122 8.42188 24.6643C8.42188 24.4163 8.62233 24.2158 8.87031 24.2158H10.6632C10.9112 24.2158 11.1116 24.4163 11.1116 24.6643C11.1116 24.9122 10.9112 25.1127 10.6632 25.1127Z" fill="#333333"/>
<path d="M7.60171 23.319C7.51965 23.319 7.43759 23.2965 7.36314 23.2499L5.93981 22.353C5.73039 22.2212 5.6676 21.9445 5.79944 21.7346C5.93128 21.5248 6.20842 21.4629 6.41784 21.5943L7.84118 22.4911C8.0506 22.623 8.11338 22.8997 7.98154 23.1095C7.89634 23.245 7.7506 23.319 7.60171 23.319V23.319Z" fill="#333333"/>
<path d="M6.17959 25.1118C6.03071 25.1118 5.88497 25.0373 5.79932 24.9019C5.66748 24.692 5.7307 24.4153 5.94012 24.2835L7.36346 23.3889C7.57333 23.2575 7.85002 23.3207 7.98186 23.5297C8.1137 23.7395 8.05047 24.0162 7.84105 24.1481L6.41771 25.0427C6.34372 25.0893 6.26121 25.1118 6.17959 25.1118Z" fill="#333333"/>
<path d="M6.17891 25.1129C5.93092 25.1129 5.73047 24.9124 5.73047 24.6645V21.9738C5.73047 21.7258 5.93092 21.5254 6.17891 21.5254C6.42689 21.5254 6.62734 21.7258 6.62734 21.9738V24.6645C6.62734 24.9124 6.42689 25.1129 6.17891 25.1129Z" fill="#333333"/>
<path d="M13.3517 25.1116C13.2696 25.1116 13.1876 25.0892 13.1131 25.0426L11.6898 24.1457C11.4804 24.0139 11.4176 23.7372 11.5494 23.5273C11.6813 23.3179 11.9584 23.256 12.1678 23.3869L13.5912 24.2838C13.8006 24.4157 13.8634 24.6923 13.7315 24.9022C13.6463 25.0376 13.5006 25.1116 13.3517 25.1116V25.1116Z" fill="#333333"/>
<path d="M11.9296 23.3175C11.7807 23.3175 11.635 23.243 11.5493 23.1076C11.4175 22.8978 11.4807 22.6211 11.6901 22.4892L13.1135 21.5946C13.3229 21.4637 13.5996 21.5269 13.7319 21.7354C13.8637 21.9453 13.8005 22.222 13.5911 22.3538L12.1677 23.2484C12.0937 23.2951 12.0112 23.3175 11.9296 23.3175V23.3175Z" fill="#333333"/>
<path d="M13.3547 25.1129C13.1067 25.1129 12.9062 24.9124 12.9062 24.6645V21.9738C12.9062 21.7258 13.1067 21.5254 13.3547 21.5254C13.6027 21.5254 13.8031 21.7258 13.8031 21.9738V24.6645C13.8031 24.9124 13.6027 25.1129 13.3547 25.1129Z" fill="#333333"/>
<path d="M13.3539 16.1436C13.1059 16.1436 12.9055 15.9431 12.9055 15.6951C12.9055 15.2005 12.5032 14.7982 12.0086 14.7982C11.514 14.7982 11.1117 15.2005 11.1117 15.6951C11.1117 15.9431 10.9113 16.1436 10.6633 16.1436C10.4153 16.1436 10.2148 15.9431 10.2148 15.6951C10.2148 14.7059 11.0193 13.9014 12.0086 13.9014C12.9978 13.9014 13.8023 14.7059 13.8023 15.6951C13.8023 15.9431 13.6019 16.1436 13.3539 16.1436Z" fill="#333333"/>
<path d="M12.0086 19.2832C11.0193 19.2832 10.2148 18.4787 10.2148 17.4895C10.2148 17.2415 10.4153 17.041 10.6633 17.041C10.9113 17.041 11.1117 17.2415 11.1117 17.4895C11.1117 17.9841 11.514 18.3863 12.0086 18.3863C12.5032 18.3863 12.9055 17.9841 12.9055 17.4895C12.9055 17.2415 13.1059 17.041 13.3539 17.041C13.6019 17.041 13.8023 17.2415 13.8023 17.4895C13.8023 18.4787 12.9978 19.2832 12.0086 19.2832Z" fill="#333333"/>
<path d="M10.6633 17.9368C10.4153 17.9368 10.2148 17.7363 10.2148 17.4884V15.6955C10.2148 15.4475 10.4153 15.2471 10.6633 15.2471C10.9113 15.2471 11.1117 15.4475 11.1117 15.6955V17.4884C11.1117 17.7363 10.9113 17.9368 10.6633 17.9368Z" fill="#333333"/>
<path d="M13.3547 17.9368C13.1067 17.9368 12.9062 17.7363 12.9062 17.4884V15.6955C12.9062 15.4475 13.1067 15.2471 13.3547 15.2471C13.6027 15.2471 13.8031 15.4475 13.8031 15.6955V17.4884C13.8031 17.7363 13.6027 17.9368 13.3547 17.9368Z" fill="#333333"/>
<path d="M10.6627 20.6287C10.5807 20.6287 10.4986 20.6063 10.4242 20.5597C10.2148 20.4278 10.152 20.1511 10.2838 19.9413L11.1807 18.5179C11.3125 18.3085 11.5897 18.2457 11.7991 18.3776C12.0085 18.5094 12.0713 18.7861 11.9394 18.996L11.0426 20.4193C10.9574 20.5547 10.8116 20.6287 10.6627 20.6287V20.6287Z" fill="#333333"/>
<path d="M13.355 20.627C13.2057 20.627 13.06 20.5525 12.9747 20.4171L12.0806 18.9938C11.9487 18.7839 12.012 18.5072 12.2214 18.3754C12.4308 18.2435 12.7084 18.3072 12.8398 18.5162L13.734 19.9395C13.8658 20.1494 13.8026 20.4261 13.5931 20.5579C13.5192 20.6046 13.4366 20.627 13.355 20.627V20.627Z" fill="#333333"/>
<path d="M13.3539 20.6283H10.6633C10.4153 20.6283 10.2148 20.4279 10.2148 20.1799C10.2148 19.9319 10.4153 19.7314 10.6633 19.7314H13.3539C13.6019 19.7314 13.8023 19.9319 13.8023 20.1799C13.8023 20.4279 13.6019 20.6283 13.3539 20.6283Z" fill="#333333"/>
<path d="M12.4557 14.8773C12.3737 14.8773 12.2916 14.8549 12.2171 14.8083C12.0077 14.6765 11.9449 14.3993 12.0768 14.1899L12.9737 12.7666C13.1055 12.5571 13.3822 12.4953 13.5921 12.6262C13.8015 12.758 13.8643 13.0352 13.7324 13.2446L12.8355 14.6679C12.7503 14.8034 12.6046 14.8773 12.4557 14.8773Z" fill="#333333"/>
<path d="M11.559 14.8771C11.4102 14.8771 11.2644 14.8031 11.1788 14.6672L10.2837 13.2439C10.1518 13.0345 10.2151 12.7578 10.4245 12.6255C10.6339 12.4936 10.9111 12.5569 11.0429 12.7663L11.938 14.1896C12.0698 14.3991 12.0066 14.6757 11.7972 14.808C11.7232 14.8547 11.6407 14.8771 11.559 14.8771V14.8771Z" fill="#333333"/>
<path d="M13.3539 13.4535H10.6633C10.4153 13.4535 10.2148 13.2526 10.2148 13.0051C10.2148 12.7575 10.4153 12.5566 10.6633 12.5566H13.3539C13.6019 12.5566 13.8023 12.7575 13.8023 13.0051C13.8023 13.2526 13.6019 13.4535 13.3539 13.4535Z" fill="#333333"/>
<path d="M8.86954 16.1436C8.62155 16.1436 8.4211 15.9431 8.4211 15.6951C8.4211 15.2005 8.01885 14.7982 7.52422 14.7982C7.02959 14.7982 6.62734 15.2005 6.62734 15.6951C6.62734 15.9431 6.42689 16.1436 6.17891 16.1436C5.93092 16.1436 5.73047 15.9431 5.73047 15.6951C5.73047 14.7059 6.53497 13.9014 7.52422 13.9014C8.51348 13.9014 9.31797 14.7059 9.31797 15.6951C9.31797 15.9431 9.11752 16.1436 8.86954 16.1436Z" fill="#333333"/>
<path d="M7.52422 19.2832C6.53497 19.2832 5.73047 18.4787 5.73047 17.4895C5.73047 17.2415 5.93092 17.041 6.17891 17.041C6.42689 17.041 6.62734 17.2415 6.62734 17.4895C6.62734 17.9841 7.02959 18.3863 7.52422 18.3863C8.01885 18.3863 8.4211 17.9841 8.4211 17.4895C8.4211 17.2415 8.62155 17.041 8.86954 17.041C9.11752 17.041 9.31797 17.2415 9.31797 17.4895C9.31797 18.4787 8.51348 19.2832 7.52422 19.2832Z" fill="#333333"/>
<path d="M6.17891 17.9368C5.93092 17.9368 5.73047 17.7363 5.73047 17.4884V15.6955C5.73047 15.4475 5.93092 15.2471 6.17891 15.2471C6.42689 15.2471 6.62734 15.4475 6.62734 15.6955V17.4884C6.62734 17.7363 6.42689 17.9368 6.17891 17.9368Z" fill="#333333"/>
<path d="M8.87031 17.9368C8.62233 17.9368 8.42188 17.7363 8.42188 17.4884V15.6955C8.42188 15.4475 8.62233 15.2471 8.87031 15.2471C9.1183 15.2471 9.31875 15.4475 9.31875 15.6955V17.4884C9.31875 17.7363 9.1183 17.9368 8.87031 17.9368Z" fill="#333333"/>
<path d="M6.17837 20.6287C6.09631 20.6287 6.01425 20.6063 5.93981 20.5597C5.73038 20.4278 5.6676 20.1511 5.79944 19.9413L6.69632 18.5179C6.82816 18.3085 7.10485 18.2457 7.31471 18.3776C7.52413 18.5094 7.58692 18.7861 7.45508 18.996L6.5582 20.4193C6.473 20.5547 6.32726 20.6287 6.17837 20.6287V20.6287Z" fill="#333333"/>
<path d="M8.86674 20.627C8.71741 20.627 8.57167 20.5525 8.48647 20.4171L7.59228 18.9938C7.46044 18.7839 7.52367 18.5072 7.73309 18.3754C7.94251 18.2435 8.2201 18.3072 8.35149 18.5162L9.24567 19.9395C9.37751 20.1494 9.31428 20.4261 9.10486 20.5579C9.03087 20.6046 8.94836 20.627 8.86674 20.627V20.627Z" fill="#333333"/>
<path d="M8.86954 20.6283H6.17891C5.93092 20.6283 5.73047 20.4279 5.73047 20.1799C5.73047 19.9319 5.93092 19.7314 6.17891 19.7314H8.86954C9.11752 19.7314 9.31797 19.9319 9.31797 20.1799C9.31797 20.4279 9.11752 20.6283 8.86954 20.6283Z" fill="#333333"/>
<path d="M7.97134 14.8773C7.88928 14.8773 7.80721 14.8549 7.73277 14.8083C7.52335 14.6765 7.46057 14.3993 7.59241 14.1899L8.48929 12.7666C8.62113 12.5571 8.89826 12.4953 9.10768 12.6262C9.3171 12.758 9.37988 13.0352 9.24804 13.2446L8.35117 14.6679C8.26596 14.8034 8.12022 14.8773 7.97134 14.8773Z" fill="#333333"/>
<path d="M7.07467 14.8771C6.92579 14.8771 6.78005 14.8031 6.6944 14.6672L5.79932 13.2439C5.66748 13.0345 5.7307 12.7578 5.94012 12.6255C6.14999 12.4936 6.42668 12.5569 6.55852 12.7663L7.4536 14.1896C7.58544 14.3991 7.52221 14.6757 7.31279 14.808C7.2388 14.8547 7.15629 14.8771 7.07467 14.8771V14.8771Z" fill="#333333"/>
<path d="M8.86954 13.4535H6.17891C5.93092 13.4535 5.73047 13.2526 5.73047 13.0051C5.73047 12.7575 5.93092 12.5566 6.17891 12.5566H8.86954C9.11752 12.5566 9.31797 12.7575 9.31797 13.0051C9.31797 13.2526 9.11752 13.4535 8.86954 13.4535Z" fill="#333333"/>
</g>
<defs>
<clipPath id="clip0_512_19575">
<rect width="20.5" height="28.7" fill="white" transform="translate(4)"/>
</clipPath>
</defs>
</svg>
