<svg width="29" height="29" viewBox="0 0 29 29" fill="none" xmlns="http://www.w3.org/2000/svg">
<g clip-path="url(#clip0_512_19964)">
<path d="M22.2591 15.0207V6.78082C21.0752 6.67678 20.0119 6.16276 19.2179 5.38472C18.3255 4.51012 17.7734 3.30181 17.7734 1.96723C17.7734 1.75309 17.789 1.53609 17.819 1.31766C17.8229 1.28968 17.827 1.26175 17.8313 1.23391H7.07199V13.0907L22.259 15.0207L22.2591 15.0207ZM23.1514 6.3631V15.5128C23.1515 15.5326 23.1503 15.5527 23.1476 15.5729C23.116 15.8123 22.8922 15.9813 22.6478 15.9502L22.6481 15.9486L6.60717 13.9101C6.36945 13.9005 6.17969 13.7086 6.17969 13.4732V0.796672C6.17969 0.555207 6.37945 0.359444 6.62584 0.359444H18.3726C18.4143 0.358713 18.4569 0.363748 18.4992 0.375173C18.7367 0.439338 18.8762 0.680092 18.8107 0.912864L18.3806 0.796672L18.8094 0.912821C18.7619 1.08173 18.7254 1.25567 18.7009 1.43379C18.6777 1.60221 18.6657 1.78017 18.6657 1.96722C18.6657 3.0604 19.1178 4.05012 19.8488 4.76644C20.5798 5.48279 21.5897 5.92589 22.7052 5.92589C22.9516 5.92589 23.1513 6.12165 23.1513 6.36312L23.1514 6.3631Z" fill="#333333"/>
<path d="M9.33287 2.89453H12.5667C12.8131 2.89453 13.0128 3.09029 13.0128 3.33176V6.50092C13.0128 6.74238 12.8131 6.93815 12.5667 6.93815H9.33287C9.08648 6.93815 8.88672 6.74238 8.88672 6.50092V3.33176C8.88672 3.09029 9.08648 2.89453 9.33287 2.89453V2.89453ZM12.1205 3.76899H9.77902V6.06369H12.1205V3.76899Z" fill="#333333"/>
<path d="M9.33287 8.59961H12.5667C12.8131 8.59961 13.0128 8.79537 13.0128 9.03684V12.206C13.0128 12.4475 12.8131 12.6432 12.5667 12.6432H9.33287C9.08648 12.6432 8.88672 12.4475 8.88672 12.206V9.03684C8.88672 8.79537 9.08648 8.59961 9.33287 8.59961ZM12.1205 9.47406H9.77902V11.7688H12.1205V9.47406Z" fill="#333333"/>
<path d="M20.4425 5.47144C20.4425 5.22997 20.2428 5.03421 19.9964 5.03421C19.75 5.03421 19.5502 5.22997 19.5502 5.47144V6.06365H17.2087V3.76899H18.4394C18.6858 3.76899 18.8856 3.57322 18.8856 3.33176C18.8856 3.09029 18.6858 2.89453 18.4394 2.89453H16.7626C16.5162 2.89453 16.3164 3.09029 16.3164 3.33176V6.50088C16.3164 6.74234 16.5162 6.9381 16.7626 6.9381H19.9964C20.2428 6.9381 20.4425 6.74234 20.4425 6.50088V5.47144V5.47144Z" fill="#333333"/>
<path d="M16.7626 8.59961H19.9964C20.2428 8.59961 20.4425 8.79537 20.4425 9.03684V12.206C20.4425 12.4475 20.2428 12.6432 19.9964 12.6432H16.7626C16.5162 12.6432 16.3164 12.4475 16.3164 12.206V9.03684C16.3164 8.79537 16.5162 8.59961 16.7626 8.59961ZM19.5502 9.47406H17.2087V11.7688H19.5502V9.47406Z" fill="#333333"/>
<path d="M24.1658 15.5158C24.1658 15.2743 23.9661 15.0786 23.7197 15.0786C23.4733 15.0786 23.2735 15.2743 23.2735 15.5158V25.4011L22.5512 27.094L21.4197 25.8337L21.42 25.8335C21.2573 25.6522 20.9753 25.6345 20.7903 25.794C20.7707 25.811 20.753 25.8292 20.7371 25.8485L19.4839 27.2445L18.2173 25.8337L18.2176 25.8335C18.0549 25.6522 17.7729 25.6345 17.588 25.794C17.5683 25.811 17.5506 25.8292 17.5348 25.8485L16.2815 27.2444L15.015 25.8337L15.0153 25.8335C14.8525 25.6522 14.5706 25.6346 14.3856 25.794C14.3661 25.8109 14.3484 25.829 14.3327 25.8481L13.0791 27.2445L11.8125 25.8337L11.8128 25.8335C11.6501 25.6522 11.3681 25.6345 11.1831 25.794C11.1635 25.811 11.1458 25.8292 11.1299 25.8485L9.87668 27.2444L8.61016 25.8337L8.61045 25.8335C8.44769 25.6522 8.16575 25.6345 7.98077 25.794C7.96114 25.811 7.9434 25.8292 7.92757 25.8485L6.78934 27.1163L6.05644 25.3918V13.4724C6.05644 13.2309 5.85669 13.0352 5.61029 13.0352C5.3639 13.0352 5.16414 13.2309 5.16414 13.4724V25.4691C5.163 25.5278 5.17394 25.5877 5.19844 25.6453L5.19916 25.645L6.21973 28.0463C6.28002 28.2178 6.44612 28.3411 6.64164 28.3411H6.67234H6.67598V28.3411C6.7997 28.341 6.92279 28.2908 7.01095 28.1927L7.01066 28.1924L8.27549 26.7836L9.52842 28.1792C9.6102 28.2779 9.73507 28.3411 9.875 28.3411H9.87838V28.341C10.0021 28.341 10.1252 28.2908 10.2133 28.1927L10.2131 28.1924L11.4779 26.7836L12.7308 28.1791C12.8125 28.2778 12.9371 28.3409 13.0767 28.3411H13.0773H13.0774H13.0808V28.3411C13.2045 28.341 13.3276 28.2909 13.4158 28.1927L13.4155 28.1924L14.6803 26.7836L15.9332 28.1791C16.0149 28.2777 16.1394 28.3408 16.279 28.3411H16.2797H16.2798H16.2832V28.3411C16.4069 28.341 16.53 28.2908 16.6181 28.1927L16.6178 28.1924L17.8827 26.7836L19.1356 28.1791C19.2173 28.2777 19.3418 28.3408 19.4814 28.3411H19.4821H19.4822H19.4856V28.3411C19.6093 28.341 19.7324 28.2908 19.8205 28.1927L19.8202 28.1924L21.0851 26.7836L22.338 28.1791C22.4166 28.274 22.5349 28.336 22.6681 28.3407L22.6686 28.3408L22.6741 28.3409C22.8537 28.3465 23.0265 28.2447 23.1 28.0725L22.6884 27.9038L23.0997 28.0712L24.1199 25.6801C24.1493 25.6218 24.1659 25.5561 24.1659 25.4867V15.5157L24.1658 15.5158Z" fill="#333333"/>
<path d="M5.61021 23.9502C5.36382 23.9502 5.16406 24.146 5.16406 24.3874C5.16406 24.6289 5.36382 24.8247 5.61021 24.8247H23.7196C23.966 24.8247 24.1658 24.6289 24.1658 24.3874C24.1658 24.146 23.966 23.9502 23.7196 23.9502H5.61021Z" fill="#333333"/>
<path d="M5.76304 13.062C5.53204 12.979 5.27609 13.0952 5.19141 13.3216C5.10672 13.5479 5.22531 13.7988 5.45631 13.8818C6.24518 14.1667 7.01904 14.5627 7.79285 14.9587C9.42858 15.7957 11.0644 16.6327 12.9042 16.5337L23.7435 15.9508C23.9889 15.9376 24.177 15.7319 24.1635 15.4913C24.15 15.2508 23.9401 15.0665 23.6947 15.0797L12.8554 15.6627C11.2568 15.7486 9.7304 14.9677 8.20414 14.1867C7.39696 13.7737 6.58974 13.3606 5.76304 13.062H5.76304Z" fill="#333333"/>
<path fill-rule="evenodd" clip-rule="evenodd" d="M17.2109 3.76954V6.0642H19.5525V5.68311C19.4368 5.58872 19.3256 5.48924 19.2193 5.38501C18.7528 4.92782 18.3793 4.37946 18.129 3.76953H17.2109V3.76954Z" fill="#FFD3B3"/>
<path fill-rule="evenodd" clip-rule="evenodd" d="M16.3156 6.5016V3.33248C16.3156 3.09102 16.5154 2.89526 16.7618 2.89526H17.8625C17.8029 2.59507 17.7717 2.28495 17.7717 1.9677C17.7717 1.75356 17.7873 1.53656 17.8174 1.31812C17.8212 1.29015 17.8253 1.26222 17.8297 1.23438H7.07031V13.0912L22.2574 15.0212V6.78128C21.6077 6.72417 20.9943 6.5436 20.4417 6.26366V6.5016C20.4417 6.74306 20.242 6.93882 19.9956 6.93882H16.7618C16.5154 6.93882 16.3156 6.74306 16.3156 6.5016L16.3156 6.5016ZM16.7618 8.59969H19.9956C20.242 8.59969 20.4418 8.79545 20.4418 9.03692V12.2061C20.4418 12.4475 20.242 12.6433 19.9956 12.6433H16.7618C16.5154 12.6433 16.3156 12.4475 16.3156 12.2061V9.03692C16.3156 8.79545 16.5154 8.59969 16.7618 8.59969ZM13.0121 3.33246V6.50162C13.0121 6.74309 12.8123 6.93885 12.566 6.93885H9.33214C9.08574 6.93885 8.88599 6.74309 8.88599 6.50162V3.33246C8.88599 3.091 9.08574 2.89523 9.33214 2.89523H12.566C12.8123 2.89523 13.0121 3.091 13.0121 3.33246ZM9.33214 8.59969H12.566C12.8123 8.59969 13.0121 8.79545 13.0121 9.03692V12.2061C13.0121 12.4475 12.8123 12.6433 12.566 12.6433H9.33214C9.08574 12.6433 8.88599 12.4475 8.88599 12.2061V9.03692C8.88599 8.79545 9.08574 8.59969 9.33214 8.59969Z" fill="#B38E85"/>
<path fill-rule="evenodd" clip-rule="evenodd" d="M12.1228 6.06426V3.76953H9.78125V6.06426H12.1228Z" fill="#FFD3B3"/>
<path fill-rule="evenodd" clip-rule="evenodd" d="M12.1228 9.47266H9.78125V11.7674H12.1228V9.47266Z" fill="#FFD3B3"/>
<path fill-rule="evenodd" clip-rule="evenodd" d="M17.2109 9.47266V11.7674H19.5525V9.47266H17.2109Z" fill="#FFD3B3"/>
<path fill-rule="evenodd" clip-rule="evenodd" d="M18.1648 15.3791L8.01172 14.0889C8.07671 14.1221 8.14168 14.1553 8.20667 14.1886C9.73293 14.9695 11.2593 15.7505 12.858 15.6646L18.1648 15.3791H18.1648Z" fill="#CDA69D"/>
<path fill-rule="evenodd" clip-rule="evenodd" d="M23.2718 15.9782L12.9031 16.5358C11.0632 16.6347 9.42745 15.7977 7.79171 14.9607C7.21481 14.6655 6.63787 14.3703 6.05469 14.1211V23.9514H23.2718V15.9782L23.2718 15.9782Z" fill="#A87D73"/>
<path fill-rule="evenodd" clip-rule="evenodd" d="M23.2718 24.8252H6.05469V25.3927L6.78758 27.1171L7.92581 25.8493C7.94164 25.83 7.95938 25.8118 7.97901 25.7949C8.16399 25.6354 8.44593 25.653 8.60869 25.8343L8.60841 25.8346L9.87493 27.2453L11.1282 25.8493C11.144 25.83 11.1618 25.8118 11.1814 25.7949C11.3664 25.6354 11.6483 25.653 11.8111 25.8343L11.8108 25.8346L13.0773 27.2453L14.3309 25.849C14.3467 25.8298 14.3643 25.8117 14.3838 25.7949C14.5688 25.6354 14.8508 25.6531 15.0135 25.8344L15.0132 25.8346L16.2797 27.2453L17.533 25.8493C17.5488 25.83 17.5666 25.8118 17.5862 25.7949C17.7712 25.6354 18.0531 25.653 18.2159 25.8343L18.2156 25.8346L19.4821 27.2453L20.7354 25.8493C20.7512 25.83 20.769 25.8118 20.7886 25.7949C20.9736 25.6354 21.2555 25.653 21.4183 25.8343L21.418 25.8346L22.5494 27.0948L23.2718 25.4019V24.8252L23.2718 24.8252Z" fill="#B38E85"/>
</g>
<defs>
<clipPath id="clip0_512_19964">
<rect width="19.3286" height="28.7" fill="white" transform="translate(5)"/>
</clipPath>
</defs>
</svg>
