<svg width="29" height="29" viewBox="0 0 29 29" fill="none" xmlns="http://www.w3.org/2000/svg">
<g clip-path="url(#clip0_512_19977)">
<path d="M10.2812 13.7363H18.5033V28.1249H10.2812V13.7363Z" fill="#B38E85"/>
<path d="M10.2812 13.7363H11.8943V28.1254H10.2812V13.7363Z" fill="#B38E85"/>
<path d="M12.3281 26.0816H16.4639V15.7793H12.3281V26.0816Z" fill="#B38E85"/>
<path d="M12.3281 15.7793V26.0821H13.9411V15.7793H12.3281Z" fill="#B38E85"/>
<path d="M10.2852 1.4043H18.5072V13.7373H10.2852V1.4043Z" fill="#FFD3B3"/>
<path d="M10.2852 1.4043H11.8982V13.7373H10.2852V1.4043Z" fill="#FFD3B3"/>
<path d="M16.4609 23.1872C16.6836 23.1872 16.8641 23.0067 16.8641 22.784V15.7792C16.8641 15.5565 16.6836 15.376 16.4609 15.376H12.3251C12.1024 15.376 11.9219 15.5565 11.9219 15.7792V26.082C11.9219 26.3048 12.1024 26.4853 12.3251 26.4853H16.4609C16.6836 26.4853 16.8641 26.3048 16.8641 26.082V24.5411C16.8641 24.3183 16.6836 24.1378 16.4609 24.1378C16.2382 24.1378 16.0576 24.3183 16.0576 24.5411V25.6788H12.7284V16.1825H16.0576V22.784C16.0576 23.0067 16.2382 23.1872 16.4609 23.1872V23.1872Z" fill="black"/>
<path d="M18.5042 1H10.2822C10.0595 1 9.87891 1.18049 9.87891 1.40325V17.072C9.87891 17.2947 10.0595 17.4752 10.2822 17.4752C10.5049 17.4752 10.6854 17.2947 10.6854 17.072V14.1395H18.1009V27.7221H10.6854V18.8291C10.6854 18.6063 10.5049 18.4258 10.2822 18.4258C10.0595 18.4258 9.87891 18.6063 9.87891 18.8291V28.1253C9.87891 28.3481 10.0595 28.5286 10.2822 28.5286H18.5042C18.7269 28.5286 18.9074 28.3481 18.9074 28.1253V7.83106C18.9074 7.60831 18.7269 7.42781 18.5042 7.42781C18.2815 7.42781 18.1009 7.60831 18.1009 7.83106V13.333H15.0279L14.4627 12.0234L15.1331 10.4701C15.1771 10.3682 15.1771 10.2525 15.1331 10.1506L14.4628 8.5974L15.1331 7.04446C15.1771 6.94246 15.1771 6.82681 15.1331 6.72487L14.4628 5.17182L15.028 3.86227H18.101V6.07397C18.101 6.29672 18.2815 6.47722 18.5042 6.47722C18.7269 6.47722 18.9075 6.29672 18.9075 6.07397V1.40325C18.9074 1.18049 18.7269 1 18.5042 1V1ZM13.6533 5.33161L14.3236 6.88466L13.6533 8.43761C13.6092 8.5396 13.6092 8.65525 13.6533 8.7572L14.3236 10.3104L13.6533 11.8637C13.6093 11.9656 13.6093 12.0813 13.6533 12.1832L14.1495 13.3331H10.6854V3.86222H14.1495L13.6533 5.01202C13.6092 5.11402 13.6092 5.22961 13.6533 5.33161V5.33161ZM10.6854 3.05572V1.8065H18.1009V3.05572H10.6854Z" fill="black"/>
</g>
<defs>
<clipPath id="clip0_512_19977">
<rect width="8.78571" height="27.5286" fill="white" transform="translate(10 1)"/>
</clipPath>
</defs>
</svg>
