<svg width="29" height="29" viewBox="0 0 29 29" fill="none" xmlns="http://www.w3.org/2000/svg">
<g clip-path="url(#clip0_512_20004)">
<path d="M5.28599 0.0751953H24.0429C24.2893 0.0751953 24.489 0.274953 24.489 0.521345V28.1826C24.489 28.429 24.2893 28.6288 24.0429 28.6288H5.28599C5.0396 28.6288 4.83984 28.429 4.83984 28.1826V0.521345C4.83984 0.274953 5.0396 0.0751953 5.28599 0.0751953V0.0751953ZM23.5967 0.967495H5.73214V27.7365H23.5967V0.967495Z" fill="#333333"/>
<path d="M6.92969 13.4702C6.92969 13.7166 7.12945 13.9163 7.37584 13.9163C7.62223 13.9163 7.82199 13.7166 7.82199 13.4702V3.04171H13.782C14.0284 3.04171 14.2281 2.84196 14.2281 2.59556C14.2281 2.34917 14.0284 2.14941 13.782 2.14941H7.37584C7.12945 2.14941 6.92969 2.34917 6.92969 2.59556V13.4702ZM15.548 2.14941C15.3016 2.14941 15.1019 2.34917 15.1019 2.59556C15.1019 2.84196 15.3016 3.04171 15.548 3.04171H21.508V13.4469C21.508 13.6933 21.7078 13.8931 21.9542 13.8931C22.2006 13.8931 22.4003 13.6933 22.4003 13.4469V2.59556C22.4003 2.34917 22.2006 2.14941 21.9542 2.14941H15.548ZM22.4003 15.2359C22.4003 14.9895 22.2006 14.7897 21.9542 14.7897C21.7078 14.7897 21.508 14.9895 21.508 15.2359V25.6597H15.548C15.3016 25.6597 15.1019 25.8594 15.1019 26.1058C15.1019 26.3522 15.3016 26.552 15.548 26.552H21.9542C22.2006 26.552 22.4003 26.3522 22.4003 26.1058V15.2359ZM13.782 26.552C14.0284 26.552 14.2281 26.3522 14.2281 26.1058C14.2281 25.8594 14.0284 25.6597 13.782 25.6597H7.82199V15.2711C7.82199 15.0247 7.62223 14.8249 7.37584 14.8249C7.12945 14.8249 6.92969 15.0247 6.92969 15.2711V26.1058C6.92969 26.3522 7.12945 26.552 7.37584 26.552H13.782Z" fill="#333333"/>
<path d="M5.59843 0.204626C5.42423 0.0313698 5.14253 0.03216 4.96927 0.206361C4.79602 0.380561 4.79681 0.662259 4.97101 0.835516L7.0603 2.91103C7.2345 3.08429 7.5162 3.0835 7.68945 2.9093C7.86271 2.7351 7.86192 2.4534 7.68772 2.28014L5.59843 0.204626V0.204626Z" fill="#333333"/>
<path d="M24.3596 0.834539C24.5338 0.661283 24.5346 0.379585 24.3613 0.205384C24.1881 0.0311837 23.9064 0.030393 23.7322 0.20365L21.6429 2.27917C21.4687 2.45242 21.4679 2.73412 21.6412 2.90832C21.8144 3.08252 22.0961 3.08331 22.2703 2.91006L24.3596 0.834539Z" fill="#333333"/>
<path d="M4.97492 27.8651C4.80071 28.0384 4.79992 28.3201 4.97318 28.4943C5.14644 28.6685 5.42813 28.6692 5.60234 28.496L7.69162 26.4205C7.86582 26.2472 7.86661 25.9655 7.69336 25.7913C7.5201 25.6171 7.2384 25.6163 7.0642 25.7896L4.97492 27.8651V27.8651Z" fill="#333333"/>
<path d="M23.7322 28.496C23.9064 28.6692 24.1881 28.6685 24.3613 28.4943C24.5346 28.3201 24.5338 28.0384 24.3596 27.8651L22.2703 25.7896C22.0961 25.6163 21.8144 25.6171 21.6411 25.7913C21.4679 25.9655 21.4687 26.2472 21.6429 26.4205L23.7322 28.496Z" fill="#333333"/>
<path d="M15.9927 0.521345C15.9927 0.274953 15.7929 0.0751953 15.5465 0.0751953C15.3001 0.0751953 15.1004 0.274953 15.1004 0.521345V13.469C15.1004 13.7154 15.3001 13.9152 15.5465 13.9152H21.8727L23.8868 14.6627C24.1178 14.7483 24.3745 14.6305 24.4602 14.3995C24.5458 14.1685 24.428 13.9118 24.197 13.8261L22.1184 13.0547C22.0672 13.0342 22.0112 13.0229 21.9527 13.0229H15.9927V0.521342L15.9927 0.521345ZM23.8868 16.4287C24.1178 16.5143 24.3746 16.3965 24.4602 16.1655C24.5459 15.9345 24.428 15.6778 24.197 15.5921L22.1079 14.8168L22.1079 14.8167C22.0535 14.7965 21.9978 14.7877 21.9431 14.7888H15.5465C15.3001 14.7888 15.1004 14.9886 15.1004 15.235V28.1826C15.1004 28.429 15.3001 28.6288 15.5465 28.6288C15.7929 28.6288 15.9927 28.429 15.9927 28.1826V15.6811H21.8727L23.8868 16.4287H23.8868ZM13.3343 28.1826C13.3343 28.429 13.5341 28.6288 13.7805 28.6288C14.0269 28.6288 14.2266 28.429 14.2266 28.1826V15.235C14.2266 14.9886 14.0269 14.7888 13.7805 14.7888H7.37433C7.30748 14.7888 7.24409 14.8036 7.18715 14.8299L5.12821 15.6085C4.89818 15.6951 4.78192 15.9519 4.86854 16.1819C4.95515 16.4119 5.21189 16.5282 5.44192 16.4416L7.45287 15.6811H13.3344V28.1826H13.3343ZM5.12819 13.8425C4.89815 13.9292 4.7819 14.1859 4.86851 14.4159C4.95513 14.646 5.21186 14.7622 5.4419 14.6756L7.44167 13.9152H13.7805C14.0269 13.9152 14.2267 13.7154 14.2267 13.469V0.521345C14.2267 0.274953 14.0269 0.0751953 13.7805 0.0751953C13.5341 0.0751953 13.3344 0.274953 13.3344 0.521345V13.0229H7.37163C7.31603 13.0217 7.25928 13.031 7.2041 13.052L7.20447 13.053L5.12819 13.8426L5.12819 13.8425Z" fill="#333333"/>
<path fill-rule="evenodd" clip-rule="evenodd" d="M21.5099 3.04199H15.9961V13.0218H21.5099V3.04199Z" fill="#B38E85"/>
<path fill-rule="evenodd" clip-rule="evenodd" d="M15.1035 13.4683V2.59616V0.966797H14.2298V2.59616V13.4683C14.2298 13.7147 14.0301 13.9144 13.7837 13.9144H7.44485L5.73438 14.5649V15.3798L7.19031 14.8292C7.24725 14.8029 7.31063 14.7881 7.37749 14.7881H13.7836C14.03 14.7881 14.2298 14.9879 14.2298 15.2343V26.1064V27.7358H15.1035V26.1064V15.2343C15.1035 14.9879 15.3033 14.7881 15.5496 14.7881H21.9462C22.0009 14.787 22.0567 14.7958 22.111 14.8161L23.5989 15.3683V14.5539L21.8758 13.9144H15.5497C15.3033 13.9144 15.1035 13.7147 15.1035 13.4683H15.1035Z" fill="#FFD3B3"/>
<path fill-rule="evenodd" clip-rule="evenodd" d="M13.3381 13.0218V3.04199H7.82422V13.0218H13.3381Z" fill="#B38E85"/>
<path fill-rule="evenodd" clip-rule="evenodd" d="M7.55824 2.15004H13.3361V0.966797H6.36719L7.55824 2.15004Z" fill="#FFD3B3"/>
<path fill-rule="evenodd" clip-rule="evenodd" d="M6.93134 13.1572V2.77992L5.73438 1.59082V13.6124L6.93134 13.1572Z" fill="#FFD3B3"/>
<path fill-rule="evenodd" clip-rule="evenodd" d="M15.9961 2.15004H21.7739L22.965 0.966797H15.9961V2.15004Z" fill="#FFD3B3"/>
<path fill-rule="evenodd" clip-rule="evenodd" d="M22.4023 2.77987V13.1579L23.5993 13.6022V1.59082L22.4023 2.77987Z" fill="#FFD3B3"/>
<path fill-rule="evenodd" clip-rule="evenodd" d="M21.5099 15.6807H15.9961V25.6605H21.5099V15.6807Z" fill="#B38E85"/>
<path fill-rule="evenodd" clip-rule="evenodd" d="M21.7739 26.5527H15.9961V27.7359H22.965L21.7739 26.5527Z" fill="#FFD3B3"/>
<path fill-rule="evenodd" clip-rule="evenodd" d="M22.4023 15.876V25.9228L23.5993 27.1119V16.3202L22.4023 15.876Z" fill="#FFD3B3"/>
<path fill-rule="evenodd" clip-rule="evenodd" d="M6.93134 25.9226V15.8789L5.73438 16.3316V27.1117L6.93134 25.9226Z" fill="#FFD3B3"/>
<path fill-rule="evenodd" clip-rule="evenodd" d="M7.82422 15.6807V25.6605H13.3381V15.6807H7.82422Z" fill="#B38E85"/>
<path fill-rule="evenodd" clip-rule="evenodd" d="M13.3361 26.5527H7.55824L6.36719 27.7359H13.3361V26.5527Z" fill="#FFD3B3"/>
</g>
<defs>
<clipPath id="clip0_512_20004">
<rect width="19.3286" height="28.7" fill="white" transform="translate(5)"/>
</clipPath>
</defs>
</svg>
