<svg width="30" height="29" viewBox="0 0 30 29" fill="none" xmlns="http://www.w3.org/2000/svg">
<path d="M15.3147 0C19.2676 0 22.8463 1.60224 25.4368 4.19271C28.0272 6.78318 29.6295 10.3619 29.6295 14.3147C29.6295 18.2676 28.0272 21.8463 25.4368 24.4368C22.8463 27.0272 19.2676 28.6295 15.3147 28.6295C11.3619 28.6295 7.78317 27.0272 5.19271 24.4368C2.60224 21.8463 1 18.2676 1 14.3147C1 10.3619 2.60224 6.78317 5.19271 4.19271C7.78318 1.60224 11.3619 0 15.3147 0V0ZM24.8042 4.82528C22.3757 2.39677 19.0206 0.894671 15.3147 0.894671C11.6089 0.894671 8.25377 2.39677 5.8253 4.82528C3.39679 7.25379 1.89469 10.6088 1.89469 14.3147C1.89469 18.0206 3.39679 21.3757 5.8253 23.8041C8.25381 26.2327 11.6088 27.7347 15.3147 27.7347C19.0206 27.7347 22.3757 26.2327 24.8042 23.8041C27.2327 21.3756 28.7348 18.0206 28.7348 14.3147C28.7348 10.6088 27.2327 7.25375 24.8042 4.82528V4.82528Z" fill="#333333"/>
<path d="M15.3138 1.93848C18.7314 1.93848 21.8254 3.32376 24.0651 5.56343C26.3048 7.8031 27.6901 10.8972 27.6901 14.3148C27.6901 17.7323 26.3048 20.8264 24.0651 23.0661C21.8255 25.3058 18.7314 26.6911 15.3138 26.6911C11.8962 26.6911 8.80215 25.3058 6.56246 23.0661C4.32279 20.8264 2.9375 17.7324 2.9375 14.3148C2.9375 10.8972 4.32279 7.80313 6.56246 5.56343C8.80213 3.32377 11.8962 1.93848 15.3138 1.93848V1.93848ZM23.4325 6.196C21.3548 4.11827 18.4844 2.83315 15.3138 2.83315C12.1432 2.83315 9.27275 4.11827 7.19505 6.196C5.11731 8.27373 3.83219 11.1442 3.83219 14.3147C3.83219 17.4853 5.11731 20.3558 7.19505 22.4335C9.27278 24.5112 12.1432 25.7963 15.3138 25.7963C18.4844 25.7963 21.3548 24.5112 23.4325 22.4335C25.5103 20.3558 26.7954 17.4853 26.7954 14.3147C26.7954 11.1441 25.5103 8.2737 23.4325 6.196V6.196Z" fill="#333333"/>
<path d="M14.6244 10.6098C14.1947 9.95251 13.4323 8.65189 13.0357 7.38002C12.8188 6.68421 12.7093 5.98972 12.8129 5.39103C12.9295 4.71681 13.2942 4.1746 14.0302 3.88348C14.3743 3.74736 14.7982 3.67188 15.3148 3.67188C15.8393 3.67188 16.2705 3.75168 16.6213 3.89519C17.3515 4.19384 17.7101 4.74151 17.8206 5.41884C17.9193 6.02377 17.8061 6.72154 17.5862 7.41771C17.178 8.71009 16.3888 10.0355 15.9576 10.6698C15.9359 10.7018 15.9285 10.7144 15.8789 10.7888C15.6722 11.0993 15.5731 11.2481 15.2583 11.2189C14.9906 11.194 14.9049 11.056 14.7407 10.7913C14.7209 10.7593 14.6973 10.7213 14.6244 10.6098L14.6244 10.6098ZM13.8885 7.1144C14.2366 8.23088 14.9024 9.38918 15.3136 10.03C15.7268 9.39972 16.3822 8.2608 16.7334 7.14861C16.9159 6.57074 17.0131 6.01114 16.9399 5.56211C16.8784 5.18542 16.6826 4.88228 16.2858 4.71999C16.0447 4.62139 15.7258 4.56655 15.3148 4.56655C14.915 4.56655 14.6005 4.6196 14.3587 4.71523C13.9569 4.87416 13.7576 5.17138 13.6936 5.54131C13.6165 5.9867 13.7098 6.54121 13.8885 7.1144L13.8885 7.1144ZM15.3387 10.3312C15.4424 10.3408 15.3964 10.3353 15.3221 10.3259C15.2818 10.3246 15.2687 10.3247 15.3387 10.3312Z" fill="#333333"/>
<path d="M15.3148 12.0781C15.9324 12.0781 16.4916 12.3285 16.8964 12.7333C17.3011 13.138 17.5515 13.6972 17.5515 14.3148C17.5515 14.9324 17.3011 15.4916 16.8964 15.8964C16.4916 16.3011 15.9324 16.5515 15.3148 16.5515C14.6972 16.5515 14.138 16.3011 13.7333 15.8964C13.3285 15.4916 13.0781 14.9324 13.0781 14.3148C13.0781 13.6972 13.3285 13.138 13.7333 12.7333C14.138 12.3285 14.6972 12.0781 15.3148 12.0781ZM16.2638 13.3658C16.021 13.123 15.6854 12.9728 15.3148 12.9728C14.9442 12.9728 14.6087 13.123 14.3658 13.3658C14.123 13.6087 13.9728 13.9442 13.9728 14.3148C13.9728 14.6854 14.123 15.021 14.3658 15.2638C14.6087 15.5066 14.9442 15.6569 15.3148 15.6569C15.6854 15.6569 16.021 15.5066 16.2638 15.2638C16.5066 15.021 16.6569 14.6854 16.6569 14.3148C16.6569 13.9442 16.5066 13.6087 16.2638 13.3658V13.3658Z" fill="#333333"/>
<path d="M15.3142 14.7661C15.5633 14.7661 15.7652 14.5643 15.7652 14.3152C15.7652 14.0662 15.5633 13.8643 15.3142 13.8643C15.0652 13.8643 14.8633 14.0662 14.8633 14.3152C14.8633 14.5643 15.0652 14.7661 15.3142 14.7661Z" fill="#333333"/>
<path d="M18.1783 11.8625C18.5327 11.1617 19.2779 9.85116 20.181 8.87176C20.6751 8.33597 21.2219 7.89392 21.7921 7.68427C22.4343 7.44817 23.0863 7.49292 23.7064 7.98475C23.9963 8.21471 24.2736 8.54401 24.5319 8.99139C24.7942 9.4457 24.9406 9.85896 24.9918 10.2346C25.0982 11.0162 24.8032 11.6006 24.2719 12.035C23.7973 12.4229 23.1364 12.6738 22.4236 12.8314C21.1003 13.1241 19.5579 13.1033 18.7929 13.0471C18.7544 13.0443 18.7397 13.0441 18.6505 13.0385C18.2783 13.0147 18.0999 13.0032 17.9678 12.716C17.8555 12.4717 17.9321 12.3285 18.0792 12.054C18.097 12.0208 18.1182 11.9813 18.1783 11.8625L18.1783 11.8625ZM20.8374 9.47746C20.0446 10.3372 19.3744 11.4929 19.025 12.1695C19.7774 12.2121 21.0915 12.2102 22.2303 11.9584C22.822 11.8275 23.3552 11.6318 23.7074 11.3439C24.003 11.1023 24.1676 10.7812 24.1097 10.3564C24.0746 10.0983 23.9626 9.79467 23.7571 9.43872C23.5572 9.09247 23.354 8.8467 23.1503 8.68509C22.8118 8.4166 22.4547 8.39258 22.1023 8.52212C21.6781 8.67809 21.2445 9.03609 20.8374 9.47746L20.8374 9.47746ZM18.7767 12.3418C18.8202 12.4364 18.802 12.3938 18.773 12.3247C18.7539 12.2892 18.7474 12.2779 18.7767 12.3418Z" fill="#333333"/>
<path d="M18.8671 15.5687C19.6512 15.5252 21.1588 15.5153 22.4586 15.8078C23.1696 15.9678 23.8258 16.2203 24.2925 16.6093C24.8181 17.0474 25.1053 17.6344 24.9894 18.4173C24.9352 18.7834 24.7887 19.1882 24.5304 19.6356C24.2681 20.0899 23.9834 20.4233 23.6837 20.6555C23.06 21.1384 22.4064 21.1752 21.7645 20.9322C21.1913 20.7152 20.6436 20.2683 20.1507 19.7298C19.2355 18.7301 18.4823 17.384 18.1485 16.6933C18.1317 16.6586 18.1245 16.6458 18.0848 16.5657C17.9193 16.2314 17.84 16.0712 18.0227 15.8132C18.1781 15.5938 18.3404 15.5885 18.6518 15.5787C18.6894 15.5775 18.7341 15.5761 18.8671 15.5687V15.5687ZM22.2622 16.6791C21.1212 16.4224 19.7852 16.4198 19.0246 16.4555C19.3639 17.1285 20.0226 18.2655 20.8101 19.1258C21.2193 19.5728 21.6553 19.9368 22.0808 20.0979C22.4378 20.233 22.7982 20.215 23.1371 19.9525C23.3431 19.793 23.5501 19.5442 23.7556 19.1882C23.9555 18.842 24.0667 18.5432 24.1048 18.2859C24.1681 17.8585 24.0103 17.5373 23.722 17.2969C23.3748 17.0075 22.848 16.811 22.2622 16.6791L22.2622 16.6791ZM18.7512 16.3267C18.6911 16.4116 18.7188 16.3746 18.7642 16.3149C18.7854 16.2806 18.7919 16.2693 18.7512 16.3267Z" fill="#333333"/>
<path d="M16.0056 18.0179C16.4353 18.6752 17.1976 19.9759 17.5942 21.2477C17.8112 21.9435 17.9207 22.638 17.8171 23.2367C17.7004 23.9109 17.3357 24.4532 16.5997 24.7443C16.2556 24.8804 15.8318 24.9559 15.3152 24.9559C14.7906 24.9559 14.3595 24.8761 14.0086 24.7326C13.2785 24.4339 12.9199 23.8862 12.8094 23.2089C12.7107 22.604 12.8239 21.9062 13.0438 21.21C13.452 19.9177 14.2411 18.5923 14.6723 17.9579C14.6941 17.926 14.7015 17.9134 14.751 17.8389C14.9577 17.5284 15.0569 17.3796 15.3716 17.4089C15.6394 17.4338 15.7251 17.5717 15.8892 17.8364C15.9091 17.8684 15.9327 17.9065 16.0056 18.0179L16.0056 18.0179ZM16.7415 21.5134C16.3933 20.3969 15.7275 19.2386 15.3163 18.5978C14.9032 19.228 14.2478 20.367 13.8965 21.4791C13.714 22.057 13.6168 22.6166 13.6901 23.0656C13.7515 23.4423 13.9473 23.7455 14.3441 23.9078C14.5852 24.0064 14.9042 24.0612 15.3152 24.0612C15.715 24.0612 16.0294 24.0081 16.2712 23.9125C16.673 23.7536 16.8724 23.4564 16.9364 23.0864C17.0134 22.641 16.9202 22.0865 16.7415 21.5134L16.7415 21.5134ZM15.2912 18.2966C15.1876 18.2869 15.2335 18.2924 15.3079 18.3018C15.3482 18.3031 15.3613 18.3031 15.2912 18.2966Z" fill="#333333"/>
<path d="M12.4523 16.7647C12.0979 17.4655 11.3527 18.776 10.4495 19.7554C9.95539 20.2912 9.40868 20.7332 8.83842 20.9429C8.19621 21.179 7.54427 21.1342 6.92416 20.6424C6.63423 20.4124 6.35694 20.0831 6.09864 19.6358C5.83636 19.1814 5.6899 18.7682 5.63876 18.3925C5.53232 17.6109 5.82731 17.0265 6.35865 16.5922C6.8332 16.2042 7.4941 15.9534 8.2069 15.7957C9.53026 15.503 11.0726 15.5238 11.8376 15.58C11.8762 15.5829 11.8908 15.583 11.98 15.5887C12.3523 15.6125 12.5307 15.6239 12.6628 15.9111C12.7751 16.1554 12.6985 16.2986 12.5513 16.5731C12.5335 16.6063 12.5124 16.6458 12.4523 16.7647L12.4523 16.7647ZM9.7931 19.1497C10.5859 18.2899 11.2562 17.1342 11.6055 16.4577C10.8531 16.415 9.53907 16.4169 8.40024 16.6688C7.80856 16.7997 7.27532 16.9953 6.92309 17.2832C6.62759 17.5248 6.46296 17.846 6.5208 18.2707C6.55595 18.5288 6.66794 18.8325 6.87345 19.1884C7.07336 19.5347 7.27651 19.7804 7.48024 19.942C7.81877 20.2105 8.17585 20.2346 8.52821 20.105C8.95245 19.9491 9.38605 19.591 9.7931 19.1497L9.7931 19.1497ZM11.8538 16.2853C11.8103 16.1908 11.8285 16.2333 11.8576 16.3024C11.8766 16.3379 11.8832 16.3492 11.8538 16.2853Z" fill="#333333"/>
<path d="M11.7611 13.0601C10.9769 13.1036 9.46939 13.1135 8.16963 12.821C7.45856 12.661 6.80237 12.4085 6.33569 12.0195C5.81011 11.5814 5.52291 10.9944 5.63877 10.2114C5.69297 9.84537 5.8395 9.44059 6.0978 8.99321C6.3601 8.53889 6.64475 8.20544 6.9445 7.97332C7.56819 7.49034 8.2218 7.4536 8.86364 7.69657C9.43687 7.91357 9.98455 8.36051 10.4775 8.899C11.3926 9.8987 12.1458 11.2448 12.4797 11.9355C12.4965 11.9702 12.5036 11.983 12.5433 12.0631C12.7089 12.3974 12.7882 12.5576 12.6055 12.8156C12.4501 13.035 12.2877 13.0402 11.9764 13.0501C11.9388 13.0513 11.894 13.0527 11.7611 13.0601L11.7611 13.0601ZM8.36598 11.9497C9.50695 12.2064 10.843 12.209 11.6035 12.1733C11.2643 11.5003 10.6056 10.3633 9.81808 9.50296C9.40889 9.05598 8.97286 8.69201 8.54736 8.53093C8.19041 8.3958 7.82997 8.41381 7.49103 8.67629C7.28509 8.83578 7.07811 9.08459 6.87261 9.44054C6.67271 9.78679 6.56143 10.0856 6.52334 10.3429C6.4601 10.7703 6.61783 11.0915 6.9062 11.3319C7.25339 11.6213 7.78022 11.8178 8.36598 11.9496L8.36598 11.9497ZM11.8769 12.3021C11.9371 12.2172 11.9094 12.2542 11.864 12.3139C11.8428 12.3482 11.8363 12.3595 11.8769 12.3021Z" fill="#333333"/>
<path fill-rule="evenodd" clip-rule="evenodd" d="M13.8901 7.1123C14.2382 8.22879 14.904 9.38708 15.3152 10.0279C15.7284 9.39762 16.3838 8.2587 16.735 7.14651C16.9175 6.56865 17.0147 6.00904 16.9415 5.56001C16.88 5.18332 16.6842 4.88018 16.2874 4.71789C16.0463 4.61929 15.7274 4.56445 15.3164 4.56445C14.9166 4.56445 14.6021 4.61751 14.3603 4.71314C13.9585 4.87206 13.7592 5.16928 13.6952 5.53921C13.6181 5.98461 13.7114 6.53911 13.8901 7.1123L13.8901 7.1123Z" fill="#FFDF35"/>
<path fill-rule="evenodd" clip-rule="evenodd" d="M17.585 7.4184C17.1768 8.71078 16.3877 10.0361 15.9564 10.6705C15.9347 10.7025 15.9273 10.7151 15.8778 10.7895C15.671 11.1 15.5719 11.2488 15.2572 11.2196C14.9894 11.1947 14.9037 11.0567 14.7396 10.792C14.7197 10.76 14.6961 10.722 14.6232 10.6105C14.1935 9.95319 13.4312 8.65257 13.0346 7.38071C12.8176 6.6849 12.7081 5.9904 12.8117 5.39172C12.9283 4.7175 13.2931 4.17528 14.029 3.88416C14.3732 3.74805 14.797 3.67256 15.3136 3.67256C15.8382 3.67256 16.2693 3.75236 16.6202 3.89588C17.3503 4.19452 17.7089 4.7422 17.8194 5.41952C17.9181 6.02446 17.8049 6.72223 17.585 7.41839L17.585 7.4184ZM20.1799 8.87442C20.674 8.33863 21.2207 7.89658 21.7909 7.68693C22.4332 7.45083 23.0851 7.49558 23.7052 7.98741C23.9951 8.21737 24.2724 8.54667 24.5307 8.99405C24.793 9.44836 24.9395 9.86162 24.9906 10.2373C25.097 11.0189 24.8021 11.6033 24.2707 12.0376C23.7962 12.4256 23.1353 12.6764 22.4225 12.8341C21.0991 13.1268 19.5567 13.106 18.7917 13.0498C18.7532 13.0469 18.7386 13.0468 18.6494 13.0411C18.2771 13.0173 18.0987 13.0059 17.9666 12.7187C17.8543 12.4744 17.9309 12.3312 18.0781 12.0567C18.0959 12.0235 18.117 11.984 18.1771 11.8651C18.5315 11.1643 19.2767 9.85382 20.1799 8.87442L20.1799 8.87442ZM23.4324 22.4343C25.5101 20.3566 26.7952 17.4862 26.7952 14.3156C26.7952 11.145 25.5101 8.27454 23.4324 6.19684C21.3546 4.11911 18.4842 2.83398 15.3136 2.83398C12.143 2.83398 9.27259 4.11911 7.19489 6.19684C5.11715 8.27457 3.83203 11.145 3.83203 14.3156C3.83203 17.4862 5.11715 20.3566 7.19489 22.4343C9.27262 24.5121 12.143 25.7972 15.3136 25.7972C18.4842 25.7972 21.3547 24.5121 23.4324 22.4343ZM18.8675 15.5702C19.6516 15.5267 21.1592 15.5168 22.4589 15.8093C23.17 15.9693 23.8262 16.2217 24.2929 16.6108C24.8184 17.0489 25.1056 17.6359 24.9898 18.4188C24.9356 18.7849 24.789 19.1897 24.5307 19.637C24.2684 20.0914 23.9838 20.4248 23.684 20.6569C23.0604 21.1399 22.4067 21.1767 21.7649 20.9337C21.1917 20.7167 20.644 20.2697 20.151 19.7313C19.2359 18.7316 18.4827 17.3854 18.1489 16.6948C18.1321 16.66 18.1249 16.6473 18.0852 16.5672C17.9197 16.2329 17.8404 16.0727 18.023 15.8147C18.1785 15.5952 18.3408 15.59 18.6521 15.5802C18.6898 15.579 18.7345 15.5776 18.8675 15.5702V15.5702ZM12.4784 11.9363C12.4952 11.9711 12.5024 11.9838 12.542 12.0639C12.7076 12.3982 12.7869 12.5585 12.6042 12.8164C12.4488 13.0359 12.2864 13.0411 11.9751 13.0509C11.9375 13.0521 11.8928 13.0536 11.7598 13.0609C10.9757 13.1044 9.46809 13.1143 8.16833 12.8219C7.45727 12.6618 6.80107 12.4094 6.33439 12.0203C5.80882 11.5822 5.52162 10.9953 5.63748 10.2123C5.69168 9.84623 5.83821 9.44145 6.0965 8.99407C6.35881 8.53976 6.64345 8.2063 6.9432 7.97418C7.56689 7.4912 8.22051 7.45446 8.86234 7.69744C9.43558 7.91443 9.98326 8.36137 10.4762 8.89987C11.3913 9.89957 12.1446 11.2457 12.4784 11.9363L12.4784 11.9363ZM15.3136 12.0789C15.9312 12.0789 16.4904 12.3293 16.8952 12.734C17.2999 13.1388 17.5503 13.698 17.5503 14.3156C17.5503 14.9332 17.2999 15.4923 16.8952 15.8971C16.4904 16.3019 15.9312 16.5523 15.3136 16.5523C14.696 16.5523 14.1368 16.3019 13.7321 15.8971C13.3273 15.4923 13.0769 14.9332 13.0769 14.3156C13.0769 13.698 13.3273 13.1388 13.7321 12.734C14.1368 12.3293 14.696 12.0789 15.3136 12.0789ZM12.4502 16.766C12.0958 17.4668 11.3506 18.7773 10.4474 19.7567C9.95328 20.2925 9.40657 20.7346 8.8363 20.9442C8.1941 21.1803 7.54216 21.1355 6.92205 20.6437C6.63212 20.4138 6.35482 20.0845 6.09653 19.6371C5.83425 19.1828 5.68778 18.7695 5.63664 18.3939C5.5302 17.6123 5.8252 17.0278 6.35654 16.5935C6.83108 16.2055 7.49198 15.9547 8.20479 15.797C9.52815 15.5044 11.0705 15.5251 11.8355 15.5814C11.874 15.5842 11.8887 15.5843 11.9779 15.59C12.3501 15.6138 12.5286 15.6252 12.6606 15.9124C12.773 16.1568 12.6963 16.3 12.5492 16.5745C12.5314 16.6077 12.5103 16.6471 12.4502 16.766L12.4502 16.766ZM16.004 18.0206C16.4338 18.6779 17.1961 19.9786 17.5927 21.2504C17.8096 21.9462 17.9191 22.6407 17.8155 23.2394C17.6989 23.9136 17.3342 24.4558 16.5982 24.747C16.2541 24.8831 15.8302 24.9586 15.3137 24.9586C14.7891 24.9586 14.358 24.8788 14.0071 24.7353C13.2769 24.4366 12.9183 23.8889 12.8078 23.2116C12.7091 22.6067 12.8224 21.9089 13.0422 21.2127C13.4504 19.9203 14.2396 18.595 14.6708 17.9606C14.6925 17.9287 14.7 17.9161 14.7495 17.8416C14.9562 17.5311 15.0553 17.3823 15.3701 17.4116C15.6378 17.4365 15.7235 17.5744 15.8877 17.8391C15.9075 17.8711 15.9311 17.9091 16.004 18.0206L16.004 18.0206Z" fill="#B38E85"/>
<path fill-rule="evenodd" clip-rule="evenodd" d="M16.2637 13.3647C16.0208 13.1219 15.6853 12.9717 15.3147 12.9717C14.9441 12.9717 14.6085 13.1219 14.3657 13.3647C14.1229 13.6075 13.9727 13.9431 13.9727 14.3137C13.9727 14.6843 14.1229 15.0199 14.3657 15.2627C14.6085 15.5055 14.9441 15.6557 15.3147 15.6557C15.6853 15.6557 16.0208 15.5055 16.2637 15.2627C16.5065 15.0199 16.6567 14.6843 16.6567 14.3137C16.6567 13.9431 16.5065 13.6076 16.2637 13.3647V13.3647ZM15.3147 13.8628C15.5637 13.8628 15.7656 14.0647 15.7656 14.3137C15.7656 14.5628 15.5637 14.7647 15.3147 14.7647C15.0656 14.7647 14.8637 14.5628 14.8637 14.3137C14.8637 14.0647 15.0656 13.8628 15.3147 13.8628Z" fill="#EBE5DF"/>
<path fill-rule="evenodd" clip-rule="evenodd" d="M20.8358 9.47877C20.043 10.3385 19.3728 11.4942 19.0234 12.1708C19.7758 12.2134 21.0899 12.2115 22.2287 11.9597C22.8204 11.8288 23.3536 11.6332 23.7059 11.3452C24.0014 11.1036 24.166 10.7825 24.1082 10.3577C24.073 10.0996 23.961 9.79598 23.7555 9.44003C23.5556 9.09378 23.3524 8.84801 23.1487 8.6864C22.8102 8.41791 22.4531 8.39389 22.1007 8.52343C21.6765 8.6794 21.2429 9.0374 20.8358 9.47877L20.8358 9.47877Z" fill="#FFDF35"/>
<path fill-rule="evenodd" clip-rule="evenodd" d="M22.2649 16.6794C21.1239 16.4226 19.7879 16.4201 19.0273 16.4558C19.3666 17.1287 20.0253 18.2657 20.8128 19.1261C21.222 19.573 21.658 19.937 22.0835 20.0981C22.4405 20.2332 22.8009 20.2152 23.1399 19.9527C23.3458 19.7932 23.5528 19.5444 23.7583 19.1885C23.9582 18.8422 24.0695 18.5434 24.1075 18.2862C24.1708 17.8588 24.0131 17.5375 23.7247 17.2971C23.3775 17.0077 22.8507 16.8112 22.2649 16.6794L22.2649 16.6794Z" fill="#FFDF35"/>
<path fill-rule="evenodd" clip-rule="evenodd" d="M16.74 21.5142C16.3919 20.3977 15.7261 19.2395 15.3148 18.5986C14.9017 19.2289 14.2463 20.3678 13.895 21.48C13.7125 22.0579 13.6153 22.6175 13.6886 23.0665C13.75 23.4432 13.9459 23.7464 14.3426 23.9086C14.5837 24.0072 14.9027 24.0621 15.3137 24.0621C15.7135 24.0621 16.028 24.009 16.2698 23.9134C16.6715 23.7545 16.8709 23.4573 16.9349 23.0873C17.0119 22.6419 16.9187 22.0874 16.74 21.5142L16.74 21.5142Z" fill="#FFDF35"/>
<path fill-rule="evenodd" clip-rule="evenodd" d="M9.7916 19.1494C10.5844 18.2897 11.2547 17.1339 11.604 16.4574C10.8516 16.4147 9.53757 16.4166 8.39874 16.6685C7.80706 16.7994 7.27382 16.995 6.92159 17.283C6.62609 17.5245 6.46147 17.8457 6.5193 18.2704C6.55446 18.5285 6.66644 18.8322 6.87195 19.1881C7.07186 19.5344 7.27501 19.7802 7.47874 19.9418C7.81728 20.2103 8.17435 20.2343 8.52671 20.1047C8.95096 19.9488 9.38455 19.5908 9.79161 19.1494L9.7916 19.1494Z" fill="#FFDF35"/>
<path fill-rule="evenodd" clip-rule="evenodd" d="M8.3643 11.9488C9.50527 12.2056 10.8413 12.2081 11.6019 12.1724C11.2626 11.4995 10.6039 10.3624 9.8164 9.50211C9.40722 9.05513 8.97118 8.69116 8.54568 8.53008C8.18873 8.39496 7.82829 8.41297 7.48936 8.67544C7.28341 8.83494 7.07643 9.08375 6.87093 9.4397C6.67104 9.78594 6.55975 10.0848 6.52167 10.342C6.45842 10.7694 6.61615 11.0907 6.90452 11.3311C7.25171 11.6205 7.77854 11.817 8.3643 11.9488L8.3643 11.9488Z" fill="#FFDF35"/>
<path fill-rule="evenodd" clip-rule="evenodd" d="M15.3146 1.93928C18.7322 1.93928 21.8262 3.32457 24.0659 5.56424C26.3056 7.80391 27.6909 10.898 27.6909 14.3156C27.6909 17.7331 26.3056 20.8272 24.0659 23.0669C21.8262 25.3066 18.7322 26.6919 15.3146 26.6919C11.897 26.6919 8.80294 25.3066 6.56324 23.0669C4.32357 20.8272 2.93828 17.7332 2.93828 14.3156C2.93828 10.898 4.32357 7.80393 6.56324 5.56424C8.80291 3.32457 11.897 1.93928 15.3146 1.93928V1.93928ZM24.804 4.82611C22.3755 2.3976 19.0205 0.895508 15.3146 0.895508C11.6087 0.895508 8.25361 2.3976 5.82514 4.82611C3.39663 7.25462 1.89453 10.6097 1.89453 14.3155C1.89453 18.0214 3.39663 21.3765 5.82514 23.805C8.25365 26.2335 11.6087 27.7356 15.3146 27.7356C19.0205 27.7356 22.3755 26.2335 24.804 23.805C27.2325 21.3765 28.7346 18.0214 28.7346 14.3155C28.7346 10.6097 27.2325 7.25458 24.804 4.82611Z" fill="#FFD3B3"/>
</svg>
