<svg width="29" height="29" viewBox="0 0 29 29" fill="none" xmlns="http://www.w3.org/2000/svg">
<g clip-path="url(#clip0_512_20100)">
<path d="M14.3509 14.3502C11.3508 12.6147 7.50771 13.6461 5.77674 16.6462C4.35968 19.1032 4.70498 21.4758 5.43593 23.2651C3.54801 22.4983 2.31481 21.301 2.31481 21.301C2.31481 21.301 1.89731 19.6323 2.17131 17.6143C2.4314 15.6995 3.31975 13.4663 5.77674 12.0497C8.77679 10.3187 12.6199 11.3456 14.3509 14.3502V14.3502Z" fill="#B38E85"/>
<path d="M14.3508 14.3497C10.8844 14.3497 8.0727 17.1614 8.0727 20.6278C8.0727 23.4615 9.55702 25.3409 11.0817 26.5293C9.06374 26.8068 7.40004 26.3858 7.40004 26.3858C7.40004 26.3858 6.20271 25.1526 5.43588 23.2646C4.70493 21.4754 4.35963 19.1031 5.77669 16.6457C7.50766 13.6456 11.3508 12.6142 14.3508 14.3497V14.3497Z" fill="#FFD3B3"/>
<path d="M11.0839 2.17084C12.9992 2.43093 15.2275 3.31884 16.649 5.77628C18.38 8.77588 17.3531 12.6149 14.3485 14.3504C16.084 11.3459 15.0526 7.5068 12.0525 5.77628C9.59554 4.35473 7.22286 4.70406 5.43359 5.43546V5.43053C6.20042 3.54754 7.39775 2.30941 7.39775 2.30941C7.39775 2.30941 9.06594 1.89281 11.0839 2.17084Z" fill="#FFD3B3"/>
<path d="M14.3516 14.3503C17.8225 14.3503 20.6297 11.5382 20.6297 8.07221C20.6297 5.23808 19.1454 3.35868 17.6207 2.17077C19.6386 1.89274 21.3023 2.30978 21.3023 2.30978C21.3023 2.30978 22.4997 3.54792 23.271 5.43091C24.0019 7.22017 24.3472 9.59241 22.9302 12.0503C21.1947 15.0539 17.3561 16.0809 14.3516 14.3503Z" fill="#FFD3B3"/>
<path d="M8.07031 20.6277C8.07031 17.1613 10.882 14.3496 14.3484 14.3496C11.3439 16.0851 10.317 19.9237 12.0524 22.9237C13.474 25.3807 15.6982 26.2641 17.6131 26.5242V26.5292C16.0032 27.7803 14.3484 28.2512 14.3484 28.2512C14.3484 28.2512 12.6937 27.7754 11.0793 26.5292C9.55464 25.3408 8.07031 23.4614 8.07031 20.6277Z" fill="#B38E85"/>
<path d="M14.3508 14.3504C12.6198 11.3459 8.7767 10.3189 5.77666 12.0499C3.31922 13.4665 2.43131 15.7002 2.17122 17.6146C0.924563 16.0047 0.449219 14.3504 0.449219 14.3504C0.449219 14.3504 0.920078 12.6957 2.17122 11.0858C3.35465 9.56063 5.23405 8.07227 8.07266 8.07227C11.5386 8.07227 14.3508 10.8795 14.3508 14.3504Z" fill="#FFD3B3"/>
<path d="M20.6287 8.07168C20.6287 11.5377 17.8215 14.3498 14.3506 14.3498C17.3551 12.6144 18.382 8.77528 16.651 5.77568C15.2295 3.31824 13.0008 2.43034 11.0859 2.17024C12.6958 0.919102 14.3506 0.448242 14.3506 0.448242C14.3506 0.448242 16.0053 0.919102 17.6152 2.17024H17.6197C19.1444 3.35815 20.6287 5.23756 20.6287 8.07168Z" fill="#B38E85"/>
<path d="M14.3487 14.3497C14.3487 10.8788 11.5365 8.07162 8.07053 8.07162C5.23192 8.07162 3.35252 9.55998 2.1691 11.0851C1.89107 9.06715 2.3126 7.39896 2.3126 7.39896C2.3126 7.39896 3.5458 6.20163 5.43372 5.4348C7.22299 4.7034 9.59522 4.35407 12.0527 5.77562C15.0527 7.50614 16.0841 11.3452 14.3487 14.3497Z" fill="#B38E85"/>
<path d="M20.6266 20.6277C23.4652 20.6277 25.3487 19.1389 26.5281 17.6098L26.5326 17.6142C26.8061 19.6322 26.3891 21.3008 26.3891 21.3008C26.3891 21.3008 25.1559 22.4982 23.2679 23.265C21.4791 23.996 19.1069 24.3408 16.649 22.9242C13.6445 21.1928 12.6175 17.3541 14.3485 14.3496C14.3485 17.8156 17.1602 20.6277 20.6266 20.6277Z" fill="#B38E85"/>
<path d="M14.3516 14.3506C16.087 17.3551 19.9256 18.3816 22.9302 16.6466C25.3876 15.2295 26.2755 13.0003 26.5356 11.0859C27.7823 12.6958 28.2531 14.3506 28.2531 14.3506C28.2531 14.3506 27.7823 16.0008 26.5311 17.6107C25.3517 19.1399 23.4683 20.6287 20.6297 20.6287C17.1633 20.6287 14.3516 17.8165 14.3516 14.3506Z" fill="#FFD3B3"/>
<path d="M14.3508 14.3496C12.6198 17.3541 13.6467 21.1928 16.6513 22.9237C19.1087 24.3403 21.4814 23.9955 23.2702 23.2645C22.4989 25.1525 21.3016 26.3902 21.3016 26.3902C21.3016 26.3902 19.6334 26.8072 17.6154 26.5247C15.7001 26.2646 13.4763 25.3812 12.0548 22.9242C10.3193 19.9237 11.3462 16.0851 14.3508 14.3496V14.3496Z" fill="#FFD3B3"/>
<path d="M14.3516 14.3496C17.3561 16.0801 21.1947 15.0532 22.9302 12.0491C24.3472 9.59164 24.0019 7.21895 23.271 5.42969C25.1544 6.20145 26.3921 7.39878 26.3921 7.39878C26.3921 7.39878 26.8096 9.06696 26.5356 11.0849C26.2755 12.9998 25.3876 15.2285 22.9302 16.6456C19.9256 18.3806 16.087 17.3541 14.3516 14.3496V14.3496Z" fill="#B38E85"/>
<path d="M14.3493 14.7986C14.1013 14.7986 13.9009 14.5981 13.9009 14.3501C13.9009 14.1021 14.1013 13.9017 14.3493 13.9017C17.5637 13.9017 20.179 11.2864 20.179 8.07199C20.179 3.08312 15.2014 1.20417 14.3493 0.918961C13.9475 1.05304 12.6314 1.5378 11.3596 2.52302C11.1641 2.67504 10.882 2.63917 10.7309 2.4432C10.5789 2.24723 10.6147 1.96606 10.8107 1.81449C12.4704 0.527923 14.1556 0.0377809 14.2265 0.0171527C14.3072 -0.00571758 14.3919 -0.00571758 14.4727 0.0171527C14.5386 0.0359871 21.0759 1.97458 21.0759 8.07199C21.0759 11.781 18.0588 14.7986 14.3493 14.7986V14.7986Z" fill="#333333"/>
<path d="M14.3477 28.6998C14.306 28.6998 14.2647 28.694 14.2248 28.6828C14.1584 28.6639 7.62109 26.7253 7.62109 20.6279C7.62109 16.9189 10.6386 13.9014 14.3477 13.9014C14.5956 13.9014 14.7961 14.1018 14.7961 14.3498C14.7961 14.5978 14.5956 14.7982 14.3477 14.7982C11.1333 14.7982 8.51797 17.4135 8.51797 20.6279C8.51797 25.6168 13.4956 27.4958 14.3477 27.781C14.7495 27.6469 16.0661 27.1621 17.3374 26.1769C17.5325 26.0244 17.8141 26.0603 17.9661 26.2567C18.1181 26.4527 18.0822 26.7339 17.8863 26.8854C16.2275 28.172 14.5414 28.6621 14.4705 28.6828C14.4306 28.694 14.3894 28.6998 14.3477 28.6998V28.6998Z" fill="#333333"/>
<path d="M14.3512 14.7983C14.196 14.7983 14.0453 14.7176 13.9624 14.5741C13.8386 14.3593 13.9121 14.0853 14.1265 13.9616C15.4754 13.1835 16.4395 11.9261 16.8427 10.4216C17.2454 8.91753 17.0387 7.3471 16.2597 5.99865C13.7655 1.67795 8.5161 2.5394 7.63447 2.71788C7.3533 3.03537 6.45643 4.11386 5.84834 5.60268C5.75462 5.83228 5.49094 5.94214 5.26358 5.84842C5.03398 5.7547 4.92411 5.49281 5.01784 5.26366C5.81202 3.32013 7.02594 2.05195 7.07706 1.99903C7.13536 1.93894 7.20935 1.89634 7.29052 1.87616C7.35778 1.85867 13.9884 0.269856 17.0369 5.55066C17.9351 7.10629 18.1736 8.91887 17.7091 10.6543C17.2445 12.3902 16.131 13.8405 14.5754 14.7387C14.5045 14.7791 14.4274 14.7983 14.3512 14.7983V14.7983Z" fill="#333333"/>
<path d="M19.0684 27.0618C16.8419 27.0618 13.5589 26.4357 11.6616 23.1505C9.80727 19.9383 10.9113 15.8163 14.123 13.9616C14.3365 13.8378 14.6114 13.9109 14.7356 14.1257C14.8594 14.3405 14.7858 14.6145 14.5715 14.7383C11.788 16.3455 10.831 19.9182 12.4382 22.7021C14.9325 27.0214 20.1819 26.1604 21.0635 25.9819C21.3447 25.6644 22.2415 24.5859 22.8496 23.0971C22.9433 22.8675 23.2066 22.7572 23.4344 22.8514C23.664 22.9451 23.7738 23.207 23.6801 23.4361C22.8859 25.3797 21.672 26.6479 21.6209 26.7008C21.5626 26.7609 21.4886 26.8035 21.4074 26.8236C21.3832 26.8308 20.4204 27.0618 19.0684 27.0618V27.0618Z" fill="#333333"/>
<path d="M14.3486 14.7982C14.2724 14.7982 14.1953 14.7789 14.1249 14.7381C13.9101 14.6144 13.8365 14.3399 13.9608 14.1256C14.7392 12.7771 14.946 11.2058 14.5428 9.70174C14.1397 8.19768 13.1751 6.94116 11.8266 6.16267C7.50415 3.66757 3.39018 7.03847 2.71708 7.634C2.63232 8.04925 2.3942 9.43133 2.61259 11.0255C2.64578 11.2713 2.47403 11.4973 2.22918 11.5309C1.9803 11.5623 1.75742 11.3923 1.72379 11.1475C1.43948 9.06675 1.85742 7.36224 1.87536 7.29005C1.89554 7.20888 1.93859 7.13489 1.99823 7.07659C2.04711 7.02905 6.99607 2.33661 12.2755 5.38553C13.8312 6.2833 14.9442 7.73355 15.4092 9.469C15.8747 11.2045 15.6366 13.0175 14.7379 14.5736C14.6545 14.718 14.5038 14.7982 14.3486 14.7982V14.7982Z" fill="#333333"/>
<path d="M20.1773 24.3435C18.9907 24.344 17.718 24.0615 16.4243 23.3148C13.2126 21.4601 12.1081 17.3381 13.9619 14.1259C14.0857 13.9111 14.3601 13.8375 14.5745 13.9618C14.7888 14.086 14.8628 14.36 14.7386 14.5743C13.1319 17.3582 14.0893 20.9309 16.8727 22.5381C21.2383 25.0584 25.2944 21.6879 25.9827 21.0677C26.067 20.6547 26.3056 19.2708 26.0868 17.6748C26.0536 17.4291 26.2253 17.2031 26.4702 17.1694C26.7164 17.1372 26.9419 17.308 26.9756 17.5529C27.2599 19.6336 26.8428 21.3381 26.8249 21.4099C26.8047 21.4915 26.7621 21.5655 26.702 21.6238C26.6652 21.6592 23.8343 24.3435 20.1773 24.3435V24.3435Z" fill="#333333"/>
<path d="M2.1692 18.0632C2.03512 18.0632 1.90238 18.0036 1.81449 17.8892C0.527923 16.2295 0.0377809 14.5443 0.0171527 14.4735C-0.00571758 14.3927 -0.00571758 14.308 0.0171527 14.2273C0.0359871 14.1613 1.97369 7.62402 8.07199 7.62402C11.781 7.62402 14.7986 10.6416 14.7986 14.3506C14.7986 14.5986 14.5981 14.799 14.3501 14.799C14.1021 14.799 13.9017 14.5986 13.9017 14.3506C13.9017 11.1362 11.2864 8.5209 8.07199 8.5209C3.08222 8.5209 1.20372 13.4986 0.918961 14.3506C1.05304 14.7524 1.5378 16.0686 2.52302 17.3403C2.67504 17.5363 2.63917 17.8175 2.4432 17.969C2.36203 18.0327 2.26517 18.0632 2.1692 18.0632V18.0632Z" fill="#333333"/>
<path d="M20.6298 21.0762C16.9212 21.0762 13.9032 18.0587 13.9023 14.3497C13.9023 14.1021 14.1028 13.9012 14.3508 13.9012C14.5983 13.9012 14.7992 14.1017 14.7992 14.3497C14.8001 17.5641 17.4154 20.1793 20.6298 20.1793C25.6698 20.1793 27.4976 15.2322 27.7833 14.3506C27.6501 13.9506 27.1644 12.633 26.1779 11.3599C26.0258 11.164 26.0617 10.8828 26.2577 10.7312C26.4532 10.5788 26.7348 10.6146 26.8864 10.811C28.1725 12.4698 28.664 14.1546 28.6846 14.2254C28.7075 14.3062 28.7075 14.3914 28.6846 14.4721C28.6658 14.538 26.7272 21.0762 20.6298 21.0762Z" fill="#333333"/>
<path d="M5.43473 23.7162C5.37822 23.7162 5.32082 23.7059 5.26522 23.683C3.32079 22.8888 2.05351 21.6749 2.00059 21.6238C1.9405 21.5655 1.8979 21.4915 1.87772 21.4103C1.86113 21.3435 0.271416 14.7125 5.55222 11.664C7.1074 10.7658 8.92043 10.5267 10.6559 10.9918C12.3918 11.4568 13.842 12.5703 14.7403 14.1264C14.864 14.3412 14.7905 14.6151 14.5761 14.7389C14.3618 14.8618 14.0873 14.7887 13.9636 14.5748C13.1855 13.2259 11.9281 12.2609 10.4236 11.8577C8.91953 11.455 7.34911 11.6613 6.00065 12.4407C1.67951 14.9353 2.54006 20.1852 2.71989 21.0659C3.03693 21.3471 4.11497 22.2435 5.60468 22.852C5.83428 22.9458 5.94415 23.2077 5.85043 23.4368C5.77913 23.6108 5.61141 23.7162 5.43473 23.7162V23.7162Z" fill="#333333"/>
<path d="M19.7963 17.935C17.4698 17.9354 15.2038 16.7296 13.9585 14.574C13.8348 14.3596 13.9083 14.0852 14.1227 13.9614C14.3361 13.8376 14.611 13.9107 14.7352 14.1255C16.3433 16.909 19.916 17.8659 22.6999 16.2587C27.0202 13.7641 26.1596 8.51467 25.9798 7.63349C25.6623 7.35232 24.5838 6.45545 23.0941 5.84737C22.8645 5.75364 22.7546 5.49176 22.8484 5.2626C22.9421 5.033 23.2035 4.92314 23.4331 5.01686C25.3775 5.81104 26.6457 7.02496 26.6986 7.07609C26.7587 7.13438 26.8013 7.20838 26.8215 7.28954C26.8381 7.35636 28.4278 13.9874 23.1479 17.0359C22.0927 17.6453 20.9367 17.935 19.7963 17.935Z" fill="#333333"/>
<path d="M9.66463 27.0745C8.3099 27.0745 7.34262 26.8377 7.28926 26.8238C7.20809 26.8036 7.1341 26.7606 7.0758 26.7009C7.02827 26.6516 2.33537 21.7035 5.38474 16.4236C6.28251 14.8676 7.73276 13.7545 9.46821 13.2895C11.2032 12.8249 13.0167 13.063 14.5728 13.9622C14.7876 14.0859 14.8611 14.3608 14.7369 14.5747C14.6127 14.7895 14.3378 14.8622 14.1243 14.7389C12.7754 13.9604 11.2055 13.7532 9.7005 14.1554C8.19645 14.5586 6.93992 15.5232 6.16144 16.8721C3.66633 21.1928 7.03724 25.3085 7.63276 25.9816C8.04846 26.0664 9.4301 26.3054 11.0243 26.087C11.2678 26.0538 11.4956 26.2256 11.5292 26.4709C11.5624 26.7162 11.3907 26.9422 11.1454 26.9758C10.6216 27.0476 10.1207 27.0745 9.66463 27.0745V27.0745Z" fill="#333333"/>
<path d="M17.4794 15.6378C16.3386 15.6378 15.1843 15.3481 14.1269 14.7382C13.9121 14.6145 13.8385 14.34 13.9627 14.1257C14.087 13.9113 14.361 13.8373 14.5753 13.9615C17.3606 15.5692 20.9333 14.6104 22.54 11.8274C25.0602 7.46278 21.6898 3.40576 21.0696 2.71741C20.6566 2.63311 19.2705 2.39409 17.6758 2.61337C17.4296 2.64297 17.204 2.47481 17.1704 2.22996C17.1368 1.98377 17.3085 1.75776 17.5538 1.72412C19.6355 1.43936 21.3395 1.85686 21.4117 1.8748C21.4934 1.89498 21.5674 1.93758 21.6256 1.99767C21.6732 2.047 26.3656 6.99595 23.3172 12.2759C22.0727 14.4315 19.8063 15.6373 17.4794 15.6378Z" fill="#333333"/>
</g>
<defs>
<clipPath id="clip0_512_20100">
<rect width="28.7" height="28.7" fill="white"/>
</clipPath>
</defs>
</svg>
