<svg width="29" height="29" viewBox="0 0 29 29" fill="none" xmlns="http://www.w3.org/2000/svg">
<g clip-path="url(#clip0_512_20180)">
<path fill-rule="evenodd" clip-rule="evenodd" d="M18.0453 21.0035C17.6245 21.4449 17.1932 21.8972 16.5998 21.9437C16.0373 21.9877 15.5438 21.6417 15.0422 21.2899C14.6727 21.0308 14.2972 20.7676 14.007 20.7676C13.7168 20.7676 13.3413 21.0308 12.9719 21.2899C12.4702 21.6417 11.9767 21.9877 11.4143 21.9437C10.8208 21.8972 10.3895 21.4449 9.96873 21.0035C9.69245 20.7137 9.42235 20.4304 9.22463 20.3981C9.01886 20.3645 8.66793 20.5715 8.32805 20.772C7.84214 21.0586 7.3717 21.3361 6.88078 21.2048C6.34141 21.0605 6.09539 20.5173 5.86052 19.9987C5.73225 19.7155 5.60915 19.4438 5.5395 19.4149C5.46259 19.3829 5.15781 19.5211 4.87001 19.6516C4.3951 19.8669 3.94697 20.0701 3.56551 19.8108C3.11071 19.5018 3.24971 18.9246 3.37893 18.3887L3.3775 18.3884C3.38255 18.3675 3.38903 18.3474 3.39671 18.3279C3.45064 18.1631 3.53611 18.077 3.50744 18.0363C3.48689 18.0071 3.29009 18.0321 3.05938 17.9998C2.99423 17.9906 2.92935 17.9815 2.86559 17.9717V20.5815C2.51484 20.4865 2.70656 20.3886 2.42271 20.3886C2.17632 20.3886 1.97656 20.5884 1.97656 20.8348C1.97656 21.3084 2.39026 21.4224 2.86559 21.4957C2.92935 21.5056 2.99423 21.5147 3.05937 21.5238C3.29009 21.5562 3.48686 21.5311 3.50743 21.5603C3.53611 21.6011 3.45063 21.6872 3.39671 21.852C3.38902 21.8714 3.38255 21.8915 3.3775 21.9124L3.37892 21.9128C3.24971 22.4486 3.11071 23.0258 3.56551 23.3349C3.94698 23.5941 4.3951 23.391 4.87001 23.1756C5.15781 23.0451 5.46259 22.907 5.5395 22.9389C5.60914 22.9678 5.73225 23.2396 5.86052 23.5228C6.09539 24.0414 6.34141 24.5845 6.88078 24.7288C7.37174 24.8601 7.84211 24.5827 8.32803 24.296C8.66793 24.0955 9.01888 23.8885 9.22463 23.9221C9.42235 23.9544 9.69245 24.2378 9.96873 24.5275C10.3896 24.9689 10.8208 25.4213 11.4143 25.4677C11.9767 25.5117 12.4702 25.1657 12.9719 24.8139C13.3413 24.5549 13.7168 24.2916 14.007 24.2916C14.2972 24.2916 14.6727 24.5549 15.0422 24.8139C15.5438 25.1657 16.0373 25.5117 16.5998 25.4677C17.1932 25.4213 17.6245 24.9689 18.0453 24.5275C18.3216 24.2377 18.5917 23.9544 18.7894 23.9221C18.9952 23.8885 19.3461 24.0955 19.686 24.296C20.1719 24.5827 20.6423 24.8601 21.1333 24.7288C21.6727 24.5845 21.9187 24.0413 22.1535 23.5228C22.2818 23.2396 22.4049 22.9678 22.4745 22.9389C22.5514 22.907 22.8562 23.0451 23.144 23.1756C23.6189 23.391 24.067 23.5941 24.4485 23.3349C24.9035 23.0257 24.7642 22.4483 24.635 21.9124C24.5855 21.7072 24.4741 21.6064 24.5065 21.5604C24.5271 21.5311 24.7239 21.5562 24.9546 21.5238C25.0198 21.5147 25.0846 21.5056 25.1484 21.4957C25.6238 21.4224 26.0374 21.3083 26.0374 20.8348C26.0374 20.5884 25.8377 20.3886 25.5913 20.3886C25.307 20.3886 25.4993 20.4865 25.1484 20.5815V17.9717C25.0846 17.9815 25.0197 17.9906 24.9546 17.9998C24.7239 18.0322 24.5271 18.0071 24.5065 18.0363C24.4741 18.0824 24.5855 18.1831 24.635 18.3884C24.7642 18.9243 24.9035 19.5016 24.4485 19.8108C24.067 20.0701 23.6189 19.8669 23.144 19.6516C22.8562 19.5211 22.5514 19.3829 22.4745 19.4149C22.4049 19.4438 22.2818 19.7155 22.1535 19.9988C21.9186 20.5173 21.6726 21.0605 21.1333 21.2048C20.6423 21.3361 20.1719 21.0586 19.686 20.772C19.3461 20.5715 18.9952 20.3645 18.7894 20.3981C18.5917 20.4304 18.3216 20.7137 18.0453 21.0035L18.0453 21.0035Z" fill="#FFD3B3"/>
<path fill-rule="evenodd" clip-rule="evenodd" d="M22.3401 16.759C20.198 17.473 17.251 17.9146 14.007 17.9146C10.7631 17.9146 7.81605 17.473 5.67392 16.759C4.46925 16.3574 3.50674 15.8589 2.86559 15.29V17.0571C2.51471 16.9621 2.70698 16.8642 2.42271 16.8642C2.17632 16.8642 1.97656 17.064 1.97656 17.3104C1.97656 17.7839 2.39024 17.898 2.86559 17.9713C2.92935 17.9811 2.99423 17.9903 3.05937 17.9994C3.29009 18.0318 3.48688 18.0067 3.50743 18.0359C3.53611 18.0767 3.45063 18.1627 3.39671 18.3275C3.38902 18.347 3.38255 18.3671 3.3775 18.388L3.37892 18.3884C3.24971 18.9242 3.11071 19.5014 3.56551 19.8104C3.94698 20.0697 4.3951 19.8665 4.87001 19.6512C5.15781 19.5207 5.46259 19.3825 5.5395 19.4145C5.60914 19.4434 5.73225 19.7152 5.86052 19.9984C6.09539 20.5169 6.34141 21.0601 6.88078 21.2044C7.3717 21.3357 7.84213 21.0582 8.32805 20.7716C8.66793 20.5711 9.01886 20.3641 9.22463 20.3977C9.42235 20.43 9.69245 20.7133 9.96873 21.0031C10.3895 21.4445 10.8208 21.8969 11.4143 21.9433C11.9767 21.9873 12.4702 21.6413 12.9719 21.2895C13.3413 21.0305 13.7168 20.7672 14.007 20.7672C14.2972 20.7672 14.6727 21.0305 15.0422 21.2895C15.5438 21.6413 16.0373 21.9873 16.5998 21.9433C17.1932 21.8969 17.6245 21.4445 18.0453 21.0031C18.3216 20.7133 18.5917 20.43 18.7894 20.3977C18.9952 20.3641 19.3461 20.5711 19.686 20.7716C20.1719 21.0582 20.6423 21.3357 21.1333 21.2044C21.6726 21.0601 21.9187 20.5169 22.1535 19.9984C22.2818 19.7151 22.4049 19.4434 22.4745 19.4145C22.5514 19.3825 22.8562 19.5207 23.144 19.6512C23.6189 19.8666 24.067 20.0697 24.4485 19.8104C24.9035 19.5013 24.7642 18.9239 24.635 18.388C24.5855 18.1827 24.4741 18.082 24.5065 18.0359C24.5271 18.0067 24.7239 18.0318 24.9546 17.9994C25.0197 17.9903 25.0846 17.9811 25.1484 17.9713C25.6237 17.898 26.0374 17.7839 26.0374 17.3104C26.0374 17.064 25.8377 16.8642 25.5913 16.8642C25.307 16.8642 25.4993 16.9621 25.1484 17.0571V15.29C24.5072 15.8589 23.5447 16.3574 22.3401 16.759L22.3401 16.759Z" fill="#B38E85"/>
<path fill-rule="evenodd" clip-rule="evenodd" d="M14.8219 9.85095C14.5252 9.64287 14.2235 9.43136 14.006 9.43136C13.7886 9.43136 13.4869 9.64287 13.1902 9.85095C12.7625 10.1508 12.3419 10.4457 11.8485 10.4072C11.327 10.3664 10.9588 9.98025 10.5996 9.60346C10.3792 9.37228 10.1637 9.14624 10.0247 9.12354C9.88097 9.10007 9.60167 9.2648 9.33119 9.42436C8.91396 9.67047 8.50999 9.90874 8.07194 9.79155C7.58969 9.66256 7.37788 9.19496 7.17569 8.74855C7.07556 8.52745 6.97946 8.31528 6.94925 8.30275C6.91579 8.28885 6.67816 8.39659 6.45374 8.49833C6.03989 8.68597 5.64934 8.86305 5.29755 8.62397C4.87672 8.33801 4.99844 7.8326 5.11158 7.36344L5.11016 7.36309C5.13112 7.27618 5.17622 7.20142 5.2366 7.14418C5.235 7.14038 5.23276 7.13641 5.22982 7.13222C5.19385 7.0811 5.08488 7.1579 4.90948 7.13329C4.88453 7.1298 4.85966 7.12631 4.83487 7.12275V9.14127C4.4743 9.05806 4.71492 8.96514 4.39146 8.96514C4.14507 8.96514 3.94531 9.1649 3.94531 9.41129C3.94531 9.89679 4.37218 9.98138 4.83487 10.0476C4.85966 10.0511 4.88456 10.0546 4.9095 10.0581C5.08491 10.0828 5.19387 10.006 5.22982 10.057C5.23276 10.0612 5.235 10.0652 5.2366 10.069C5.17622 10.1262 5.13112 10.201 5.11016 10.2879L5.11158 10.2883C4.99844 10.7574 4.87672 11.2628 5.29755 11.5488C5.64933 11.7879 6.03989 11.6108 6.45374 11.4232C6.67816 11.3214 6.91579 11.2137 6.94925 11.2276C6.97946 11.2401 7.07557 11.4523 7.17569 11.6734C7.37788 12.1198 7.58967 12.5874 8.07194 12.7164C8.51005 12.8336 8.91396 12.5953 9.33119 12.3492C9.60167 12.1896 9.88098 12.0249 10.0247 12.0484C10.1636 12.0711 10.3792 12.2971 10.5996 12.5283C10.9588 12.9051 11.327 13.2913 11.8485 13.332C12.3419 13.3706 12.7625 13.0756 13.1902 12.7758C13.487 12.5677 13.7886 12.3562 14.006 12.3562C14.2235 12.3562 14.5252 12.5677 14.8219 12.7758C15.2496 13.0756 15.6703 13.3706 16.1636 13.332C16.6851 13.2913 17.0533 12.9051 17.4125 12.5283C17.6329 12.2971 17.8485 12.0711 17.9874 12.0484C18.1311 12.0249 18.4104 12.1896 18.6809 12.3492C19.0981 12.5953 19.5021 12.8336 19.9401 12.7164C20.4224 12.5874 20.6342 12.1198 20.8364 11.6734C20.9366 11.4523 21.0326 11.2401 21.0629 11.2276C21.0963 11.2137 21.3339 11.3214 21.5583 11.4232C21.9722 11.6108 22.3628 11.7879 22.7146 11.5488C23.1355 11.2627 23.0136 10.7572 22.9004 10.288C22.8635 10.1349 22.7357 10.1232 22.7823 10.0571C22.8182 10.006 22.9272 10.0827 23.1026 10.0581C23.1275 10.0546 23.1524 10.0511 23.1772 10.0476C23.6399 9.98138 24.0668 9.89679 24.0668 9.41129C24.0668 9.1649 23.867 8.96514 23.6206 8.96514C23.2973 8.96514 23.5377 9.05806 23.1772 9.14125V7.12275C23.1524 7.12631 23.1275 7.1298 23.1026 7.13329C22.9272 7.15791 22.8182 7.0811 22.7823 7.13222C22.7357 7.19831 22.8635 7.21001 22.9004 7.36311C23.0136 7.83236 23.1355 8.33794 22.7146 8.62397C22.3628 8.86307 21.9722 8.68597 21.5583 8.49833C21.3339 8.39659 21.0963 8.28887 21.0629 8.30275C21.0327 8.31529 20.9366 8.52742 20.8364 8.74852C20.6342 9.19494 20.4224 9.66256 19.9401 9.79156C19.5021 9.90874 19.0981 9.67049 18.6809 9.42434C18.4104 9.26478 18.1311 9.10005 17.9874 9.12352C17.8485 9.14624 17.6329 9.37226 17.4125 9.60346C17.0533 9.98025 16.6851 10.3664 16.1636 10.4072C15.6703 10.4457 15.2496 10.1508 14.8219 9.85095L14.8219 9.85095Z" fill="#FFD3B3"/>
<path fill-rule="evenodd" clip-rule="evenodd" d="M20.9459 6.10053C19.1603 6.69572 16.7059 7.06386 14.006 7.06386C11.3061 7.06386 8.8517 6.69572 7.06614 6.10053C6.13305 5.7895 5.37204 5.40746 4.83487 4.97168V6.21644C4.47433 6.13325 4.71485 6.04033 4.39146 6.04033C4.14507 6.04033 3.94531 6.24009 3.94531 6.48648C3.94531 6.97185 4.37216 7.0566 4.83487 7.12277C4.85966 7.12633 4.88453 7.12982 4.90948 7.13331C5.08488 7.15792 5.19385 7.08112 5.22982 7.13223C5.23276 7.13643 5.235 7.1404 5.2366 7.1442C5.17622 7.20144 5.13112 7.2762 5.11015 7.3631L5.11158 7.36345C4.99844 7.83261 4.87672 8.33802 5.29755 8.62398C5.64933 8.86306 6.03989 8.68599 6.45374 8.49835C6.67816 8.3966 6.91579 8.28887 6.94925 8.30276C6.97946 8.3153 7.07556 8.52746 7.17569 8.74856C7.37788 9.19498 7.58969 9.66258 8.07194 9.79157C8.50999 9.90875 8.91396 9.67048 9.33119 9.42438C9.60167 9.26482 9.88097 9.10008 10.0247 9.12355C10.1637 9.14626 10.3792 9.3723 10.5996 9.60347C10.9588 9.98026 11.327 10.3664 11.8485 10.4072C12.3418 10.4458 12.7625 10.1508 13.1902 9.85096C13.4869 9.64288 13.7886 9.43138 14.006 9.43138C14.2235 9.43138 14.5252 9.64288 14.8219 9.85096C15.2496 10.1508 15.6702 10.4458 16.1636 10.4072C16.6851 10.3664 17.0533 9.98026 17.4125 9.60347C17.6329 9.37227 17.8485 9.14626 17.9874 9.12353C18.1311 9.10006 18.4104 9.2648 18.6809 9.42435C19.0981 9.6705 19.5021 9.90875 19.9401 9.79157C20.4224 9.66258 20.6342 9.19496 20.8364 8.74854C20.9366 8.52744 21.0327 8.3153 21.0628 8.30276C21.0963 8.28889 21.3339 8.3966 21.5583 8.49835C21.9722 8.68599 22.3627 8.86309 22.7145 8.62398C23.1355 8.33796 23.0136 7.83237 22.9004 7.36312C22.8635 7.21002 22.7357 7.19832 22.7823 7.13223C22.8182 7.08112 22.9272 7.15792 23.1026 7.13331C23.1275 7.12982 23.1524 7.12633 23.1772 7.12277C23.6399 7.05657 24.0668 6.97197 24.0668 6.48648C24.0668 6.24009 23.867 6.04033 23.6206 6.04033C23.2972 6.04033 23.5377 6.13325 23.1772 6.21644V4.97168C22.64 5.40749 21.879 5.78951 20.9459 6.10053H20.9459Z" fill="#B38E85"/>
<path d="M23.8206 11.0519C23.6002 10.9431 23.3333 11.0337 23.2246 11.2541C23.1158 11.4745 23.2063 11.7413 23.4267 11.8501C24.0116 12.1395 24.4663 12.4519 24.7648 12.7784C25.0138 13.0507 25.1478 13.329 25.1478 13.6058C25.1478 14.4594 23.968 15.2795 22.0606 15.9153C20.0089 16.5991 17.162 17.0222 14.0064 17.0222C10.8507 17.0222 8.00386 16.5991 5.95213 15.9153C4.04475 15.2795 2.86495 14.4594 2.86495 13.6058C2.86495 13.329 2.99891 13.0507 3.24787 12.7784C3.54643 12.4519 4.00103 12.1396 4.58595 11.8502C4.80634 11.7414 4.89687 11.4745 4.78812 11.2541C4.67937 11.0337 4.41249 10.9432 4.1921 11.052C3.51178 11.3886 2.96883 11.7674 2.59256 12.1789C2.18951 12.6197 1.97266 13.0984 1.97266 13.6058C1.97266 14.8854 3.38686 15.9966 5.67329 16.7588C7.8154 17.4728 10.7624 17.9145 14.0064 17.9145C17.2503 17.9145 20.1973 17.4728 22.3394 16.7588C24.6259 15.9966 26.0401 14.8854 26.0401 13.6058C26.0401 13.0984 25.8232 12.6197 25.4201 12.1788C25.0439 11.7673 24.5009 11.3885 23.8206 11.0519H23.8206Z" fill="#333333"/>
<path d="M26.0401 13.6063C26.0401 13.3599 25.8403 13.1602 25.5939 13.1602C25.3475 13.1602 25.1478 13.3599 25.1478 13.6063V24.0054C25.1478 24.859 23.968 25.6791 22.0606 26.3149C20.0089 26.9988 17.162 27.4218 14.0063 27.4218C10.8507 27.4218 8.00383 26.9988 5.95215 26.3149C4.04475 25.6791 2.86496 24.859 2.86496 24.0054V13.6063C2.86496 13.3599 2.6652 13.1602 2.41881 13.1602C2.17241 13.1602 1.97266 13.3599 1.97266 13.6063V24.0054C1.97266 25.2851 3.38686 26.3963 5.67331 27.1584C7.81544 27.8725 10.7624 28.3141 14.0063 28.3141C17.2503 28.3141 20.1973 27.8725 22.3394 27.1584C24.6259 26.3963 26.0401 25.2851 26.0401 24.0054V13.6063V13.6063Z" fill="#333333"/>
<path d="M26.0374 20.8338C26.0374 20.5875 25.8377 20.3877 25.5913 20.3877C25.2453 20.3877 25.6052 20.5327 24.8326 20.641C24.4126 20.7 23.9795 20.7608 23.7781 21.047C23.5797 21.3289 23.6721 21.7125 23.7706 22.1206C23.8304 22.3687 24.0053 22.561 23.9501 22.5985C23.918 22.6202 23.7529 22.4727 23.5099 22.3626C23.052 22.1549 22.567 21.935 22.1329 22.1153C21.7385 22.2791 21.5441 22.7084 21.3414 23.1559C21.1919 23.4859 21.0353 23.8316 20.9032 23.8669C20.7726 23.9019 20.461 23.7181 20.1391 23.5282C19.6628 23.2472 19.1709 22.9571 18.6465 23.0428C18.1534 23.1234 17.7812 23.5138 17.4005 23.9131C17.0968 24.2317 16.7854 24.5582 16.5335 24.5779C16.2827 24.5975 15.9199 24.3432 15.5511 24.0845C15.0657 23.7442 14.5725 23.3984 14.007 23.3984C13.4415 23.3984 12.9483 23.7442 12.463 24.0845C12.0941 24.3432 11.7313 24.5975 11.4805 24.5779C11.2286 24.5582 10.9173 24.2317 10.6135 23.9131C10.2328 23.5138 9.86062 23.1234 9.36752 23.0428C8.8431 22.9571 8.35131 23.2472 7.8749 23.5282C7.55306 23.7181 7.24148 23.9019 7.11084 23.8669C6.97869 23.8316 6.8221 23.4859 6.67264 23.1559C6.46998 22.7084 6.2755 22.2791 5.8811 22.1153C5.44696 21.9351 4.96203 22.1549 4.50405 22.3626C4.26113 22.4727 4.09604 22.6203 4.06396 22.5985C4.00881 22.561 4.18362 22.3687 4.24343 22.1207L3.81122 22.0161L4.24495 22.1207C4.24819 22.1072 4.25076 22.0937 4.25274 22.0802C4.34722 21.6872 4.42775 21.3196 4.2359 21.047C4.03445 20.7608 3.60136 20.7 3.18136 20.641C2.40912 20.5327 2.76821 20.3877 2.42271 20.3877C2.17632 20.3877 1.97656 20.5875 1.97656 20.8338C1.97656 21.371 2.50869 21.4456 3.05937 21.5229C3.29009 21.5552 3.48686 21.5301 3.50743 21.5594C3.53611 21.6001 3.45063 21.6862 3.39671 21.851C3.38902 21.8704 3.38255 21.8906 3.3775 21.9115L3.37893 21.9118C3.24971 22.4477 3.11071 23.0249 3.56551 23.3339C3.94698 23.5932 4.3951 23.39 4.87001 23.1747C5.15781 23.0442 5.46259 22.906 5.5395 22.938C5.60914 22.9669 5.73225 23.2386 5.86052 23.5219C6.09539 24.0404 6.34141 24.5836 6.88078 24.7279C7.37174 24.8592 7.84211 24.5817 8.32802 24.2951C8.66793 24.0946 9.01888 23.8876 9.22463 23.9212C9.42235 23.9535 9.69245 24.2368 9.96873 24.5266C10.3896 24.968 10.8208 25.4204 11.4143 25.4667C11.9767 25.5107 12.4702 25.1648 12.9718 24.813C13.3413 24.5539 13.7168 24.2907 14.007 24.2907C14.2972 24.2907 14.6727 24.5539 15.0422 24.813C15.5438 25.1648 16.0373 25.5107 16.5998 25.4667C17.1932 25.4204 17.6245 24.968 18.0453 24.5266C18.3216 24.2368 18.5917 23.9535 18.7894 23.9212C18.9952 23.8876 19.3461 24.0945 19.686 24.2951C20.1719 24.5817 20.6423 24.8592 21.1333 24.7279C21.6727 24.5836 21.9186 24.0404 22.1535 23.5218C22.2818 23.2386 22.4049 22.9669 22.4745 22.938C22.5514 22.906 22.8562 23.0442 23.144 23.1747C23.6189 23.39 24.067 23.5932 24.4485 23.3339C24.9035 23.0247 24.7642 22.4474 24.635 21.9115C24.5855 21.7062 24.4741 21.6055 24.5065 21.5594C24.5271 21.5302 24.7239 21.5552 24.9546 21.5229C25.5053 21.4456 26.0374 21.3709 26.0374 20.8338V20.8338Z" fill="#333333"/>
<path d="M26.0374 17.3094C26.0374 17.063 25.8377 16.8633 25.5913 16.8633C25.2453 16.8633 25.6052 17.0083 24.8326 17.1166C24.4126 17.1756 23.9795 17.2364 23.7781 17.5226C23.5797 17.8045 23.6721 18.1881 23.7706 18.5962C23.8304 18.8443 24.0053 19.0366 23.9501 19.0741C23.918 19.0959 23.7529 18.9483 23.5099 18.8382C23.052 18.6305 22.567 18.4106 22.1329 18.5909C21.7385 18.7547 21.5441 19.184 21.3414 19.6315C21.1919 19.9615 21.0354 20.3072 20.9032 20.3425C20.7725 20.3775 20.461 20.1937 20.1391 20.0038C19.6628 19.7228 19.1709 19.4327 18.6465 19.5184C18.1534 19.599 17.7812 19.9894 17.4005 20.3887C17.0968 20.7073 16.7854 21.0338 16.5335 21.0535C16.2827 21.0731 15.9199 20.8188 15.5511 20.5601C15.0657 20.2198 14.5725 19.874 14.007 19.874C13.4415 19.874 12.9483 20.2198 12.463 20.5601C12.0941 20.8188 11.7313 21.0731 11.4805 21.0535C11.2286 21.0338 10.9173 20.7073 10.6135 20.3887C10.2328 19.9894 9.86062 19.599 9.36752 19.5184C8.8431 19.4327 8.35128 19.7228 7.87492 20.0038C7.55308 20.1936 7.24148 20.3774 7.11084 20.3425C6.97869 20.3072 6.8221 19.9615 6.67264 19.6315C6.46998 19.1841 6.27552 18.7547 5.8811 18.5909C5.44696 18.4107 4.96203 18.6305 4.50405 18.8382C4.26113 18.9483 4.09604 19.0959 4.06396 19.0741C4.00881 19.0366 4.18362 18.8443 4.24343 18.5963L3.81122 18.4917L4.24495 18.5963C4.24819 18.5828 4.25076 18.5693 4.25274 18.5558C4.34722 18.1628 4.42775 17.7952 4.2359 17.5226C4.03447 17.2364 3.60136 17.1755 3.18136 17.1166C2.40875 17.0083 2.7687 16.8633 2.42271 16.8633C2.17632 16.8633 1.97656 17.063 1.97656 17.3094C1.97656 17.8465 2.50867 17.9212 3.05937 17.9985C3.29009 18.0308 3.48688 18.0058 3.50743 18.035C3.53611 18.0757 3.45063 18.1618 3.39671 18.3266C3.38902 18.346 3.38255 18.3662 3.3775 18.3871L3.37893 18.3874C3.24971 18.9233 3.11071 19.5005 3.56551 19.8095C3.94698 20.0688 4.3951 19.8656 4.87001 19.6503C5.15781 19.5198 5.46259 19.3816 5.5395 19.4136C5.60914 19.4425 5.73225 19.7142 5.86052 19.9974C6.09539 20.516 6.34141 21.0592 6.88078 21.2034C7.3717 21.3348 7.84213 21.0573 8.32805 20.7706C8.66793 20.5701 9.01886 20.3632 9.22463 20.3968C9.42235 20.4291 9.69245 20.7124 9.96873 21.0022C10.3895 21.4436 10.8208 21.8959 11.4143 21.9423C11.9767 21.9863 12.4702 21.6404 12.9718 21.2886C13.3413 21.0295 13.7168 20.7663 14.007 20.7663C14.2972 20.7663 14.6727 21.0295 15.0422 21.2886C15.5438 21.6404 16.0373 21.9863 16.5998 21.9423C17.1932 21.8959 17.6245 21.4436 18.0453 21.0022C18.3216 20.7124 18.5917 20.4291 18.7894 20.3968C18.9952 20.3632 19.3461 20.5701 19.686 20.7706C20.1719 21.0573 20.6423 21.3348 21.1333 21.2034C21.6726 21.0592 21.9186 20.516 22.1535 19.9974C22.2818 19.7142 22.4049 19.4425 22.4745 19.4136C22.5514 19.3816 22.8562 19.5198 23.144 19.6503C23.6189 19.8656 24.067 20.0688 24.4485 19.8095C24.9035 19.5003 24.7642 18.923 24.635 18.3871C24.5855 18.1818 24.4741 18.0811 24.5065 18.035C24.5271 18.0058 24.7239 18.0308 24.9546 17.9985C25.5053 17.9212 26.0374 17.8465 26.0374 17.3094V17.3094Z" fill="#333333"/>
<path d="M14.0048 -0.240234C16.7047 -0.240234 19.1591 0.127905 20.9447 0.723093C22.8746 1.36636 24.0683 2.3134 24.0683 3.41167C24.0683 4.5099 22.8746 5.45696 20.9447 6.10023C19.1591 6.69542 16.7047 7.06356 14.0048 7.06356C11.305 7.06356 8.85054 6.69542 7.06498 6.10023C5.1351 5.45696 3.94141 4.5099 3.94141 3.41167C3.94141 2.3134 5.1351 1.36636 7.06496 0.723093C8.85055 0.127906 11.305 -0.240234 14.0049 -0.240234H14.0048ZM20.6659 1.56661C18.9707 1.00156 16.6164 0.652066 14.0048 0.652066C11.3932 0.652066 9.0389 1.00156 7.34373 1.56661C5.79287 2.08354 4.83363 2.73944 4.83363 3.41168C4.83363 4.08388 5.79287 4.73979 7.34375 5.25672C9.03888 5.82177 11.3932 6.17126 14.0048 6.17126C16.6163 6.17126 18.9707 5.82177 20.6658 5.25672C22.2167 4.73979 23.1759 4.08389 23.1759 3.41168C23.1759 2.73945 22.2167 2.08354 20.6658 1.56661H20.6659Z" fill="#333333"/>
<path d="M24.0684 3.41099C24.0684 3.1646 23.8686 2.96484 23.6222 2.96484C23.3758 2.96484 23.1761 3.1646 23.1761 3.41099V12.0419C23.1761 12.7142 22.2168 13.3701 20.666 13.887C18.9708 14.452 16.6165 14.8015 14.0049 14.8015C11.3933 14.8015 9.03898 14.452 7.34381 13.887C5.79295 13.3701 4.83371 12.7142 4.83371 12.0419V3.41099C4.83371 3.1646 4.63395 2.96484 4.38756 2.96484C4.14116 2.96484 3.94141 3.1646 3.94141 3.41099V12.0419C3.94141 13.1402 5.13507 14.0872 7.06496 14.7305C8.85055 15.3257 11.305 15.6938 14.0049 15.6938C16.7048 15.6938 19.1592 15.3257 20.9448 14.7305C22.8747 14.0872 24.0684 13.1402 24.0684 12.0419V3.41099V3.41099Z" fill="#333333"/>
<path d="M24.0668 9.41002C24.0668 9.16362 23.867 8.96387 23.6206 8.96387C23.2507 8.96387 23.6187 9.08546 22.9806 9.175C22.6159 9.2262 22.2399 9.27903 22.0538 9.54342C21.8695 9.80529 21.9502 10.1398 22.036 10.4958C22.0797 10.6772 22.3053 10.7515 22.2161 10.8121C22.1543 10.854 22.1062 10.6922 21.9243 10.6098C21.5297 10.4309 21.112 10.2414 20.7212 10.4037C20.3663 10.5511 20.1988 10.9208 20.0243 11.3061C19.9075 11.564 19.7851 11.8341 19.7101 11.8542C19.6323 11.875 19.3872 11.7304 19.134 11.5811C18.7271 11.341 18.3069 11.0931 17.8445 11.1687C17.4102 11.2397 17.0926 11.5728 16.7677 11.9136C16.5256 12.1675 16.2774 12.4278 16.0973 12.4419C15.9157 12.4561 15.6257 12.2528 15.3308 12.046C14.9182 11.7567 14.4988 11.4626 14.006 11.4626C13.5133 11.4626 13.0939 11.7567 12.6813 12.046C12.3864 12.2528 12.0964 12.4561 11.9148 12.4419C11.7347 12.4278 11.4865 12.1675 11.2444 11.9136C10.9195 11.5728 10.6019 11.2397 10.1676 11.1687C9.70525 11.0931 9.28503 11.341 8.87805 11.5811C8.6249 11.7304 8.37978 11.875 8.30199 11.8542C8.22699 11.8341 8.10458 11.564 7.9878 11.3061C7.81329 10.9208 7.64581 10.5511 7.29084 10.4037C6.90011 10.2414 6.48235 10.4309 6.08778 10.6098C5.90587 10.6922 5.85776 10.8541 5.796 10.8121C5.70684 10.7515 5.93235 10.6772 5.97609 10.4958L5.54388 10.3912L5.9776 10.4958C5.98085 10.4824 5.9834 10.4689 5.98537 10.4555C6.06723 10.1146 6.13555 9.79533 5.95828 9.54341C5.7722 9.27899 5.39616 9.22618 5.03149 9.17502C4.39333 9.08549 4.76149 8.96387 4.39146 8.96387C4.14507 8.96387 3.94531 9.16363 3.94531 9.41002C3.94531 9.92153 4.41915 9.98804 4.9095 10.0569C5.08491 10.0815 5.19387 10.0047 5.22982 10.0558C5.23276 10.06 5.235 10.0639 5.2366 10.0677C5.17622 10.125 5.13112 10.1997 5.11016 10.2866L5.11158 10.287C4.99844 10.7562 4.87672 11.2616 5.29755 11.5475C5.64933 11.7866 6.03989 11.6095 6.45374 11.4219C6.67816 11.3201 6.91579 11.2124 6.94925 11.2263C6.97946 11.2388 7.07557 11.451 7.17569 11.6721C7.37788 12.1185 7.58967 12.5861 8.07194 12.7151C8.51005 12.8323 8.91396 12.594 9.33119 12.3479C9.60167 12.1884 9.88098 12.0236 10.0247 12.0471C10.1636 12.0698 10.3792 12.2958 10.5996 12.527C10.9588 12.9038 11.327 13.29 11.8485 13.3307C12.3419 13.3693 12.7625 13.0744 13.1902 12.7745C13.487 12.5664 13.7886 12.3549 14.006 12.3549C14.2235 12.3549 14.5252 12.5664 14.8219 12.7745C15.2496 13.0744 15.6703 13.3693 16.1636 13.3307C16.6851 13.29 17.0533 12.9038 17.4125 12.527C17.6329 12.2958 17.8485 12.0698 17.9874 12.0471C18.1311 12.0236 18.4104 12.1884 18.6809 12.3479C19.0981 12.5941 19.5021 12.8323 19.9401 12.7151C20.4224 12.5861 20.6342 12.1185 20.8364 11.6721C20.9366 11.451 21.0326 11.2388 21.0629 11.2263C21.0963 11.2124 21.3339 11.3201 21.5583 11.4219C21.9722 11.6095 22.3627 11.7866 22.7146 11.5475C23.1355 11.2615 23.0136 10.7559 22.9004 10.2867C22.8635 10.1336 22.7357 10.1219 22.7823 10.0558C22.8182 10.0047 22.9272 10.0815 23.1026 10.0569C23.593 9.98802 24.0668 9.92151 24.0668 9.41002L24.0668 9.41002Z" fill="#333333"/>
<path d="M24.0668 6.48521C24.0668 6.23882 23.867 6.03906 23.6206 6.03906C23.2507 6.03906 23.6187 6.16066 22.9806 6.25019C22.6159 6.3014 22.2399 6.35416 22.0538 6.6186C21.8695 6.88047 21.9502 7.21499 22.036 7.57102C22.0797 7.75244 22.3053 7.82667 22.2161 7.88727C22.1543 7.92923 22.1062 7.76744 21.9243 7.68497C21.5297 7.50607 21.112 7.31663 20.7212 7.47889C20.3663 7.6263 20.1988 7.99598 20.0243 8.38131C19.9075 8.63916 19.7851 8.90929 19.7101 8.92936C19.6322 8.95017 19.3871 8.80559 19.134 8.65625C18.7271 8.41618 18.3069 8.16831 17.8445 8.24389C17.4102 8.31489 17.0926 8.64801 16.7677 8.98875C16.5256 9.24274 16.2774 9.50303 16.0973 9.51711C15.9157 9.53131 15.6257 9.32798 15.3308 9.12124C14.9182 8.8319 14.4988 8.53782 14.006 8.53782C13.5133 8.53782 13.0939 8.8319 12.6813 9.12124C12.3864 9.32798 12.0964 9.53131 11.9148 9.51711C11.7347 9.50303 11.4865 9.24272 11.2444 8.98875C10.9195 8.64804 10.6019 8.31489 10.1676 8.24391C9.70525 8.16834 9.28503 8.41618 8.87805 8.65627C8.6249 8.80559 8.3798 8.95018 8.30199 8.92936C8.22697 8.90929 8.10458 8.63919 7.9878 8.38133C7.81329 7.99602 7.64581 7.6263 7.29084 7.47889C6.90011 7.31663 6.48235 7.50607 6.08778 7.68497C5.90587 7.76744 5.85776 7.92925 5.796 7.88727C5.70684 7.82668 5.93235 7.75244 5.97609 7.57102L5.54388 7.46644L5.9776 7.57104C5.98085 7.55758 5.9834 7.54412 5.98537 7.53066C6.06723 7.18981 6.13558 6.87057 5.95828 6.6186C5.77218 6.35416 5.39614 6.3014 5.03146 6.2502C4.39338 6.16066 4.76142 6.03907 4.39146 6.03907C4.14507 6.03907 3.94531 6.23883 3.94531 6.48522C3.94531 6.99658 4.41913 7.06326 4.90948 7.13205C5.08488 7.15666 5.19385 7.07986 5.22982 7.13097C5.23276 7.13516 5.235 7.13914 5.2366 7.14294C5.17622 7.20018 5.13112 7.27494 5.11016 7.36184L5.11158 7.36219C4.99844 7.83135 4.87672 8.33676 5.29755 8.62272C5.64933 8.8618 6.03989 8.68473 6.45374 8.49709C6.67816 8.39534 6.91579 8.2876 6.94925 8.3015C6.97946 8.31404 7.07557 8.5262 7.17569 8.7473C7.37788 9.19371 7.58969 9.66132 8.07194 9.79031C8.50999 9.90749 8.91396 9.66922 9.33119 9.42312C9.60167 9.26356 9.88098 9.09882 10.0247 9.12229C10.1637 9.145 10.3792 9.37104 10.5996 9.60221C10.9588 9.979 11.327 10.3651 11.8485 10.4059C12.3418 10.4445 12.7625 10.1496 13.1902 9.8497C13.4869 9.64162 13.7886 9.43012 14.006 9.43012C14.2235 9.43012 14.5252 9.64162 14.8219 9.8497C15.2496 10.1496 15.6703 10.4445 16.1636 10.4059C16.6851 10.3651 17.0533 9.979 17.4125 9.60221C17.6329 9.37101 17.8485 9.145 17.9874 9.12227C18.1311 9.0988 18.4104 9.26354 18.6809 9.42309C19.0981 9.66924 19.5021 9.90749 19.9401 9.79031C20.4224 9.66132 20.6342 9.1937 20.8364 8.74728C20.9366 8.52618 21.0327 8.31404 21.0629 8.3015C21.0963 8.28763 21.3339 8.39534 21.5583 8.49709C21.9722 8.68473 22.3627 8.86182 22.7146 8.62272C23.1355 8.3367 23.0136 7.83111 22.9004 7.36186C22.8635 7.20876 22.7357 7.19706 22.7823 7.13097C22.8182 7.07986 22.9272 7.15666 23.1026 7.13205C23.593 7.06321 24.0668 6.99671 24.0668 6.48522L24.0668 6.48521Z" fill="#333333"/>
<path d="M14.0076 2.0332C14.9649 2.0332 15.8403 2.14423 16.4815 2.32371C17.2867 2.54902 17.7848 2.92952 17.7848 3.41164C17.7848 3.89373 17.2867 4.27421 16.4815 4.49957C15.8402 4.67901 14.9649 4.79005 14.0076 4.79005C13.0503 4.79005 12.175 4.67901 11.5337 4.49957C10.7285 4.27421 10.2305 3.89373 10.2305 3.41164C10.2305 2.92952 10.7285 2.54902 11.5337 2.32371C12.175 2.14424 13.0503 2.0332 14.0076 2.0332V2.0332ZM16.2445 3.18114C15.6802 3.02321 14.8899 2.9255 14.0076 2.9255C13.1253 2.9255 12.3351 3.02321 11.7708 3.18114C11.3704 3.29316 11.1228 3.3789 11.1228 3.41164C11.1228 3.44437 11.3704 3.53009 11.7708 3.64213C12.3351 3.80004 13.1253 3.89775 14.0076 3.89775C14.8899 3.89775 15.6802 3.80004 16.2445 3.64213C16.6448 3.53009 16.8925 3.44437 16.8925 3.41164C16.8925 3.3789 16.6448 3.29316 16.2445 3.18114Z" fill="#333333"/>
<path d="M8.38252 2.48887C9.05177 2.32561 9.56134 2.0581 9.52066 1.89136C9.47999 1.72463 8.90448 1.72181 8.23523 1.88506C7.56597 2.04832 7.05641 2.31583 7.09708 2.48257C7.13776 2.6493 7.71327 2.65212 8.38252 2.48887Z" fill="#333333"/>
<path d="M8.32783 4.1459C8.99709 4.30916 9.50665 4.57667 9.46598 4.7434C9.4253 4.91014 8.84979 4.91296 8.18054 4.7497C7.51129 4.58645 7.00172 4.31894 7.0424 4.1522C7.08307 3.98546 7.65858 3.98264 8.32783 4.1459Z" fill="#333333"/>
<path d="M19.2698 2.48887C18.6006 2.32561 18.091 2.0581 18.1317 1.89136C18.1724 1.72463 18.7479 1.72181 19.4171 1.88506C20.0864 2.04832 20.5959 2.31583 20.5553 2.48257C20.5146 2.6493 19.9391 2.65212 19.2698 2.48887Z" fill="#333333"/>
<path d="M19.3284 4.1459C18.6592 4.30916 18.1496 4.57667 18.1903 4.7434C18.2309 4.91014 18.8065 4.91296 19.4757 4.7497C20.145 4.58645 20.6545 4.31894 20.6139 4.1522C20.5732 3.98546 19.9977 3.98264 19.3284 4.1459Z" fill="#333333"/>
<path fill-rule="evenodd" clip-rule="evenodd" d="M14.0059 3.899C14.8883 3.899 15.6785 3.8013 16.2428 3.64339C16.6431 3.53134 16.8908 3.44563 16.8908 3.41289C16.8908 3.38015 16.6431 3.29441 16.2428 3.18239C15.6785 3.02446 14.8882 2.92676 14.0059 2.92676C13.1236 2.92676 12.3334 3.02446 11.7691 3.18239C11.3687 3.29441 11.1211 3.38015 11.1211 3.41289C11.1211 3.44563 11.3687 3.53134 11.7691 3.64339C12.3334 3.8013 13.1236 3.899 14.0059 3.899Z" fill="#F45A52"/>
<path fill-rule="evenodd" clip-rule="evenodd" d="M14.0071 2.03452C14.9645 2.03452 15.8398 2.14555 16.481 2.32502C17.2862 2.55034 17.7843 2.93084 17.7843 3.41295C17.7843 3.89505 17.2862 4.27552 16.481 4.50088C15.8398 4.68033 14.9644 4.79136 14.0071 4.79136C13.0498 4.79136 12.1745 4.68033 11.5333 4.50088C10.7281 4.27553 10.23 3.89505 10.23 3.41295C10.23 2.93084 10.7281 2.55034 11.5333 2.32502C12.1745 2.14555 13.0498 2.03452 14.0071 2.03452V2.03452ZM19.2707 2.48919C18.6014 2.32594 18.0918 2.05843 18.1325 1.89169C18.1732 1.72494 18.7487 1.72213 19.4179 1.88539C20.0872 2.04864 20.5968 2.31615 20.5561 2.48289C20.5154 2.64964 19.9399 2.65245 19.2707 2.48919ZM23.1783 3.41293C23.1783 2.7407 22.219 2.0848 20.6682 1.56786C18.973 1.00282 16.6187 0.65332 14.0071 0.65332C11.3956 0.65332 9.04121 1.00282 7.34604 1.56786C5.79518 2.0848 4.83594 2.74069 4.83594 3.41293C4.83594 4.08514 5.79518 4.74104 7.34606 5.25798C9.04119 5.82302 11.3955 6.17252 14.0071 6.17252C16.6187 6.17252 18.973 5.82302 20.6681 5.25798C22.219 4.74104 23.1782 4.08514 23.1782 3.41293H23.1783ZM8.23728 1.88539C8.90653 1.72212 9.48203 1.72493 9.52271 1.89169C9.56337 2.05843 9.05381 2.32594 8.38456 2.48919C7.71532 2.65245 7.1398 2.64964 7.09914 2.48289C7.05845 2.31615 7.56801 2.04864 8.23728 1.88539ZM8.32667 4.14791C8.99592 4.31118 9.50548 4.57867 9.46481 4.74543C9.42413 4.91217 8.84864 4.91498 8.17937 4.75173C7.51012 4.58847 7.00056 4.32097 7.04124 4.15421C7.08191 3.98748 7.65742 3.98467 8.32667 4.14791V4.14791ZM18.1904 4.74543C18.1497 4.57867 18.6593 4.31118 19.3286 4.14791C19.9978 3.98467 20.5733 3.98748 20.614 4.15421C20.6547 4.32097 20.1451 4.58846 19.4759 4.75173C18.8066 4.91498 18.2311 4.91217 18.1904 4.74543Z" fill="#B38E85"/>
<path fill-rule="evenodd" clip-rule="evenodd" d="M14.823 12.7757C14.5262 12.5677 14.2246 12.3562 14.0071 12.3562C13.7897 12.3562 13.488 12.5677 13.1913 12.7757C12.7636 13.0756 12.343 13.3705 11.8496 13.332C11.328 13.2912 10.9599 12.905 10.6007 12.5282C10.3802 12.2971 10.1647 12.0711 10.0257 12.0483C9.88204 12.0249 9.60274 12.1896 9.33226 12.3492C8.91503 12.5953 8.51112 12.8336 8.07301 12.7164C7.59074 12.5874 7.37895 12.1198 7.17676 11.6733C7.07663 11.4522 6.98053 11.2401 6.95032 11.2275C6.91686 11.2136 6.67923 11.3214 6.45481 11.4231C6.04096 11.6108 5.6504 11.7878 5.29862 11.5488C4.87779 11.2628 4.99951 10.7574 5.11265 10.2882L5.11122 10.2879C5.13219 10.201 5.17729 10.1262 5.23767 10.069C5.23607 10.0652 5.23383 10.0612 5.23089 10.057C5.19494 10.0059 5.08597 10.0827 4.91057 10.0581C4.88562 10.0546 4.86073 10.0511 4.83594 10.0476V12.0428C4.83594 12.7151 5.79518 13.371 7.34604 13.8879C9.04119 14.453 11.3955 14.8024 14.0071 14.8024C16.6187 14.8024 18.973 14.453 20.6682 13.8879C22.219 13.371 23.1783 12.7151 23.1783 12.0428V10.0475C23.1535 10.0511 23.1287 10.0546 23.1037 10.0581C22.9283 10.0827 22.8193 10.006 22.7834 10.057C22.7369 10.1231 22.8646 10.1348 22.9016 10.2879C23.0147 10.7572 23.1366 11.2627 22.7157 11.5488C22.3639 11.7879 21.9733 11.6108 21.5595 11.4231C21.335 11.3214 21.0974 11.2137 21.064 11.2275C21.0338 11.2401 20.9377 11.4522 20.8375 11.6733C20.6353 12.1197 20.4236 12.5874 19.9413 12.7164C19.5032 12.8335 19.0993 12.5953 18.682 12.3491C18.4115 12.1896 18.1322 12.0249 17.9885 12.0483C17.8496 12.0711 17.6341 12.2971 17.4136 12.5282C17.0544 12.905 16.6863 13.2912 16.1647 13.332C15.6714 13.3705 15.2507 13.0756 14.8231 12.7757L14.823 12.7757Z" fill="#B38E85"/>
<path fill-rule="evenodd" clip-rule="evenodd" d="M20.9446 14.7299C19.159 15.3251 16.7046 15.6932 14.0047 15.6932C11.3048 15.6932 8.85037 15.3251 7.06476 14.7299C5.23093 14.1186 4.06187 13.2331 3.95003 12.2042C3.66253 12.3887 3.42606 12.5803 3.2462 12.7769C2.99724 13.0492 2.86328 13.3275 2.86328 13.6043C2.86328 14.4579 4.04307 15.278 5.95045 15.9138C8.00215 16.5976 10.849 17.0206 14.0047 17.0206C17.1603 17.0206 20.0072 16.5976 22.0589 15.9138C23.9663 15.278 25.1461 14.4579 25.1461 13.6043C25.1461 13.3275 25.0121 13.0492 24.7632 12.7769C24.5833 12.5802 24.3468 12.3886 24.0593 12.2041C23.9475 13.2331 22.7784 14.1186 20.9446 14.7299H20.9446Z" fill="#B38E85"/>
<path fill-rule="evenodd" clip-rule="evenodd" d="M16.5975 25.4671C16.035 25.5111 15.5415 25.1651 15.0399 24.8133C14.6704 24.5543 14.2949 24.291 14.0047 24.291C13.7145 24.291 13.339 24.5543 12.9695 24.8133C12.4679 25.1651 11.9744 25.5111 11.412 25.4671C10.8185 25.4207 10.3873 24.9683 9.96642 24.5269C9.69014 24.2372 9.42004 23.9538 9.22232 23.9215C9.01657 23.8879 8.66562 24.0949 8.32572 24.2954C7.83981 24.582 7.36944 24.8595 6.87847 24.7282C6.3391 24.5839 6.09308 24.0408 5.85821 23.5222C5.72995 23.239 5.60684 22.9672 5.53719 22.9383C5.46028 22.9063 5.1555 23.0445 4.8677 23.175C4.39279 23.3904 3.94466 23.5935 3.5632 23.3343C3.1084 23.0252 3.2474 22.448 3.37662 21.9122L3.37519 21.9118C3.38024 21.8909 3.38672 21.8708 3.3944 21.8514C3.44833 21.6865 3.5338 21.6005 3.50513 21.5597C3.48455 21.5305 3.28778 21.5556 3.05707 21.5232C2.99192 21.5141 2.92704 21.505 2.86328 21.4951V24.0049C2.86328 24.8585 4.04307 25.6785 5.95048 26.3143C8.00218 26.9982 10.849 27.4212 14.0047 27.4212C17.1603 27.4212 20.0072 26.9982 22.0589 26.3143C23.9663 25.6785 25.1461 24.8585 25.1461 24.0049V21.4951C25.0823 21.505 25.0175 21.5141 24.9523 21.5232C24.7216 21.5556 24.5248 21.5305 24.5042 21.5598C24.4718 21.6058 24.5832 21.7066 24.6327 21.9118C24.7619 22.4477 24.9012 23.0251 24.4462 23.3343C24.0647 23.5935 23.6166 23.3904 23.1417 23.175C22.8539 23.0445 22.5491 22.9064 22.4722 22.9383C22.4026 22.9672 22.2795 23.2389 22.1512 23.5222C21.9164 24.0407 21.6704 24.5839 21.131 24.7282C20.64 24.8595 20.1696 24.5821 19.6837 24.2954C19.3438 24.0949 18.9929 23.8879 18.7871 23.9215C18.5894 23.9538 18.3193 24.2371 18.043 24.5269C17.6222 24.9683 17.1909 25.4207 16.5975 25.4671L16.5975 25.4671Z" fill="#B38E85"/>
</g>
<defs>
<clipPath id="clip0_512_20180">
<rect width="24.0143" height="29" fill="white" transform="translate(2)"/>
</clipPath>
</defs>
</svg>
