<svg width="29" height="29" viewBox="0 0 29 29" fill="none" xmlns="http://www.w3.org/2000/svg">
<g clip-path="url(#clip0_512_20199)">
<path d="M0.644724 22.1473C0.347592 21.8502 0.347592 21.3667 0.644724 21.0698L20.5073 1.20706C20.8044 0.910147 21.2879 0.910147 21.5848 1.20706C21.8819 1.50419 21.8819 1.98766 21.5848 2.28479L1.72224 22.1473C1.42511 22.4445 0.941857 22.4445 0.644724 22.1473V22.1473Z" fill="#FFD3B3"/>
<path d="M11.7001 13.6617L9.12816 11.0896C8.58228 10.5439 8.58228 9.65886 9.12816 9.1132L11.6894 6.55199C12.235 6.00611 13.1199 6.00611 13.6657 6.55199L16.2379 9.12415C16.7836 9.67003 16.7836 10.5549 16.2379 11.1005L13.6767 13.6617C13.1308 14.2076 12.246 14.2076 11.7001 13.6617Z" fill="#FFD3B3"/>
<path d="M16.2384 9.12459L15.0416 7.92773C15.5875 8.47361 15.5875 9.35844 15.0416 9.90432L11.4922 13.4535L11.7009 13.6622C12.2465 14.2078 13.1316 14.208 13.6772 13.6622L16.2384 11.101C16.7841 10.5553 16.7841 9.67047 16.2384 9.12459Z" fill="#E0A87F"/>
<path d="M5.9775 19.3844L3.40534 16.8122C2.85968 16.2663 2.85968 15.3815 3.40534 14.8356L5.96655 12.2746C6.51243 11.7288 7.39726 11.7288 7.94292 12.2746L10.5151 14.8466C11.061 15.3925 11.061 16.2773 10.5151 16.8232L7.95387 19.3844C7.40821 19.93 6.52338 19.93 5.9775 19.3844V19.3844Z" fill="#FFD3B3"/>
<path d="M10.5156 14.847L9.31893 13.6504C9.86459 14.196 9.86459 15.0811 9.31893 15.6268L5.76953 19.1762L5.97798 19.3848C6.52386 19.9305 7.40869 19.9305 7.95457 19.3848L10.5156 16.8236C11.0614 16.2777 11.0614 15.3929 10.5156 14.847V14.847Z" fill="#E0A87F"/>
<path d="M17.423 7.94006L14.8508 5.36789C14.3049 4.82201 14.3049 3.93718 14.8508 3.39152L17.412 0.830306C17.9577 0.284429 18.8427 0.284429 19.3884 0.830306L21.9606 3.40247C22.5064 3.94813 22.5064 4.83296 21.9606 5.37884L19.3993 7.94006C18.8537 8.48571 17.9686 8.48571 17.423 7.94006Z" fill="#FFD3B3"/>
<path d="M21.9623 3.40242L20.7721 2.21191C21.3177 2.75779 21.3177 3.64262 20.7721 4.18828L17.2227 7.73768L17.4248 7.94C17.9706 8.48566 18.8555 8.48566 19.4013 7.94L21.9623 5.37879C22.5082 4.83291 22.5082 3.94808 21.9623 3.40242V3.40242Z" fill="#E0A87F"/>
<path d="M6.55089 28.0565C6.25398 27.7595 6.25376 27.2761 6.55089 26.9789L26.4134 7.1164C26.7106 6.81927 27.194 6.81927 27.4912 7.1164C27.7883 7.41354 27.7883 7.89679 27.4912 8.19392L7.62841 28.0567C7.33149 28.3536 6.84802 28.3536 6.55089 28.0565Z" fill="#FFD3B3"/>
<path d="M17.6103 19.5709L15.0381 16.9987C14.4925 16.4529 14.4925 15.568 15.0381 15.0222L17.5994 12.4612C18.1452 11.9153 19.0301 11.9153 19.5757 12.4612L22.1479 15.0331C22.6938 15.579 22.6938 16.4638 22.1479 17.0097L19.5867 19.5709C19.041 20.1166 18.156 20.1166 17.6103 19.5709V19.5709Z" fill="#FFD3B3"/>
<path d="M22.1484 15.0335L20.9517 13.8369C21.4974 14.3826 21.4974 15.2676 20.9517 15.8133L17.4023 19.3627L17.6108 19.5713C18.1567 20.117 19.0415 20.117 19.5874 19.5713L22.1484 17.0101C22.6943 16.4643 22.6943 15.5794 22.1484 15.0335V15.0335Z" fill="#E0A87F"/>
<path d="M11.8876 25.2936L9.31566 22.7214C8.76978 22.1757 8.76978 21.2907 9.31566 20.745L11.8769 18.1838C12.4225 17.6379 13.3074 17.6379 13.8532 18.1838L16.4254 20.756C16.9711 21.3019 16.9711 22.1867 16.4254 22.7324L13.8642 25.2936C13.3183 25.8394 12.4335 25.8394 11.8876 25.2936V25.2936Z" fill="#FFD3B3"/>
<path d="M16.4259 20.7554L15.2291 19.5586C15.775 20.1045 15.775 20.9893 15.2291 21.5352L11.6797 25.0844L11.8884 25.293C12.434 25.8387 13.3191 25.8389 13.8647 25.293L16.4259 22.7318C16.9716 22.1862 16.9716 21.3013 16.4259 20.7554V20.7554Z" fill="#E0A87F"/>
<path d="M23.3329 13.8491L20.761 11.2769C20.2151 10.7312 20.2151 9.84642 20.761 9.30054L23.3222 6.73932C23.8678 6.19366 24.7527 6.19366 25.2986 6.73932L27.8707 9.31149C28.4164 9.85736 28.4164 10.7422 27.8707 11.2879L25.3095 13.8491C24.7636 14.3949 23.8788 14.3949 23.3329 13.8491Z" fill="#FFD3B3"/>
<path d="M27.8688 9.3116L26.6783 8.12109C27.2242 8.66697 27.2242 9.5518 26.6783 10.0977L23.1289 13.6471L23.3312 13.8492C23.8769 14.3951 24.7619 14.3951 25.3076 13.8492L27.8688 11.288C28.4145 10.7423 28.4145 9.85748 27.8688 9.3116Z" fill="#E0A87F"/>
<path d="M8.25199 19.6817L10.8132 17.1205C11.5235 16.4102 11.5239 15.2602 10.8132 14.5497L10.3632 14.0997L10.9533 13.5096L11.4033 13.9596C11.7466 14.3029 12.2032 14.4919 12.6888 14.4919C13.1743 14.4919 13.6308 14.3029 13.9741 13.9596L16.5356 11.3983C17.2441 10.6896 17.2441 9.53607 16.5356 8.82729L16.0854 8.37732L16.6755 7.78721L17.1255 8.23718C17.836 8.94772 18.986 8.94772 19.6965 8.23718L22.2577 5.67598C22.968 4.96566 22.9683 3.81567 22.2577 3.10514L21.8077 2.65517L21.8804 2.58225C22.342 2.12068 22.342 1.37183 21.8804 0.910036C21.4193 0.44912 20.6694 0.44912 20.2082 0.910036L20.1355 0.982951L19.6856 0.532982C18.975 -0.177551 17.8253 -0.17777 17.1145 0.532982L16.5264 1.1209C16.3621 1.28512 16.3621 1.55138 16.5264 1.7156C16.6906 1.8796 16.9568 1.8796 17.1211 1.7156L17.709 1.12747C18.0909 0.745595 18.709 0.745376 19.0909 1.12747C19.3643 1.40073 18.2772 0.313582 21.663 3.69962C22.0449 4.08149 22.0451 4.6994 21.663 5.08149L19.1018 7.6427C18.7199 8.02457 18.1018 8.02457 17.7199 7.6427C16.2573 6.18003 16.6091 6.5319 15.1478 5.07055C14.7659 4.68867 14.7659 4.07054 15.1478 3.68867L15.9183 2.91814C16.0825 2.75392 16.0825 2.48766 15.9183 2.32366C15.7541 2.15944 15.488 2.15944 15.3238 2.32366L14.5533 3.09419C13.843 3.80428 13.8428 4.9545 14.5533 5.66503L15.0033 6.115L14.4132 6.7051L13.9632 6.25513C13.2529 5.54482 12.1029 5.5446 11.3924 6.25513L8.83115 8.81634C8.12236 9.52512 8.12236 10.6786 8.83115 11.3874L9.28111 11.8374L8.69101 12.4275L8.24104 11.9775C7.53051 11.267 6.38052 11.2668 5.66998 11.9775L3.109 14.5387C2.39846 15.2488 2.39824 16.399 3.10878 17.1095L3.55896 17.5595L0.345687 20.7728C-0.115229 21.2337 -0.115229 21.9839 0.345687 22.4448C0.806823 22.9057 1.55677 22.9059 2.0179 22.4448L5.23118 19.2317L5.68093 19.6817C6.38971 20.3905 7.54299 20.3907 8.25199 19.6817V19.6817ZM20.8029 1.50474C20.9361 1.37139 21.1526 1.37161 21.286 1.50474C21.5612 1.77997 21.2159 2.05499 21.213 2.06047L20.73 1.57743L20.8029 1.50474ZM15.598 6.7097L16.081 7.19273L15.4909 7.78284L15.0079 7.2998L15.598 6.7097ZM9.42563 9.41082L11.9868 6.84984C12.3687 6.46775 12.9868 6.46775 13.3687 6.84984L15.9409 9.42177C16.3219 9.80277 16.3219 10.4229 15.9409 10.8039L13.3797 13.3648C13.1951 13.5494 12.9496 13.6513 12.6888 13.6513C12.4278 13.6513 12.1824 13.5494 11.9978 13.3648L9.42563 10.7929C9.04464 10.4119 9.04464 9.79204 9.42563 9.41082ZM9.8756 12.4319L10.3586 12.9149L9.76853 13.505L9.28549 13.022L9.8756 12.4319ZM3.70348 15.1332L6.26469 12.572C6.64656 12.1901 7.26469 12.1901 7.64656 12.572C8.93077 13.8562 8.80465 13.7301 10.2187 15.1441C10.6006 15.526 10.6006 16.1441 10.2187 16.526L7.65751 19.0872C7.27629 19.4682 6.65641 19.4682 6.27563 19.0872C4.90033 17.7119 5.04813 17.8599 3.70348 16.5151C3.32161 16.1332 3.32161 15.5151 3.70348 15.1332ZM1.4232 21.8503C1.29029 21.9834 1.07352 21.9837 0.94039 21.8503C0.807042 21.7172 0.807042 21.5006 0.940171 21.3673L4.15345 18.1542L4.63648 18.6373L1.4232 21.8503Z" fill="black"/>
<path d="M28.1678 9.0139L27.7179 8.56371L27.7905 8.49101C28.2523 8.02944 28.2523 7.28059 27.7908 6.8188C27.3296 6.35788 26.5797 6.35788 26.1185 6.8188L26.0459 6.89171L25.5957 6.44174C24.8869 5.73296 23.7336 5.73296 23.0248 6.44174L20.4636 9.00295C19.7533 9.71304 19.7529 10.8633 20.4636 11.5738L20.9136 12.0238L20.3235 12.6139L19.8735 12.1639C19.1647 11.4551 18.0112 11.4551 17.3025 12.1639L14.7412 14.7251C14.0325 15.4339 14.0325 16.5872 14.7412 17.2962L15.1914 17.7461L14.6013 18.3362L14.1514 17.8863C13.4408 17.1757 12.2908 17.1755 11.5803 17.8863L9.0191 20.4475C8.30878 21.1576 8.30856 22.3078 9.0191 23.0183L9.46907 23.4683L6.25601 26.6816C5.79487 27.1425 5.79487 27.8926 6.25601 28.3535C6.71714 28.8147 7.46643 28.8153 7.92823 28.3535L11.1413 25.1405L11.5913 25.5905C12.3003 26.2992 13.4533 26.2992 14.1623 25.5905L14.872 24.8806C15.0362 24.7164 15.0362 24.4503 14.872 24.2861C14.708 24.1219 14.4417 24.1219 14.2775 24.2861L13.5676 24.996C13.1866 25.377 12.5667 25.377 12.1857 24.996C11.4695 24.2797 10.0646 22.8749 9.61358 22.4238C9.23171 22.042 9.23171 21.4238 9.61358 21.0419L12.1748 18.4807C12.5567 18.0989 13.1748 18.0989 13.5567 18.4807L16.1288 21.0529C16.5098 21.4339 16.5098 22.0538 16.1288 22.4348L15.4818 23.0818C15.3176 23.246 15.3176 23.5123 15.4818 23.6763C15.6458 23.8407 15.912 23.8405 16.0763 23.6763L16.7235 23.0293C17.4321 22.3205 17.4321 21.1672 16.7235 20.4584L16.2733 20.0082L16.8634 19.4181L17.3134 19.8681C18.0239 20.5786 19.1739 20.5788 19.8845 19.8681L22.4457 17.3069C23.1545 16.5981 23.1545 15.4448 22.4457 14.736L21.9957 14.2861L22.5858 13.696L23.0358 14.1459C23.7461 14.8563 24.8961 14.8565 25.6066 14.1459L28.1678 11.5847C28.8784 10.8744 28.8786 9.72443 28.1678 9.0139V9.0139ZM7.33352 27.7591C7.20039 27.892 6.9834 27.892 6.85049 27.7591C6.71736 27.6257 6.71736 27.4092 6.85049 27.276L10.0635 24.0628L10.5466 24.5458L7.33352 27.7591ZM26.713 7.41328C27.0327 7.09359 27.5153 7.57728 27.1961 7.89653L27.1234 7.96923L26.6403 7.48619L26.713 7.41328ZM15.6788 19.4137L15.1958 18.9307L15.7859 18.3406L16.269 18.8236L15.6788 19.4137ZM21.8512 16.7124L19.2898 19.2736C18.9081 19.6555 18.29 19.6555 17.9079 19.2736H17.9081L15.336 16.7015C14.955 16.3205 14.955 15.7006 15.336 15.3196L17.8969 12.7584C18.2779 12.3776 18.898 12.3774 19.279 12.7584L21.1017 14.581C21.1023 14.5819 21.103 14.5826 21.1039 14.5832C21.1045 14.5839 21.1052 14.5847 21.1061 14.5854L21.8512 15.3305C22.232 15.7115 22.232 16.3314 21.8512 16.7124V16.7124ZM21.401 13.6914L20.918 13.2086L21.5081 12.6185L21.9911 13.1015L21.401 13.6914ZM27.5733 10.9903L25.0121 13.5515C24.6303 13.9333 24.0121 13.9333 23.6303 13.5515C22.2644 12.1856 22.4089 12.3299 21.0581 10.9793C20.6762 10.5974 20.6762 9.9793 21.0581 9.59743L23.6193 7.03623C24.0003 6.65523 24.6202 6.65523 25.0012 7.03623L25.7474 7.78245C25.7476 7.78289 25.7481 7.78311 25.7485 7.78355C25.7487 7.78398 25.7492 7.7842 25.7496 7.78464L27.5733 9.60838C27.9552 9.99025 27.9552 10.6082 27.5733 10.9903Z" fill="black"/>
</g>
<defs>
<clipPath id="clip0_512_20199">
<rect width="28.7" height="28.7" fill="white"/>
</clipPath>
</defs>
</svg>
