<svg width="54" height="60" viewBox="0 0 54 60" fill="none" xmlns="http://www.w3.org/2000/svg">
<path d="M4.10074 30.8849C5.56823 30.1299 7.12195 29.5112 8.72193 28.9937C9.40818 28.7725 10.1007 28.5637 10.8032 28.3837C10.3532 28.5037 10.4282 28.4824 10.8032 28.3837C16.8744 26.8187 23.5305 26.8187 29.603 28.3837C30.3105 28.5662 31.008 28.7762 31.6992 29C33.2967 29.5162 34.8479 30.1337 36.3129 30.8874C38.5792 32.0537 40.0254 34.3649 40.0254 36.9136V59.9997H0.380775V36.9186C0.380775 34.3661 1.83076 32.0499 4.10074 30.8849Z" fill="#F87670"/>
<path d="M13.5393 27.7746C16.4205 24.9184 15.448 21.1184 15.4255 21.0322C16.8393 22.0559 18.4693 22.6409 20.2043 22.6409C21.9442 22.6409 23.578 22.0534 24.993 21.0234C24.9917 21.0284 23.9655 24.8859 26.8779 27.7734C26.8779 30.0796 20.2043 30.2421 20.2043 30.2421C20.2043 30.2421 13.5306 30.0796 13.5306 27.7734H13.5393V27.7746Z" fill="#E49A61"/>
<path d="M15.4248 21.0244L15.4258 21.0314L15.4218 21.0284L15.4248 21.0244Z" fill="#E49A61"/>
<path d="M10.7056 7.83993C11.7294 1.57749 15.7993 0 20.2105 0C24.6242 0 28.7004 1.57375 29.7217 7.84369C26.0117 4.49872 14.4243 4.49746 10.7056 7.83993Z" fill="#F87670"/>
<path d="M10.0684 11.0674C10.1972 11.0549 10.3234 11.0761 10.4472 11.1149C10.4472 10.7399 10.4584 10.3811 10.4734 10.0299C10.5084 9.24365 10.5934 8.53366 10.7034 7.85992L15.0821 10.8824C17.0584 9.09241 23.3671 9.09241 25.3433 10.8824L29.7258 7.85742C29.8545 8.65116 29.9408 9.50741 29.9658 10.4574C29.9708 10.6736 29.9757 10.8911 29.9757 11.1136C30.0995 11.0761 30.2257 11.0549 30.3545 11.0674C31.2395 11.1561 31.8445 12.5036 31.7045 14.0761C31.5645 15.6486 30.732 16.8498 29.8457 16.7598C29.7357 16.7486 29.6282 16.7186 29.5282 16.6698C28.7558 19.7111 27.1233 22.246 25.002 23.7885C23.5871 24.8198 21.9533 25.4072 20.2121 25.4072C18.4733 25.4072 16.8421 24.821 15.4271 23.7948C13.3034 22.2523 11.6684 19.7136 10.8959 16.6698C10.7947 16.7186 10.6884 16.7486 10.5784 16.7598C9.69218 16.8486 8.85969 15.6473 8.71969 14.0761C8.57969 12.5049 9.18345 11.1561 10.0684 11.0674Z" fill="#F1BB6B"/>
<path d="M15.082 10.8824L10.7033 7.8599C10.7045 7.85365 10.7058 7.84615 10.707 7.8399C14.4257 4.49743 26.0119 4.49868 29.7243 7.84365C29.7243 7.8474 29.7256 7.8524 29.7256 7.8574L25.3431 10.8824C23.3682 9.09239 17.0582 9.09239 15.082 10.8824Z" fill="#DB5743"/>
<path d="M5.70897 40.0479H53.291V60.0002H5.70897V40.0479Z" fill="#FDDC85"/>
<path d="M5.70897 40.0467L13.5539 34.5918H45.4473L53.291 40.0467H5.70897Z" fill="#FFBD66"/>
<path d="M24.6775 34.5918H34.3212L36.6924 40.0467H22.3063L24.6775 34.5918Z" fill="#525C6B"/>
<path d="M36.6924 40.0479V50.1965L29.4987 47.699L22.3063 50.1965V40.0479H36.6924Z" fill="#7A8E9B"/>
<path d="M9.92164 54.4619H18.9766V56.3369H9.92164V54.4619Z" fill="#525C6B"/>
</svg>
