<svg width="65" height="65" viewBox="0 0 65 65" fill="none" xmlns="http://www.w3.org/2000/svg">
<path d="M48.6676 15.3372C48.4531 16.1377 48.1964 16.3505 47.3875 16.3505C44.2851 16.3505 41.1828 16.3623 38.0805 16.3403C37.6245 16.3403 37.4692 16.4248 37.4894 16.9162C37.5333 17.9683 37.5131 19.0255 37.4894 20.081C37.4894 20.3917 37.5604 20.5032 37.8981 20.542C47.607 21.6279 55.1948 28.8053 56.6978 38.4247C57.2044 41.6925 57.4983 44.9958 57.8799 48.2822C58.0741 49.9152 58.243 51.5517 58.4659 53.1797C58.753 55.2907 57.4121 56.8798 55.2809 56.8798C40.0446 56.8798 24.8083 56.8798 9.57198 56.8798C7.43903 56.8798 6.11164 55.2974 6.37341 53.1898C6.89018 49.0252 7.43904 44.8641 7.8359 40.6927C8.34254 35.368 10.1766 30.6681 13.9578 26.8227C17.5296 23.1867 21.8765 21.1061 26.9429 20.5454C27.2655 20.51 27.3702 20.4238 27.3634 20.0962C27.3449 19.0407 27.3313 17.9852 27.3634 16.9314C27.3803 16.4653 27.2672 16.3386 26.7859 16.342C23.5991 16.3673 20.4124 16.3555 17.2256 16.3555C13.9538 16.3555 10.6826 16.3555 7.41201 16.3555C3.62574 16.3505 0.923668 14.155 0.118113 10.411C0.106291 10.3586 0.0488722 10.3181 0.0117188 10.2708V8.87754C0.364677 8.3709 0.856116 8.23242 1.46577 8.23242C22.122 8.24593 42.7754 8.24987 63.4259 8.24424C64.5861 8.24424 64.9205 8.61071 64.8361 9.78611C64.5844 13.3326 61.6139 16.2339 58.0674 16.3319C55.98 16.3876 53.891 16.3471 51.802 16.3505C51.1264 16.3505 50.7549 15.9941 50.6502 15.3372C50.5506 14.7731 50.7904 14.3864 51.3494 14.2141C51.6362 14.1456 51.9316 14.1206 52.2259 14.1398C54.0548 14.1398 55.8821 14.1567 57.7111 14.1398C58.4816 14.148 59.243 13.9734 59.9329 13.6302C60.6228 13.287 61.2215 12.7851 61.6797 12.1656C61.9133 11.843 62.1099 11.4952 62.2657 11.1287C62.5174 10.5511 62.4667 10.4532 61.8604 10.4532C61.2541 10.4532 60.6462 10.4329 60.0382 10.4684C59.1364 10.4684 58.2346 10.4903 57.3361 10.4684C40.4617 10.5123 23.5856 10.4684 6.71116 10.4903C6.39536 10.4903 6.07956 10.4667 5.76375 10.4684C4.87882 10.4971 3.99221 10.4684 3.10728 10.4819C2.47905 10.4954 2.39798 10.6238 2.66144 11.2064C3.4957 13.0218 4.94975 13.9473 6.91889 14.1162C7.21274 14.1415 7.50996 14.1263 7.80381 14.1263H46.7069C47.0859 14.1031 47.4664 14.1207 47.8417 14.1787C48.4919 14.3239 48.7756 14.7292 48.6676 15.3372Z" fill="#E49A61"/>
<path d="M48.6675 15.3368C48.4446 14.4924 48.2064 14.3235 47.2641 14.3235C33.9451 14.3235 20.6307 14.3235 7.32075 14.3235C4.94292 14.3235 3.02614 12.9877 2.29152 10.8868C2.12264 10.4021 2.17161 10.2316 2.73567 10.2586C3.7253 10.3059 4.71831 10.2839 5.70964 10.289C5.95984 10.4015 6.19293 10.5488 6.40204 10.7264C7.4437 11.6082 8.76445 12.0917 10.1292 12.0909C12.1338 12.1044 14.1384 12.0909 16.143 12.0909H55.9648C56.4292 12.0909 56.8919 12.1196 57.3563 12.1061C58.2784 12.0842 59.2005 12.1061 60.1226 12.1061C60.6934 12.2176 61.2845 11.9373 61.8485 12.194C60.8927 13.5973 59.518 14.2729 57.8528 14.31C55.8786 14.3556 53.9028 14.3201 51.9269 14.3252C51.1247 14.3252 50.8663 14.5397 50.6586 15.3385L48.6675 15.3368Z" fill="#FFBD66"/>
<path d="M13.5504 30.5053C14.8609 28.5295 16.5683 26.9589 18.5273 25.6517C21.6579 23.5383 25.354 22.4198 29.1312 22.443C31.9346 22.443 34.7448 22.2742 37.5414 22.5427C41.4073 22.9057 45.0721 24.4329 48.0518 26.9226C51.0314 29.4122 53.1857 32.7472 54.2301 36.487C54.8043 38.5288 54.9411 40.6347 55.2045 42.7221C55.6115 45.9629 55.9746 49.2087 56.3529 52.4529C56.3597 52.5789 56.3597 52.7052 56.3529 52.8312C56.0726 53.0879 55.7213 53.0322 55.3886 53.0322C49.1266 53.0322 42.8645 53.0322 36.6025 53.0322C36.2647 53.0322 35.7462 53.1639 35.6601 52.7738C35.5824 52.4157 36.1516 52.4208 36.3947 52.2131C37.6124 51.6355 38.8925 51.1829 40.024 50.4297C43.647 48.0238 45.7467 44.6647 46.3232 40.3527C46.8298 36.5833 45.8469 33.1736 43.5738 30.1726C41.1791 27.0095 37.9569 25.1873 33.995 24.7466C29.4825 24.2399 25.6388 25.7041 22.4183 28.8385C21.0892 30.1321 20.1401 31.7094 19.4224 33.4202C19.267 33.79 19.1471 34.1734 18.9596 34.5297C18.1501 36.0327 17.645 37.6807 17.4735 39.3792C17.3019 41.0777 17.4671 42.7934 17.9597 44.4279C18.4523 46.0624 19.2626 47.5837 20.3441 48.9046C21.4257 50.2254 22.7572 51.3199 24.2624 52.1253C24.5681 52.2806 25.1423 52.4276 25.0325 52.7484C24.9025 53.1352 24.357 52.8869 24.0193 52.8396C21.472 52.4952 19.0727 51.4419 17.0952 49.7998C13.417 46.7786 11.6438 42.8285 11.7721 38.0914C11.8431 35.4603 12.3767 32.9001 13.5504 30.5053Z" fill="#FDDC85"/>
<path d="M13.551 30.5059C13.551 31.0311 13.2673 31.4668 13.1051 31.938C12.2895 34.3259 11.82 36.7797 11.9365 39.2977C12.0664 42.3901 13.2194 45.3518 15.2145 47.718C16.9404 49.8105 19.1189 51.2071 21.642 52.1089C22.7702 52.5076 23.9536 52.7281 25.1496 52.7625C23.6297 52.0245 22.3597 51.2054 21.2553 50.1178C19.9015 48.8194 18.8425 47.2453 18.15 45.5021C17.4574 43.7589 17.1474 41.8872 17.241 40.0138C17.3254 38.1189 17.8709 36.3406 18.6799 34.6366C18.7136 34.5657 18.7964 34.5184 18.8487 34.4593C19.0649 34.6687 18.9163 34.895 18.8673 35.1095C18.5701 36.4285 18.3607 37.7592 18.4181 39.1187C18.565 42.248 19.6002 45.0548 21.5761 47.4884C24.0941 50.5772 27.3957 52.217 31.3222 52.6257C32.886 52.7946 34.4346 52.5666 35.9613 52.2069C36.1758 52.1562 36.4021 52.0143 36.6148 52.2204C36.4206 52.5581 35.9765 52.499 35.6438 52.8283H56.3602C56.3957 53.0141 56.4396 53.1999 56.4649 53.3873C56.6051 54.4006 56.215 54.8549 55.1899 54.8549C48.9661 54.8549 42.7435 54.8549 36.522 54.8549H9.88124C8.58425 54.8549 8.28026 54.4732 8.43394 53.2049C8.89161 49.4406 9.36447 45.6763 9.75458 41.9035C10.1092 38.4837 10.6716 35.1382 12.4567 32.1254C12.7978 31.5664 13.1001 30.9905 13.551 30.5059Z" fill="#FFBD66"/>
<path d="M57.4192 12.2734C57.1879 12.2734 56.9565 12.2954 56.7251 12.2954C41.1623 12.2954 25.5995 12.292 10.0367 12.2852C8.32767 12.2852 6.83816 11.6452 5.7168 10.2891C5.88568 10.2891 6.05456 10.2705 6.22344 10.2705H56.9058C57.0747 10.2705 57.2436 10.284 57.4125 10.2925C57.4209 10.4326 57.3145 10.5086 57.2436 10.6032C56.818 11.1318 56.818 11.4476 57.2436 11.9627C57.3162 12.0589 57.4209 12.1282 57.4192 12.2734Z" fill="#FDDC85"/>
<path d="M35.4561 17.3637V19.3903C35.2383 19.6081 34.9495 19.5929 34.6827 19.5946C33.1841 19.6014 31.6867 19.6014 30.1905 19.5946C29.9186 19.5946 29.6348 19.6081 29.417 19.3903V17.3637C29.6348 17.1459 29.9236 17.1611 30.1905 17.1594C31.689 17.1526 33.1864 17.1526 34.6827 17.1594C34.9546 17.1644 35.2383 17.1492 35.4561 17.3637Z" fill="#E5E5E5"/>
<path d="M57.4189 12.2742C56.5171 11.6291 56.5137 10.9552 57.4105 10.2949H60.1531C60.7425 10.4891 60.9806 10.7847 60.9553 11.3234C60.9299 11.8621 60.6868 12.1931 60.1413 12.2776L57.4189 12.2742Z" fill="#FEFEFE"/>
<path d="M35.4563 17.3639H29.4172C29.3649 16.3506 29.3649 16.3506 30.3477 16.3506H34.5258C35.5087 16.3506 35.5087 16.3506 35.4563 17.3639Z" fill="#CDCDCD"/>
<path d="M29.4172 19.3906H35.4563C35.5087 20.4039 35.5087 20.4039 34.5258 20.4039H30.3477C29.3649 20.4039 29.3649 20.4039 29.4172 19.3906Z" fill="#CDCDCD"/>
<path d="M60.1406 12.2753C61.0458 11.6285 61.0492 10.9547 60.1524 10.2926C60.882 10.2926 61.6099 10.2926 62.3394 10.2656C62.64 10.2656 62.7583 10.3163 62.64 10.6473C62.4408 11.1961 62.2601 11.7467 61.8548 12.1875C61.2916 12.3069 60.7131 12.3365 60.1406 12.2753Z" fill="#FBAA67"/>
<path d="M36.6215 52.2192C32.9382 53.2527 29.3681 53.0011 25.9432 51.2498C23.0591 49.7664 20.7712 47.3387 19.4612 44.3718C18.1513 41.4049 17.8987 38.0785 18.7456 34.9479C18.7895 34.779 18.8199 34.6219 18.8553 34.4581C19.9683 31.1683 21.9222 28.522 24.8708 26.6508C33.6627 21.0694 45.3576 26.6728 46.5178 37.0217C46.8913 40.2347 46.1544 43.4788 44.4294 46.2152C42.7044 48.9515 40.0952 51.0153 37.0352 52.0638C36.895 52.1111 36.7582 52.1668 36.6215 52.2192Z" fill="#E49A61"/>
<path d="M22.5573 34.0826C23.1382 34.1063 23.5925 33.9138 23.7563 33.3092C23.9556 32.5813 23.4067 32.2756 22.9305 31.9379C22.7042 31.4042 23.1788 31.0935 23.3206 30.6662C23.8391 29.962 24.518 29.4266 25.1901 28.8845C25.4434 28.6819 25.5819 28.7393 25.7136 29.0095C25.8118 29.2196 25.9342 29.4174 26.0784 29.5989C26.4364 30.0295 26.8975 30.1359 27.3754 29.8421C27.8533 29.5482 28.0121 29.1159 27.7773 28.589C27.6422 28.2816 27.4649 27.9928 27.2893 27.6635C28.4799 27.0765 29.7653 26.706 31.0857 26.5692C31.3998 26.532 31.442 26.6503 31.4235 26.907C31.4074 27.1172 31.4074 27.3283 31.4235 27.5386C31.4353 27.7941 31.5434 28.0358 31.726 28.2149C31.9086 28.3941 32.1523 28.4976 32.408 28.5046C32.9603 28.5164 33.3841 28.1111 33.4399 27.5183C33.5378 26.4864 33.5361 26.505 34.622 26.6942C35.4477 26.8595 36.2582 27.0928 37.0454 27.3916C37.4828 27.547 37.6821 27.7294 37.3258 28.1583C37.226 28.2942 37.1464 28.4438 37.0894 28.6025C36.9843 28.814 36.9643 29.0577 37.0334 29.2836C37.1025 29.5094 37.2555 29.7002 37.4609 29.8167C37.9287 30.1325 38.3779 30.0414 38.7697 29.6479C38.7984 29.6175 38.8221 29.5837 38.8508 29.5516C39.0636 29.3034 39.1007 28.7984 39.4216 28.7916C39.7779 28.7916 40.0481 29.1801 40.3352 29.4216C40.9566 29.9613 41.528 30.5559 42.0426 31.1982C42.3364 31.5562 42.4378 31.818 41.9041 32.0189C41.7476 32.0833 41.6027 32.1729 41.4752 32.2841C41.0496 32.6438 40.928 33.0981 41.2201 33.5794C41.3321 33.7999 41.5262 33.9675 41.7606 34.0462C41.995 34.1248 42.251 34.1082 42.4732 33.9999C42.5121 33.9847 42.5526 33.9712 42.5898 33.9526C43.4966 33.5287 43.495 33.5287 43.8547 34.515C44.1713 35.3883 44.3877 36.2948 44.4998 37.217C44.5403 37.5464 44.4829 37.6865 44.1316 37.6443C43.9424 37.6257 43.7518 37.6257 43.5625 37.6443C42.9681 37.6916 42.5644 38.1155 42.5763 38.6694C42.5847 39.198 42.9782 39.5797 43.5338 39.6692C43.8614 39.7215 44.3343 39.4496 44.4863 39.8228C44.6028 40.1116 44.4306 40.5203 44.3714 40.8733C44.2044 41.8932 43.8832 42.8817 43.419 43.805C43.1116 43.6361 42.8431 43.4673 42.5577 43.3355C42.3328 43.214 42.0697 43.1835 41.8229 43.2504C41.5762 43.3174 41.3646 43.4767 41.232 43.6953C40.9483 44.1546 41.0631 44.6849 41.5072 45.0463C41.769 45.254 42.2824 45.3216 42.2959 45.6019C42.3179 46.0106 41.8771 46.2977 41.6103 46.6152C41.0592 47.2555 40.4403 47.8342 39.7644 48.3411C39.4959 48.5505 39.3017 48.6012 39.148 48.2381C39.1101 48.1631 39.0678 48.0903 39.0213 48.0203C38.7427 47.5136 38.3745 47.1759 37.748 47.3447C37.1924 47.5018 36.9847 47.8987 37.037 48.6451C36.9103 48.9288 36.6452 48.9373 36.3936 48.9457C32.9315 49.0757 29.8073 48.1283 27.1305 45.9059C23.7175 43.067 22.1621 39.3669 22.2634 34.949C22.2685 34.6281 22.2516 34.3005 22.5573 34.0826Z" fill="white"/>
<path d="M22.557 34.0829C22.248 35.7497 22.4641 37.3879 22.8745 39.0041C23.4128 41.1601 24.5157 43.1338 26.0697 44.7223C28.2314 46.938 30.8642 48.2941 33.975 48.6589C34.9984 48.7788 36.0167 48.9021 37.0351 48.642C37.638 49.6823 37.638 49.6823 36.5132 50.0842C35.6581 50.3869 34.7724 50.5947 33.8719 50.704C33.5342 50.7445 33.4025 50.6821 33.443 50.3308C33.4607 50.1415 33.4607 49.951 33.443 49.7617C33.435 49.495 33.3222 49.2422 33.129 49.0582C32.9359 48.8742 32.6779 48.7738 32.4111 48.7788C31.8809 48.7923 31.5076 49.1858 31.4164 49.7448C31.3641 50.069 31.6478 50.5301 31.2476 50.6922C30.9774 50.802 30.5906 50.6398 30.2579 50.5875C29.3468 50.4244 28.4577 50.1563 27.6082 49.7887C27.3245 49.6722 27.2704 49.5438 27.4545 49.2821C27.5754 49.1097 27.6778 48.9252 27.7602 48.7315C27.8741 48.5035 27.8979 48.241 27.8268 47.9962C27.7558 47.7514 27.5951 47.5424 27.3768 47.4109C26.9124 47.1373 26.3889 47.2589 26.0258 47.7149C25.8215 47.9732 25.7742 48.4664 25.4584 48.4883C25.097 48.512 24.8318 48.1083 24.5447 47.8685C23.8759 47.2939 23.2665 46.6535 22.7259 45.9568C22.4945 45.663 22.5249 45.5008 22.8593 45.3455C23.0716 45.251 23.2686 45.1252 23.4436 44.9722C23.8337 44.6193 23.9385 44.1768 23.6581 43.7192C23.3778 43.2615 22.9438 43.0825 22.4067 43.2919C22.3679 43.3071 22.3273 43.3223 22.2902 43.3409C21.3816 43.7665 21.3816 43.7664 21.0219 42.7802C20.7029 41.9075 20.4864 41.0008 20.3768 40.0781C20.3379 39.7522 20.392 39.6053 20.7466 39.6475C20.9359 39.6652 21.1265 39.6652 21.3158 39.6475C21.5827 39.64 21.8359 39.5273 22.0203 39.3341C22.2047 39.1409 22.3053 38.8827 22.3003 38.6156C22.2885 38.087 21.8933 37.7121 21.336 37.6209C21.0101 37.5686 20.549 37.8523 20.3869 37.452C20.2771 37.1818 20.4393 36.7951 20.4933 36.4624C20.6523 35.5945 20.9013 34.7455 21.2364 33.9292C21.3884 33.534 21.5573 33.4648 21.8984 33.7147C22.1096 33.8519 22.3296 33.9749 22.557 34.0829Z" fill="#E3E3E3"/>
<path d="M23.3201 30.6699L22.93 31.9416C22.5601 31.8605 22.4098 31.695 22.7087 31.3589L23.3201 30.6699Z" fill="#79B0C2"/>
<path d="M33.4497 33.4888C33.4497 34.0579 33.47 34.6287 33.4497 35.1962C33.4312 35.5863 33.5223 35.8109 33.9141 36.0186C34.5617 36.3641 35.0582 36.9374 35.3077 37.6277C35.5573 38.3179 35.5421 39.0762 35.2652 39.7559C34.9953 40.4267 34.4951 40.9793 33.8544 41.3145C33.2137 41.6497 32.4746 41.7456 31.7696 41.5849C31.0646 41.4242 30.44 41.0175 30.0078 40.4378C29.5757 39.858 29.3644 39.1433 29.4118 38.4218C29.4401 37.9027 29.6076 37.4008 29.8968 36.9687C30.1859 36.5367 30.586 36.1904 31.055 35.9662C31.1786 35.9214 31.2834 35.8361 31.3524 35.7242C31.4214 35.6123 31.4505 35.4804 31.435 35.3498C31.4147 34.1491 31.4215 32.9484 31.435 31.7476C31.435 30.9978 31.8184 30.5486 32.4331 30.5402C33.0478 30.5317 33.4464 30.9809 33.4582 31.7223C33.4565 32.31 33.4497 32.9011 33.4497 33.4888Z" fill="#525C6B"/>
<path d="M33.4461 38.6171C33.4515 38.8186 33.3967 39.0171 33.2886 39.1872C33.1806 39.3574 33.0243 39.4914 32.8397 39.5723C32.6551 39.6532 32.4505 39.6771 32.2522 39.6411C32.0539 39.6051 31.8709 39.5108 31.7265 39.3702C31.582 39.2297 31.4828 39.0492 31.4415 38.852C31.4001 38.6547 31.4186 38.4496 31.4944 38.2629C31.5702 38.0761 31.7 37.9163 31.8672 37.8037C32.0344 37.6911 32.2313 37.6309 32.4328 37.6309C32.6962 37.6333 32.9485 37.7372 33.1372 37.9209C33.3259 38.1045 33.4366 38.3539 33.4461 38.6171Z" fill="#7A8E9B"/>
</svg>
