<svg width="60" height="60" viewBox="0 0 60 60" fill="none" xmlns="http://www.w3.org/2000/svg">
<path d="M35.1773 24.0657L17.9924 16.6582L0.808594 24.0657V41.7632L17.9924 49.1694V49.1669L17.9936 49.1694L35.1799 41.7632V24.0657H35.1773Z" fill="#FDDC85"/>
<path d="M35.9788 24.0307C35.975 23.9257 35.9475 23.8282 35.9038 23.7357C35.8913 23.7094 35.8812 23.6832 35.8675 23.6569C35.8125 23.5644 35.7388 23.4832 35.65 23.4207C35.6388 23.4119 35.6338 23.3982 35.6238 23.3919C35.61 23.3819 35.5925 23.3844 35.5775 23.3744C35.55 23.3594 35.5263 23.3382 35.4963 23.3257L18.3113 15.9182C18.1075 15.8307 17.8763 15.8307 17.6725 15.9182L0.489998 23.3257C0.458748 23.3382 0.432498 23.3607 0.403748 23.3782C0.391248 23.3857 0.377528 23.3844 0.365028 23.3919C0.356278 23.3982 0.352531 23.4094 0.343781 23.4169C0.248781 23.4844 0.170034 23.5682 0.112534 23.6669C0.102534 23.6844 0.0962592 23.7007 0.0875092 23.7194C0.0362592 23.8269 0 23.9432 0 24.0657V41.7632C0 42.0857 0.191277 42.3757 0.488777 42.5044L17.6713 49.9132C17.775 49.9582 17.8838 49.9794 17.9925 49.9794H17.9938C18.1013 49.9794 18.2113 49.9582 18.3125 49.9132L35.5 42.5044C35.7963 42.3757 35.9888 42.0857 35.9888 41.7632V24.0657C35.9875 24.0532 35.98 24.0432 35.9788 24.0307ZM1.61625 25.2932L8.41625 28.2257V44.1632L1.61625 41.2307V25.2932ZM17.1838 47.9432L10.0325 44.8607V28.9207L17.1838 32.0044V47.9432ZM17.9925 30.5932L2.84878 24.0644L17.9925 17.5369L33.1363 24.0644L17.9925 30.5932ZM34.3725 41.2307L18.8013 47.9432V32.0044L34.3725 25.2932V41.2307Z" fill="#E49A61"/>
<path d="M59.1881 34.0877L59.1893 34.0865L42.0031 26.6777L24.8193 34.0865V51.7827L42.0031 59.1902V59.1865L42.0043 59.1902L59.1918 51.7827V34.0865L59.1881 34.0877Z" fill="#FDDC85"/>
<path d="M59.9907 34.0527C59.9857 33.9465 59.9582 33.849 59.9157 33.7565C59.9032 33.7302 59.8932 33.7052 59.8795 33.679C59.8245 33.5852 59.7495 33.504 59.6607 33.4402C59.6495 33.4327 59.6457 33.419 59.6345 33.4127C59.6207 33.404 59.6045 33.4052 59.5895 33.3977C59.562 33.3802 59.5383 33.3602 59.5083 33.3465L42.322 25.9377C42.1182 25.8515 41.8882 25.8515 41.682 25.9377L24.4982 33.3465C24.467 33.3615 24.4407 33.3827 24.412 33.4002C24.4007 33.4077 24.3857 33.4052 24.3757 33.4127C24.367 33.4202 24.3632 33.4302 24.3545 33.4365C24.2595 33.504 24.1807 33.589 24.1232 33.689C24.1132 33.7065 24.107 33.7227 24.0983 33.7402C24.0458 33.8477 24.0107 33.964 24.0107 34.0877V51.784C24.0107 52.1065 24.202 52.3965 24.4982 52.524L41.682 59.934C41.7857 59.9777 41.8945 60.0002 42.0033 60.0002C42.112 60.0002 42.2207 59.9777 42.3232 59.934L59.5107 52.524C59.807 52.3965 59.9995 52.1065 59.9995 51.784V34.0865C59.9995 34.074 59.9907 34.064 59.9907 34.0527ZM42.0045 27.5577L57.1483 34.0865L42.0045 40.614L26.8595 34.0865L42.0045 27.5577ZM25.6283 51.2502V36.694L39.7657 57.3452L25.6283 51.2502ZM41.1957 56.5777L27.0607 35.9315L41.1957 42.024V56.5777ZM58.3832 51.2502L42.812 57.9615V42.024L58.3832 35.314V51.2502Z" fill="#E49A61"/>
<path d="M56.0086 8.21566L56.0136 8.21442L38.8286 0.805664L21.6436 8.21442V25.9107L38.8286 33.3182V33.3144L38.8298 33.3182L56.0161 25.9107V8.21442L56.0086 8.21566Z" fill="#FDDC85"/>
<path d="M56.8175 8.19095C56.8137 8.07845 56.7837 7.97469 56.7387 7.87719C56.7275 7.85344 56.7187 7.83095 56.7062 7.80845C56.6512 7.7122 56.5762 7.63095 56.4837 7.56595C56.4737 7.55845 56.47 7.54593 56.4587 7.53968C56.4462 7.53218 56.4312 7.53219 56.4175 7.52469C56.3887 7.50719 56.3637 7.48594 56.3337 7.47344L39.1475 0.0646875C38.9437 -0.0215625 38.7137 -0.0215625 38.5087 0.0646875L21.3237 7.47344C21.2912 7.48719 21.265 7.50969 21.2362 7.52719C21.225 7.53469 21.21 7.53218 21.2 7.53968C21.1912 7.54593 21.1875 7.5572 21.18 7.56345C21.0837 7.63095 21.005 7.71594 20.9475 7.81594C20.9375 7.83344 20.9312 7.84844 20.9225 7.86719C20.8712 7.97469 20.835 8.09094 20.835 8.21469V25.9097C20.835 26.2334 21.0262 26.5234 21.3237 26.6509L38.5087 34.0609C38.6112 34.1047 38.72 34.1272 38.8287 34.1272C38.83 34.1272 38.83 34.1272 38.83 34.1272C38.9375 34.1272 39.0475 34.1047 39.1487 34.0609L56.335 26.6509C56.6312 26.5234 56.825 26.2334 56.825 25.9097V8.21469C56.8237 8.20594 56.8175 8.1997 56.8175 8.19095ZM38.8287 1.68469L45.2062 4.43343L30.0625 10.9634L23.6837 8.21469L38.8287 1.68469ZM38.02 32.0897L22.4512 25.3784V9.44219L38.02 16.1522V32.0897ZM38.8287 14.7409L32.1012 11.8422L47.245 5.31218L53.9737 8.21343L38.8287 14.7409ZM55.2075 25.3784L39.6375 32.0897V16.1522L55.2075 9.44219V25.3784Z" fill="#E49A61"/>
</svg>
