<svg width="46" height="32" viewBox="0 0 46 32" fill="none" xmlns="http://www.w3.org/2000/svg">
<path d="M10.002 11.5835C8.59395 11.5835 7.25495 11.8785 6.03995 12.4055C7.73695 8.62251 10.361 5.42151 13.415 3.75951C14.385 3.23151 14.744 2.01751 14.216 1.04651C13.688 0.0765134 12.474 -0.282487 11.503 0.245513C4.83895 3.87151 0.00195312 12.8455 0.00195312 21.5835C0.00195312 27.0975 4.48795 31.5835 10.002 31.5835C15.516 31.5835 20.002 27.0975 20.002 21.5835C20.002 16.0695 15.517 11.5835 10.002 11.5835Z" fill="#E2E2E2"/>
<path d="M35.0029 11.5838C33.5959 11.5838 32.2569 11.8788 31.0399 12.4068C32.7369 8.62284 35.3609 5.42184 38.4159 3.75984C39.3859 3.23184 39.7449 2.01785 39.2169 1.04685C38.6899 0.0778452 37.4759 -0.281155 36.5039 0.245845C29.8399 3.87184 25.0029 12.8458 25.0029 21.5838C25.0029 27.0978 29.4889 31.5838 35.0029 31.5838C40.5169 31.5838 45.0029 27.0978 45.0029 21.5838C45.0029 16.0698 40.5169 11.5838 35.0029 11.5838Z" fill="#E2E2E2"/>
</svg>
