<svg width="16" height="16" viewBox="0 0 16 16" fill="none" xmlns="http://www.w3.org/2000/svg">
    <g clip-path="url(#clip0_381_21785)">
        <path d="M15.4 5.00394C15.3656 4.23109 15.2392 3.69975 15.0582 3.23935C14.8715 2.75064 14.5842 2.3131 14.2078 1.94937C13.8401 1.57998 13.3948 1.29295 12.9064 1.11114C12.4382 0.932102 11.9038 0.807122 11.1225 0.773047C10.3353 0.736086 10.0853 0.727539 8.08875 0.727539C6.09215 0.727539 5.84224 0.736086 5.05794 0.770161C4.27656 0.804236 3.73937 0.929327 3.274 1.10825C2.77979 1.29295 2.33742 1.57709 1.96968 1.94937C1.59622 2.3131 1.30613 2.75353 1.1222 3.23657C0.941194 3.69975 0.814836 4.2282 0.780385 5.00106C0.743016 5.77968 0.734375 6.02687 0.734375 8.00169C0.734375 9.9765 0.743016 10.2237 0.777467 10.9994C0.811918 11.7723 0.938389 12.3036 1.1194 12.764C1.30613 13.2527 1.59622 13.6903 1.96968 14.054C2.33742 14.4234 2.78271 14.7104 3.27108 14.8922C3.73937 15.0713 4.27364 15.1963 5.05514 15.2303C5.83932 15.2645 6.08934 15.2729 8.08594 15.2729C10.0825 15.2729 10.3324 15.2645 11.1167 15.2303C11.8981 15.1963 12.4353 15.0713 12.9007 14.8922C13.889 14.5143 14.6704 13.7414 15.0525 12.764C15.2334 12.3008 15.3599 11.7723 15.3943 10.9994C15.4288 10.2237 15.4374 9.9765 15.4374 8.00169C15.4374 6.02687 15.4345 5.77968 15.4 5.00394ZM14.0757 10.9426C14.0441 11.653 13.9235 12.0366 13.8229 12.2923C13.5758 12.926 13.0673 13.4289 12.4267 13.6733C12.1681 13.7727 11.7775 13.8921 11.0621 13.9233C10.2864 13.9574 10.0538 13.9659 8.09166 13.9659C6.12952 13.9659 5.89397 13.9574 5.12112 13.9233C4.40292 13.8921 4.01509 13.7727 3.75654 13.6733C3.43773 13.5567 3.14753 13.3721 2.91198 13.1305C2.66779 12.8947 2.48106 12.6105 2.36323 12.2952C2.26268 12.0395 2.14205 11.653 2.11051 10.9455C2.07595 10.1783 2.06742 9.94809 2.06742 8.00735C2.06742 6.06661 2.07595 5.83363 2.11051 5.06932C2.14205 4.35895 2.26268 3.97535 2.36323 3.71962C2.48106 3.40418 2.66779 3.11725 2.9149 2.88417C3.15325 2.64264 3.44053 2.45795 3.75946 2.34151C4.01801 2.24206 4.40876 2.12274 5.12404 2.09144C5.89969 2.05737 6.13244 2.04882 8.09447 2.04882C10.0595 2.04882 10.2922 2.05737 11.065 2.09144C11.7832 2.12274 12.171 2.24206 12.4296 2.34151C12.7484 2.45795 13.0386 2.64264 13.2742 2.88417C13.5183 3.12003 13.7051 3.40418 13.8229 3.71962C13.9235 3.97535 14.0441 4.36173 14.0757 5.06932C14.1102 5.83651 14.1188 6.06661 14.1188 8.00735C14.1188 9.94809 14.1102 10.1754 14.0757 10.9426Z"
              fill="#000"/>
        <path d="M8.08633 4.26465C6.00074 4.26465 4.30859 5.93823 4.30859 8.00117C4.30859 10.0641 6.00074 11.7377 8.08633 11.7377C10.172 11.7377 11.8641 10.0641 11.8641 8.00117C11.8641 5.93823 10.172 4.26465 8.08633 4.26465ZM8.08633 10.425C6.73331 10.425 5.63581 9.33955 5.63581 8.00117C5.63581 6.6628 6.73331 5.57738 8.08633 5.57738C9.43946 5.57738 10.5369 6.6628 10.5369 8.00117C10.5369 9.33955 9.43946 10.425 8.08633 10.425Z"
              fill="#000"/>
        <path d="M12.8968 4.11743C12.8968 4.59914 12.5019 4.98973 12.0147 4.98973C11.5277 4.98973 11.1328 4.59914 11.1328 4.11743C11.1328 3.6356 11.5277 3.24512 12.0147 3.24512C12.5019 3.24512 12.8968 3.6356 12.8968 4.11743Z"
              fill="#000"/>
    </g>
    <defs>
        <clipPath id="clip0_381_21785">
            <rect width="14.7059" height="14.5455" fill="white" transform="translate(0.707031 0.727539)"/>
        </clipPath>
    </defs>
</svg>
