<svg width="17" height="16" viewBox="0 0 17 16" fill="none" xmlns="http://www.w3.org/2000/svg">
    <g clip-path="url(#clip0_381_21789)">
        <path d="M16.3368 1.58936C16.1393 1.35034 15.8433 1.21875 15.5034 1.21875C15.3187 1.21875 15.1229 1.2572 14.9218 1.33325L1.22868 6.5033C0.502004 6.77759 0.404134 7.18921 0.410428 7.41016C0.416723 7.6311 0.538041 8.03662 1.27928 8.2699C1.28372 8.27124 1.28817 8.27258 1.29261 8.2738L4.13292 9.07776L5.66896 13.4222C5.8784 14.0145 6.3485 14.3824 6.89597 14.3824C7.24117 14.3824 7.58069 14.2394 7.87787 13.9689L9.63471 12.3689L12.1829 14.3983C12.1831 14.3986 12.1835 14.3987 12.1838 14.3989L12.2079 14.4182C12.2102 14.4199 12.2125 14.4218 12.2147 14.4235C12.498 14.6407 12.8071 14.7555 13.1091 14.7556H13.1093C13.6993 14.7556 14.1692 14.3236 14.306 13.6552L16.5496 2.69763C16.6397 2.25781 16.5642 1.86426 16.3368 1.58936ZM5.08311 8.92505L10.5629 6.15613L7.15083 9.74219C7.09492 9.8009 7.0553 9.8728 7.0358 9.95105L6.37787 12.587L5.08311 8.92505ZM7.23574 13.2792C7.21303 13.2998 7.1902 13.3182 7.16736 13.3352L7.77778 10.8899L8.88816 11.7743L7.23574 13.2792ZM15.6207 2.51147L13.3771 13.4691C13.3555 13.574 13.2865 13.818 13.1091 13.818C13.0215 13.818 12.9114 13.7708 12.7987 13.6849L9.91129 11.3854C9.91092 11.385 9.91042 11.3846 9.90993 11.3844L8.19185 10.016L13.1262 4.83008C13.2841 4.66406 13.2985 4.40979 13.1601 4.22742C13.0216 4.04504 12.7707 3.98767 12.5655 4.09143L4.44985 8.19226L1.57091 7.37756L15.2598 2.20911C15.3754 2.16541 15.4561 2.15625 15.5034 2.15625C15.5324 2.15625 15.584 2.15967 15.6031 2.18298C15.6283 2.21338 15.6604 2.31702 15.6207 2.51147Z"
              fill="#000"/>
    </g>
    <defs>
        <clipPath id="clip0_381_21789">
            <rect width="16.1765" height="16" fill="white" transform="translate(0.410156)"/>
        </clipPath>
    </defs>
</svg>
