<svg width="14" height="14" viewBox="0 0 14 14" fill="none" xmlns="http://www.w3.org/2000/svg">
<path d="M10.5109 11.3307C9.37344 12.2494 7.94062 12.6869 6.48594 12.5447C5.3375 12.4354 4.26562 11.9869 3.40156 11.2541H4.8125V10.3791H1.96875V13.2229H2.84375V11.9213C3.83906 12.7635 5.075 13.2885 6.40937 13.4088C6.61719 13.4307 6.81406 13.4416 7.01094 13.4416C8.4875 13.4416 9.90937 12.9385 11.0578 11.9979C13.1469 10.3135 13.9672 7.56816 13.1469 5.00879L12.3156 5.27129C13.0156 7.50254 12.3156 9.87598 10.5109 11.3307Z" fill="#DCAD33"/>
<path d="M11.2664 2.15447C8.9477 0.109158 5.41489 -0.033029 2.94301 1.97947C0.864886 3.66385 0.0445731 6.38728 0.843011 8.93572L1.67426 8.67322C0.985198 6.47478 1.69614 4.11228 3.48989 2.66853C5.64457 0.918533 8.71801 1.04978 10.7196 2.84353H9.2977V3.71853H12.1414V0.874783H11.2664V2.15447Z" fill="#DCAD33"/>
</svg>
